%TF.GenerationSoftware,KiCad,Pcbnew,7.0.1*%
%TF.CreationDate,2023-04-28T23:06:09+02:00*%
%TF.ProjectId,test_ADC_and_CurrentSensors,74657374-5f41-4444-935f-616e645f4375,rev?*%
%TF.SameCoordinates,Original*%
%TF.FileFunction,Copper,L2,Bot*%
%TF.FilePolarity,Positive*%
%FSLAX46Y46*%
G04 Gerber Fmt 4.6, Leading zero omitted, Abs format (unit mm)*
G04 Created by KiCad (PCBNEW 7.0.1) date 2023-04-28 23:06:09*
%MOMM*%
%LPD*%
G01*
G04 APERTURE LIST*
G04 Aperture macros list*
%AMRoundRect*
0 Rectangle with rounded corners*
0 $1 Rounding radius*
0 $2 $3 $4 $5 $6 $7 $8 $9 X,Y pos of 4 corners*
0 Add a 4 corners polygon primitive as box body*
4,1,4,$2,$3,$4,$5,$6,$7,$8,$9,$2,$3,0*
0 Add four circle primitives for the rounded corners*
1,1,$1+$1,$2,$3*
1,1,$1+$1,$4,$5*
1,1,$1+$1,$6,$7*
1,1,$1+$1,$8,$9*
0 Add four rect primitives between the rounded corners*
20,1,$1+$1,$2,$3,$4,$5,0*
20,1,$1+$1,$4,$5,$6,$7,0*
20,1,$1+$1,$6,$7,$8,$9,0*
20,1,$1+$1,$8,$9,$2,$3,0*%
G04 Aperture macros list end*
%TA.AperFunction,ComponentPad*%
%ADD10R,1.700000X1.700000*%
%TD*%
%TA.AperFunction,ComponentPad*%
%ADD11O,1.700000X1.700000*%
%TD*%
%TA.AperFunction,ComponentPad*%
%ADD12C,1.400000*%
%TD*%
%TA.AperFunction,ComponentPad*%
%ADD13O,1.400000X1.400000*%
%TD*%
%TA.AperFunction,SMDPad,CuDef*%
%ADD14RoundRect,0.125000X-0.125000X0.625000X-0.125000X-0.625000X0.125000X-0.625000X0.125000X0.625000X0*%
%TD*%
%TA.AperFunction,SMDPad,CuDef*%
%ADD15RoundRect,0.125000X-0.625000X0.125000X-0.625000X-0.125000X0.625000X-0.125000X0.625000X0.125000X0*%
%TD*%
%TA.AperFunction,SMDPad,CuDef*%
%ADD16RoundRect,0.250000X-0.312500X-0.625000X0.312500X-0.625000X0.312500X0.625000X-0.312500X0.625000X0*%
%TD*%
%TA.AperFunction,SMDPad,CuDef*%
%ADD17RoundRect,0.250000X0.625000X-0.312500X0.625000X0.312500X-0.625000X0.312500X-0.625000X-0.312500X0*%
%TD*%
%TA.AperFunction,SMDPad,CuDef*%
%ADD18RoundRect,0.250000X-0.337500X-0.475000X0.337500X-0.475000X0.337500X0.475000X-0.337500X0.475000X0*%
%TD*%
%TA.AperFunction,SMDPad,CuDef*%
%ADD19RoundRect,0.250000X-0.475000X0.337500X-0.475000X-0.337500X0.475000X-0.337500X0.475000X0.337500X0*%
%TD*%
%TA.AperFunction,SMDPad,CuDef*%
%ADD20RoundRect,0.150000X0.825000X0.150000X-0.825000X0.150000X-0.825000X-0.150000X0.825000X-0.150000X0*%
%TD*%
%TA.AperFunction,SMDPad,CuDef*%
%ADD21RoundRect,0.250000X0.312500X0.625000X-0.312500X0.625000X-0.312500X-0.625000X0.312500X-0.625000X0*%
%TD*%
%TA.AperFunction,SMDPad,CuDef*%
%ADD22R,0.650000X0.400000*%
%TD*%
%TA.AperFunction,SMDPad,CuDef*%
%ADD23RoundRect,0.250000X0.475000X-0.337500X0.475000X0.337500X-0.475000X0.337500X-0.475000X-0.337500X0*%
%TD*%
%TA.AperFunction,SMDPad,CuDef*%
%ADD24RoundRect,0.150000X-0.650000X-0.150000X0.650000X-0.150000X0.650000X0.150000X-0.650000X0.150000X0*%
%TD*%
%TA.AperFunction,SMDPad,CuDef*%
%ADD25R,1.500000X2.000000*%
%TD*%
%TA.AperFunction,SMDPad,CuDef*%
%ADD26R,3.800000X2.000000*%
%TD*%
%TA.AperFunction,ViaPad*%
%ADD27C,0.800000*%
%TD*%
%TA.AperFunction,ViaPad*%
%ADD28C,1.000000*%
%TD*%
%TA.AperFunction,Conductor*%
%ADD29C,0.600000*%
%TD*%
%TA.AperFunction,Conductor*%
%ADD30C,0.400000*%
%TD*%
%TA.AperFunction,Conductor*%
%ADD31C,0.800000*%
%TD*%
%TA.AperFunction,Conductor*%
%ADD32C,1.000000*%
%TD*%
G04 APERTURE END LIST*
D10*
%TO.P,J8,1,Pin_1*%
%TO.N,/servo/SERVO_PWM_3*%
X74930000Y-72390000D03*
D11*
%TO.P,J8,2,Pin_2*%
%TO.N,Vdrive*%
X74930000Y-74930000D03*
%TO.P,J8,3,Pin_3*%
%TO.N,GND*%
X74930000Y-77470000D03*
%TD*%
D10*
%TO.P,J4,1,Pin_1*%
%TO.N,SPI_CS_1*%
X55880000Y-55118000D03*
D11*
%TO.P,J4,2,Pin_2*%
%TO.N,SPI_CS_0*%
X55880000Y-52578000D03*
%TO.P,J4,3,Pin_3*%
%TO.N,SPI_MOSI*%
X55880000Y-50038000D03*
%TO.P,J4,4,Pin_4*%
%TO.N,SPI_MISO*%
X55880000Y-47498000D03*
%TO.P,J4,5,Pin_5*%
%TO.N,SPI_SCK*%
X55880000Y-44958000D03*
%TO.P,J4,6,Pin_6*%
%TO.N,GND*%
X55880000Y-42418000D03*
%TD*%
D10*
%TO.P,J6,1,Pin_1*%
%TO.N,/servo/SERVO_PWM_1*%
X67818000Y-72390000D03*
D11*
%TO.P,J6,2,Pin_2*%
%TO.N,Vdrive*%
X67818000Y-74930000D03*
%TO.P,J6,3,Pin_3*%
%TO.N,GND*%
X67818000Y-77470000D03*
%TD*%
D10*
%TO.P,J2,1,Pin_1*%
%TO.N,SWCLK*%
X40386000Y-39116000D03*
D11*
%TO.P,J2,2,Pin_2*%
%TO.N,SWDIO*%
X42926000Y-39116000D03*
%TO.P,J2,3,Pin_3*%
%TO.N,+3.3V*%
X45466000Y-39116000D03*
%TO.P,J2,4,Pin_4*%
%TO.N,GND*%
X48006000Y-39116000D03*
%TO.P,J2,5,Pin_5*%
%TO.N,NRST*%
X50546000Y-39116000D03*
%TD*%
D10*
%TO.P,J3,1,Pin_1*%
%TO.N,GND*%
X48260000Y-71802000D03*
D11*
%TO.P,J3,2,Pin_2*%
%TO.N,Vdrive*%
X48260000Y-69262000D03*
%TO.P,J3,3,Pin_3*%
%TO.N,+5V*%
X48260000Y-66722000D03*
%TD*%
D10*
%TO.P,J5,1,Pin_1*%
%TO.N,VCC*%
X40889000Y-72390000D03*
D11*
%TO.P,J5,2,Pin_2*%
%TO.N,Vdrive*%
X43429000Y-72390000D03*
%TD*%
D12*
%TO.P,R8,1*%
%TO.N,Net-(R2-Pad2)*%
X33274000Y-60198000D03*
D13*
%TO.P,R8,2*%
%TO.N,Net-(U1D--)*%
X25654000Y-60198000D03*
%TD*%
D10*
%TO.P,J9,1,Pin_1*%
%TO.N,V_REF*%
X33523000Y-72898000D03*
D11*
%TO.P,J9,2,Pin_2*%
%TO.N,Net-(J9-Pin_2)*%
X36063000Y-72898000D03*
%TD*%
D10*
%TO.P,J7,1,Pin_1*%
%TO.N,/servo/SERVO_PWM_2*%
X71374000Y-72390000D03*
D11*
%TO.P,J7,2,Pin_2*%
%TO.N,Vdrive*%
X71374000Y-74930000D03*
%TO.P,J7,3,Pin_3*%
%TO.N,GND*%
X71374000Y-77470000D03*
%TD*%
D10*
%TO.P,J1,1,Pin_1*%
%TO.N,GND*%
X30988000Y-53594000D03*
D11*
%TO.P,J1,2,Pin_2*%
%TO.N,SERVO_PWR*%
X30988000Y-51054000D03*
%TO.P,J1,3,Pin_3*%
%TO.N,SERVO_PWM*%
X30988000Y-48514000D03*
%TO.P,J1,4,Pin_4*%
%TO.N,SERVO_POTENTIOMETER*%
X30988000Y-45974000D03*
%TD*%
D14*
%TO.P,IC2,1,PB9*%
%TO.N,/SERVO_PWM_1*%
X43174000Y-44847000D03*
%TO.P,IC2,2,PC14-OSC32_IN*%
%TO.N,unconnected-(IC2-PC14-OSC32_IN-Pad2)*%
X43974000Y-44847000D03*
%TO.P,IC2,3,PC15-OSC32_OUT*%
%TO.N,unconnected-(IC2-PC15-OSC32_OUT-Pad3)*%
X44774000Y-44847000D03*
%TO.P,IC2,4,VDD/VDDA*%
%TO.N,+3.3V*%
X45574000Y-44847000D03*
%TO.P,IC2,5,VSS/VSSA*%
%TO.N,GND*%
X46374000Y-44847000D03*
%TO.P,IC2,6,NRST*%
%TO.N,NRST*%
X47174000Y-44847000D03*
%TO.P,IC2,7,PA0*%
%TO.N,R_CURRENT_SENSOR*%
X47974000Y-44847000D03*
%TO.P,IC2,8,PA1*%
%TO.N,HALL_CURRENT_SENSOR*%
X48774000Y-44847000D03*
D15*
%TO.P,IC2,9,PA2*%
%TO.N,SERVO_POTENTIOMETER*%
X50149000Y-46222000D03*
%TO.P,IC2,10,PA3*%
%TO.N,V_REF*%
X50149000Y-47022000D03*
%TO.P,IC2,11,PA4*%
%TO.N,unconnected-(IC2-PA4-Pad11)*%
X50149000Y-47822000D03*
%TO.P,IC2,12,PA5*%
%TO.N,SPI_SCK*%
X50149000Y-48622000D03*
%TO.P,IC2,13,PA6*%
%TO.N,unconnected-(IC2-PA6-Pad13)*%
X50149000Y-49422000D03*
%TO.P,IC2,14,PA7*%
%TO.N,SPI_MOSI*%
X50149000Y-50222000D03*
%TO.P,IC2,15,PB0*%
%TO.N,SPI_CS_0*%
X50149000Y-51022000D03*
%TO.P,IC2,16,PB1*%
%TO.N,unconnected-(IC2-PB1-Pad16)*%
X50149000Y-51822000D03*
D14*
%TO.P,IC2,17,PB2*%
%TO.N,unconnected-(IC2-PB2-Pad17)*%
X48774000Y-53197000D03*
%TO.P,IC2,18,PA8*%
%TO.N,SERVO_PWM*%
X47974000Y-53197000D03*
%TO.P,IC2,19,PA9*%
%TO.N,/servo/SERVO_PWM_3*%
X47174000Y-53197000D03*
%TO.P,IC2,20,PC6*%
%TO.N,unconnected-(IC2-PC6-Pad20)*%
X46374000Y-53197000D03*
%TO.P,IC2,21,PA10*%
%TO.N,/servo/SERVO_PWM_2*%
X45574000Y-53197000D03*
%TO.P,IC2,22,PA11_[PA9]*%
%TO.N,/servo/SERVO_PWM_1*%
X44774000Y-53197000D03*
%TO.P,IC2,23,PA12_[PA10]*%
%TO.N,unconnected-(IC2-PA12_[PA10]-Pad23)*%
X43974000Y-53197000D03*
%TO.P,IC2,24,PA13*%
%TO.N,SWDIO*%
X43174000Y-53197000D03*
D15*
%TO.P,IC2,25,PA14-BOOT0*%
%TO.N,SWCLK*%
X41799000Y-51822000D03*
%TO.P,IC2,26,PA15*%
%TO.N,unconnected-(IC2-PA15-Pad26)*%
X41799000Y-51022000D03*
%TO.P,IC2,27,PB3*%
%TO.N,unconnected-(IC2-PB3-Pad27)*%
X41799000Y-50222000D03*
%TO.P,IC2,28,PB4*%
%TO.N,SPI_MISO*%
X41799000Y-49422000D03*
%TO.P,IC2,29,PB5*%
%TO.N,unconnected-(IC2-PB5-Pad29)*%
X41799000Y-48622000D03*
%TO.P,IC2,30,PB6*%
%TO.N,unconnected-(IC2-PB6-Pad30)*%
X41799000Y-47822000D03*
%TO.P,IC2,31,PB7*%
%TO.N,unconnected-(IC2-PB7-Pad31)*%
X41799000Y-47022000D03*
%TO.P,IC2,32,PB8*%
%TO.N,unconnected-(IC2-PB8-Pad32)*%
X41799000Y-46222000D03*
%TD*%
D16*
%TO.P,R5,1*%
%TO.N,Net-(IC1-VOUT)*%
X54671500Y-62230000D03*
%TO.P,R5,2*%
%TO.N,HALL_CURRENT_SENSOR*%
X57596500Y-62230000D03*
%TD*%
D17*
%TO.P,R2,1*%
%TO.N,Net-(U1A--)*%
X38608000Y-64708500D03*
%TO.P,R2,2*%
%TO.N,Net-(R2-Pad2)*%
X38608000Y-61783500D03*
%TD*%
D18*
%TO.P,C2,1*%
%TO.N,+5V*%
X54080500Y-65024000D03*
%TO.P,C2,2*%
%TO.N,GND*%
X56155500Y-65024000D03*
%TD*%
D19*
%TO.P,C4,1*%
%TO.N,VCC*%
X50546000Y-76432500D03*
%TO.P,C4,2*%
%TO.N,GND*%
X50546000Y-78507500D03*
%TD*%
D20*
%TO.P,IC3,1,CH0*%
%TO.N,R_CURRENT_SENSOR*%
X66742000Y-44704000D03*
%TO.P,IC3,2,CH1*%
%TO.N,HALL_CURRENT_SENSOR*%
X66742000Y-45974000D03*
%TO.P,IC3,3,CH2*%
%TO.N,SERVO_POTENTIOMETER*%
X66742000Y-47244000D03*
%TO.P,IC3,4,CH3*%
%TO.N,R_2_CURRENT_SENSOR*%
X66742000Y-48514000D03*
%TO.P,IC3,5,CH4*%
%TO.N,unconnected-(IC3-CH4-Pad5)*%
X66742000Y-49784000D03*
%TO.P,IC3,6,CH5*%
%TO.N,unconnected-(IC3-CH5-Pad6)*%
X66742000Y-51054000D03*
%TO.P,IC3,7,CH6*%
%TO.N,unconnected-(IC3-CH6-Pad7)*%
X66742000Y-52324000D03*
%TO.P,IC3,8,CH7*%
%TO.N,unconnected-(IC3-CH7-Pad8)*%
X66742000Y-53594000D03*
%TO.P,IC3,9,DGND*%
%TO.N,GND*%
X61792000Y-53594000D03*
%TO.P,IC3,10,~{CS}/SHDN*%
%TO.N,SPI_CS_1*%
X61792000Y-52324000D03*
%TO.P,IC3,11,DIN*%
%TO.N,SPI_MOSI*%
X61792000Y-51054000D03*
%TO.P,IC3,12,DOUT*%
%TO.N,SPI_MISO*%
X61792000Y-49784000D03*
%TO.P,IC3,13,CLK*%
%TO.N,SPI_SCK*%
X61792000Y-48514000D03*
%TO.P,IC3,14,AGND*%
%TO.N,GND*%
X61792000Y-47244000D03*
%TO.P,IC3,15,VREF*%
%TO.N,+3.3V*%
X61792000Y-45974000D03*
%TO.P,IC3,16,VDD*%
X61792000Y-44704000D03*
%TD*%
D17*
%TO.P,R3,1*%
%TO.N,Net-(R2-Pad2)*%
X35306000Y-60390500D03*
%TO.P,R3,2*%
%TO.N,R_CURRENT_SENSOR*%
X35306000Y-57465500D03*
%TD*%
%TO.P,R1,1*%
%TO.N,Vdrive*%
X42672000Y-70042500D03*
%TO.P,R1,2*%
%TO.N,SERVO_PWR_CS*%
X42672000Y-67117500D03*
%TD*%
D21*
%TO.P,R4,1*%
%TO.N,R_CURRENT_SENSOR*%
X32135000Y-56642000D03*
%TO.P,R4,2*%
%TO.N,GND*%
X29210000Y-56642000D03*
%TD*%
D22*
%TO.P,U3,1,VIN*%
%TO.N,+5V*%
X63688000Y-34402000D03*
%TO.P,U3,2,GND*%
%TO.N,GND*%
X63688000Y-35052000D03*
%TO.P,U3,3,EN*%
%TO.N,+5V*%
X63688000Y-35702000D03*
%TO.P,U3,4,NC*%
%TO.N,unconnected-(U3-NC-Pad4)*%
X61788000Y-35702000D03*
%TO.P,U3,5,VOUT*%
%TO.N,+3.3V*%
X61788000Y-34402000D03*
%TD*%
D16*
%TO.P,R9,1*%
%TO.N,Net-(U1D--)*%
X27432000Y-59436000D03*
%TO.P,R9,2*%
%TO.N,R_2_CURRENT_SENSOR*%
X30357000Y-59436000D03*
%TD*%
D12*
%TO.P,R7,1*%
%TO.N,Vdrive*%
X43434000Y-74930000D03*
D13*
%TO.P,R7,2*%
%TO.N,Net-(J9-Pin_2)*%
X35814000Y-74930000D03*
%TD*%
D23*
%TO.P,C1,1*%
%TO.N,Net-(IC1-FILT)*%
X52529000Y-59457500D03*
%TO.P,C1,2*%
%TO.N,GND*%
X52529000Y-57382500D03*
%TD*%
D17*
%TO.P,R10,1*%
%TO.N,Net-(J9-Pin_2)*%
X29210000Y-76392500D03*
%TO.P,R10,2*%
%TO.N,GND*%
X29210000Y-73467500D03*
%TD*%
D24*
%TO.P,IC1,1,IP+_1*%
%TO.N,SERVO_PWR_CS*%
X42120000Y-63627000D03*
%TO.P,IC1,2,IP+_2*%
X42120000Y-62357000D03*
%TO.P,IC1,3,IP-_1*%
%TO.N,SERVO_PWR*%
X42120000Y-61087000D03*
%TO.P,IC1,4,IP-_2*%
X42120000Y-59817000D03*
%TO.P,IC1,5,GND*%
%TO.N,GND*%
X49320000Y-59817000D03*
%TO.P,IC1,6,FILT*%
%TO.N,Net-(IC1-FILT)*%
X49320000Y-61087000D03*
%TO.P,IC1,7,VOUT*%
%TO.N,Net-(IC1-VOUT)*%
X49320000Y-62357000D03*
%TO.P,IC1,8,VCC*%
%TO.N,+5V*%
X49320000Y-63627000D03*
%TD*%
D17*
%TO.P,R6,1*%
%TO.N,HALL_CURRENT_SENSOR*%
X61722000Y-63184500D03*
%TO.P,R6,2*%
%TO.N,GND*%
X61722000Y-60259500D03*
%TD*%
D23*
%TO.P,C8,1*%
%TO.N,GND*%
X36576000Y-70379500D03*
%TO.P,C8,2*%
%TO.N,VCC*%
X36576000Y-68304500D03*
%TD*%
D20*
%TO.P,U1,1*%
%TO.N,Net-(R2-Pad2)*%
X33717000Y-62230000D03*
%TO.P,U1,2,-*%
%TO.N,Net-(U1A--)*%
X33717000Y-63500000D03*
%TO.P,U1,3,+*%
%TO.N,SERVO_PWR_CS*%
X33717000Y-64770000D03*
%TO.P,U1,4,V+*%
%TO.N,VCC*%
X33717000Y-66040000D03*
%TO.P,U1,5*%
%TO.N,N/C*%
X33717000Y-67310000D03*
%TO.P,U1,6*%
X33717000Y-68580000D03*
%TO.P,U1,7*%
X33717000Y-69850000D03*
%TO.P,U1,8*%
X28767000Y-69850000D03*
%TO.P,U1,9*%
X28767000Y-68580000D03*
%TO.P,U1,10*%
X28767000Y-67310000D03*
%TO.P,U1,11,V-*%
%TO.N,GND*%
X28767000Y-66040000D03*
%TO.P,U1,12,+*%
%TO.N,Net-(J9-Pin_2)*%
X28767000Y-64770000D03*
%TO.P,U1,13,-*%
%TO.N,Net-(U1D--)*%
X28767000Y-63500000D03*
%TO.P,U1,14*%
%TO.N,R_2_CURRENT_SENSOR*%
X28767000Y-62230000D03*
%TD*%
D25*
%TO.P,U2,1,ADJ*%
%TO.N,GND*%
X58180000Y-76048000D03*
%TO.P,U2,2,VO*%
%TO.N,+5V*%
X55880000Y-76048000D03*
D26*
X55880000Y-69748000D03*
D25*
%TO.P,U2,3,VI*%
%TO.N,VCC*%
X53580000Y-76048000D03*
%TD*%
D19*
%TO.P,C5,1*%
%TO.N,+5V*%
X60960000Y-69574500D03*
%TO.P,C5,2*%
%TO.N,GND*%
X60960000Y-71649500D03*
%TD*%
%TO.P,C3,1*%
%TO.N,+3.3V*%
X55372000Y-35538500D03*
%TO.P,C3,2*%
%TO.N,GND*%
X55372000Y-37613500D03*
%TD*%
D27*
%TO.N,GND*%
X46736000Y-47498000D03*
X27178000Y-34036000D03*
X40132000Y-50800000D03*
X37846000Y-58674000D03*
X72390000Y-34544000D03*
X46736000Y-58928000D03*
X59436000Y-43434000D03*
X37846000Y-77216000D03*
X45974000Y-63754000D03*
X64262000Y-55880000D03*
X32004000Y-71882000D03*
X63246000Y-67310000D03*
X53340000Y-44704000D03*
X26924000Y-47752000D03*
X60706000Y-78740000D03*
X63754000Y-71374000D03*
X65532000Y-37338000D03*
X54610000Y-39116000D03*
X42164000Y-43180000D03*
X56642000Y-67310000D03*
X52070000Y-54356000D03*
X59436000Y-67310000D03*
X34544000Y-40894000D03*
%TO.N,+5V*%
X68050500Y-33760500D03*
%TO.N,+3.3V*%
X44958000Y-41402000D03*
X58062500Y-35663500D03*
%TO.N,SWDIO*%
X39116000Y-45212000D03*
X39370000Y-53594000D03*
D28*
%TO.N,SWCLK*%
X36830000Y-50800000D03*
X36576000Y-43942000D03*
%TO.N,Vdrive*%
X62992000Y-74168000D03*
D27*
%TO.N,R_CURRENT_SENSOR*%
X53086000Y-38100000D03*
D28*
X63246000Y-38100000D03*
D27*
X33909000Y-54864000D03*
%TO.N,HALL_CURRENT_SENSOR*%
X51816000Y-42638168D03*
X71882000Y-43872000D03*
D28*
%TO.N,SERVO_POTENTIOMETER*%
X69342000Y-46990000D03*
D27*
X36068000Y-40386000D03*
X51816000Y-44196000D03*
%TO.N,V_REF*%
X54356000Y-49022000D03*
%TO.N,SPI_SCK*%
X52070000Y-48622500D03*
D28*
%TO.N,/servo/SERVO_PWM_3*%
X49530000Y-57560404D03*
%TO.N,/servo/SERVO_PWM_2*%
X45720000Y-57912000D03*
%TO.N,/servo/SERVO_PWM_1*%
X43942000Y-57795500D03*
D27*
%TO.N,SPI_MISO*%
X39986000Y-49422000D03*
%TO.N,SERVO_PWM*%
X38899500Y-50292000D03*
X50800000Y-54356000D03*
D28*
%TO.N,R_2_CURRENT_SENSOR*%
X27432000Y-57150000D03*
X67818000Y-57658000D03*
%TD*%
D29*
%TO.N,Net-(IC1-FILT)*%
X49320000Y-61087000D02*
X51337000Y-61087000D01*
X51337000Y-61087000D02*
X52529000Y-59895000D01*
D30*
%TO.N,GND*%
X46374000Y-44847000D02*
X46374000Y-46120000D01*
X60706000Y-47244000D02*
X60198000Y-46736000D01*
X63688000Y-35052000D02*
X65002500Y-35052000D01*
X61792000Y-47244000D02*
X60706000Y-47244000D01*
X46374000Y-44847000D02*
X46374000Y-42818000D01*
X65002500Y-35052000D02*
X65786000Y-35835500D01*
X46374000Y-42818000D02*
X46228000Y-42672000D01*
X46374000Y-46120000D02*
X46482000Y-46228000D01*
%TO.N,+5V*%
X65786000Y-33760500D02*
X64791500Y-33760500D01*
D31*
X50419000Y-63627000D02*
X52070000Y-65278000D01*
X49320000Y-63627000D02*
X50419000Y-63627000D01*
D30*
X64150000Y-34402000D02*
X63688000Y-34402000D01*
D32*
X74676000Y-40386000D02*
X68050500Y-33760500D01*
X53086000Y-69342000D02*
X66421000Y-69342000D01*
D30*
X62880000Y-35702000D02*
X63688000Y-35702000D01*
D32*
X53086000Y-66018500D02*
X53086000Y-69342000D01*
D30*
X62738000Y-34544000D02*
X62738000Y-35560000D01*
X63688000Y-34402000D02*
X62880000Y-34402000D01*
X62738000Y-35560000D02*
X62880000Y-35702000D01*
D32*
X74676000Y-61087000D02*
X74676000Y-40386000D01*
X49276000Y-66802000D02*
X50800000Y-65278000D01*
D31*
X52070000Y-65278000D02*
X52324000Y-65278000D01*
D30*
X62880000Y-34402000D02*
X62738000Y-34544000D01*
X64791500Y-33760500D02*
X64150000Y-34402000D01*
D32*
X55880000Y-76302000D02*
X55880000Y-70002000D01*
X52324000Y-65278000D02*
X53389000Y-65278000D01*
X66421000Y-69342000D02*
X74676000Y-61087000D01*
X53389000Y-65278000D02*
X53643000Y-65024000D01*
X68050500Y-33760500D02*
X65786000Y-33760500D01*
X50800000Y-65278000D02*
X52324000Y-65278000D01*
X54080500Y-65024000D02*
X53086000Y-66018500D01*
X48260000Y-66802000D02*
X49276000Y-66802000D01*
D29*
%TO.N,+3.3V*%
X59324000Y-34402000D02*
X58062500Y-35663500D01*
D32*
X58062500Y-35663500D02*
X61792000Y-39393000D01*
D30*
X44958000Y-42164000D02*
X44958000Y-43538538D01*
D32*
X45466000Y-39116000D02*
X45466000Y-40894000D01*
X45466000Y-37084000D02*
X47498000Y-35052000D01*
D30*
X44958000Y-43538538D02*
X45574000Y-44154538D01*
D32*
X45466000Y-40894000D02*
X44958000Y-41402000D01*
D29*
X61788000Y-34402000D02*
X59324000Y-34402000D01*
D30*
X44958000Y-42164000D02*
X44958000Y-41402000D01*
D32*
X61792000Y-39393000D02*
X61792000Y-45974000D01*
X57451000Y-35052000D02*
X58062500Y-35663500D01*
X45466000Y-39116000D02*
X45466000Y-37084000D01*
X47498000Y-35052000D02*
X57451000Y-35052000D01*
D30*
X45574000Y-44154538D02*
X45574000Y-44847000D01*
%TO.N,SWDIO*%
X39370000Y-53594000D02*
X39767000Y-53197000D01*
X39116000Y-45212000D02*
X39116000Y-44196000D01*
X39767000Y-53197000D02*
X43174000Y-53197000D01*
X39116000Y-44196000D02*
X42926000Y-40386000D01*
X42926000Y-40386000D02*
X42926000Y-39116000D01*
%TO.N,SWCLK*%
X36576000Y-41656000D02*
X37592000Y-40640000D01*
X36830000Y-50800000D02*
X38354000Y-52324000D01*
X38100000Y-39116000D02*
X40386000Y-39116000D01*
X36576000Y-43942000D02*
X36576000Y-41656000D01*
X41297000Y-52324000D02*
X41799000Y-51822000D01*
X38354000Y-52324000D02*
X41297000Y-52324000D01*
X37592000Y-40640000D02*
X37592000Y-39624000D01*
X37592000Y-39624000D02*
X38100000Y-39116000D01*
%TO.N,NRST*%
X47174000Y-42996000D02*
X47174000Y-44847000D01*
X50546000Y-39116000D02*
X50546000Y-39624000D01*
X50546000Y-39624000D02*
X47174000Y-42996000D01*
D32*
%TO.N,Vdrive*%
X48260000Y-69262000D02*
X48220000Y-69302000D01*
X63754000Y-74930000D02*
X62992000Y-74168000D01*
X71374000Y-74930000D02*
X67818000Y-74930000D01*
X67818000Y-74930000D02*
X63754000Y-74930000D01*
X43434000Y-74930000D02*
X43434000Y-72395000D01*
X45760000Y-69302000D02*
X44958000Y-70104000D01*
X43434000Y-72395000D02*
X43429000Y-72390000D01*
X74930000Y-74930000D02*
X71374000Y-74930000D01*
D31*
X43429000Y-70799500D02*
X42672000Y-70042500D01*
X43429000Y-73406000D02*
X43429000Y-70799500D01*
D32*
X42733500Y-70104000D02*
X42672000Y-70042500D01*
X48220000Y-69302000D02*
X45760000Y-69302000D01*
X44958000Y-70104000D02*
X42733500Y-70104000D01*
D31*
%TO.N,SERVO_PWR_CS*%
X42120000Y-63627000D02*
X42120000Y-66592000D01*
X42120000Y-62357000D02*
X42120000Y-63627000D01*
X42120000Y-66592000D02*
X41910000Y-66802000D01*
D29*
X42356500Y-66802000D02*
X42672000Y-67117500D01*
X33717000Y-64770000D02*
X35814000Y-64770000D01*
X41910000Y-66802000D02*
X42356500Y-66802000D01*
X35814000Y-64770000D02*
X37846000Y-66802000D01*
X37846000Y-66802000D02*
X41910000Y-66802000D01*
%TO.N,Net-(U1A--)*%
X36576000Y-63500000D02*
X37784500Y-64708500D01*
X37784500Y-64708500D02*
X38608000Y-64708500D01*
X33717000Y-63500000D02*
X36576000Y-63500000D01*
D32*
%TO.N,Net-(R2-Pad2)*%
X33274000Y-60452000D02*
X33274000Y-61787000D01*
D30*
X38546500Y-61722000D02*
X38608000Y-61783500D01*
D32*
X33274000Y-61787000D02*
X33717000Y-62230000D01*
D30*
X35306000Y-60390500D02*
X35306000Y-62230000D01*
X35306000Y-60390500D02*
X33335500Y-60390500D01*
X33717000Y-62230000D02*
X35306000Y-62230000D01*
X33335500Y-60390500D02*
X33274000Y-60452000D01*
X35306000Y-62230000D02*
X35814000Y-61722000D01*
X35814000Y-61722000D02*
X38546500Y-61722000D01*
D29*
%TO.N,R_CURRENT_SENSOR*%
X63246000Y-38100000D02*
X66742000Y-41596000D01*
D30*
X47974000Y-43720000D02*
X47974000Y-44847000D01*
X53086000Y-38100000D02*
X53086000Y-39878000D01*
X51308000Y-41656000D02*
X50038000Y-41656000D01*
D32*
X33909000Y-54864000D02*
X35052000Y-56007000D01*
D29*
X66742000Y-41596000D02*
X66742000Y-44704000D01*
D32*
X35052000Y-56007000D02*
X35052000Y-57596500D01*
D30*
X53086000Y-39878000D02*
X51308000Y-41656000D01*
D29*
X33909000Y-54868000D02*
X32135000Y-56642000D01*
X33909000Y-54864000D02*
X33909000Y-54868000D01*
D30*
X50038000Y-41656000D02*
X47974000Y-43720000D01*
D29*
%TO.N,Net-(IC1-VOUT)*%
X49320000Y-62357000D02*
X54544500Y-62357000D01*
X54544500Y-62357000D02*
X54671500Y-62230000D01*
D32*
%TO.N,HALL_CURRENT_SENSOR*%
X69342000Y-62738000D02*
X65278000Y-62738000D01*
D30*
X50118832Y-42638168D02*
X48774000Y-43983000D01*
D29*
X66742000Y-45974000D02*
X67366239Y-45974000D01*
D30*
X71882000Y-43872000D02*
X71882000Y-60198000D01*
D32*
X65278000Y-62738000D02*
X64770000Y-63246000D01*
D30*
X48774000Y-43983000D02*
X48774000Y-44847000D01*
D29*
X69468239Y-43872000D02*
X71882000Y-43872000D01*
D30*
X51816000Y-42638168D02*
X50118832Y-42638168D01*
D32*
X71882000Y-60198000D02*
X69342000Y-62738000D01*
X61783500Y-63246000D02*
X61722000Y-63184500D01*
D29*
X67366239Y-45974000D02*
X69468239Y-43872000D01*
D32*
X64770000Y-63246000D02*
X61783500Y-63246000D01*
X59628500Y-63184500D02*
X58674000Y-62230000D01*
X61722000Y-63184500D02*
X59628500Y-63184500D01*
X58674000Y-62230000D02*
X57596500Y-62230000D01*
%TO.N,SERVO_PWR*%
X32258000Y-51054000D02*
X30988000Y-51054000D01*
X35052000Y-52832000D02*
X34036000Y-52832000D01*
X42120000Y-61087000D02*
X42120000Y-59900000D01*
X34036000Y-52832000D02*
X32258000Y-51054000D01*
X42120000Y-59900000D02*
X35052000Y-52832000D01*
D29*
%TO.N,SERVO_POTENTIOMETER*%
X32258000Y-44559786D02*
X30988000Y-45829786D01*
X68650000Y-47244000D02*
X66742000Y-47244000D01*
D30*
X50149000Y-46222000D02*
X50149000Y-45863000D01*
D29*
X69342000Y-46990000D02*
X68904000Y-46990000D01*
X68904000Y-46990000D02*
X68650000Y-47244000D01*
X36322000Y-39624000D02*
X36068000Y-39878000D01*
D30*
X50149000Y-45863000D02*
X51816000Y-44196000D01*
D29*
X32258000Y-38100000D02*
X32258000Y-44559786D01*
X30988000Y-45829786D02*
X30988000Y-45974000D01*
X36068000Y-39878000D02*
X36068000Y-40386000D01*
X36322000Y-39624000D02*
X34798000Y-38100000D01*
X34798000Y-38100000D02*
X32258000Y-38100000D01*
D30*
%TO.N,V_REF*%
X54356000Y-49022000D02*
X53086000Y-47752000D01*
X52070000Y-46990000D02*
X50181000Y-46990000D01*
X53086000Y-47244000D02*
X52832000Y-46990000D01*
X52832000Y-46990000D02*
X52070000Y-46990000D01*
X53086000Y-47752000D02*
X53086000Y-47244000D01*
X50181000Y-46990000D02*
X50149000Y-47022000D01*
%TO.N,SPI_SCK*%
X57185000Y-44958000D02*
X55880000Y-44958000D01*
X52070000Y-48622500D02*
X50149500Y-48622500D01*
X50149500Y-48622500D02*
X50149000Y-48622000D01*
X60741000Y-48514000D02*
X57185000Y-44958000D01*
X61792000Y-48514000D02*
X60741000Y-48514000D01*
%TO.N,SPI_MOSI*%
X55880000Y-50038000D02*
X57658000Y-50038000D01*
X50149000Y-50222000D02*
X53283000Y-50222000D01*
X53283000Y-50222000D02*
X53467000Y-50038000D01*
X58674000Y-51054000D02*
X61792000Y-51054000D01*
X53467000Y-50038000D02*
X55880000Y-50038000D01*
X57658000Y-50038000D02*
X58674000Y-51054000D01*
%TO.N,SPI_CS_0*%
X50149000Y-51022000D02*
X54324000Y-51022000D01*
X54324000Y-51022000D02*
X55880000Y-52578000D01*
%TO.N,/servo/SERVO_PWM_3*%
X47174000Y-55204404D02*
X47174000Y-53197000D01*
X49530000Y-57560404D02*
X47174000Y-55204404D01*
%TO.N,/servo/SERVO_PWM_2*%
X45586377Y-57778377D02*
X45586377Y-53209377D01*
X45720000Y-57912000D02*
X45586377Y-57778377D01*
X45586377Y-53209377D02*
X45574000Y-53197000D01*
%TO.N,/servo/SERVO_PWM_1*%
X43942000Y-57795500D02*
X43942000Y-55372000D01*
X43942000Y-55372000D02*
X44774000Y-54540000D01*
X44774000Y-54540000D02*
X44774000Y-53197000D01*
D29*
%TO.N,SPI_MISO*%
X56896000Y-48514000D02*
X55880000Y-47498000D01*
X58166000Y-48514000D02*
X59436000Y-49784000D01*
D30*
X39986000Y-49422000D02*
X41799000Y-49422000D01*
D29*
X59436000Y-49784000D02*
X61792000Y-49784000D01*
X58166000Y-48514000D02*
X56896000Y-48514000D01*
D30*
%TO.N,SERVO_PWM*%
X49022000Y-55118000D02*
X50038000Y-55118000D01*
X47974000Y-53197000D02*
X47974000Y-54070000D01*
D29*
X37846000Y-48514000D02*
X30988000Y-48514000D01*
X38899500Y-49567500D02*
X38899500Y-50292000D01*
D30*
X50038000Y-55118000D02*
X50800000Y-54356000D01*
D29*
X37846000Y-48514000D02*
X38899500Y-49567500D01*
D30*
X47974000Y-54070000D02*
X49022000Y-55118000D01*
%TO.N,R_2_CURRENT_SENSOR*%
X29972000Y-62230000D02*
X28767000Y-62230000D01*
X27940000Y-57912000D02*
X29464000Y-59436000D01*
X66742000Y-48514000D02*
X68326000Y-48514000D01*
X69850000Y-55626000D02*
X67818000Y-57658000D01*
X27432000Y-57150000D02*
X27940000Y-57658000D01*
X69850000Y-50038000D02*
X69850000Y-55626000D01*
X68326000Y-48514000D02*
X69850000Y-50038000D01*
X29464000Y-59436000D02*
X30357000Y-59436000D01*
X27940000Y-57658000D02*
X27940000Y-57912000D01*
X30357000Y-61845000D02*
X29972000Y-62230000D01*
X30357000Y-59436000D02*
X30357000Y-61845000D01*
%TO.N,SPI_CS_1*%
X56896000Y-55118000D02*
X55880000Y-55118000D01*
X59690000Y-52324000D02*
X56896000Y-55118000D01*
X61792000Y-52324000D02*
X59690000Y-52324000D01*
D32*
%TO.N,VCC*%
X50930500Y-76048000D02*
X50546000Y-76432500D01*
X53580000Y-76048000D02*
X50930500Y-76048000D01*
X47730500Y-76432500D02*
X50546000Y-76432500D01*
D29*
X37846000Y-68580000D02*
X40889000Y-71623000D01*
X40889000Y-71623000D02*
X40889000Y-73406000D01*
D32*
X46482000Y-77724000D02*
X47730500Y-76475500D01*
X36576000Y-68304500D02*
X36576000Y-67818000D01*
X36576000Y-67818000D02*
X36830000Y-67564000D01*
D29*
X35306000Y-66040000D02*
X36830000Y-67564000D01*
D32*
X40889000Y-77211000D02*
X41402000Y-77724000D01*
D29*
X33717000Y-66040000D02*
X35306000Y-66040000D01*
D32*
X40889000Y-73406000D02*
X40889000Y-77211000D01*
X41402000Y-77724000D02*
X46482000Y-77724000D01*
D29*
X36830000Y-67564000D02*
X37846000Y-68580000D01*
D32*
X47730500Y-76475500D02*
X47730500Y-76432500D01*
%TO.N,Net-(J9-Pin_2)*%
X35814000Y-73147000D02*
X36063000Y-72898000D01*
D30*
X26477500Y-64770000D02*
X25908000Y-65339500D01*
D32*
X25654000Y-75438000D02*
X25654000Y-65593500D01*
X35814000Y-74930000D02*
X34290000Y-76454000D01*
D30*
X28767000Y-64770000D02*
X26477500Y-64770000D01*
D32*
X35814000Y-74930000D02*
X35814000Y-73147000D01*
X26670000Y-76454000D02*
X25654000Y-75438000D01*
X25654000Y-65593500D02*
X25908000Y-65339500D01*
X34290000Y-76454000D02*
X26670000Y-76454000D01*
%TO.N,Net-(U1D--)*%
X26670000Y-59436000D02*
X25654000Y-60452000D01*
D29*
X25654000Y-60452000D02*
X25654000Y-62738000D01*
X26416000Y-63500000D02*
X28767000Y-63500000D01*
D32*
X27432000Y-59436000D02*
X26670000Y-59436000D01*
D29*
X25654000Y-62738000D02*
X26416000Y-63500000D01*
%TD*%
%TA.AperFunction,Conductor*%
%TO.N,GND*%
G36*
X51993520Y-66289842D02*
G01*
X52041859Y-66322141D01*
X52074158Y-66370480D01*
X52085500Y-66427500D01*
X52085500Y-69312864D01*
X52085309Y-69320410D01*
X52081631Y-69392938D01*
X52092626Y-69464717D01*
X52093579Y-69472202D01*
X52100924Y-69544436D01*
X52105179Y-69557995D01*
X52110293Y-69580034D01*
X52112443Y-69594069D01*
X52137665Y-69662173D01*
X52140100Y-69669298D01*
X52143454Y-69679986D01*
X52161841Y-69738590D01*
X52168733Y-69751006D01*
X52178178Y-69771562D01*
X52183113Y-69784886D01*
X52221527Y-69846516D01*
X52225348Y-69853006D01*
X52260591Y-69916502D01*
X52269842Y-69927278D01*
X52283230Y-69945510D01*
X52290747Y-69957570D01*
X52340786Y-70010211D01*
X52345846Y-70015812D01*
X52393133Y-70070894D01*
X52404363Y-70079587D01*
X52421149Y-70094753D01*
X52430939Y-70105051D01*
X52430941Y-70105053D01*
X52454432Y-70121403D01*
X52490544Y-70146538D01*
X52496629Y-70151007D01*
X52517819Y-70167409D01*
X52554042Y-70195448D01*
X52566799Y-70201705D01*
X52586292Y-70213180D01*
X52597951Y-70221295D01*
X52634380Y-70236928D01*
X52664673Y-70249928D01*
X52671532Y-70253080D01*
X52732957Y-70283210D01*
X52736729Y-70285060D01*
X52750479Y-70288619D01*
X52771879Y-70295933D01*
X52784942Y-70301540D01*
X52856119Y-70316166D01*
X52863377Y-70317850D01*
X52933715Y-70336063D01*
X52947907Y-70336782D01*
X52970342Y-70339640D01*
X52984259Y-70342500D01*
X53056864Y-70342500D01*
X53064410Y-70342691D01*
X53136936Y-70346369D01*
X53150976Y-70344218D01*
X53173539Y-70342500D01*
X53330501Y-70342500D01*
X53387521Y-70353842D01*
X53435860Y-70386141D01*
X53468159Y-70434480D01*
X53479501Y-70491500D01*
X53479501Y-70795876D01*
X53485908Y-70855481D01*
X53513481Y-70929409D01*
X53536204Y-70990331D01*
X53622454Y-71105546D01*
X53737669Y-71191796D01*
X53872517Y-71242091D01*
X53896360Y-71244654D01*
X53932124Y-71248500D01*
X53932127Y-71248500D01*
X54730500Y-71248500D01*
X54787520Y-71259842D01*
X54835859Y-71292141D01*
X54868158Y-71340480D01*
X54879500Y-71397500D01*
X54879500Y-74535735D01*
X54863695Y-74602519D01*
X54819633Y-74655135D01*
X54819132Y-74655509D01*
X54761541Y-74681732D01*
X54698261Y-74681690D01*
X54640706Y-74655389D01*
X54572333Y-74604205D01*
X54572331Y-74604204D01*
X54437483Y-74553909D01*
X54437482Y-74553908D01*
X54437480Y-74553908D01*
X54377876Y-74547500D01*
X52782123Y-74547500D01*
X52722518Y-74553908D01*
X52587670Y-74604203D01*
X52472454Y-74690454D01*
X52386203Y-74805670D01*
X52332160Y-74950569D01*
X52300391Y-75001321D01*
X52251208Y-75035470D01*
X52192554Y-75047500D01*
X50945080Y-75047500D01*
X50941305Y-75047452D01*
X50854136Y-75045242D01*
X50797005Y-75055482D01*
X50785795Y-75057054D01*
X50728063Y-75062925D01*
X50700535Y-75071561D01*
X50682229Y-75076054D01*
X50653846Y-75081142D01*
X50599951Y-75102669D01*
X50589292Y-75106464D01*
X50533910Y-75123841D01*
X50508695Y-75137836D01*
X50491664Y-75145924D01*
X50464882Y-75156622D01*
X50416425Y-75188557D01*
X50406749Y-75194419D01*
X50355999Y-75222589D01*
X50334116Y-75241375D01*
X50319060Y-75252727D01*
X50294978Y-75268598D01*
X50262715Y-75300861D01*
X50214378Y-75333159D01*
X50157360Y-75344500D01*
X50020996Y-75344500D01*
X49918201Y-75355001D01*
X49750689Y-75410509D01*
X49714698Y-75426347D01*
X49674044Y-75432000D01*
X47759636Y-75432000D01*
X47752090Y-75431809D01*
X47742388Y-75431317D01*
X47679563Y-75428131D01*
X47679561Y-75428131D01*
X47607781Y-75439126D01*
X47600297Y-75440079D01*
X47528061Y-75447425D01*
X47514499Y-75451680D01*
X47492466Y-75456793D01*
X47478427Y-75458943D01*
X47410329Y-75484163D01*
X47403192Y-75486603D01*
X47333911Y-75508341D01*
X47321486Y-75515237D01*
X47300939Y-75524677D01*
X47287614Y-75529612D01*
X47225968Y-75568035D01*
X47219467Y-75571862D01*
X47155997Y-75607091D01*
X47145217Y-75616345D01*
X47126989Y-75629730D01*
X47114929Y-75637247D01*
X47062283Y-75687290D01*
X47056686Y-75692347D01*
X47001602Y-75739636D01*
X46992906Y-75750870D01*
X46977749Y-75767646D01*
X46967448Y-75777438D01*
X46925964Y-75837039D01*
X46921498Y-75843121D01*
X46877049Y-75900544D01*
X46874967Y-75904789D01*
X46846558Y-75944520D01*
X46111221Y-76679859D01*
X46062882Y-76712158D01*
X46005862Y-76723500D01*
X42038500Y-76723500D01*
X41981480Y-76712158D01*
X41933141Y-76679859D01*
X41900842Y-76631520D01*
X41889500Y-76574500D01*
X41889500Y-73821500D01*
X41901530Y-73762846D01*
X41935678Y-73713664D01*
X41970808Y-73691672D01*
X41981326Y-73683797D01*
X41981331Y-73683796D01*
X42096546Y-73597546D01*
X42165220Y-73505808D01*
X42222604Y-73459567D01*
X42295130Y-73446483D01*
X42365056Y-73469757D01*
X42415274Y-73523695D01*
X42433500Y-73595103D01*
X42433500Y-74212851D01*
X42425775Y-74260205D01*
X42414057Y-74282433D01*
X42415096Y-74282951D01*
X42309770Y-74494471D01*
X42248885Y-74708464D01*
X42228356Y-74930000D01*
X42246319Y-75123841D01*
X42248885Y-75151536D01*
X42252832Y-75165407D01*
X42309770Y-75365528D01*
X42408939Y-75564685D01*
X42408941Y-75564688D01*
X42408942Y-75564689D01*
X42543019Y-75742236D01*
X42707438Y-75892124D01*
X42727893Y-75904789D01*
X42896598Y-76009247D01*
X43074718Y-76078251D01*
X43104060Y-76089618D01*
X43322757Y-76130500D01*
X43545243Y-76130500D01*
X43763940Y-76089618D01*
X43971401Y-76009247D01*
X44160562Y-75892124D01*
X44324981Y-75742236D01*
X44459058Y-75564689D01*
X44558229Y-75365528D01*
X44619115Y-75151536D01*
X44639643Y-74930000D01*
X44619115Y-74708464D01*
X44565352Y-74519505D01*
X44558229Y-74494471D01*
X44452904Y-74282951D01*
X44453942Y-74282433D01*
X44442225Y-74260205D01*
X44434500Y-74212851D01*
X44434500Y-73355503D01*
X44441396Y-73310698D01*
X44461446Y-73270040D01*
X44477253Y-73247465D01*
X44603035Y-73067830D01*
X44702903Y-72853663D01*
X44764063Y-72625408D01*
X44784659Y-72390000D01*
X44764063Y-72154592D01*
X44736574Y-72052000D01*
X46910000Y-72052000D01*
X46910000Y-72699831D01*
X46916401Y-72759373D01*
X46966647Y-72894088D01*
X47052811Y-73009188D01*
X47167911Y-73095352D01*
X47302626Y-73145598D01*
X47362169Y-73152000D01*
X48010000Y-73152000D01*
X48010000Y-72052000D01*
X48510000Y-72052000D01*
X48510000Y-73152000D01*
X49157831Y-73152000D01*
X49217373Y-73145598D01*
X49352088Y-73095352D01*
X49467188Y-73009188D01*
X49553352Y-72894088D01*
X49603598Y-72759373D01*
X49610000Y-72699831D01*
X49610000Y-72052000D01*
X48510000Y-72052000D01*
X48010000Y-72052000D01*
X46910000Y-72052000D01*
X44736574Y-72052000D01*
X44702903Y-71926337D01*
X44603035Y-71712171D01*
X44467495Y-71518599D01*
X44373140Y-71424244D01*
X44340842Y-71375906D01*
X44329500Y-71318886D01*
X44329500Y-71253500D01*
X44340842Y-71196480D01*
X44373141Y-71148141D01*
X44421480Y-71115842D01*
X44478500Y-71104500D01*
X44943404Y-71104500D01*
X44947178Y-71104548D01*
X45034361Y-71106757D01*
X45034361Y-71106756D01*
X45034363Y-71106757D01*
X45091487Y-71096518D01*
X45102698Y-71094945D01*
X45160438Y-71089074D01*
X45187950Y-71080441D01*
X45206270Y-71075945D01*
X45234653Y-71070858D01*
X45288558Y-71049324D01*
X45299183Y-71045541D01*
X45354588Y-71028159D01*
X45379792Y-71014168D01*
X45396841Y-71006072D01*
X45401130Y-71004358D01*
X45423617Y-70995377D01*
X45472103Y-70963421D01*
X45481738Y-70957584D01*
X45532502Y-70929409D01*
X45554380Y-70910625D01*
X45569444Y-70899268D01*
X45593517Y-70883403D01*
X45593516Y-70883403D01*
X45593519Y-70883402D01*
X45634566Y-70842353D01*
X45642860Y-70834668D01*
X45686895Y-70796866D01*
X45704544Y-70774063D01*
X45717002Y-70759917D01*
X46130779Y-70346141D01*
X46179119Y-70313842D01*
X46236139Y-70302500D01*
X46995619Y-70302500D01*
X47067027Y-70320726D01*
X47120965Y-70370944D01*
X47144239Y-70440869D01*
X47131155Y-70513396D01*
X47084913Y-70570780D01*
X47052811Y-70594811D01*
X46966647Y-70709911D01*
X46916401Y-70844626D01*
X46910000Y-70904169D01*
X46910000Y-71552000D01*
X49610000Y-71552000D01*
X49610000Y-70904169D01*
X49603598Y-70844626D01*
X49553352Y-70709911D01*
X49467188Y-70594811D01*
X49352085Y-70508644D01*
X49256977Y-70473171D01*
X49196440Y-70431140D01*
X49163452Y-70365238D01*
X49166083Y-70291587D01*
X49203689Y-70228207D01*
X49298492Y-70133404D01*
X49298491Y-70133404D01*
X49298495Y-70133401D01*
X49434035Y-69939830D01*
X49533903Y-69725663D01*
X49595063Y-69497408D01*
X49615659Y-69262000D01*
X49595063Y-69026592D01*
X49533903Y-68798337D01*
X49434035Y-68584171D01*
X49298495Y-68390599D01*
X49131401Y-68223505D01*
X49131400Y-68223504D01*
X49131398Y-68223502D01*
X48975088Y-68114052D01*
X48928386Y-68060799D01*
X48911551Y-67991997D01*
X48928387Y-67923196D01*
X48975089Y-67869945D01*
X48996160Y-67855191D01*
X49032932Y-67829445D01*
X49073588Y-67809396D01*
X49118392Y-67802500D01*
X49261404Y-67802500D01*
X49265178Y-67802548D01*
X49352361Y-67804757D01*
X49352361Y-67804756D01*
X49352363Y-67804757D01*
X49409487Y-67794518D01*
X49420698Y-67792945D01*
X49478438Y-67787074D01*
X49505950Y-67778441D01*
X49524270Y-67773945D01*
X49552653Y-67768858D01*
X49606558Y-67747324D01*
X49617183Y-67743541D01*
X49672588Y-67726159D01*
X49697792Y-67712168D01*
X49714841Y-67704072D01*
X49719130Y-67702358D01*
X49741617Y-67693377D01*
X49790103Y-67661421D01*
X49799738Y-67655584D01*
X49850502Y-67627409D01*
X49872380Y-67608625D01*
X49887444Y-67597268D01*
X49911517Y-67581403D01*
X49911516Y-67581403D01*
X49911519Y-67581402D01*
X49952566Y-67540353D01*
X49960860Y-67532668D01*
X49968984Y-67525694D01*
X50004895Y-67494866D01*
X50022544Y-67472063D01*
X50035002Y-67457917D01*
X51170779Y-66322141D01*
X51219119Y-66289842D01*
X51276139Y-66278500D01*
X51936500Y-66278500D01*
X51993520Y-66289842D01*
G37*
%TD.AperFunction*%
%TA.AperFunction,Conductor*%
G36*
X65167321Y-34548874D02*
G01*
X65297951Y-34639795D01*
X65484942Y-34720040D01*
X65643297Y-34752582D01*
X65684258Y-34761000D01*
X65684259Y-34761000D01*
X67574361Y-34761000D01*
X67631381Y-34772342D01*
X67679720Y-34804641D01*
X73631859Y-40756779D01*
X73664158Y-40805118D01*
X73675500Y-40862138D01*
X73675500Y-60610861D01*
X73664158Y-60667881D01*
X73631859Y-60716220D01*
X66050221Y-68297859D01*
X66001882Y-68330158D01*
X65944862Y-68341500D01*
X58121745Y-68341500D01*
X58074691Y-68333875D01*
X58032452Y-68311780D01*
X58022333Y-68304205D01*
X58022331Y-68304204D01*
X57887483Y-68253909D01*
X57887482Y-68253908D01*
X57887480Y-68253908D01*
X57827876Y-68247500D01*
X57827873Y-68247500D01*
X54235499Y-68247500D01*
X54178480Y-68236159D01*
X54130141Y-68203860D01*
X54097842Y-68155521D01*
X54086500Y-68098501D01*
X54086500Y-66494639D01*
X54097842Y-66437620D01*
X54130141Y-66389281D01*
X54226280Y-66293141D01*
X54274619Y-66260841D01*
X54331639Y-66249499D01*
X54468005Y-66249499D01*
X54468008Y-66249499D01*
X54570797Y-66238999D01*
X54737334Y-66183814D01*
X54886656Y-66091712D01*
X55010712Y-65967656D01*
X55010713Y-65967653D01*
X55012994Y-65965373D01*
X55061333Y-65933074D01*
X55118353Y-65921732D01*
X55175373Y-65933074D01*
X55223712Y-65965373D01*
X55349655Y-66091316D01*
X55498879Y-66183358D01*
X55665305Y-66238506D01*
X55768017Y-66249000D01*
X55905500Y-66249000D01*
X55905500Y-65274000D01*
X56405500Y-65274000D01*
X56405500Y-66248999D01*
X56542974Y-66248999D01*
X56645698Y-66238505D01*
X56812120Y-66183358D01*
X56961344Y-66091316D01*
X57085316Y-65967344D01*
X57177358Y-65818120D01*
X57232506Y-65651694D01*
X57243000Y-65548983D01*
X57243000Y-65274000D01*
X56405500Y-65274000D01*
X55905500Y-65274000D01*
X55905500Y-63799001D01*
X55768026Y-63799001D01*
X55665301Y-63809494D01*
X55498879Y-63864641D01*
X55349655Y-63956683D01*
X55223712Y-64082626D01*
X55156917Y-64121190D01*
X55079789Y-64121190D01*
X55012994Y-64082626D01*
X54886656Y-63956288D01*
X54812259Y-63910400D01*
X54765105Y-63881315D01*
X54712591Y-63825977D01*
X54705948Y-63799000D01*
X56405500Y-63799000D01*
X56405500Y-64774000D01*
X57242999Y-64774000D01*
X57242999Y-64499026D01*
X57232505Y-64396301D01*
X57177358Y-64229879D01*
X57085316Y-64080655D01*
X56961344Y-63956683D01*
X56812120Y-63864641D01*
X56645694Y-63809493D01*
X56542983Y-63799000D01*
X56405500Y-63799000D01*
X54705948Y-63799000D01*
X54694350Y-63751899D01*
X54715165Y-63678503D01*
X54769579Y-63625030D01*
X54843326Y-63605499D01*
X55034008Y-63605499D01*
X55136797Y-63594999D01*
X55303334Y-63539814D01*
X55452656Y-63447712D01*
X55576712Y-63323656D01*
X55668814Y-63174334D01*
X55723999Y-63007797D01*
X55734500Y-62905009D01*
X55734499Y-61554992D01*
X55723999Y-61452203D01*
X55668814Y-61285666D01*
X55576712Y-61136344D01*
X55452656Y-61012288D01*
X55303334Y-60920186D01*
X55136797Y-60865001D01*
X55136795Y-60865000D01*
X55136793Y-60865000D01*
X55034013Y-60854500D01*
X54308995Y-60854500D01*
X54206201Y-60865001D01*
X54039666Y-60920186D01*
X53890343Y-61012288D01*
X53766288Y-61136343D01*
X53674185Y-61285667D01*
X53618284Y-61454367D01*
X53587188Y-61507629D01*
X53537187Y-61543736D01*
X53476847Y-61556500D01*
X52359296Y-61556500D01*
X52291651Y-61540260D01*
X52238753Y-61495080D01*
X52212130Y-61430809D01*
X52217589Y-61361457D01*
X52253937Y-61302141D01*
X52431033Y-61125045D01*
X52968157Y-60587919D01*
X53009564Y-60558702D01*
X53058365Y-60545053D01*
X53156797Y-60534999D01*
X53233748Y-60509500D01*
X60347001Y-60509500D01*
X60347001Y-60621974D01*
X60357494Y-60724698D01*
X60412641Y-60891120D01*
X60504683Y-61040344D01*
X60628655Y-61164316D01*
X60777879Y-61256358D01*
X60944305Y-61311506D01*
X61047017Y-61322000D01*
X61472000Y-61322000D01*
X61472000Y-60509500D01*
X61972000Y-60509500D01*
X61972000Y-61321999D01*
X62396974Y-61321999D01*
X62499698Y-61311505D01*
X62666120Y-61256358D01*
X62815344Y-61164316D01*
X62939316Y-61040344D01*
X63031358Y-60891120D01*
X63086506Y-60724694D01*
X63097000Y-60621983D01*
X63097000Y-60509500D01*
X61972000Y-60509500D01*
X61472000Y-60509500D01*
X60347001Y-60509500D01*
X53233748Y-60509500D01*
X53323334Y-60479814D01*
X53472656Y-60387712D01*
X53596712Y-60263656D01*
X53688814Y-60114334D01*
X53723553Y-60009500D01*
X60347000Y-60009500D01*
X61472000Y-60009500D01*
X61472000Y-59197001D01*
X61047026Y-59197001D01*
X60944301Y-59207494D01*
X60777879Y-59262641D01*
X60628655Y-59354683D01*
X60504683Y-59478655D01*
X60412641Y-59627879D01*
X60357493Y-59794305D01*
X60347000Y-59897017D01*
X60347000Y-60009500D01*
X53723553Y-60009500D01*
X53743999Y-59947797D01*
X53754500Y-59845009D01*
X53754499Y-59197000D01*
X61972000Y-59197000D01*
X61972000Y-60009500D01*
X63096999Y-60009500D01*
X63096999Y-59897026D01*
X63086505Y-59794301D01*
X63031358Y-59627879D01*
X62939316Y-59478655D01*
X62815344Y-59354683D01*
X62666120Y-59262641D01*
X62499694Y-59207493D01*
X62396983Y-59197000D01*
X61972000Y-59197000D01*
X53754499Y-59197000D01*
X53754499Y-59069992D01*
X53743999Y-58967203D01*
X53688814Y-58800666D01*
X53596712Y-58651344D01*
X53472656Y-58527288D01*
X53470373Y-58525005D01*
X53438074Y-58476666D01*
X53426732Y-58419646D01*
X53438074Y-58362626D01*
X53470373Y-58314287D01*
X53596316Y-58188344D01*
X53688358Y-58039120D01*
X53743506Y-57872694D01*
X53754000Y-57769983D01*
X53754000Y-57632500D01*
X51304001Y-57632500D01*
X51304001Y-57769974D01*
X51314494Y-57872698D01*
X51369641Y-58039120D01*
X51461683Y-58188344D01*
X51587626Y-58314287D01*
X51626190Y-58381082D01*
X51626190Y-58458210D01*
X51587626Y-58525005D01*
X51461288Y-58651343D01*
X51369186Y-58800666D01*
X51314000Y-58967206D01*
X51303500Y-59069986D01*
X51303500Y-59845004D01*
X51309598Y-59904691D01*
X51301750Y-59969775D01*
X51266728Y-60025191D01*
X51049063Y-60242858D01*
X51000724Y-60275158D01*
X50943704Y-60286500D01*
X50752502Y-60286500D01*
X50685902Y-60270787D01*
X50633349Y-60226963D01*
X50605926Y-60164269D01*
X50609418Y-60095930D01*
X50617099Y-60069489D01*
X50617296Y-60067000D01*
X48022704Y-60067000D01*
X48022900Y-60069489D01*
X48068719Y-60227200D01*
X48156519Y-60375663D01*
X48174913Y-60425124D01*
X48174913Y-60477894D01*
X48156519Y-60527355D01*
X48070635Y-60672579D01*
X48068256Y-60676602D01*
X48050926Y-60736253D01*
X48027424Y-60817147D01*
X48022402Y-60834431D01*
X48019500Y-60871306D01*
X48019500Y-61302694D01*
X48022402Y-61339569D01*
X48068256Y-61497398D01*
X48095660Y-61543736D01*
X48156229Y-61646154D01*
X48174623Y-61695615D01*
X48174623Y-61748385D01*
X48156229Y-61797846D01*
X48068257Y-61946600D01*
X48068256Y-61946602D01*
X48050611Y-62007335D01*
X48033005Y-62067937D01*
X48022402Y-62104431D01*
X48019500Y-62141306D01*
X48019500Y-62572694D01*
X48022402Y-62609569D01*
X48068256Y-62767398D01*
X48088664Y-62801906D01*
X48156229Y-62916154D01*
X48174623Y-62965615D01*
X48174623Y-63018385D01*
X48156229Y-63067846D01*
X48076918Y-63201955D01*
X48068256Y-63216602D01*
X48022402Y-63374431D01*
X48019500Y-63411306D01*
X48019500Y-63842694D01*
X48022402Y-63879569D01*
X48068256Y-64037398D01*
X48151919Y-64178865D01*
X48268135Y-64295081D01*
X48409602Y-64378744D01*
X48567431Y-64424598D01*
X48604306Y-64427500D01*
X48865582Y-64427500D01*
X48904146Y-64432577D01*
X48940081Y-64447461D01*
X48951716Y-64454179D01*
X49131744Y-64512674D01*
X49272808Y-64527500D01*
X49775860Y-64527500D01*
X49843505Y-64543740D01*
X49896404Y-64588920D01*
X49923026Y-64653191D01*
X49917567Y-64722544D01*
X49881219Y-64781859D01*
X49130508Y-65532570D01*
X49072015Y-65568649D01*
X49003551Y-65574637D01*
X48949744Y-65553259D01*
X48949645Y-65553474D01*
X48945968Y-65551759D01*
X48939682Y-65549262D01*
X48937827Y-65547963D01*
X48723663Y-65448097D01*
X48495407Y-65386936D01*
X48260000Y-65366341D01*
X48024592Y-65386936D01*
X47796336Y-65448097D01*
X47582172Y-65547964D01*
X47388598Y-65683505D01*
X47221505Y-65850598D01*
X47085964Y-66044172D01*
X46986097Y-66258336D01*
X46924936Y-66486592D01*
X46904341Y-66722000D01*
X46924936Y-66957407D01*
X46961618Y-67094306D01*
X46986097Y-67185663D01*
X47085965Y-67399830D01*
X47221505Y-67593401D01*
X47388599Y-67760495D01*
X47448657Y-67802548D01*
X47544911Y-67869946D01*
X47591613Y-67923200D01*
X47608448Y-67992000D01*
X47591613Y-68060800D01*
X47544911Y-68114054D01*
X47388598Y-68223505D01*
X47354245Y-68257859D01*
X47305906Y-68290158D01*
X47248886Y-68301500D01*
X45774556Y-68301500D01*
X45770782Y-68301452D01*
X45683639Y-68299243D01*
X45626514Y-68309481D01*
X45615309Y-68311052D01*
X45557561Y-68316926D01*
X45530043Y-68325559D01*
X45511732Y-68330053D01*
X45483350Y-68335140D01*
X45429452Y-68356669D01*
X45418792Y-68360464D01*
X45363410Y-68377841D01*
X45338195Y-68391836D01*
X45321164Y-68399924D01*
X45294382Y-68410622D01*
X45245925Y-68442557D01*
X45236249Y-68448419D01*
X45185499Y-68476589D01*
X45163616Y-68495375D01*
X45148560Y-68506727D01*
X45124482Y-68522596D01*
X45083434Y-68563643D01*
X45075134Y-68571335D01*
X45031105Y-68609133D01*
X45013453Y-68631937D01*
X45000990Y-68646087D01*
X44587221Y-69059859D01*
X44538882Y-69092158D01*
X44481862Y-69103500D01*
X43753133Y-69103500D01*
X43712481Y-69097847D01*
X43674913Y-69081317D01*
X43616335Y-69045186D01*
X43532316Y-69017345D01*
X43449797Y-68990001D01*
X43449795Y-68990000D01*
X43449793Y-68990000D01*
X43347013Y-68979500D01*
X41996995Y-68979500D01*
X41894201Y-68990001D01*
X41727666Y-69045186D01*
X41578343Y-69137288D01*
X41454288Y-69261343D01*
X41362186Y-69410666D01*
X41307000Y-69577206D01*
X41296500Y-69679986D01*
X41296500Y-70405004D01*
X41307001Y-70507799D01*
X41308044Y-70510945D01*
X41314424Y-70576544D01*
X41291881Y-70638477D01*
X41244827Y-70684627D01*
X41182467Y-70705963D01*
X41117005Y-70698312D01*
X41061247Y-70663169D01*
X38254937Y-67856859D01*
X38218589Y-67797544D01*
X38213130Y-67728191D01*
X38239752Y-67663920D01*
X38292651Y-67618740D01*
X38360296Y-67602500D01*
X41205936Y-67602500D01*
X41266275Y-67615264D01*
X41316276Y-67651370D01*
X41347373Y-67704632D01*
X41362185Y-67749333D01*
X41436091Y-67869154D01*
X41454288Y-67898656D01*
X41578344Y-68022712D01*
X41727666Y-68114814D01*
X41894203Y-68169999D01*
X41996991Y-68180500D01*
X43347008Y-68180499D01*
X43449797Y-68169999D01*
X43616334Y-68114814D01*
X43765656Y-68022712D01*
X43889712Y-67898656D01*
X43981814Y-67749334D01*
X44036999Y-67582797D01*
X44047500Y-67480009D01*
X44047499Y-66754992D01*
X44036999Y-66652203D01*
X43981814Y-66485666D01*
X43889712Y-66336344D01*
X43765656Y-66212288D01*
X43616334Y-66120186D01*
X43449797Y-66065001D01*
X43449795Y-66065000D01*
X43449793Y-66065000D01*
X43347014Y-66054500D01*
X43347009Y-66054500D01*
X43169500Y-66054500D01*
X43112480Y-66043158D01*
X43064141Y-66010859D01*
X43031842Y-65962520D01*
X43020500Y-65905500D01*
X43020500Y-64469586D01*
X43040074Y-64395763D01*
X43093653Y-64341335D01*
X43171865Y-64295081D01*
X43288081Y-64178865D01*
X43371744Y-64037398D01*
X43417598Y-63879569D01*
X43420500Y-63842694D01*
X43420500Y-63411306D01*
X43417598Y-63374431D01*
X43371744Y-63216602D01*
X43288081Y-63075135D01*
X43288080Y-63075134D01*
X43283770Y-63067846D01*
X43265376Y-63018384D01*
X43265376Y-62965613D01*
X43283771Y-62916152D01*
X43288079Y-62908866D01*
X43288081Y-62908865D01*
X43371744Y-62767398D01*
X43417598Y-62609569D01*
X43420500Y-62572694D01*
X43420500Y-62141306D01*
X43417598Y-62104431D01*
X43371744Y-61946602D01*
X43288081Y-61805135D01*
X43288080Y-61805134D01*
X43283770Y-61797846D01*
X43265376Y-61748384D01*
X43265376Y-61695613D01*
X43283771Y-61646152D01*
X43288079Y-61638866D01*
X43288081Y-61638865D01*
X43371744Y-61497398D01*
X43417598Y-61339569D01*
X43420500Y-61302694D01*
X43420500Y-60871306D01*
X43417598Y-60834431D01*
X43371744Y-60676602D01*
X43288081Y-60535135D01*
X43288080Y-60535134D01*
X43283770Y-60527846D01*
X43265376Y-60478384D01*
X43265376Y-60425613D01*
X43283771Y-60376152D01*
X43288079Y-60368866D01*
X43288081Y-60368865D01*
X43371744Y-60227398D01*
X43417598Y-60069569D01*
X43420500Y-60032694D01*
X43420500Y-59601306D01*
X43417800Y-59567000D01*
X48022704Y-59567000D01*
X49070000Y-59567000D01*
X49070000Y-59017000D01*
X49570000Y-59017000D01*
X49570000Y-59567000D01*
X50617296Y-59567000D01*
X50617295Y-59566999D01*
X50617099Y-59564510D01*
X50571281Y-59406802D01*
X50487682Y-59265443D01*
X50371556Y-59149317D01*
X50230197Y-59065718D01*
X50072490Y-59019900D01*
X50035638Y-59017000D01*
X49570000Y-59017000D01*
X49070000Y-59017000D01*
X48604362Y-59017000D01*
X48567509Y-59019900D01*
X48409802Y-59065718D01*
X48268443Y-59149317D01*
X48152317Y-59265443D01*
X48068718Y-59406802D01*
X48022900Y-59564510D01*
X48022704Y-59566999D01*
X48022704Y-59567000D01*
X43417800Y-59567000D01*
X43417598Y-59564431D01*
X43371744Y-59406602D01*
X43288081Y-59265135D01*
X43171865Y-59148919D01*
X43030398Y-59065256D01*
X42872569Y-59019402D01*
X42835694Y-59016500D01*
X42835690Y-59016500D01*
X42713139Y-59016500D01*
X42656119Y-59005158D01*
X42607780Y-58972859D01*
X35769779Y-52134859D01*
X35767144Y-52132156D01*
X35707058Y-52068946D01*
X35659421Y-52035789D01*
X35650382Y-52028974D01*
X35607943Y-51994370D01*
X35605407Y-51992302D01*
X35579841Y-51978947D01*
X35563716Y-51969177D01*
X35540050Y-51952706D01*
X35540051Y-51952706D01*
X35540049Y-51952705D01*
X35486716Y-51929817D01*
X35476492Y-51924962D01*
X35425050Y-51898091D01*
X35397326Y-51890158D01*
X35379558Y-51883832D01*
X35353057Y-51872459D01*
X35296201Y-51860775D01*
X35285216Y-51858078D01*
X35252396Y-51848687D01*
X35229419Y-51842113D01*
X35200651Y-51839922D01*
X35181976Y-51837302D01*
X35153742Y-51831500D01*
X35153741Y-51831500D01*
X35095711Y-51831500D01*
X35084398Y-51831070D01*
X35074365Y-51830306D01*
X35026524Y-51826663D01*
X35026523Y-51826663D01*
X34997918Y-51830306D01*
X34979095Y-51831500D01*
X34512138Y-51831500D01*
X34455118Y-51820158D01*
X34406779Y-51787859D01*
X32975779Y-50356859D01*
X32973144Y-50354156D01*
X32913058Y-50290946D01*
X32865421Y-50257789D01*
X32856382Y-50250974D01*
X32811408Y-50214303D01*
X32811407Y-50214302D01*
X32785841Y-50200947D01*
X32769716Y-50191177D01*
X32746050Y-50174706D01*
X32746051Y-50174706D01*
X32746049Y-50174705D01*
X32692716Y-50151817D01*
X32682492Y-50146962D01*
X32631050Y-50120091D01*
X32603326Y-50112158D01*
X32585558Y-50105832D01*
X32559057Y-50094459D01*
X32502201Y-50082775D01*
X32491216Y-50080078D01*
X32458396Y-50070687D01*
X32435419Y-50064113D01*
X32406651Y-50061922D01*
X32387976Y-50059302D01*
X32359742Y-50053500D01*
X32359741Y-50053500D01*
X32301711Y-50053500D01*
X32290398Y-50053070D01*
X32280365Y-50052306D01*
X32232524Y-50048663D01*
X32232523Y-50048663D01*
X32203918Y-50052306D01*
X32185095Y-50053500D01*
X31959114Y-50053500D01*
X31902094Y-50042158D01*
X31871135Y-50021472D01*
X31870079Y-50022982D01*
X31836820Y-49999694D01*
X31703089Y-49906054D01*
X31656387Y-49852800D01*
X31639552Y-49784000D01*
X31656387Y-49715200D01*
X31703089Y-49661946D01*
X31754138Y-49626201D01*
X31859401Y-49552495D01*
X32026495Y-49385401D01*
X32031649Y-49378038D01*
X32084904Y-49331336D01*
X32153705Y-49314500D01*
X37452704Y-49314500D01*
X37509724Y-49325842D01*
X37558063Y-49358141D01*
X38020341Y-49820419D01*
X38051100Y-49865174D01*
X38063778Y-49917979D01*
X38056690Y-49971821D01*
X38013825Y-50103745D01*
X37995303Y-50279974D01*
X37968911Y-50350235D01*
X37911617Y-50398716D01*
X37837958Y-50413117D01*
X37766623Y-50389784D01*
X37715713Y-50334637D01*
X37692360Y-50290947D01*
X37665910Y-50241462D01*
X37540883Y-50089117D01*
X37388538Y-49964090D01*
X37388537Y-49964089D01*
X37388534Y-49964087D01*
X37214728Y-49871186D01*
X37026133Y-49813976D01*
X36830000Y-49794659D01*
X36633866Y-49813976D01*
X36445271Y-49871186D01*
X36271465Y-49964087D01*
X36119117Y-50089117D01*
X35994087Y-50241465D01*
X35901186Y-50415271D01*
X35843976Y-50603866D01*
X35824659Y-50799999D01*
X35843976Y-50996133D01*
X35901186Y-51184728D01*
X35994087Y-51358534D01*
X35994089Y-51358537D01*
X35994090Y-51358538D01*
X36119117Y-51510883D01*
X36271462Y-51635910D01*
X36271463Y-51635910D01*
X36271465Y-51635912D01*
X36445271Y-51728813D01*
X36445273Y-51728814D01*
X36633868Y-51786024D01*
X36793234Y-51801719D01*
X36842333Y-51815308D01*
X36883986Y-51844643D01*
X37840521Y-52801177D01*
X37846690Y-52807731D01*
X37886069Y-52852182D01*
X37907199Y-52866766D01*
X37934960Y-52885929D01*
X37942191Y-52891249D01*
X37988943Y-52927877D01*
X37996110Y-52931102D01*
X38019598Y-52944350D01*
X38026070Y-52948818D01*
X38081605Y-52969879D01*
X38089912Y-52973320D01*
X38144068Y-52997694D01*
X38147980Y-52998410D01*
X38151795Y-52999110D01*
X38177782Y-53006354D01*
X38185128Y-53009140D01*
X38244108Y-53016301D01*
X38252966Y-53017649D01*
X38311394Y-53028357D01*
X38311394Y-53028356D01*
X38311395Y-53028357D01*
X38337267Y-53026791D01*
X38370662Y-53024771D01*
X38379658Y-53024500D01*
X38403119Y-53024500D01*
X38470764Y-53040740D01*
X38523663Y-53085920D01*
X38550285Y-53150191D01*
X38544826Y-53219544D01*
X38484326Y-53405742D01*
X38464539Y-53593999D01*
X38484326Y-53782257D01*
X38538550Y-53949141D01*
X38542821Y-53962284D01*
X38567443Y-54004931D01*
X38637467Y-54126216D01*
X38758644Y-54260797D01*
X38764129Y-54266888D01*
X38917270Y-54378151D01*
X39090197Y-54455144D01*
X39275354Y-54494500D01*
X39464645Y-54494500D01*
X39464646Y-54494500D01*
X39649803Y-54455144D01*
X39822730Y-54378151D01*
X39975871Y-54266888D01*
X40102533Y-54126216D01*
X40191570Y-53971998D01*
X40224831Y-53932360D01*
X40269646Y-53906486D01*
X40320607Y-53897500D01*
X42307700Y-53897500D01*
X42369726Y-53911024D01*
X42420492Y-53949141D01*
X42450782Y-54004928D01*
X42470382Y-54072390D01*
X42550830Y-54208420D01*
X42662580Y-54320170D01*
X42798610Y-54400618D01*
X42950373Y-54444709D01*
X42985837Y-54447500D01*
X43362162Y-54447499D01*
X43362163Y-54447499D01*
X43371028Y-54446801D01*
X43397627Y-54444709D01*
X43518329Y-54409641D01*
X43583205Y-54405560D01*
X43643647Y-54429491D01*
X43688147Y-54476879D01*
X43708236Y-54538704D01*
X43700088Y-54603198D01*
X43665256Y-54658085D01*
X43464811Y-54858530D01*
X43458259Y-54864698D01*
X43413815Y-54904072D01*
X43380084Y-54952939D01*
X43374754Y-54960183D01*
X43338119Y-55006946D01*
X43334891Y-55014118D01*
X43321653Y-55037589D01*
X43317183Y-55044065D01*
X43296123Y-55099593D01*
X43292681Y-55107901D01*
X43268304Y-55162066D01*
X43266884Y-55169816D01*
X43259646Y-55195778D01*
X43256859Y-55203126D01*
X43249703Y-55262059D01*
X43248350Y-55270952D01*
X43237641Y-55329393D01*
X43241228Y-55388672D01*
X43241500Y-55397670D01*
X43241500Y-57018652D01*
X43232790Y-57068849D01*
X43207678Y-57113177D01*
X43106089Y-57236962D01*
X43013186Y-57410771D01*
X42955976Y-57599366D01*
X42936659Y-57795500D01*
X42955976Y-57991633D01*
X43013186Y-58180228D01*
X43106087Y-58354034D01*
X43106089Y-58354037D01*
X43106090Y-58354038D01*
X43231117Y-58506383D01*
X43383462Y-58631410D01*
X43383463Y-58631410D01*
X43383465Y-58631412D01*
X43557271Y-58724313D01*
X43557273Y-58724314D01*
X43745868Y-58781524D01*
X43942000Y-58800841D01*
X44138132Y-58781524D01*
X44326727Y-58724314D01*
X44500538Y-58631410D01*
X44652883Y-58506383D01*
X44652884Y-58506381D01*
X44652886Y-58506380D01*
X44668015Y-58487945D01*
X44719487Y-58447773D01*
X44783194Y-58433467D01*
X44846900Y-58447772D01*
X44898371Y-58487940D01*
X45009117Y-58622883D01*
X45161462Y-58747910D01*
X45161463Y-58747910D01*
X45161465Y-58747912D01*
X45335271Y-58840813D01*
X45335273Y-58840814D01*
X45523868Y-58898024D01*
X45720000Y-58917341D01*
X45916132Y-58898024D01*
X46104727Y-58840814D01*
X46278538Y-58747910D01*
X46430883Y-58622883D01*
X46555910Y-58470538D01*
X46648814Y-58296727D01*
X46706024Y-58108132D01*
X46725341Y-57912000D01*
X46706024Y-57715868D01*
X46648814Y-57527273D01*
X46628425Y-57489128D01*
X46555912Y-57353465D01*
X46549894Y-57346132D01*
X46430883Y-57201117D01*
X46341351Y-57127639D01*
X46301183Y-57076168D01*
X46286877Y-57012462D01*
X46286877Y-55634230D01*
X46301913Y-55569003D01*
X46343985Y-55516940D01*
X46404604Y-55488549D01*
X46471534Y-55489559D01*
X46531268Y-55519768D01*
X46558478Y-55555601D01*
X46558965Y-55555220D01*
X46606748Y-55616212D01*
X46612081Y-55623460D01*
X46645815Y-55672332D01*
X46690258Y-55711704D01*
X46696813Y-55717874D01*
X48485356Y-57506417D01*
X48514691Y-57548070D01*
X48528279Y-57597171D01*
X48543975Y-57756532D01*
X48543975Y-57756534D01*
X48543976Y-57756536D01*
X48548055Y-57769983D01*
X48601186Y-57945132D01*
X48694087Y-58118938D01*
X48694089Y-58118941D01*
X48694090Y-58118942D01*
X48819117Y-58271287D01*
X48971462Y-58396314D01*
X48971463Y-58396314D01*
X48971465Y-58396316D01*
X49110325Y-58470538D01*
X49145273Y-58489218D01*
X49333868Y-58546428D01*
X49530000Y-58565745D01*
X49726132Y-58546428D01*
X49914727Y-58489218D01*
X50088538Y-58396314D01*
X50240883Y-58271287D01*
X50365910Y-58118942D01*
X50458814Y-57945131D01*
X50516024Y-57756536D01*
X50535341Y-57560404D01*
X50516024Y-57364272D01*
X50458814Y-57175677D01*
X50445089Y-57150000D01*
X50435735Y-57132500D01*
X51304000Y-57132500D01*
X52279000Y-57132500D01*
X52279000Y-56295001D01*
X52004026Y-56295001D01*
X51901301Y-56305494D01*
X51734879Y-56360641D01*
X51585655Y-56452683D01*
X51461683Y-56576655D01*
X51369641Y-56725879D01*
X51314493Y-56892305D01*
X51304000Y-56995017D01*
X51304000Y-57132500D01*
X50435735Y-57132500D01*
X50365912Y-57001869D01*
X50365910Y-57001866D01*
X50240883Y-56849521D01*
X50088538Y-56724494D01*
X50088537Y-56724493D01*
X50088534Y-56724491D01*
X49914728Y-56631590D01*
X49782443Y-56591462D01*
X49726132Y-56574380D01*
X49726130Y-56574379D01*
X49726128Y-56574379D01*
X49566767Y-56558683D01*
X49517666Y-56545095D01*
X49476013Y-56515760D01*
X49255253Y-56295000D01*
X52779000Y-56295000D01*
X52779000Y-57132500D01*
X53753999Y-57132500D01*
X53753999Y-56995026D01*
X53743505Y-56892301D01*
X53688358Y-56725879D01*
X53596316Y-56576655D01*
X53472344Y-56452683D01*
X53323120Y-56360641D01*
X53156694Y-56305493D01*
X53053983Y-56295000D01*
X52779000Y-56295000D01*
X49255253Y-56295000D01*
X49033112Y-56072859D01*
X48996764Y-56013544D01*
X48991305Y-55944191D01*
X49017927Y-55879920D01*
X49070826Y-55834740D01*
X49138471Y-55818500D01*
X50012330Y-55818500D01*
X50021326Y-55818771D01*
X50036379Y-55819682D01*
X50080604Y-55822358D01*
X50080604Y-55822357D01*
X50080606Y-55822358D01*
X50139053Y-55811646D01*
X50147911Y-55810298D01*
X50206872Y-55803140D01*
X50214211Y-55800356D01*
X50240199Y-55793112D01*
X50243193Y-55792563D01*
X50247932Y-55791695D01*
X50302109Y-55767310D01*
X50310384Y-55763882D01*
X50365930Y-55742818D01*
X50372394Y-55738355D01*
X50395890Y-55725103D01*
X50403057Y-55721878D01*
X50449823Y-55685238D01*
X50457043Y-55679926D01*
X50505929Y-55646183D01*
X50545318Y-55601720D01*
X50551455Y-55595200D01*
X50857739Y-55288917D01*
X50891999Y-55263335D01*
X50932114Y-55248535D01*
X51079803Y-55217144D01*
X51252730Y-55140151D01*
X51405871Y-55028888D01*
X51532533Y-54888216D01*
X51627179Y-54724284D01*
X51685674Y-54544256D01*
X51705460Y-54356000D01*
X51685674Y-54167744D01*
X51627179Y-53987716D01*
X51532533Y-53823784D01*
X51405871Y-53683112D01*
X51252730Y-53571849D01*
X51189774Y-53543819D01*
X51079803Y-53494856D01*
X51079802Y-53494855D01*
X50894646Y-53455500D01*
X50705354Y-53455500D01*
X50612775Y-53475177D01*
X50520196Y-53494856D01*
X50347271Y-53571848D01*
X50194127Y-53683113D01*
X50067467Y-53823783D01*
X49972820Y-53987717D01*
X49914324Y-54167745D01*
X49910059Y-54208325D01*
X49896361Y-54256894D01*
X49867236Y-54298105D01*
X49791485Y-54373858D01*
X49743146Y-54406158D01*
X49686125Y-54417500D01*
X49534745Y-54417500D01*
X49473856Y-54404491D01*
X49423600Y-54367736D01*
X49392751Y-54313652D01*
X49386697Y-54251685D01*
X49406493Y-54192655D01*
X49477618Y-54072390D01*
X49521709Y-53920627D01*
X49524500Y-53885163D01*
X49524499Y-52721498D01*
X49535841Y-52664479D01*
X49568140Y-52616140D01*
X49616479Y-52583841D01*
X49673499Y-52572499D01*
X50837164Y-52572499D01*
X50851348Y-52571382D01*
X50872627Y-52569709D01*
X51024390Y-52525618D01*
X51160420Y-52445170D01*
X51272170Y-52333420D01*
X51352618Y-52197390D01*
X51396709Y-52045627D01*
X51399500Y-52010163D01*
X51399500Y-51871500D01*
X51410842Y-51814480D01*
X51443141Y-51766141D01*
X51491480Y-51733842D01*
X51548500Y-51722500D01*
X53972125Y-51722500D01*
X54029145Y-51733842D01*
X54077484Y-51766141D01*
X54507141Y-52195798D01*
X54545703Y-52262587D01*
X54545707Y-52329574D01*
X54546073Y-52329606D01*
X54545707Y-52333782D01*
X54545708Y-52339710D01*
X54544937Y-52342587D01*
X54524341Y-52578000D01*
X54544936Y-52813407D01*
X54606097Y-53041663D01*
X54689044Y-53219544D01*
X54705965Y-53255830D01*
X54810935Y-53405742D01*
X54841505Y-53449401D01*
X54935923Y-53543819D01*
X54973528Y-53607200D01*
X54976159Y-53680850D01*
X54943171Y-53746752D01*
X54882634Y-53788783D01*
X54787672Y-53824201D01*
X54672454Y-53910454D01*
X54586204Y-54025669D01*
X54535908Y-54160519D01*
X54529500Y-54220123D01*
X54529500Y-56015876D01*
X54535908Y-56075481D01*
X54568914Y-56163976D01*
X54586204Y-56210331D01*
X54672454Y-56325546D01*
X54787669Y-56411796D01*
X54922517Y-56462091D01*
X54982127Y-56468500D01*
X56777872Y-56468499D01*
X56777876Y-56468499D01*
X56817612Y-56464227D01*
X56837483Y-56462091D01*
X56972331Y-56411796D01*
X57087546Y-56325546D01*
X57173796Y-56210331D01*
X57224091Y-56075483D01*
X57230500Y-56015873D01*
X57230499Y-55818365D01*
X57245534Y-55753140D01*
X57287604Y-55701079D01*
X57307828Y-55685234D01*
X57315043Y-55679926D01*
X57363929Y-55646183D01*
X57403318Y-55601720D01*
X57409455Y-55595200D01*
X59160656Y-53844000D01*
X60319704Y-53844000D01*
X60319900Y-53846489D01*
X60365718Y-54004197D01*
X60449317Y-54145556D01*
X60565443Y-54261682D01*
X60706802Y-54345281D01*
X60864509Y-54391099D01*
X60901362Y-54394000D01*
X61542000Y-54394000D01*
X61542000Y-53844000D01*
X62042000Y-53844000D01*
X62042000Y-54394000D01*
X62682638Y-54394000D01*
X62719490Y-54391099D01*
X62877197Y-54345281D01*
X63018556Y-54261682D01*
X63134682Y-54145556D01*
X63218281Y-54004197D01*
X63264099Y-53846489D01*
X63264296Y-53844000D01*
X62042000Y-53844000D01*
X61542000Y-53844000D01*
X60319704Y-53844000D01*
X59160656Y-53844000D01*
X59936515Y-53068141D01*
X59984855Y-53035842D01*
X60041875Y-53024500D01*
X60213551Y-53024500D01*
X60280151Y-53040213D01*
X60332704Y-53084038D01*
X60360127Y-53146731D01*
X60356635Y-53215070D01*
X60319900Y-53341510D01*
X60319704Y-53343999D01*
X60319704Y-53344000D01*
X63264296Y-53344000D01*
X63264295Y-53343999D01*
X63264099Y-53341510D01*
X63218281Y-53183802D01*
X63130480Y-53035337D01*
X63112086Y-52985875D01*
X63112086Y-52933104D01*
X63130480Y-52883643D01*
X63135078Y-52875867D01*
X63135081Y-52875865D01*
X63218744Y-52734398D01*
X63264598Y-52576569D01*
X63267500Y-52539694D01*
X63267500Y-52108306D01*
X63264598Y-52071431D01*
X63218744Y-51913602D01*
X63135081Y-51772135D01*
X63135078Y-51772132D01*
X63130770Y-51764847D01*
X63112376Y-51715386D01*
X63112376Y-51662614D01*
X63130770Y-51613153D01*
X63135078Y-51605867D01*
X63135081Y-51605865D01*
X63218744Y-51464398D01*
X63264598Y-51306569D01*
X63267500Y-51269694D01*
X63267500Y-50838306D01*
X63264598Y-50801431D01*
X63218744Y-50643602D01*
X63135081Y-50502135D01*
X63135078Y-50502132D01*
X63130770Y-50494847D01*
X63112376Y-50445386D01*
X63112376Y-50392614D01*
X63130770Y-50343153D01*
X63135078Y-50335867D01*
X63135081Y-50335865D01*
X63218744Y-50194398D01*
X63264598Y-50036569D01*
X63267500Y-49999694D01*
X63267500Y-49568306D01*
X63264598Y-49531431D01*
X63218744Y-49373602D01*
X63135081Y-49232135D01*
X63135078Y-49232132D01*
X63130770Y-49224847D01*
X63112376Y-49175386D01*
X63112376Y-49122614D01*
X63130770Y-49073153D01*
X63135078Y-49065867D01*
X63135081Y-49065865D01*
X63218744Y-48924398D01*
X63264598Y-48766569D01*
X63267500Y-48729694D01*
X63267500Y-48298306D01*
X63264598Y-48261431D01*
X63218744Y-48103602D01*
X63135081Y-47962135D01*
X63135079Y-47962133D01*
X63130480Y-47954356D01*
X63112086Y-47904894D01*
X63112086Y-47852123D01*
X63130480Y-47802662D01*
X63218281Y-47654197D01*
X63264099Y-47496489D01*
X63264296Y-47494000D01*
X61691000Y-47494000D01*
X61633980Y-47482658D01*
X61585641Y-47450359D01*
X61553342Y-47402020D01*
X61542000Y-47345000D01*
X61542000Y-47143000D01*
X61553342Y-47085980D01*
X61585641Y-47037641D01*
X61633980Y-47005342D01*
X61691000Y-46994000D01*
X63264296Y-46994000D01*
X63264295Y-46993999D01*
X63264099Y-46991510D01*
X63218281Y-46833802D01*
X63130480Y-46685337D01*
X63112086Y-46635875D01*
X63112086Y-46583104D01*
X63130480Y-46533643D01*
X63135078Y-46525867D01*
X63135081Y-46525865D01*
X63218744Y-46384398D01*
X63264598Y-46226569D01*
X63267500Y-46189694D01*
X63267500Y-45758306D01*
X63264598Y-45721431D01*
X63218744Y-45563602D01*
X63135081Y-45422135D01*
X63135080Y-45422134D01*
X63130770Y-45414846D01*
X63112376Y-45365384D01*
X63112376Y-45312613D01*
X63130771Y-45263152D01*
X63135079Y-45255866D01*
X63135081Y-45255865D01*
X63218744Y-45114398D01*
X63264598Y-44956569D01*
X63267500Y-44919694D01*
X63267500Y-44488306D01*
X63264598Y-44451431D01*
X63218744Y-44293602D01*
X63135081Y-44152135D01*
X63018865Y-44035919D01*
X62877398Y-43952256D01*
X62877395Y-43952255D01*
X62865653Y-43945311D01*
X62812074Y-43890884D01*
X62792500Y-43817060D01*
X62792500Y-39407555D01*
X62792548Y-39403781D01*
X62794756Y-39316634D01*
X62784518Y-39259517D01*
X62782944Y-39248298D01*
X62780059Y-39219919D01*
X62790503Y-39148153D01*
X62833590Y-39089819D01*
X62899113Y-39058735D01*
X62971545Y-39062264D01*
X63049868Y-39086024D01*
X63050837Y-39086119D01*
X63052361Y-39086270D01*
X63101462Y-39099858D01*
X63143115Y-39129193D01*
X65897859Y-41883937D01*
X65930158Y-41932276D01*
X65941500Y-41989296D01*
X65941500Y-43758667D01*
X65923444Y-43829762D01*
X65873654Y-43883627D01*
X65828195Y-43899059D01*
X65829091Y-43902143D01*
X65814431Y-43906401D01*
X65814431Y-43906402D01*
X65769331Y-43919505D01*
X65656602Y-43952256D01*
X65515134Y-44035919D01*
X65398919Y-44152134D01*
X65315256Y-44293602D01*
X65271680Y-44443591D01*
X65269402Y-44451431D01*
X65266500Y-44488306D01*
X65266500Y-44919694D01*
X65269402Y-44956569D01*
X65315256Y-45114398D01*
X65398919Y-45255865D01*
X65398920Y-45255866D01*
X65403229Y-45263152D01*
X65421623Y-45312613D01*
X65421623Y-45365384D01*
X65403229Y-45414845D01*
X65315257Y-45563600D01*
X65315256Y-45563602D01*
X65305021Y-45598830D01*
X65269402Y-45721430D01*
X65268821Y-45728806D01*
X65266500Y-45758306D01*
X65266500Y-46189694D01*
X65269402Y-46226569D01*
X65315256Y-46384398D01*
X65343091Y-46431465D01*
X65403229Y-46533154D01*
X65421623Y-46582615D01*
X65421623Y-46635385D01*
X65403229Y-46684846D01*
X65315257Y-46833600D01*
X65315256Y-46833602D01*
X65315187Y-46833840D01*
X65269818Y-46990000D01*
X65269402Y-46991431D01*
X65266500Y-47028306D01*
X65266500Y-47459694D01*
X65269402Y-47496569D01*
X65315256Y-47654398D01*
X65342747Y-47700883D01*
X65403229Y-47803154D01*
X65421623Y-47852615D01*
X65421623Y-47905385D01*
X65403229Y-47954846D01*
X65319788Y-48095938D01*
X65315256Y-48103602D01*
X65269402Y-48261431D01*
X65266500Y-48298306D01*
X65266500Y-48729694D01*
X65269402Y-48766569D01*
X65315256Y-48924398D01*
X65343501Y-48972158D01*
X65403229Y-49073154D01*
X65421623Y-49122615D01*
X65421623Y-49175385D01*
X65403229Y-49224846D01*
X65315257Y-49373600D01*
X65315256Y-49373602D01*
X65297673Y-49434123D01*
X65270486Y-49527701D01*
X65269402Y-49531431D01*
X65266500Y-49568306D01*
X65266500Y-49999694D01*
X65269402Y-50036569D01*
X65315256Y-50194398D01*
X65343091Y-50241465D01*
X65403229Y-50343154D01*
X65421623Y-50392615D01*
X65421623Y-50445385D01*
X65403229Y-50494846D01*
X65315257Y-50643600D01*
X65315256Y-50643602D01*
X65288179Y-50736798D01*
X65269818Y-50800000D01*
X65269402Y-50801431D01*
X65266500Y-50838306D01*
X65266500Y-51269694D01*
X65269402Y-51306569D01*
X65315256Y-51464398D01*
X65342747Y-51510883D01*
X65403229Y-51613154D01*
X65421623Y-51662615D01*
X65421623Y-51715385D01*
X65403229Y-51764846D01*
X65324429Y-51898091D01*
X65315256Y-51913602D01*
X65303895Y-51952706D01*
X65270124Y-52068947D01*
X65269402Y-52071431D01*
X65266500Y-52108306D01*
X65266500Y-52539694D01*
X65269402Y-52576569D01*
X65315256Y-52734398D01*
X65347012Y-52788095D01*
X65403229Y-52883154D01*
X65421623Y-52932615D01*
X65421623Y-52985385D01*
X65403229Y-53034846D01*
X65337061Y-53146731D01*
X65315256Y-53183602D01*
X65269402Y-53341431D01*
X65266500Y-53378306D01*
X65266500Y-53809694D01*
X65269402Y-53846569D01*
X65315256Y-54004398D01*
X65398919Y-54145865D01*
X65515135Y-54262081D01*
X65656602Y-54345744D01*
X65814431Y-54391598D01*
X65851306Y-54394500D01*
X67632690Y-54394500D01*
X67632694Y-54394500D01*
X67669569Y-54391598D01*
X67827398Y-54345744D01*
X67968865Y-54262081D01*
X68085081Y-54145865D01*
X68168744Y-54004398D01*
X68214598Y-53846569D01*
X68217500Y-53809694D01*
X68217500Y-53378306D01*
X68214598Y-53341431D01*
X68168744Y-53183602D01*
X68085081Y-53042135D01*
X68085078Y-53042132D01*
X68080770Y-53034847D01*
X68062376Y-52985386D01*
X68062376Y-52932614D01*
X68080770Y-52883153D01*
X68085078Y-52875867D01*
X68085081Y-52875865D01*
X68168744Y-52734398D01*
X68214598Y-52576569D01*
X68217500Y-52539694D01*
X68217500Y-52108306D01*
X68214598Y-52071431D01*
X68168744Y-51913602D01*
X68085081Y-51772135D01*
X68085078Y-51772132D01*
X68080770Y-51764847D01*
X68062376Y-51715386D01*
X68062376Y-51662614D01*
X68080770Y-51613153D01*
X68085078Y-51605867D01*
X68085081Y-51605865D01*
X68168744Y-51464398D01*
X68214598Y-51306569D01*
X68217500Y-51269694D01*
X68217500Y-50838306D01*
X68214598Y-50801431D01*
X68168744Y-50643602D01*
X68085081Y-50502135D01*
X68085078Y-50502132D01*
X68080770Y-50494847D01*
X68062376Y-50445386D01*
X68062376Y-50392614D01*
X68080770Y-50343153D01*
X68085078Y-50335867D01*
X68085081Y-50335865D01*
X68168744Y-50194398D01*
X68214598Y-50036569D01*
X68217500Y-49999694D01*
X68217500Y-49755875D01*
X68233740Y-49688230D01*
X68278920Y-49635331D01*
X68343191Y-49608709D01*
X68412543Y-49614168D01*
X68471859Y-49650516D01*
X69105859Y-50284515D01*
X69138158Y-50332854D01*
X69149500Y-50389874D01*
X69149500Y-55274125D01*
X69138158Y-55331145D01*
X69105859Y-55379484D01*
X67871985Y-56613356D01*
X67830332Y-56642691D01*
X67781231Y-56656279D01*
X67621871Y-56671975D01*
X67433271Y-56729186D01*
X67259465Y-56822087D01*
X67107117Y-56947117D01*
X66982087Y-57099465D01*
X66889186Y-57273271D01*
X66831976Y-57461866D01*
X66831975Y-57461868D01*
X66831976Y-57461868D01*
X66812659Y-57658000D01*
X66820307Y-57735656D01*
X66831976Y-57854133D01*
X66889186Y-58042728D01*
X66982087Y-58216534D01*
X66982089Y-58216537D01*
X66982090Y-58216538D01*
X67107117Y-58368883D01*
X67259462Y-58493910D01*
X67259463Y-58493910D01*
X67259465Y-58493912D01*
X67433271Y-58586813D01*
X67433273Y-58586814D01*
X67621868Y-58644024D01*
X67818000Y-58663341D01*
X68014132Y-58644024D01*
X68202727Y-58586814D01*
X68376538Y-58493910D01*
X68528883Y-58368883D01*
X68653910Y-58216538D01*
X68746814Y-58042727D01*
X68804024Y-57854132D01*
X68819720Y-57694762D01*
X68833307Y-57645666D01*
X68862640Y-57604015D01*
X70327200Y-56139455D01*
X70333720Y-56133318D01*
X70378183Y-56093929D01*
X70411926Y-56045043D01*
X70417238Y-56037823D01*
X70453878Y-55991057D01*
X70457103Y-55983890D01*
X70470355Y-55960394D01*
X70474818Y-55953930D01*
X70495884Y-55898378D01*
X70499306Y-55890118D01*
X70523695Y-55835931D01*
X70525113Y-55828190D01*
X70532353Y-55802219D01*
X70535140Y-55794872D01*
X70542297Y-55735919D01*
X70543652Y-55727023D01*
X70544005Y-55725101D01*
X70554358Y-55668606D01*
X70550771Y-55609326D01*
X70550500Y-55600330D01*
X70550500Y-50063658D01*
X70550772Y-50054660D01*
X70554357Y-49995395D01*
X70548620Y-49964090D01*
X70543649Y-49936966D01*
X70542299Y-49928093D01*
X70541071Y-49917979D01*
X70535140Y-49869128D01*
X70532354Y-49861782D01*
X70525110Y-49835795D01*
X70523694Y-49828069D01*
X70520962Y-49821999D01*
X70499320Y-49773912D01*
X70495875Y-49765595D01*
X70492189Y-49755875D01*
X70474818Y-49710070D01*
X70470350Y-49703598D01*
X70457102Y-49680110D01*
X70453877Y-49672943D01*
X70417249Y-49626191D01*
X70411921Y-49618950D01*
X70408620Y-49614168D01*
X70378183Y-49570071D01*
X70378182Y-49570069D01*
X70333731Y-49530690D01*
X70327177Y-49524521D01*
X69033023Y-48230366D01*
X68995798Y-48168259D01*
X68992245Y-48095938D01*
X69023204Y-48030482D01*
X69081362Y-47987349D01*
X69152986Y-47976725D01*
X69196853Y-47981045D01*
X69341995Y-47995341D01*
X69341997Y-47995340D01*
X69342000Y-47995341D01*
X69538132Y-47976024D01*
X69726727Y-47918814D01*
X69900538Y-47825910D01*
X70052883Y-47700883D01*
X70177910Y-47548538D01*
X70270814Y-47374727D01*
X70328024Y-47186132D01*
X70347341Y-46990000D01*
X70328024Y-46793868D01*
X70270814Y-46605273D01*
X70270813Y-46605271D01*
X70177912Y-46431465D01*
X70175135Y-46428081D01*
X70052883Y-46279117D01*
X69900538Y-46154090D01*
X69900537Y-46154089D01*
X69900534Y-46154087D01*
X69726728Y-46061186D01*
X69538133Y-46003976D01*
X69342000Y-45984659D01*
X69145866Y-46003976D01*
X68957271Y-46061186D01*
X68783463Y-46154088D01*
X68740145Y-46189638D01*
X68694822Y-46215101D01*
X68689931Y-46216812D01*
X68673891Y-46221432D01*
X68630006Y-46231450D01*
X68553997Y-46228893D01*
X68489152Y-46189157D01*
X68452363Y-46122596D01*
X68453215Y-46046548D01*
X68491485Y-45980830D01*
X69756175Y-44716141D01*
X69804515Y-44683842D01*
X69861535Y-44672500D01*
X71032500Y-44672500D01*
X71089520Y-44683842D01*
X71137859Y-44716141D01*
X71170158Y-44764480D01*
X71181500Y-44821500D01*
X71181500Y-59421861D01*
X71170158Y-59478881D01*
X71137859Y-59527220D01*
X68971221Y-61693859D01*
X68922882Y-61726158D01*
X68865862Y-61737500D01*
X65292555Y-61737500D01*
X65288781Y-61737452D01*
X65201635Y-61735243D01*
X65144509Y-61745482D01*
X65133307Y-61747053D01*
X65102467Y-61750189D01*
X65075559Y-61752926D01*
X65048043Y-61761559D01*
X65029732Y-61766053D01*
X65001350Y-61771140D01*
X64947452Y-61792669D01*
X64936792Y-61796464D01*
X64881410Y-61813841D01*
X64856195Y-61827836D01*
X64839164Y-61835924D01*
X64812382Y-61846622D01*
X64763925Y-61878557D01*
X64754249Y-61884419D01*
X64703499Y-61912589D01*
X64681616Y-61931375D01*
X64666560Y-61942727D01*
X64642482Y-61958596D01*
X64601434Y-61999643D01*
X64593134Y-62007335D01*
X64549105Y-62045133D01*
X64531453Y-62067937D01*
X64518991Y-62082086D01*
X64399221Y-62201858D01*
X64350881Y-62234158D01*
X64293861Y-62245500D01*
X62803133Y-62245500D01*
X62762481Y-62239847D01*
X62724913Y-62223317D01*
X62666335Y-62187186D01*
X62542070Y-62146009D01*
X62499797Y-62132001D01*
X62499795Y-62132000D01*
X62499793Y-62132000D01*
X62397013Y-62121500D01*
X61046995Y-62121500D01*
X60944201Y-62132001D01*
X60810105Y-62176437D01*
X60763237Y-62184000D01*
X60104638Y-62184000D01*
X60047618Y-62172658D01*
X59999279Y-62140359D01*
X59391779Y-61532859D01*
X59389144Y-61530156D01*
X59329058Y-61466946D01*
X59281421Y-61433789D01*
X59272382Y-61426974D01*
X59227408Y-61390303D01*
X59227407Y-61390302D01*
X59201841Y-61376947D01*
X59185716Y-61367177D01*
X59162050Y-61350706D01*
X59162051Y-61350706D01*
X59162049Y-61350705D01*
X59108716Y-61327817D01*
X59098492Y-61322962D01*
X59047050Y-61296091D01*
X59019326Y-61288158D01*
X59001558Y-61281832D01*
X58975057Y-61270459D01*
X58918201Y-61258775D01*
X58907216Y-61256078D01*
X58874396Y-61246687D01*
X58851419Y-61240113D01*
X58822651Y-61237922D01*
X58803976Y-61235302D01*
X58775742Y-61229500D01*
X58775741Y-61229500D01*
X58717711Y-61229500D01*
X58706398Y-61229070D01*
X58648524Y-61224663D01*
X58648522Y-61224663D01*
X58633417Y-61223513D01*
X58633543Y-61221857D01*
X58601734Y-61219810D01*
X58550753Y-61195445D01*
X58512510Y-61153850D01*
X58501712Y-61136344D01*
X58377656Y-61012288D01*
X58321837Y-60977859D01*
X58228334Y-60920186D01*
X58061797Y-60865001D01*
X58061795Y-60865000D01*
X58061793Y-60865000D01*
X57959013Y-60854500D01*
X57233995Y-60854500D01*
X57131201Y-60865001D01*
X56964666Y-60920186D01*
X56815343Y-61012288D01*
X56691288Y-61136343D01*
X56599186Y-61285666D01*
X56544000Y-61452206D01*
X56533500Y-61554986D01*
X56533500Y-62905004D01*
X56544001Y-63007798D01*
X56548677Y-63021908D01*
X56599186Y-63174334D01*
X56691288Y-63323656D01*
X56815344Y-63447712D01*
X56964666Y-63539814D01*
X57131203Y-63594999D01*
X57233991Y-63605500D01*
X57959008Y-63605499D01*
X58061797Y-63594999D01*
X58228334Y-63539814D01*
X58338699Y-63471740D01*
X58401057Y-63450405D01*
X58466520Y-63458056D01*
X58522278Y-63493199D01*
X58910720Y-63881640D01*
X58913355Y-63884343D01*
X58973441Y-63947553D01*
X59021080Y-63980710D01*
X59030106Y-63987515D01*
X59075093Y-64024198D01*
X59100663Y-64037554D01*
X59116785Y-64047323D01*
X59140450Y-64063795D01*
X59193789Y-64086684D01*
X59203998Y-64091532D01*
X59255451Y-64118409D01*
X59283175Y-64126341D01*
X59300938Y-64132666D01*
X59327441Y-64144040D01*
X59384283Y-64155721D01*
X59395280Y-64158419D01*
X59451082Y-64174387D01*
X59479836Y-64176576D01*
X59498510Y-64179194D01*
X59526759Y-64185000D01*
X59584789Y-64185000D01*
X59596101Y-64185429D01*
X59653976Y-64189837D01*
X59678146Y-64186758D01*
X59682582Y-64186194D01*
X59701405Y-64185000D01*
X60763237Y-64185000D01*
X60810104Y-64192562D01*
X60944203Y-64236999D01*
X61046991Y-64247500D01*
X61752913Y-64247499D01*
X61764229Y-64247929D01*
X61808974Y-64251337D01*
X61808974Y-64251336D01*
X61808976Y-64251337D01*
X61829735Y-64248692D01*
X61848560Y-64247499D01*
X62397009Y-64247499D01*
X62399242Y-64247271D01*
X62414380Y-64246500D01*
X64755404Y-64246500D01*
X64759178Y-64246548D01*
X64846361Y-64248757D01*
X64846361Y-64248756D01*
X64846363Y-64248757D01*
X64903487Y-64238518D01*
X64914698Y-64236945D01*
X64972438Y-64231074D01*
X64999950Y-64222441D01*
X65018270Y-64217945D01*
X65025462Y-64216656D01*
X65046653Y-64212858D01*
X65100558Y-64191324D01*
X65111183Y-64187541D01*
X65166588Y-64170159D01*
X65187737Y-64158420D01*
X65191794Y-64156168D01*
X65208841Y-64148072D01*
X65218935Y-64144040D01*
X65235617Y-64137377D01*
X65284103Y-64105421D01*
X65293738Y-64099584D01*
X65344502Y-64071409D01*
X65366380Y-64052625D01*
X65381444Y-64041268D01*
X65405517Y-64025403D01*
X65405516Y-64025403D01*
X65405519Y-64025402D01*
X65446566Y-63984353D01*
X65454860Y-63976668D01*
X65478600Y-63956288D01*
X65498895Y-63938866D01*
X65516544Y-63916063D01*
X65529003Y-63901916D01*
X65648780Y-63782140D01*
X65697120Y-63749842D01*
X65754139Y-63738500D01*
X69327404Y-63738500D01*
X69331178Y-63738548D01*
X69418361Y-63740757D01*
X69418361Y-63740756D01*
X69418363Y-63740757D01*
X69475487Y-63730518D01*
X69486698Y-63728945D01*
X69544438Y-63723074D01*
X69571950Y-63714441D01*
X69590270Y-63709945D01*
X69618653Y-63704858D01*
X69672558Y-63683324D01*
X69683183Y-63679541D01*
X69738588Y-63662159D01*
X69763792Y-63648168D01*
X69780841Y-63640072D01*
X69786489Y-63637816D01*
X69807617Y-63629377D01*
X69856103Y-63597421D01*
X69865738Y-63591584D01*
X69916502Y-63563409D01*
X69938380Y-63544625D01*
X69953444Y-63533268D01*
X69954348Y-63532671D01*
X69977519Y-63517402D01*
X70018566Y-63476353D01*
X70026860Y-63468668D01*
X70070895Y-63430866D01*
X70088544Y-63408063D01*
X70101002Y-63393917D01*
X72625340Y-60869581D01*
X72721697Y-60751408D01*
X72795113Y-60610861D01*
X72815909Y-60571050D01*
X72833520Y-60509500D01*
X72871886Y-60375418D01*
X72887337Y-60172524D01*
X72861630Y-59970673D01*
X72795816Y-59778128D01*
X72692590Y-59602773D01*
X72692589Y-59602771D01*
X72620940Y-59523467D01*
X72592442Y-59477094D01*
X72582500Y-59423580D01*
X72582500Y-44496988D01*
X72592397Y-44443591D01*
X72607819Y-44418423D01*
X72606702Y-44417779D01*
X72614533Y-44404216D01*
X72709179Y-44240284D01*
X72767674Y-44060256D01*
X72787460Y-43872000D01*
X72767674Y-43683744D01*
X72709179Y-43503716D01*
X72614533Y-43339784D01*
X72487871Y-43199112D01*
X72334730Y-43087849D01*
X72320618Y-43081566D01*
X72161803Y-43010856D01*
X72141074Y-43006450D01*
X71976646Y-42971500D01*
X71787354Y-42971500D01*
X71694775Y-42991177D01*
X71602196Y-43010856D01*
X71494923Y-43058618D01*
X71434319Y-43071500D01*
X69378043Y-43071500D01*
X69342094Y-43079704D01*
X69325631Y-43082502D01*
X69288981Y-43086632D01*
X69254175Y-43098810D01*
X69238131Y-43103432D01*
X69202179Y-43111639D01*
X69168948Y-43127642D01*
X69153515Y-43134034D01*
X69118715Y-43146211D01*
X69087499Y-43165825D01*
X69072881Y-43173905D01*
X69039650Y-43189908D01*
X69010813Y-43212904D01*
X68997197Y-43222565D01*
X68965978Y-43242182D01*
X68863591Y-43344566D01*
X68863587Y-43344573D01*
X68175912Y-44032248D01*
X68127573Y-44064547D01*
X68070553Y-44075889D01*
X68013533Y-44064547D01*
X67984732Y-44045303D01*
X67968865Y-44035919D01*
X67827398Y-43952256D01*
X67669569Y-43906402D01*
X67669568Y-43906401D01*
X67654909Y-43902143D01*
X67655804Y-43899059D01*
X67610346Y-43883627D01*
X67560556Y-43829762D01*
X67542500Y-43758667D01*
X67542500Y-41505806D01*
X67534295Y-41469858D01*
X67531496Y-41453385D01*
X67527368Y-41416745D01*
X67515185Y-41381929D01*
X67510566Y-41365895D01*
X67502360Y-41329939D01*
X67486358Y-41296710D01*
X67479967Y-41281281D01*
X67467789Y-41246478D01*
X67448171Y-41215256D01*
X67440088Y-41200631D01*
X67437404Y-41195058D01*
X67424092Y-41167414D01*
X67424091Y-41167413D01*
X67424091Y-41167412D01*
X67401102Y-41138586D01*
X67391431Y-41124956D01*
X67371816Y-41093738D01*
X64275193Y-37997115D01*
X64245858Y-37955462D01*
X64232270Y-37906361D01*
X64232024Y-37903871D01*
X64232024Y-37903868D01*
X64174814Y-37715273D01*
X64111990Y-37597737D01*
X64081912Y-37541465D01*
X64081910Y-37541462D01*
X63956883Y-37389117D01*
X63804538Y-37264090D01*
X63804537Y-37264089D01*
X63804534Y-37264087D01*
X63630728Y-37171186D01*
X63442133Y-37113976D01*
X63246000Y-37094659D01*
X63049866Y-37113976D01*
X62861271Y-37171186D01*
X62687465Y-37264087D01*
X62535117Y-37389117D01*
X62410087Y-37541465D01*
X62317186Y-37715271D01*
X62259975Y-37903871D01*
X62242241Y-38083925D01*
X62221002Y-38147173D01*
X62174290Y-38194811D01*
X62111472Y-38217287D01*
X62045142Y-38210096D01*
X61988600Y-38174679D01*
X59441358Y-35627437D01*
X59409059Y-35579098D01*
X59397717Y-35522078D01*
X59409059Y-35465058D01*
X59441358Y-35416719D01*
X59499350Y-35358728D01*
X59611936Y-35246141D01*
X59660276Y-35213842D01*
X59717296Y-35202500D01*
X60825927Y-35202500D01*
X60894991Y-35219473D01*
X60948320Y-35266524D01*
X60973766Y-35332935D01*
X60968782Y-35375680D01*
X60970909Y-35375909D01*
X60962500Y-35454123D01*
X60962500Y-35949876D01*
X60968908Y-36009481D01*
X60989183Y-36063842D01*
X61019204Y-36144331D01*
X61105454Y-36259546D01*
X61220669Y-36345796D01*
X61355517Y-36396091D01*
X61415127Y-36402500D01*
X62160872Y-36402499D01*
X62160876Y-36402499D01*
X62200612Y-36398227D01*
X62220483Y-36396091D01*
X62355331Y-36345796D01*
X62377135Y-36329472D01*
X62432893Y-36303575D01*
X62494362Y-36302394D01*
X62551072Y-36326129D01*
X62552070Y-36326818D01*
X62607605Y-36347879D01*
X62615912Y-36351320D01*
X62670068Y-36375694D01*
X62673980Y-36376410D01*
X62677795Y-36377110D01*
X62703782Y-36384354D01*
X62711128Y-36387140D01*
X62770113Y-36394301D01*
X62778966Y-36395649D01*
X62837394Y-36406357D01*
X62896662Y-36402771D01*
X62905658Y-36402500D01*
X63748711Y-36402500D01*
X63748719Y-36402499D01*
X64060876Y-36402499D01*
X64100612Y-36398227D01*
X64120483Y-36396091D01*
X64255331Y-36345796D01*
X64370546Y-36259546D01*
X64456796Y-36144331D01*
X64507091Y-36009483D01*
X64513500Y-35949873D01*
X64513499Y-35454128D01*
X64513498Y-35454123D01*
X64506668Y-35390581D01*
X64506668Y-35358728D01*
X64513000Y-35299831D01*
X64513000Y-35252000D01*
X64494826Y-35233826D01*
X64460868Y-35181304D01*
X64451457Y-35119472D01*
X64468251Y-35059225D01*
X64508292Y-35011178D01*
X64515057Y-35005878D01*
X64561828Y-34969234D01*
X64569043Y-34963926D01*
X64617929Y-34930183D01*
X64657318Y-34885720D01*
X64663455Y-34879200D01*
X64976847Y-34565808D01*
X65035204Y-34529776D01*
X65103522Y-34523702D01*
X65167321Y-34548874D01*
G37*
%TD.AperFunction*%
%TA.AperFunction,Conductor*%
G36*
X46447824Y-45722697D02*
G01*
X46502248Y-45776273D01*
X46543845Y-45846609D01*
X46550830Y-45858420D01*
X46580359Y-45887949D01*
X46612658Y-45936288D01*
X46624000Y-45993308D01*
X46624000Y-46086525D01*
X46731532Y-46055284D01*
X46773102Y-46049368D01*
X46814670Y-46055283D01*
X46950373Y-46094709D01*
X46985837Y-46097500D01*
X47362162Y-46097499D01*
X47362163Y-46097499D01*
X47373983Y-46096569D01*
X47397627Y-46094709D01*
X47532432Y-46055544D01*
X47574000Y-46049629D01*
X47615568Y-46055544D01*
X47750373Y-46094709D01*
X47785837Y-46097500D01*
X48162162Y-46097499D01*
X48162163Y-46097499D01*
X48173983Y-46096569D01*
X48197627Y-46094709D01*
X48332432Y-46055544D01*
X48374000Y-46049629D01*
X48415568Y-46055544D01*
X48550373Y-46094709D01*
X48585837Y-46097500D01*
X48749500Y-46097499D01*
X48823999Y-46117461D01*
X48878537Y-46171998D01*
X48898500Y-46246498D01*
X48898500Y-46410163D01*
X48901290Y-46445626D01*
X48940454Y-46580431D01*
X48946370Y-46622000D01*
X48940454Y-46663569D01*
X48901291Y-46798371D01*
X48901290Y-46798373D01*
X48901291Y-46798373D01*
X48898519Y-46833602D01*
X48898500Y-46833840D01*
X48898500Y-47210163D01*
X48901290Y-47245626D01*
X48940454Y-47380431D01*
X48946370Y-47422000D01*
X48940454Y-47463569D01*
X48901291Y-47598371D01*
X48898500Y-47633840D01*
X48898500Y-48010163D01*
X48901290Y-48045626D01*
X48940454Y-48180431D01*
X48946370Y-48222000D01*
X48940454Y-48263569D01*
X48901291Y-48398371D01*
X48898500Y-48433840D01*
X48898500Y-48810163D01*
X48901290Y-48845626D01*
X48940454Y-48980431D01*
X48946370Y-49022000D01*
X48940454Y-49063569D01*
X48901291Y-49198371D01*
X48898500Y-49233840D01*
X48898500Y-49610163D01*
X48901290Y-49645624D01*
X48901291Y-49645627D01*
X48940455Y-49780432D01*
X48946371Y-49821999D01*
X48940455Y-49863568D01*
X48901291Y-49998372D01*
X48898500Y-50033840D01*
X48898500Y-50410163D01*
X48901290Y-50445624D01*
X48901291Y-50445627D01*
X48940455Y-50580432D01*
X48946371Y-50621999D01*
X48940455Y-50663568D01*
X48901291Y-50798372D01*
X48898500Y-50833840D01*
X48898500Y-51210163D01*
X48901290Y-51245626D01*
X48940454Y-51380431D01*
X48946370Y-51422000D01*
X48940454Y-51463569D01*
X48901291Y-51598371D01*
X48901290Y-51598373D01*
X48901291Y-51598373D01*
X48899491Y-51621252D01*
X48898500Y-51633841D01*
X48898500Y-51797500D01*
X48878538Y-51872000D01*
X48824001Y-51926537D01*
X48749501Y-51946500D01*
X48585836Y-51946500D01*
X48550374Y-51949290D01*
X48415569Y-51988455D01*
X48373999Y-51994371D01*
X48332433Y-51988455D01*
X48197627Y-51949291D01*
X48162163Y-51946500D01*
X48162159Y-51946500D01*
X47785836Y-51946500D01*
X47750374Y-51949290D01*
X47615569Y-51988455D01*
X47573999Y-51994371D01*
X47532433Y-51988455D01*
X47397627Y-51949291D01*
X47362163Y-51946500D01*
X47362159Y-51946500D01*
X46985836Y-51946500D01*
X46950374Y-51949290D01*
X46815569Y-51988455D01*
X46773999Y-51994371D01*
X46732433Y-51988455D01*
X46597627Y-51949291D01*
X46562163Y-51946500D01*
X46562159Y-51946500D01*
X46185836Y-51946500D01*
X46150372Y-51949290D01*
X46015568Y-51988454D01*
X45973999Y-51994370D01*
X45932430Y-51988454D01*
X45797628Y-51949291D01*
X45790534Y-51948732D01*
X45762163Y-51946500D01*
X45762159Y-51946500D01*
X45385836Y-51946500D01*
X45350372Y-51949290D01*
X45215568Y-51988454D01*
X45173999Y-51994370D01*
X45132430Y-51988454D01*
X44997628Y-51949291D01*
X44990534Y-51948732D01*
X44962163Y-51946500D01*
X44962159Y-51946500D01*
X44585836Y-51946500D01*
X44550372Y-51949290D01*
X44415568Y-51988454D01*
X44373999Y-51994370D01*
X44332430Y-51988454D01*
X44197628Y-51949291D01*
X44190534Y-51948732D01*
X44162163Y-51946500D01*
X44162159Y-51946500D01*
X43785836Y-51946500D01*
X43750372Y-51949290D01*
X43615568Y-51988454D01*
X43573999Y-51994370D01*
X43532430Y-51988454D01*
X43397628Y-51949291D01*
X43390534Y-51948732D01*
X43362163Y-51946500D01*
X43362159Y-51946500D01*
X43198499Y-51946500D01*
X43141479Y-51935158D01*
X43093140Y-51902859D01*
X43060841Y-51854520D01*
X43049499Y-51797500D01*
X43049499Y-51633836D01*
X43046709Y-51598374D01*
X43027189Y-51531185D01*
X43007544Y-51463567D01*
X43001629Y-51422000D01*
X43007545Y-51380431D01*
X43013905Y-51358538D01*
X43046709Y-51245627D01*
X43049500Y-51210163D01*
X43049499Y-50833838D01*
X43046709Y-50798373D01*
X43007544Y-50663566D01*
X43001629Y-50622001D01*
X43007545Y-50580432D01*
X43032409Y-50494847D01*
X43046709Y-50445627D01*
X43049500Y-50410163D01*
X43049499Y-50033838D01*
X43046709Y-49998373D01*
X43007544Y-49863566D01*
X43001629Y-49822001D01*
X43007545Y-49780432D01*
X43026496Y-49715200D01*
X43046709Y-49645627D01*
X43049500Y-49610163D01*
X43049499Y-49233838D01*
X43046709Y-49198373D01*
X43007544Y-49063568D01*
X43001629Y-49021999D01*
X43007545Y-48980431D01*
X43046709Y-48845627D01*
X43049500Y-48810163D01*
X43049499Y-48433838D01*
X43046709Y-48398373D01*
X43007544Y-48263568D01*
X43001629Y-48221999D01*
X43007545Y-48180431D01*
X43046709Y-48045627D01*
X43049500Y-48010163D01*
X43049499Y-47633838D01*
X43046709Y-47598373D01*
X43007544Y-47463568D01*
X43001629Y-47421999D01*
X43007545Y-47380431D01*
X43046709Y-47245627D01*
X43049500Y-47210163D01*
X43049499Y-46833838D01*
X43049480Y-46833602D01*
X43046709Y-46798374D01*
X43045399Y-46793866D01*
X43007544Y-46663568D01*
X43001629Y-46621999D01*
X43007545Y-46580431D01*
X43046709Y-46445627D01*
X43049500Y-46410163D01*
X43049499Y-46246497D01*
X43060841Y-46189480D01*
X43093140Y-46141140D01*
X43141479Y-46108841D01*
X43198499Y-46097499D01*
X43362164Y-46097499D01*
X43379894Y-46096104D01*
X43397627Y-46094709D01*
X43532432Y-46055544D01*
X43574000Y-46049629D01*
X43615568Y-46055544D01*
X43750373Y-46094709D01*
X43785837Y-46097500D01*
X44162162Y-46097499D01*
X44162163Y-46097499D01*
X44173983Y-46096569D01*
X44197627Y-46094709D01*
X44332432Y-46055544D01*
X44374000Y-46049629D01*
X44415568Y-46055544D01*
X44550373Y-46094709D01*
X44585837Y-46097500D01*
X44962162Y-46097499D01*
X44962163Y-46097499D01*
X44973983Y-46096569D01*
X44997627Y-46094709D01*
X45132432Y-46055544D01*
X45174000Y-46049629D01*
X45215568Y-46055544D01*
X45350373Y-46094709D01*
X45385837Y-46097500D01*
X45762162Y-46097499D01*
X45762163Y-46097499D01*
X45771028Y-46096801D01*
X45797627Y-46094709D01*
X45933331Y-46055283D01*
X45974897Y-46049368D01*
X46016467Y-46055284D01*
X46124000Y-46086525D01*
X46124000Y-45993308D01*
X46135342Y-45936288D01*
X46167641Y-45887949D01*
X46170704Y-45884886D01*
X46197170Y-45858420D01*
X46245751Y-45776273D01*
X46300176Y-45722697D01*
X46374000Y-45703123D01*
X46447824Y-45722697D01*
G37*
%TD.AperFunction*%
%TA.AperFunction,Conductor*%
G36*
X40480648Y-50261754D02*
G01*
X40530442Y-50315618D01*
X40548500Y-50386713D01*
X40548500Y-50410161D01*
X40551290Y-50445624D01*
X40551291Y-50445627D01*
X40590455Y-50580432D01*
X40596371Y-50621999D01*
X40590455Y-50663568D01*
X40551291Y-50798372D01*
X40548500Y-50833840D01*
X40548500Y-51210163D01*
X40551290Y-51245626D01*
X40590454Y-51380431D01*
X40596370Y-51422000D01*
X40590454Y-51463568D01*
X40575202Y-51516068D01*
X40544911Y-51571859D01*
X40494144Y-51609976D01*
X40432118Y-51623500D01*
X38705874Y-51623500D01*
X38648854Y-51612158D01*
X38600515Y-51579859D01*
X38384413Y-51363757D01*
X38348472Y-51305676D01*
X38342222Y-51237661D01*
X38366977Y-51174003D01*
X38417536Y-51128079D01*
X38483273Y-51109540D01*
X38550376Y-51122280D01*
X38619697Y-51153144D01*
X38804854Y-51192500D01*
X38994145Y-51192500D01*
X38994146Y-51192500D01*
X39179303Y-51153144D01*
X39352230Y-51076151D01*
X39505371Y-50964888D01*
X39632033Y-50824216D01*
X39726679Y-50660284D01*
X39785174Y-50480256D01*
X39787731Y-50455925D01*
X39812388Y-50388181D01*
X39865964Y-50339941D01*
X39935915Y-50322500D01*
X40080645Y-50322500D01*
X40080646Y-50322500D01*
X40265803Y-50283144D01*
X40338898Y-50250599D01*
X40411188Y-50238177D01*
X40480648Y-50261754D01*
G37*
%TD.AperFunction*%
%TA.AperFunction,Conductor*%
G36*
X34461724Y-38911842D02*
G01*
X34510063Y-38944141D01*
X35225294Y-39659372D01*
X35263110Y-39723478D01*
X35264446Y-39771020D01*
X35267500Y-39771020D01*
X35267500Y-39931582D01*
X35262423Y-39970146D01*
X35247538Y-40006082D01*
X35240820Y-40017717D01*
X35182326Y-40197742D01*
X35162539Y-40386000D01*
X35182326Y-40574257D01*
X35239771Y-40751054D01*
X35240821Y-40754284D01*
X35267458Y-40800420D01*
X35335467Y-40918216D01*
X35435173Y-41028951D01*
X35462129Y-41058888D01*
X35615270Y-41170151D01*
X35770669Y-41239340D01*
X35788197Y-41247144D01*
X35793329Y-41248235D01*
X35853172Y-41275857D01*
X35895243Y-41326592D01*
X35911312Y-41390513D01*
X35903733Y-41427944D01*
X35905565Y-41428280D01*
X35900884Y-41453816D01*
X35893646Y-41479778D01*
X35890859Y-41487126D01*
X35883703Y-41546059D01*
X35882350Y-41554952D01*
X35871641Y-41613393D01*
X35875228Y-41672672D01*
X35875500Y-41681670D01*
X35875500Y-43165152D01*
X35866790Y-43215349D01*
X35841678Y-43259677D01*
X35740089Y-43383462D01*
X35647186Y-43557271D01*
X35589976Y-43745866D01*
X35570659Y-43942000D01*
X35589976Y-44138133D01*
X35647186Y-44326728D01*
X35740087Y-44500534D01*
X35740089Y-44500537D01*
X35740090Y-44500538D01*
X35865117Y-44652883D01*
X36017462Y-44777910D01*
X36017463Y-44777910D01*
X36017465Y-44777912D01*
X36140576Y-44843716D01*
X36191273Y-44870814D01*
X36379868Y-44928024D01*
X36576000Y-44947341D01*
X36772132Y-44928024D01*
X36960727Y-44870814D01*
X37134538Y-44777910D01*
X37286883Y-44652883D01*
X37411910Y-44500538D01*
X37504814Y-44326727D01*
X37562024Y-44138132D01*
X37581341Y-43942000D01*
X37562024Y-43745868D01*
X37504814Y-43557273D01*
X37411910Y-43383462D01*
X37384457Y-43350010D01*
X37310322Y-43259677D01*
X37285210Y-43215349D01*
X37276500Y-43165152D01*
X37276500Y-42007875D01*
X37287842Y-41950855D01*
X37320141Y-41902516D01*
X37482234Y-41740423D01*
X38069200Y-41153455D01*
X38075720Y-41147318D01*
X38120183Y-41107929D01*
X38153926Y-41059043D01*
X38159238Y-41051823D01*
X38195878Y-41005057D01*
X38199103Y-40997890D01*
X38212355Y-40974394D01*
X38216818Y-40967930D01*
X38237882Y-40912384D01*
X38241310Y-40904109D01*
X38265695Y-40849932D01*
X38267112Y-40842199D01*
X38274357Y-40816209D01*
X38277140Y-40808872D01*
X38284298Y-40749911D01*
X38285646Y-40741053D01*
X38296358Y-40682606D01*
X38292771Y-40623326D01*
X38292500Y-40614330D01*
X38292500Y-39975874D01*
X38303841Y-39918857D01*
X38336134Y-39870521D01*
X38346513Y-39860143D01*
X38394850Y-39827843D01*
X38451873Y-39816500D01*
X38886501Y-39816500D01*
X38943521Y-39827842D01*
X38991860Y-39860141D01*
X39024159Y-39908480D01*
X39035501Y-39965500D01*
X39035501Y-40013876D01*
X39041908Y-40073481D01*
X39091307Y-40205928D01*
X39092204Y-40208331D01*
X39178454Y-40323546D01*
X39293669Y-40409796D01*
X39428517Y-40460091D01*
X39488127Y-40466500D01*
X41283872Y-40466499D01*
X41283876Y-40466499D01*
X41323612Y-40462227D01*
X41343483Y-40460091D01*
X41478331Y-40409796D01*
X41533716Y-40368334D01*
X41601802Y-40340131D01*
X41611134Y-40341134D01*
X41610131Y-40331802D01*
X41638334Y-40263716D01*
X41679796Y-40208331D01*
X41715216Y-40113364D01*
X41757246Y-40052829D01*
X41823147Y-40019840D01*
X41896798Y-40022470D01*
X41960179Y-40060075D01*
X42005365Y-40105261D01*
X42037663Y-40153597D01*
X42049005Y-40210617D01*
X42037663Y-40267637D01*
X42005364Y-40315977D01*
X41862973Y-40458368D01*
X41799592Y-40495974D01*
X41767133Y-40497133D01*
X41765974Y-40529592D01*
X41728368Y-40592973D01*
X38638811Y-43682530D01*
X38632259Y-43688698D01*
X38587815Y-43728072D01*
X38554084Y-43776939D01*
X38548754Y-43784183D01*
X38512119Y-43830946D01*
X38508891Y-43838118D01*
X38495653Y-43861589D01*
X38491183Y-43868065D01*
X38470123Y-43923593D01*
X38466681Y-43931901D01*
X38442304Y-43986066D01*
X38440884Y-43993816D01*
X38433646Y-44019778D01*
X38430859Y-44027126D01*
X38423703Y-44086059D01*
X38422350Y-44094952D01*
X38411641Y-44153393D01*
X38415228Y-44212672D01*
X38415500Y-44221670D01*
X38415500Y-44587012D01*
X38405603Y-44640409D01*
X38390180Y-44665576D01*
X38391298Y-44666221D01*
X38383467Y-44679782D01*
X38383467Y-44679784D01*
X38362476Y-44716141D01*
X38288820Y-44843717D01*
X38230326Y-45023742D01*
X38210539Y-45211999D01*
X38230326Y-45400257D01*
X38283400Y-45563602D01*
X38288821Y-45580284D01*
X38324085Y-45641363D01*
X38383467Y-45744216D01*
X38488741Y-45861135D01*
X38510129Y-45884888D01*
X38663270Y-45996151D01*
X38836197Y-46073144D01*
X39021354Y-46112500D01*
X39210645Y-46112500D01*
X39210646Y-46112500D01*
X39395803Y-46073144D01*
X39568730Y-45996151D01*
X39721871Y-45884888D01*
X39848533Y-45744216D01*
X39943179Y-45580284D01*
X40001674Y-45400256D01*
X40021460Y-45212000D01*
X40001674Y-45023744D01*
X39943179Y-44843716D01*
X39848533Y-44679784D01*
X39848531Y-44679782D01*
X39840702Y-44666221D01*
X39841819Y-44665576D01*
X39826397Y-44640409D01*
X39816500Y-44587012D01*
X39816500Y-44547875D01*
X39827842Y-44490855D01*
X39860141Y-44442516D01*
X40745386Y-43557271D01*
X43403200Y-40899455D01*
X43409720Y-40893318D01*
X43454183Y-40853929D01*
X43487938Y-40805025D01*
X43493227Y-40797836D01*
X43529878Y-40751056D01*
X43533100Y-40743896D01*
X43546351Y-40720400D01*
X43550818Y-40713930D01*
X43571886Y-40658375D01*
X43575308Y-40650113D01*
X43599695Y-40595931D01*
X43601113Y-40588190D01*
X43608353Y-40562219D01*
X43611140Y-40554872D01*
X43618297Y-40495919D01*
X43619652Y-40487023D01*
X43623393Y-40466613D01*
X43630358Y-40428606D01*
X43626771Y-40369326D01*
X43626500Y-40360330D01*
X43626500Y-40351726D01*
X43643335Y-40282925D01*
X43690037Y-40229672D01*
X43703874Y-40219983D01*
X43797401Y-40154495D01*
X43964495Y-39987401D01*
X44073945Y-39831089D01*
X44127200Y-39784387D01*
X44196000Y-39767552D01*
X44264800Y-39784387D01*
X44318054Y-39831089D01*
X44338400Y-39860146D01*
X44380578Y-39920383D01*
X44434982Y-39998079D01*
X44433472Y-39999135D01*
X44454158Y-40030094D01*
X44465500Y-40087114D01*
X44465500Y-40417862D01*
X44454158Y-40474882D01*
X44421859Y-40523221D01*
X44214660Y-40730419D01*
X44118303Y-40848591D01*
X44024090Y-41028952D01*
X43968113Y-41224581D01*
X43963796Y-41281273D01*
X43957354Y-41365879D01*
X43952663Y-41427477D01*
X43978369Y-41629327D01*
X44044184Y-41821872D01*
X44147410Y-41997228D01*
X44219060Y-42076533D01*
X44247558Y-42122906D01*
X44257500Y-42176420D01*
X44257500Y-43447500D01*
X44237538Y-43522000D01*
X44183000Y-43576538D01*
X44108500Y-43596500D01*
X43785836Y-43596500D01*
X43750372Y-43599290D01*
X43615568Y-43638454D01*
X43573999Y-43644370D01*
X43532430Y-43638454D01*
X43397628Y-43599291D01*
X43390534Y-43598732D01*
X43362163Y-43596500D01*
X43362159Y-43596500D01*
X42985836Y-43596500D01*
X42950375Y-43599290D01*
X42798610Y-43643382D01*
X42662579Y-43723830D01*
X42550830Y-43835579D01*
X42510662Y-43903500D01*
X42470382Y-43971610D01*
X42426291Y-44123373D01*
X42423929Y-44153394D01*
X42423500Y-44158841D01*
X42423500Y-45322500D01*
X42403538Y-45397000D01*
X42349000Y-45451538D01*
X42274500Y-45471500D01*
X41110836Y-45471500D01*
X41075375Y-45474290D01*
X40923610Y-45518382D01*
X40787579Y-45598830D01*
X40675830Y-45710579D01*
X40595382Y-45846610D01*
X40551291Y-45998373D01*
X40548500Y-46033840D01*
X40548500Y-46410163D01*
X40551290Y-46445626D01*
X40590454Y-46580431D01*
X40596370Y-46622000D01*
X40590454Y-46663569D01*
X40551291Y-46798371D01*
X40551290Y-46798373D01*
X40551291Y-46798373D01*
X40548519Y-46833602D01*
X40548500Y-46833840D01*
X40548500Y-47210163D01*
X40551290Y-47245626D01*
X40590454Y-47380431D01*
X40596370Y-47422000D01*
X40590454Y-47463569D01*
X40551291Y-47598371D01*
X40548500Y-47633840D01*
X40548500Y-48010163D01*
X40551290Y-48045626D01*
X40590454Y-48180431D01*
X40596370Y-48222000D01*
X40590454Y-48263569D01*
X40551291Y-48398371D01*
X40548500Y-48433841D01*
X40548500Y-48457282D01*
X40530444Y-48528379D01*
X40480651Y-48582244D01*
X40411189Y-48605823D01*
X40338898Y-48593400D01*
X40265803Y-48560856D01*
X40265801Y-48560855D01*
X40113009Y-48528379D01*
X40080646Y-48521500D01*
X39891354Y-48521500D01*
X39858991Y-48528379D01*
X39706196Y-48560856D01*
X39533271Y-48637848D01*
X39386393Y-48744561D01*
X39322121Y-48771183D01*
X39252769Y-48765724D01*
X39193454Y-48729376D01*
X38348260Y-47884182D01*
X38317038Y-47864564D01*
X38303412Y-47854896D01*
X38274586Y-47831908D01*
X38241359Y-47815906D01*
X38226741Y-47807826D01*
X38195525Y-47788212D01*
X38190635Y-47786501D01*
X38160712Y-47776030D01*
X38145284Y-47769639D01*
X38112059Y-47753639D01*
X38076102Y-47745431D01*
X38060055Y-47740808D01*
X38025256Y-47728632D01*
X37988609Y-47724502D01*
X37972146Y-47721704D01*
X37936197Y-47713500D01*
X37936194Y-47713500D01*
X37890954Y-47713500D01*
X32153705Y-47713500D01*
X32084904Y-47696664D01*
X32031651Y-47649962D01*
X32026496Y-47642600D01*
X31859401Y-47475505D01*
X31703089Y-47366054D01*
X31656387Y-47312800D01*
X31639552Y-47244000D01*
X31656387Y-47175200D01*
X31703089Y-47121946D01*
X31711523Y-47116039D01*
X31859401Y-47012495D01*
X32026495Y-46845401D01*
X32162035Y-46651830D01*
X32261903Y-46437663D01*
X32323063Y-46209408D01*
X32343659Y-45974000D01*
X32323063Y-45738592D01*
X32321703Y-45733519D01*
X32317193Y-45681970D01*
X32330586Y-45631985D01*
X32360264Y-45589598D01*
X32855826Y-45094038D01*
X32876783Y-45073081D01*
X32876783Y-45073079D01*
X32887816Y-45062048D01*
X32907442Y-45030810D01*
X32917091Y-45017212D01*
X32940091Y-44988373D01*
X32956092Y-44955144D01*
X32964170Y-44940531D01*
X32983788Y-44909310D01*
X32983789Y-44909308D01*
X32995969Y-44874497D01*
X33002356Y-44859076D01*
X33018360Y-44825847D01*
X33026567Y-44789886D01*
X33031186Y-44773852D01*
X33043368Y-44739041D01*
X33047497Y-44702389D01*
X33050289Y-44685954D01*
X33058500Y-44649980D01*
X33058500Y-44469592D01*
X33058500Y-39049500D01*
X33069842Y-38992480D01*
X33102141Y-38944141D01*
X33150480Y-38911842D01*
X33207500Y-38900500D01*
X34404704Y-38900500D01*
X34461724Y-38911842D01*
G37*
%TD.AperFunction*%
%TA.AperFunction,Conductor*%
G36*
X54117602Y-36065264D02*
G01*
X54167603Y-36101371D01*
X54198698Y-36154632D01*
X54212186Y-36195334D01*
X54294924Y-36329474D01*
X54304288Y-36344656D01*
X54430626Y-36470994D01*
X54469190Y-36537789D01*
X54469190Y-36614917D01*
X54430626Y-36681712D01*
X54304683Y-36807655D01*
X54212641Y-36956879D01*
X54157493Y-37123305D01*
X54147000Y-37226017D01*
X54147000Y-37363500D01*
X56596999Y-37363500D01*
X56596999Y-37226026D01*
X56586505Y-37123301D01*
X56531358Y-36956879D01*
X56439316Y-36807655D01*
X56313373Y-36681712D01*
X56281074Y-36633373D01*
X56269732Y-36576353D01*
X56281074Y-36519333D01*
X56313373Y-36470994D01*
X56315653Y-36468713D01*
X56315656Y-36468712D01*
X56439712Y-36344656D01*
X56531814Y-36195334D01*
X56545301Y-36154632D01*
X56576397Y-36101371D01*
X56626398Y-36065264D01*
X56686738Y-36052500D01*
X56974861Y-36052500D01*
X57031881Y-36063842D01*
X57080220Y-36096141D01*
X60747859Y-39763780D01*
X60780158Y-39812119D01*
X60791500Y-39869139D01*
X60791500Y-43817060D01*
X60771926Y-43890884D01*
X60718347Y-43945311D01*
X60706604Y-43952255D01*
X60706602Y-43952256D01*
X60649429Y-43986068D01*
X60565134Y-44035919D01*
X60448919Y-44152134D01*
X60365256Y-44293602D01*
X60321680Y-44443591D01*
X60319402Y-44451431D01*
X60316500Y-44488306D01*
X60316500Y-44919694D01*
X60319402Y-44956569D01*
X60365256Y-45114398D01*
X60448919Y-45255865D01*
X60448920Y-45255866D01*
X60453229Y-45263152D01*
X60471623Y-45312613D01*
X60471623Y-45365384D01*
X60453229Y-45414845D01*
X60365257Y-45563600D01*
X60365256Y-45563602D01*
X60355021Y-45598830D01*
X60319402Y-45721430D01*
X60318821Y-45728806D01*
X60316500Y-45758306D01*
X60316500Y-46189694D01*
X60319402Y-46226569D01*
X60365256Y-46384398D01*
X60437324Y-46506258D01*
X60453519Y-46533643D01*
X60471913Y-46583104D01*
X60471913Y-46635875D01*
X60453519Y-46685336D01*
X60365717Y-46833802D01*
X60365261Y-46835375D01*
X60325868Y-46900805D01*
X60259232Y-46938122D01*
X60182860Y-46937522D01*
X60116819Y-46899162D01*
X57698470Y-44480813D01*
X57692300Y-44474258D01*
X57652928Y-44429815D01*
X57604056Y-44396081D01*
X57596808Y-44390748D01*
X57550057Y-44354122D01*
X57542887Y-44350895D01*
X57519402Y-44337649D01*
X57512930Y-44333182D01*
X57457406Y-44312124D01*
X57449092Y-44308680D01*
X57394933Y-44284305D01*
X57387190Y-44282886D01*
X57361221Y-44275646D01*
X57353872Y-44272859D01*
X57294941Y-44265703D01*
X57286048Y-44264350D01*
X57227606Y-44253641D01*
X57170672Y-44257086D01*
X57168326Y-44257228D01*
X57159330Y-44257500D01*
X57115726Y-44257500D01*
X57046925Y-44240665D01*
X56993672Y-44193963D01*
X56969077Y-44158838D01*
X56918495Y-44086599D01*
X56751401Y-43919505D01*
X56677937Y-43868065D01*
X56594652Y-43809748D01*
X56547950Y-43756494D01*
X56531115Y-43687694D01*
X56547951Y-43618893D01*
X56594652Y-43565640D01*
X56751078Y-43456109D01*
X56918112Y-43289075D01*
X57053598Y-43095582D01*
X57153431Y-42881491D01*
X57210636Y-42668000D01*
X54549364Y-42668000D01*
X54606568Y-42881491D01*
X54706401Y-43095582D01*
X54841887Y-43289075D01*
X55008924Y-43456112D01*
X55165348Y-43565642D01*
X55212050Y-43618895D01*
X55228885Y-43687695D01*
X55212049Y-43756496D01*
X55165348Y-43809748D01*
X55128458Y-43835579D01*
X55008598Y-43919505D01*
X54841505Y-44086598D01*
X54705964Y-44280172D01*
X54606097Y-44494336D01*
X54544936Y-44722592D01*
X54524341Y-44957999D01*
X54544936Y-45193407D01*
X54606097Y-45421663D01*
X54672283Y-45563600D01*
X54705965Y-45635830D01*
X54841505Y-45829401D01*
X55008599Y-45996495D01*
X55084482Y-46049629D01*
X55164911Y-46105946D01*
X55211613Y-46159200D01*
X55228448Y-46228000D01*
X55211613Y-46296800D01*
X55164911Y-46350054D01*
X55008598Y-46459505D01*
X54841505Y-46626598D01*
X54705964Y-46820172D01*
X54606097Y-47034336D01*
X54544936Y-47262592D01*
X54524341Y-47498000D01*
X54544936Y-47733409D01*
X54579220Y-47861359D01*
X54579220Y-47938487D01*
X54540655Y-48005281D01*
X54473861Y-48043845D01*
X54396733Y-48043845D01*
X54329938Y-48005281D01*
X53830141Y-47505484D01*
X53797842Y-47457145D01*
X53786500Y-47400125D01*
X53786500Y-47269658D01*
X53786772Y-47260662D01*
X53787681Y-47245627D01*
X53790357Y-47201394D01*
X53779649Y-47142966D01*
X53778301Y-47134113D01*
X53771140Y-47075128D01*
X53768354Y-47067782D01*
X53761110Y-47041795D01*
X53759694Y-47034069D01*
X53757102Y-47028310D01*
X53735321Y-46979914D01*
X53731876Y-46971597D01*
X53730536Y-46968063D01*
X53710818Y-46916070D01*
X53706349Y-46909596D01*
X53693104Y-46886112D01*
X53689878Y-46878943D01*
X53653243Y-46832182D01*
X53647919Y-46824945D01*
X53614183Y-46776071D01*
X53569739Y-46736697D01*
X53563185Y-46730528D01*
X53345470Y-46512813D01*
X53339300Y-46506258D01*
X53299928Y-46461815D01*
X53251056Y-46428081D01*
X53243808Y-46422748D01*
X53197057Y-46386122D01*
X53189887Y-46382895D01*
X53166402Y-46369649D01*
X53159930Y-46365182D01*
X53104406Y-46344124D01*
X53096092Y-46340680D01*
X53041933Y-46316305D01*
X53034190Y-46314886D01*
X53008221Y-46307646D01*
X53000872Y-46304859D01*
X52941941Y-46297703D01*
X52933048Y-46296350D01*
X52874606Y-46285641D01*
X52817672Y-46289086D01*
X52815326Y-46289228D01*
X52806330Y-46289500D01*
X52112372Y-46289500D01*
X51548499Y-46289500D01*
X51491479Y-46278158D01*
X51443140Y-46245859D01*
X51410841Y-46197520D01*
X51399499Y-46140500D01*
X51399499Y-46033836D01*
X51396709Y-45998374D01*
X51395237Y-45993308D01*
X51352618Y-45846610D01*
X51338399Y-45822568D01*
X51318312Y-45760744D01*
X51326460Y-45696250D01*
X51361290Y-45641366D01*
X51873739Y-45128917D01*
X51907999Y-45103335D01*
X51948114Y-45088535D01*
X52095803Y-45057144D01*
X52268730Y-44980151D01*
X52421871Y-44868888D01*
X52548533Y-44728216D01*
X52643179Y-44564284D01*
X52701674Y-44384256D01*
X52721460Y-44196000D01*
X52701674Y-44007744D01*
X52643179Y-43827716D01*
X52548533Y-43663784D01*
X52506859Y-43617500D01*
X52416173Y-43516783D01*
X52382328Y-43453129D01*
X52382328Y-43381036D01*
X52416174Y-43317382D01*
X52421868Y-43311058D01*
X52421871Y-43311056D01*
X52548533Y-43170384D01*
X52643179Y-43006452D01*
X52701674Y-42826424D01*
X52721460Y-42638168D01*
X52701674Y-42449912D01*
X52643179Y-42269884D01*
X52584356Y-42167999D01*
X54549363Y-42167999D01*
X54549364Y-42168000D01*
X55630000Y-42168000D01*
X55630000Y-41087364D01*
X55629999Y-41087363D01*
X56130000Y-41087363D01*
X56130000Y-42168000D01*
X57210636Y-42168000D01*
X57210636Y-42167999D01*
X57153431Y-41954509D01*
X57053600Y-41740423D01*
X56918109Y-41546921D01*
X56751075Y-41379887D01*
X56557582Y-41244401D01*
X56343491Y-41144568D01*
X56130000Y-41087363D01*
X55629999Y-41087363D01*
X55416509Y-41144568D01*
X55202423Y-41244399D01*
X55008921Y-41379890D01*
X54841890Y-41546921D01*
X54706399Y-41740423D01*
X54606568Y-41954509D01*
X54549363Y-42167999D01*
X52584356Y-42167999D01*
X52548533Y-42105952D01*
X52421871Y-41965280D01*
X52312510Y-41885824D01*
X52270089Y-41838087D01*
X52251550Y-41776973D01*
X52260300Y-41713711D01*
X52294730Y-41659925D01*
X53563200Y-40391455D01*
X53569720Y-40385318D01*
X53614183Y-40345929D01*
X53647938Y-40297025D01*
X53653227Y-40289836D01*
X53689878Y-40243056D01*
X53693100Y-40235896D01*
X53706351Y-40212400D01*
X53710818Y-40205930D01*
X53731886Y-40150375D01*
X53735308Y-40142113D01*
X53759695Y-40087931D01*
X53761113Y-40080190D01*
X53768353Y-40054219D01*
X53771140Y-40046872D01*
X53778297Y-39987919D01*
X53779652Y-39979023D01*
X53781030Y-39971507D01*
X53790358Y-39920606D01*
X53786771Y-39861326D01*
X53786500Y-39852330D01*
X53786500Y-38724988D01*
X53796397Y-38671591D01*
X53811819Y-38646423D01*
X53810702Y-38645779D01*
X53818533Y-38632216D01*
X53913179Y-38468284D01*
X53913180Y-38468281D01*
X53959178Y-38326715D01*
X53993824Y-38269129D01*
X54050250Y-38232626D01*
X54116977Y-38224630D01*
X54180431Y-38246768D01*
X54227702Y-38294537D01*
X54304683Y-38419344D01*
X54428655Y-38543316D01*
X54577879Y-38635358D01*
X54744305Y-38690506D01*
X54847017Y-38701000D01*
X55122000Y-38701000D01*
X55122000Y-37863500D01*
X55622000Y-37863500D01*
X55622000Y-38700999D01*
X55896974Y-38700999D01*
X55999698Y-38690505D01*
X56166120Y-38635358D01*
X56315344Y-38543316D01*
X56439316Y-38419344D01*
X56531358Y-38270120D01*
X56586506Y-38103694D01*
X56597000Y-38000983D01*
X56597000Y-37863500D01*
X55622000Y-37863500D01*
X55122000Y-37863500D01*
X54127390Y-37863500D01*
X54109851Y-37873779D01*
X54034624Y-37875255D01*
X53968267Y-37839785D01*
X53927703Y-37776417D01*
X53913179Y-37731716D01*
X53903684Y-37715271D01*
X53818532Y-37567783D01*
X53691872Y-37427113D01*
X53679204Y-37417909D01*
X53538730Y-37315849D01*
X53524618Y-37309566D01*
X53365803Y-37238856D01*
X53305442Y-37226026D01*
X53180646Y-37199500D01*
X52991354Y-37199500D01*
X52898775Y-37219177D01*
X52806196Y-37238856D01*
X52633271Y-37315848D01*
X52480127Y-37427113D01*
X52353467Y-37567783D01*
X52258820Y-37731717D01*
X52200326Y-37911742D01*
X52180539Y-38099999D01*
X52200326Y-38288257D01*
X52258298Y-38466676D01*
X52258821Y-38468284D01*
X52327833Y-38587817D01*
X52361298Y-38645779D01*
X52360180Y-38646423D01*
X52375603Y-38671591D01*
X52385500Y-38724988D01*
X52385500Y-39526125D01*
X52374158Y-39583145D01*
X52341859Y-39631484D01*
X51851118Y-40122224D01*
X51788492Y-40159606D01*
X51715628Y-40162787D01*
X51649983Y-40131005D01*
X51607286Y-40071876D01*
X51597767Y-39999566D01*
X51623705Y-39931403D01*
X51720035Y-39793830D01*
X51819903Y-39579663D01*
X51881063Y-39351408D01*
X51901659Y-39116000D01*
X51881063Y-38880592D01*
X51819903Y-38652337D01*
X51720035Y-38438171D01*
X51584495Y-38244599D01*
X51417401Y-38077505D01*
X51223830Y-37941965D01*
X51009663Y-37842097D01*
X51001034Y-37839785D01*
X50781407Y-37780936D01*
X50546000Y-37760341D01*
X50310592Y-37780936D01*
X50082336Y-37842097D01*
X49868172Y-37941964D01*
X49674598Y-38077505D01*
X49507505Y-38244598D01*
X49397748Y-38401348D01*
X49344494Y-38448050D01*
X49275694Y-38464885D01*
X49206893Y-38448049D01*
X49153640Y-38401348D01*
X49044109Y-38244921D01*
X48877075Y-38077887D01*
X48683582Y-37942401D01*
X48469491Y-37842568D01*
X48256000Y-37785363D01*
X48256000Y-40446635D01*
X48370063Y-40416072D01*
X48434501Y-40413259D01*
X48494090Y-40437941D01*
X48537666Y-40485495D01*
X48557061Y-40547009D01*
X48548642Y-40610956D01*
X48513987Y-40665354D01*
X46696811Y-42482530D01*
X46690259Y-42488698D01*
X46645815Y-42528072D01*
X46612084Y-42576939D01*
X46606754Y-42584183D01*
X46570119Y-42630946D01*
X46566891Y-42638118D01*
X46553653Y-42661589D01*
X46549183Y-42668065D01*
X46528123Y-42723593D01*
X46524681Y-42731901D01*
X46500304Y-42786066D01*
X46498884Y-42793816D01*
X46491646Y-42819778D01*
X46488859Y-42827126D01*
X46481703Y-42886059D01*
X46480350Y-42894952D01*
X46469641Y-42953393D01*
X46473228Y-43012672D01*
X46473500Y-43021670D01*
X46473500Y-43746395D01*
X46454722Y-43818805D01*
X46403121Y-43872964D01*
X46331704Y-43895221D01*
X46258470Y-43879966D01*
X46201880Y-43831043D01*
X46194354Y-43820141D01*
X46181100Y-43796642D01*
X46177878Y-43789482D01*
X46171433Y-43781256D01*
X46155709Y-43761185D01*
X46132150Y-43717899D01*
X46124000Y-43669295D01*
X46124000Y-43607474D01*
X46123530Y-43607121D01*
X46073683Y-43612361D01*
X46022570Y-43599237D01*
X45979238Y-43569120D01*
X45702141Y-43292022D01*
X45669842Y-43243683D01*
X45658500Y-43186663D01*
X45658500Y-42178139D01*
X45669842Y-42121119D01*
X45702141Y-42072780D01*
X45809641Y-41965280D01*
X46163179Y-41611740D01*
X46165801Y-41609183D01*
X46229053Y-41549059D01*
X46252142Y-41515885D01*
X46262209Y-41501422D01*
X46269020Y-41492387D01*
X46305697Y-41447408D01*
X46319048Y-41421846D01*
X46328816Y-41405722D01*
X46345295Y-41382049D01*
X46368193Y-41328688D01*
X46373025Y-41318513D01*
X46399909Y-41267049D01*
X46407839Y-41239331D01*
X46414166Y-41221560D01*
X46423148Y-41200631D01*
X46425540Y-41195058D01*
X46437226Y-41138184D01*
X46439917Y-41127222D01*
X46455886Y-41071418D01*
X46458074Y-41042664D01*
X46460691Y-41024002D01*
X46466500Y-40995741D01*
X46466500Y-40937698D01*
X46466930Y-40926385D01*
X46467552Y-40918216D01*
X46471336Y-40868524D01*
X46467693Y-40839925D01*
X46466500Y-40821103D01*
X46466500Y-40087114D01*
X46477842Y-40030094D01*
X46498527Y-39999135D01*
X46497018Y-39998079D01*
X46532674Y-39947157D01*
X46614253Y-39830649D01*
X46667504Y-39783951D01*
X46736305Y-39767115D01*
X46805105Y-39783950D01*
X46858358Y-39830652D01*
X46967887Y-39987075D01*
X47134924Y-40154112D01*
X47328417Y-40289598D01*
X47542508Y-40389431D01*
X47755999Y-40446636D01*
X47756000Y-40446636D01*
X47756000Y-37785364D01*
X47755999Y-37785363D01*
X47542509Y-37842568D01*
X47328423Y-37942399D01*
X47134921Y-38077890D01*
X46967887Y-38244924D01*
X46858358Y-38401347D01*
X46805105Y-38448049D01*
X46736305Y-38464884D01*
X46667504Y-38448049D01*
X46614251Y-38401347D01*
X46539462Y-38294537D01*
X46504495Y-38244599D01*
X46504494Y-38244598D01*
X46497018Y-38233921D01*
X46498527Y-38232864D01*
X46477842Y-38201906D01*
X46466500Y-38144886D01*
X46466500Y-37560139D01*
X46477842Y-37503119D01*
X46510141Y-37454780D01*
X47868779Y-36096141D01*
X47917118Y-36063842D01*
X47974138Y-36052500D01*
X54057262Y-36052500D01*
X54117602Y-36065264D01*
G37*
%TD.AperFunction*%
%TA.AperFunction,Conductor*%
G36*
X77886020Y-30760821D02*
G01*
X77934359Y-30793120D01*
X77966658Y-30841459D01*
X77978000Y-30898479D01*
X77978000Y-79860500D01*
X77966658Y-79917520D01*
X77934359Y-79965859D01*
X77886020Y-79998158D01*
X77829000Y-80009500D01*
X74606715Y-80009500D01*
X74606009Y-80009498D01*
X50024509Y-79892998D01*
X50018432Y-79891341D01*
X50012150Y-79892939D01*
X32235506Y-79808689D01*
X24532293Y-79772181D01*
X24458093Y-79751986D01*
X24403845Y-79697480D01*
X24384000Y-79623184D01*
X24384000Y-78757500D01*
X49321001Y-78757500D01*
X49321001Y-78894974D01*
X49331494Y-78997698D01*
X49386641Y-79164120D01*
X49478683Y-79313344D01*
X49602655Y-79437316D01*
X49751879Y-79529358D01*
X49918305Y-79584506D01*
X50024055Y-79595310D01*
X50025215Y-79595000D01*
X50296000Y-79595000D01*
X50296000Y-78757500D01*
X50796000Y-78757500D01*
X50796000Y-79594999D01*
X51070974Y-79594999D01*
X51173698Y-79584505D01*
X51340120Y-79529358D01*
X51489344Y-79437316D01*
X51613316Y-79313344D01*
X51705358Y-79164120D01*
X51760506Y-78997694D01*
X51771000Y-78894983D01*
X51771000Y-78757500D01*
X50796000Y-78757500D01*
X50296000Y-78757500D01*
X49321001Y-78757500D01*
X24384000Y-78757500D01*
X24384000Y-75704934D01*
X24400355Y-75637063D01*
X24445831Y-75584093D01*
X24510444Y-75557651D01*
X24580008Y-75563544D01*
X24639253Y-75600476D01*
X24675169Y-75660338D01*
X24677562Y-75667964D01*
X24682053Y-75686265D01*
X24687142Y-75714654D01*
X24708671Y-75768553D01*
X24712463Y-75779202D01*
X24721905Y-75809295D01*
X24729842Y-75834591D01*
X24743837Y-75859805D01*
X24751929Y-75876844D01*
X24762623Y-75903618D01*
X24794557Y-75952072D01*
X24800423Y-75961755D01*
X24828588Y-76012498D01*
X24847370Y-76034376D01*
X24858727Y-76049438D01*
X24874597Y-76073518D01*
X24915632Y-76114552D01*
X24923329Y-76122858D01*
X24961132Y-76166894D01*
X24983932Y-76184542D01*
X24998088Y-76197009D01*
X25952220Y-77151140D01*
X25954855Y-77153843D01*
X25995312Y-77196404D01*
X26014941Y-77217053D01*
X26062580Y-77250210D01*
X26071606Y-77257015D01*
X26116593Y-77293698D01*
X26142163Y-77307054D01*
X26158285Y-77316823D01*
X26181950Y-77333295D01*
X26235289Y-77356184D01*
X26245498Y-77361032D01*
X26296951Y-77387909D01*
X26324675Y-77395841D01*
X26342438Y-77402166D01*
X26368941Y-77413540D01*
X26425783Y-77425221D01*
X26436780Y-77427919D01*
X26492582Y-77443887D01*
X26521336Y-77446076D01*
X26540010Y-77448694D01*
X26568259Y-77454500D01*
X26626289Y-77454500D01*
X26637601Y-77454929D01*
X26695476Y-77459337D01*
X26719646Y-77456258D01*
X26724082Y-77455694D01*
X26742905Y-77454500D01*
X28517613Y-77454500D01*
X28532758Y-77455271D01*
X28534991Y-77455500D01*
X29885008Y-77455499D01*
X29885009Y-77455499D01*
X29887242Y-77455271D01*
X29902380Y-77454500D01*
X34275404Y-77454500D01*
X34279178Y-77454548D01*
X34366361Y-77456757D01*
X34366361Y-77456756D01*
X34366363Y-77456757D01*
X34423487Y-77446518D01*
X34434698Y-77444945D01*
X34492438Y-77439074D01*
X34519950Y-77430441D01*
X34538270Y-77425945D01*
X34566653Y-77420858D01*
X34620558Y-77399324D01*
X34631183Y-77395541D01*
X34686588Y-77378159D01*
X34711792Y-77364168D01*
X34728841Y-77356072D01*
X34733130Y-77354358D01*
X34755617Y-77345377D01*
X34804103Y-77313421D01*
X34813738Y-77307584D01*
X34864502Y-77279409D01*
X34886380Y-77260625D01*
X34901444Y-77249268D01*
X34902348Y-77248671D01*
X34925519Y-77233402D01*
X34966566Y-77192353D01*
X34974860Y-77184668D01*
X35018895Y-77146866D01*
X35036544Y-77124063D01*
X35049002Y-77109917D01*
X36019519Y-76139400D01*
X36055398Y-76112952D01*
X36097497Y-76098299D01*
X36143940Y-76089618D01*
X36351401Y-76009247D01*
X36540562Y-75892124D01*
X36704981Y-75742236D01*
X36839058Y-75564689D01*
X36938229Y-75365528D01*
X36999115Y-75151536D01*
X37019643Y-74930000D01*
X36999115Y-74708464D01*
X36945352Y-74519505D01*
X36938229Y-74494471D01*
X36832904Y-74282951D01*
X36833942Y-74282433D01*
X36822225Y-74260205D01*
X36814500Y-74212851D01*
X36814500Y-74098015D01*
X36831335Y-74029215D01*
X36878035Y-73975963D01*
X36934401Y-73936495D01*
X37101495Y-73769401D01*
X37237035Y-73575830D01*
X37336903Y-73361663D01*
X37398063Y-73133408D01*
X37418659Y-72898000D01*
X37398063Y-72662592D01*
X37336903Y-72434337D01*
X37237035Y-72220171D01*
X37101495Y-72026599D01*
X36934401Y-71859505D01*
X36857515Y-71805669D01*
X36760950Y-71738053D01*
X36712493Y-71681316D01*
X36697617Y-71608201D01*
X36720054Y-71537041D01*
X36774176Y-71485681D01*
X36846413Y-71466999D01*
X37100974Y-71466999D01*
X37203698Y-71456505D01*
X37370120Y-71401358D01*
X37519344Y-71309316D01*
X37643316Y-71185344D01*
X37735358Y-71036120D01*
X37790506Y-70869694D01*
X37801000Y-70766983D01*
X37801000Y-70629500D01*
X35351001Y-70629500D01*
X35351001Y-70766974D01*
X35361494Y-70869698D01*
X35416641Y-71036120D01*
X35508683Y-71185344D01*
X35632655Y-71309316D01*
X35684352Y-71341203D01*
X35732947Y-71389798D01*
X35754564Y-71455033D01*
X35744604Y-71523031D01*
X35705186Y-71579326D01*
X35644696Y-71611943D01*
X35599335Y-71624097D01*
X35385172Y-71723964D01*
X35191594Y-71859508D01*
X35097179Y-71953923D01*
X35033798Y-71991529D01*
X34960148Y-71994159D01*
X34894246Y-71961170D01*
X34852215Y-71900633D01*
X34816796Y-71805669D01*
X34730546Y-71690454D01*
X34615331Y-71604204D01*
X34480483Y-71553909D01*
X34480482Y-71553908D01*
X34480480Y-71553908D01*
X34420876Y-71547500D01*
X32625123Y-71547500D01*
X32565518Y-71553908D01*
X32430670Y-71604203D01*
X32315454Y-71690454D01*
X32229204Y-71805669D01*
X32178908Y-71940519D01*
X32172500Y-72000123D01*
X32172500Y-73795876D01*
X32178908Y-73855481D01*
X32223844Y-73975962D01*
X32229204Y-73990331D01*
X32315454Y-74105546D01*
X32430669Y-74191796D01*
X32565517Y-74242091D01*
X32625127Y-74248500D01*
X34420872Y-74248499D01*
X34420876Y-74248499D01*
X34480483Y-74242091D01*
X34538109Y-74220598D01*
X34608158Y-74212292D01*
X34674178Y-74237137D01*
X34721371Y-74289565D01*
X34739160Y-74357825D01*
X34723559Y-74426616D01*
X34689771Y-74494472D01*
X34664473Y-74583383D01*
X34642763Y-74659685D01*
X34604810Y-74724267D01*
X33919221Y-75409859D01*
X33870882Y-75442158D01*
X33813862Y-75453500D01*
X30291133Y-75453500D01*
X30250481Y-75447847D01*
X30212913Y-75431317D01*
X30154335Y-75395186D01*
X30064832Y-75365528D01*
X29987797Y-75340001D01*
X29987795Y-75340000D01*
X29987793Y-75340000D01*
X29885013Y-75329500D01*
X28534995Y-75329500D01*
X28432201Y-75340001D01*
X28265664Y-75395186D01*
X28207087Y-75431317D01*
X28169519Y-75447847D01*
X28128867Y-75453500D01*
X27146139Y-75453500D01*
X27089119Y-75442158D01*
X27040780Y-75409859D01*
X26698141Y-75067221D01*
X26665842Y-75018882D01*
X26654500Y-74961862D01*
X26654500Y-73717500D01*
X27835001Y-73717500D01*
X27835001Y-73829974D01*
X27845494Y-73932698D01*
X27900641Y-74099120D01*
X27992683Y-74248344D01*
X28116655Y-74372316D01*
X28265879Y-74464358D01*
X28432305Y-74519506D01*
X28535017Y-74530000D01*
X28960000Y-74530000D01*
X28960000Y-73717500D01*
X29460000Y-73717500D01*
X29460000Y-74529999D01*
X29884974Y-74529999D01*
X29987698Y-74519505D01*
X30154120Y-74464358D01*
X30303344Y-74372316D01*
X30427316Y-74248344D01*
X30519358Y-74099120D01*
X30574506Y-73932694D01*
X30585000Y-73829983D01*
X30585000Y-73717500D01*
X29460000Y-73717500D01*
X28960000Y-73717500D01*
X27835001Y-73717500D01*
X26654500Y-73717500D01*
X26654500Y-73217500D01*
X27835000Y-73217500D01*
X28960000Y-73217500D01*
X28960000Y-72405001D01*
X28535026Y-72405001D01*
X28432301Y-72415494D01*
X28265879Y-72470641D01*
X28116655Y-72562683D01*
X27992683Y-72686655D01*
X27900641Y-72835879D01*
X27845493Y-73002305D01*
X27835000Y-73105017D01*
X27835000Y-73217500D01*
X26654500Y-73217500D01*
X26654500Y-72405000D01*
X29460000Y-72405000D01*
X29460000Y-73217500D01*
X30584999Y-73217500D01*
X30584999Y-73105026D01*
X30574505Y-73002301D01*
X30519358Y-72835879D01*
X30427316Y-72686655D01*
X30303344Y-72562683D01*
X30154120Y-72470641D01*
X29987694Y-72415493D01*
X29884983Y-72405000D01*
X29460000Y-72405000D01*
X26654500Y-72405000D01*
X26654500Y-70065694D01*
X27291500Y-70065694D01*
X27294402Y-70102569D01*
X27340256Y-70260398D01*
X27423919Y-70401865D01*
X27540135Y-70518081D01*
X27681602Y-70601744D01*
X27839431Y-70647598D01*
X27876306Y-70650500D01*
X29657690Y-70650500D01*
X29657694Y-70650500D01*
X29694569Y-70647598D01*
X29852398Y-70601744D01*
X29993865Y-70518081D01*
X30110081Y-70401865D01*
X30193744Y-70260398D01*
X30239598Y-70102569D01*
X30242500Y-70065694D01*
X30242500Y-69634306D01*
X30239598Y-69597431D01*
X30193744Y-69439602D01*
X30110081Y-69298135D01*
X30110078Y-69298132D01*
X30105770Y-69290847D01*
X30087376Y-69241386D01*
X30087376Y-69188614D01*
X30105770Y-69139153D01*
X30110078Y-69131867D01*
X30110081Y-69131865D01*
X30193744Y-68990398D01*
X30239598Y-68832569D01*
X30242500Y-68795694D01*
X30242500Y-68364306D01*
X30239598Y-68327431D01*
X30193744Y-68169602D01*
X30110081Y-68028135D01*
X30110078Y-68028132D01*
X30105770Y-68020847D01*
X30087376Y-67971386D01*
X30087376Y-67918614D01*
X30105770Y-67869153D01*
X30110078Y-67861867D01*
X30110081Y-67861865D01*
X30193744Y-67720398D01*
X30239598Y-67562569D01*
X30242500Y-67525694D01*
X30242500Y-67094306D01*
X30239598Y-67057431D01*
X30193744Y-66899602D01*
X30110081Y-66758135D01*
X30110079Y-66758133D01*
X30105480Y-66750356D01*
X30087086Y-66700894D01*
X30087086Y-66648123D01*
X30105480Y-66598662D01*
X30193281Y-66450197D01*
X30239099Y-66292489D01*
X30239296Y-66290000D01*
X27294704Y-66290000D01*
X27294900Y-66292489D01*
X27340719Y-66450200D01*
X27428519Y-66598663D01*
X27446913Y-66648124D01*
X27446913Y-66700894D01*
X27428519Y-66750355D01*
X27340257Y-66899600D01*
X27295121Y-67054957D01*
X27294402Y-67057431D01*
X27291500Y-67094306D01*
X27291500Y-67525694D01*
X27294402Y-67562569D01*
X27340256Y-67720398D01*
X27340257Y-67720399D01*
X27428229Y-67869154D01*
X27446623Y-67918615D01*
X27446623Y-67971385D01*
X27428229Y-68020846D01*
X27372658Y-68114813D01*
X27340256Y-68169602D01*
X27324596Y-68223505D01*
X27299161Y-68311052D01*
X27294402Y-68327431D01*
X27291500Y-68364306D01*
X27291500Y-68795694D01*
X27294402Y-68832569D01*
X27340256Y-68990398D01*
X27340257Y-68990399D01*
X27428229Y-69139154D01*
X27446623Y-69188615D01*
X27446623Y-69241385D01*
X27428229Y-69290846D01*
X27340257Y-69439600D01*
X27340256Y-69439602D01*
X27331879Y-69468437D01*
X27295379Y-69594069D01*
X27294402Y-69597431D01*
X27291500Y-69634306D01*
X27291500Y-70065694D01*
X26654500Y-70065694D01*
X26654500Y-66060252D01*
X26663131Y-66010278D01*
X26688020Y-65966095D01*
X26747698Y-65892907D01*
X26841909Y-65712549D01*
X26880262Y-65578510D01*
X26910458Y-65522446D01*
X26961304Y-65484108D01*
X27023513Y-65470500D01*
X27188551Y-65470500D01*
X27255151Y-65486213D01*
X27307704Y-65530038D01*
X27335127Y-65592731D01*
X27331635Y-65661070D01*
X27294900Y-65787510D01*
X27294704Y-65789999D01*
X27294704Y-65790000D01*
X30239296Y-65790000D01*
X30239295Y-65789999D01*
X30239099Y-65787510D01*
X30193281Y-65629802D01*
X30105480Y-65481337D01*
X30087086Y-65431875D01*
X30087086Y-65379104D01*
X30105480Y-65329643D01*
X30110078Y-65321867D01*
X30110081Y-65321865D01*
X30193744Y-65180398D01*
X30239598Y-65022569D01*
X30242500Y-64985694D01*
X30242500Y-64554306D01*
X30239598Y-64517431D01*
X30193744Y-64359602D01*
X30110081Y-64218135D01*
X30110080Y-64218134D01*
X30105770Y-64210846D01*
X30087376Y-64161384D01*
X30087376Y-64108613D01*
X30105771Y-64059152D01*
X30110079Y-64051866D01*
X30110081Y-64051865D01*
X30193744Y-63910398D01*
X30239598Y-63752569D01*
X30242500Y-63715694D01*
X30242500Y-63284306D01*
X30239598Y-63247431D01*
X30193744Y-63089602D01*
X30189903Y-63083107D01*
X30169876Y-63021908D01*
X30177542Y-62957974D01*
X30211469Y-62903245D01*
X30265321Y-62867943D01*
X30299930Y-62854818D01*
X30306394Y-62850355D01*
X30329890Y-62837103D01*
X30337057Y-62833878D01*
X30383823Y-62797238D01*
X30391043Y-62791926D01*
X30439929Y-62758183D01*
X30479318Y-62713720D01*
X30485455Y-62707200D01*
X30834200Y-62358455D01*
X30840720Y-62352318D01*
X30885183Y-62312929D01*
X30918926Y-62264043D01*
X30924238Y-62256823D01*
X30960878Y-62210057D01*
X30964101Y-62202894D01*
X30977351Y-62179400D01*
X30981818Y-62172930D01*
X31002887Y-62117371D01*
X31006302Y-62109126D01*
X31030694Y-62054932D01*
X31032110Y-62047201D01*
X31039351Y-62021222D01*
X31042140Y-62013872D01*
X31049300Y-61954895D01*
X31050648Y-61946037D01*
X31061357Y-61887606D01*
X31057771Y-61828337D01*
X31057500Y-61819341D01*
X31057500Y-60786621D01*
X31076393Y-60714005D01*
X31128279Y-60659804D01*
X31138156Y-60653712D01*
X31262212Y-60529656D01*
X31354314Y-60380334D01*
X31409499Y-60213797D01*
X31420000Y-60111009D01*
X31419999Y-58760992D01*
X31409499Y-58658203D01*
X31354314Y-58491666D01*
X31262212Y-58342344D01*
X31138156Y-58218288D01*
X30988834Y-58126186D01*
X30822297Y-58071001D01*
X30822295Y-58071000D01*
X30822293Y-58071000D01*
X30719514Y-58060500D01*
X30149378Y-58060500D01*
X30081733Y-58044260D01*
X30028834Y-57999080D01*
X30002212Y-57934808D01*
X30007671Y-57865456D01*
X30044020Y-57806140D01*
X30114816Y-57735343D01*
X30206858Y-57586120D01*
X30262006Y-57419694D01*
X30272500Y-57316983D01*
X30272500Y-56892000D01*
X29109000Y-56892000D01*
X29051980Y-56880658D01*
X29003641Y-56848359D01*
X28971342Y-56800020D01*
X28960000Y-56743000D01*
X28960000Y-55267001D01*
X28847526Y-55267001D01*
X28744801Y-55277494D01*
X28578379Y-55332641D01*
X28429155Y-55424683D01*
X28305183Y-55548655D01*
X28213141Y-55697879D01*
X28157993Y-55864305D01*
X28147500Y-55967017D01*
X28147500Y-56149397D01*
X28128143Y-56222839D01*
X28075101Y-56277199D01*
X28002156Y-56298352D01*
X27928263Y-56280803D01*
X27819820Y-56222839D01*
X27816726Y-56221185D01*
X27628133Y-56163976D01*
X27432000Y-56144659D01*
X27235866Y-56163976D01*
X27047271Y-56221186D01*
X26873465Y-56314087D01*
X26721117Y-56439117D01*
X26596087Y-56591465D01*
X26503186Y-56765271D01*
X26445976Y-56953866D01*
X26426659Y-57150000D01*
X26445976Y-57346133D01*
X26503186Y-57534728D01*
X26596087Y-57708534D01*
X26596089Y-57708537D01*
X26596090Y-57708538D01*
X26618345Y-57735656D01*
X26721119Y-57860886D01*
X26778245Y-57907768D01*
X26820481Y-57963806D01*
X26832383Y-58032962D01*
X26811312Y-58099896D01*
X26761941Y-58149763D01*
X26650843Y-58218288D01*
X26526786Y-58342345D01*
X26490409Y-58401322D01*
X26447452Y-58446261D01*
X26407098Y-58462736D01*
X26407413Y-58463524D01*
X26339451Y-58490669D01*
X26328792Y-58494464D01*
X26273410Y-58511841D01*
X26248195Y-58525836D01*
X26231164Y-58533924D01*
X26204382Y-58544622D01*
X26155925Y-58576557D01*
X26146249Y-58582419D01*
X26095499Y-58610589D01*
X26073616Y-58629375D01*
X26058561Y-58640726D01*
X26034483Y-58656595D01*
X25993443Y-58697635D01*
X25985142Y-58705328D01*
X25941105Y-58743133D01*
X25923453Y-58765937D01*
X25910991Y-58780086D01*
X25737221Y-58953858D01*
X25688881Y-58986158D01*
X25631861Y-58997500D01*
X25542757Y-58997500D01*
X25324057Y-59038382D01*
X25116598Y-59118752D01*
X24927440Y-59235874D01*
X24763019Y-59385763D01*
X24651905Y-59532903D01*
X24594441Y-59578853D01*
X24521996Y-59591704D01*
X24452234Y-59568322D01*
X24402166Y-59514409D01*
X24384000Y-59443111D01*
X24384000Y-55267000D01*
X29460000Y-55267000D01*
X29460000Y-56392000D01*
X30272499Y-56392000D01*
X30272499Y-55967026D01*
X30262005Y-55864301D01*
X30206858Y-55697879D01*
X30114816Y-55548655D01*
X29990844Y-55424683D01*
X29841620Y-55332641D01*
X29675194Y-55277493D01*
X29572483Y-55267000D01*
X29460000Y-55267000D01*
X24384000Y-55267000D01*
X24384000Y-53844000D01*
X29638000Y-53844000D01*
X29638000Y-54491831D01*
X29644401Y-54551373D01*
X29694647Y-54686088D01*
X29780811Y-54801188D01*
X29895911Y-54887352D01*
X30030626Y-54937598D01*
X30090169Y-54944000D01*
X30738000Y-54944000D01*
X30738000Y-53844000D01*
X31238000Y-53844000D01*
X31238000Y-54944000D01*
X31885831Y-54944000D01*
X31945373Y-54937598D01*
X32080088Y-54887352D01*
X32195188Y-54801188D01*
X32281352Y-54686088D01*
X32331598Y-54551373D01*
X32338000Y-54491831D01*
X32338000Y-53844000D01*
X31238000Y-53844000D01*
X30738000Y-53844000D01*
X29638000Y-53844000D01*
X24384000Y-53844000D01*
X24384000Y-51053999D01*
X29632341Y-51053999D01*
X29652936Y-51289407D01*
X29714097Y-51517663D01*
X29806296Y-51715385D01*
X29813965Y-51731830D01*
X29903457Y-51859637D01*
X29949505Y-51925401D01*
X30044311Y-52020207D01*
X30081916Y-52083588D01*
X30084547Y-52157238D01*
X30051559Y-52223140D01*
X29991023Y-52265171D01*
X29895913Y-52300645D01*
X29780811Y-52386811D01*
X29694647Y-52501911D01*
X29644401Y-52636626D01*
X29638000Y-52696169D01*
X29638000Y-53344000D01*
X32338000Y-53344000D01*
X32338000Y-52908639D01*
X32354240Y-52840994D01*
X32399420Y-52788095D01*
X32463691Y-52761473D01*
X32533044Y-52766932D01*
X32592359Y-52803280D01*
X33318238Y-53529159D01*
X33320873Y-53531862D01*
X33380941Y-53595053D01*
X33428584Y-53628214D01*
X33437603Y-53635014D01*
X33482593Y-53671698D01*
X33499681Y-53680624D01*
X33551675Y-53725715D01*
X33577859Y-53789365D01*
X33572643Y-53857992D01*
X33537141Y-53916954D01*
X33500683Y-53939947D01*
X33502185Y-53942498D01*
X33313774Y-54053409D01*
X33313772Y-54053410D01*
X33313773Y-54053410D01*
X33162787Y-54189821D01*
X33149130Y-54208420D01*
X33042350Y-54353833D01*
X32957395Y-54538730D01*
X32922067Y-54690961D01*
X32907201Y-54729589D01*
X32882283Y-54762637D01*
X32422061Y-55222859D01*
X32373722Y-55255158D01*
X32316702Y-55266500D01*
X31772495Y-55266500D01*
X31669701Y-55277001D01*
X31503166Y-55332186D01*
X31353843Y-55424288D01*
X31229788Y-55548343D01*
X31137686Y-55697666D01*
X31082500Y-55864206D01*
X31072000Y-55966986D01*
X31072000Y-57317004D01*
X31082501Y-57419797D01*
X31137686Y-57586334D01*
X31229788Y-57735656D01*
X31353844Y-57859712D01*
X31503166Y-57951814D01*
X31669703Y-58006999D01*
X31772491Y-58017500D01*
X32497508Y-58017499D01*
X32600297Y-58006999D01*
X32766834Y-57951814D01*
X32916156Y-57859712D01*
X33040212Y-57735656D01*
X33132314Y-57586334D01*
X33187499Y-57419797D01*
X33198000Y-57317009D01*
X33197999Y-56772794D01*
X33209341Y-56715775D01*
X33241637Y-56667439D01*
X33664222Y-56244854D01*
X33712558Y-56212558D01*
X33769578Y-56201216D01*
X33826598Y-56212558D01*
X33874935Y-56244855D01*
X33910883Y-56280803D01*
X34007859Y-56377779D01*
X34040158Y-56426118D01*
X34051500Y-56483138D01*
X34051500Y-56701731D01*
X34045847Y-56742384D01*
X34029317Y-56779952D01*
X33996186Y-56833666D01*
X33941000Y-57000206D01*
X33930500Y-57102986D01*
X33930500Y-57828004D01*
X33941001Y-57930797D01*
X33996186Y-58097334D01*
X34088288Y-58246656D01*
X34212344Y-58370712D01*
X34361666Y-58462814D01*
X34528203Y-58517999D01*
X34630991Y-58528500D01*
X34645600Y-58528499D01*
X34687425Y-58538205D01*
X34688059Y-58535761D01*
X34702725Y-58539558D01*
X34702729Y-58539560D01*
X34899715Y-58590563D01*
X35102936Y-58600869D01*
X35304071Y-58570056D01*
X35367868Y-58546428D01*
X35391235Y-58537774D01*
X35442983Y-58528499D01*
X35981005Y-58528499D01*
X35981008Y-58528499D01*
X36083797Y-58517999D01*
X36250334Y-58462814D01*
X36399656Y-58370712D01*
X36523712Y-58246656D01*
X36615814Y-58097334D01*
X36670999Y-57930797D01*
X36681500Y-57828009D01*
X36681499Y-57102992D01*
X36670999Y-57000203D01*
X36615814Y-56833666D01*
X36523712Y-56684344D01*
X36399656Y-56560288D01*
X36250334Y-56468186D01*
X36250333Y-56468185D01*
X36250332Y-56468185D01*
X36193457Y-56449338D01*
X36154632Y-56436473D01*
X36101371Y-56405378D01*
X36065264Y-56355377D01*
X36052500Y-56295037D01*
X36052500Y-56021580D01*
X36052548Y-56017805D01*
X36054757Y-55930638D01*
X36047489Y-55890090D01*
X36044517Y-55873508D01*
X36042945Y-55862299D01*
X36037074Y-55804562D01*
X36028440Y-55777045D01*
X36023944Y-55758724D01*
X36020280Y-55738283D01*
X36018858Y-55730347D01*
X35997324Y-55676437D01*
X35993535Y-55665794D01*
X35976159Y-55610412D01*
X35962164Y-55585198D01*
X35954072Y-55568159D01*
X35949056Y-55555601D01*
X35944222Y-55543499D01*
X35934022Y-55476918D01*
X35954188Y-55412644D01*
X36000598Y-55363820D01*
X36063767Y-55340425D01*
X36130784Y-55347240D01*
X36187951Y-55382872D01*
X40779069Y-59973990D01*
X40809022Y-60016965D01*
X40822250Y-60067651D01*
X40822400Y-60069563D01*
X40834442Y-60111009D01*
X40868256Y-60227398D01*
X40877399Y-60242858D01*
X40956229Y-60376154D01*
X40974623Y-60425615D01*
X40974623Y-60478385D01*
X40956229Y-60527846D01*
X40870635Y-60672579D01*
X40868256Y-60676602D01*
X40850926Y-60736253D01*
X40827424Y-60817147D01*
X40822402Y-60834431D01*
X40819500Y-60871306D01*
X40819500Y-61302694D01*
X40822402Y-61339569D01*
X40868256Y-61497398D01*
X40895660Y-61543736D01*
X40956229Y-61646154D01*
X40974623Y-61695615D01*
X40974623Y-61748385D01*
X40956229Y-61797846D01*
X40868257Y-61946600D01*
X40868256Y-61946602D01*
X40850611Y-62007335D01*
X40833005Y-62067937D01*
X40822402Y-62104431D01*
X40819500Y-62141306D01*
X40819500Y-62572694D01*
X40822402Y-62609569D01*
X40868256Y-62767398D01*
X40888664Y-62801906D01*
X40956229Y-62916154D01*
X40974623Y-62965615D01*
X40974623Y-63018385D01*
X40956229Y-63067846D01*
X40876918Y-63201955D01*
X40868256Y-63216602D01*
X40822402Y-63374431D01*
X40819500Y-63411306D01*
X40819500Y-63842694D01*
X40822402Y-63879569D01*
X40868256Y-64037398D01*
X40951919Y-64178865D01*
X41068135Y-64295081D01*
X41146347Y-64341335D01*
X41199926Y-64395763D01*
X41219500Y-64469586D01*
X41219500Y-65852500D01*
X41208158Y-65909520D01*
X41175859Y-65957859D01*
X41127520Y-65990158D01*
X41070500Y-66001500D01*
X39583361Y-66001500D01*
X39515845Y-65985326D01*
X39462988Y-65940314D01*
X39436264Y-65876237D01*
X39441476Y-65807007D01*
X39477492Y-65747653D01*
X39536492Y-65711063D01*
X39552334Y-65705814D01*
X39701656Y-65613712D01*
X39825712Y-65489656D01*
X39917814Y-65340334D01*
X39972999Y-65173797D01*
X39983500Y-65071009D01*
X39983499Y-64345992D01*
X39972999Y-64243203D01*
X39917814Y-64076666D01*
X39825712Y-63927344D01*
X39701656Y-63803288D01*
X39552334Y-63711186D01*
X39385797Y-63656001D01*
X39385795Y-63656000D01*
X39385793Y-63656000D01*
X39283013Y-63645500D01*
X37932991Y-63645500D01*
X37931365Y-63645667D01*
X37929988Y-63645500D01*
X37925402Y-63645501D01*
X37925402Y-63644948D01*
X37866286Y-63637816D01*
X37810874Y-63602796D01*
X37078260Y-62870182D01*
X37047038Y-62850564D01*
X37033412Y-62840896D01*
X37004586Y-62817908D01*
X36971359Y-62801906D01*
X36956741Y-62793826D01*
X36925525Y-62774212D01*
X36906052Y-62767398D01*
X36890712Y-62762030D01*
X36875284Y-62755639D01*
X36842059Y-62739639D01*
X36806102Y-62731431D01*
X36790055Y-62726808D01*
X36748133Y-62712140D01*
X36690033Y-62674873D01*
X36654961Y-62615421D01*
X36650446Y-62546543D01*
X36677455Y-62483022D01*
X36730193Y-62438488D01*
X36797341Y-62422500D01*
X37219446Y-62422500D01*
X37292062Y-62441393D01*
X37346263Y-62493280D01*
X37390286Y-62564654D01*
X37390287Y-62564655D01*
X37390288Y-62564656D01*
X37514344Y-62688712D01*
X37663666Y-62780814D01*
X37830203Y-62835999D01*
X37932991Y-62846500D01*
X39283008Y-62846499D01*
X39385797Y-62835999D01*
X39552334Y-62780814D01*
X39701656Y-62688712D01*
X39825712Y-62564656D01*
X39917814Y-62415334D01*
X39972999Y-62248797D01*
X39983500Y-62146009D01*
X39983499Y-61420992D01*
X39972999Y-61318203D01*
X39917814Y-61151666D01*
X39825712Y-61002344D01*
X39701656Y-60878288D01*
X39552334Y-60786186D01*
X39385797Y-60731001D01*
X39385795Y-60731000D01*
X39385793Y-60731000D01*
X39283013Y-60720500D01*
X37932995Y-60720500D01*
X37830201Y-60731001D01*
X37663666Y-60786186D01*
X37514343Y-60878288D01*
X37414773Y-60977859D01*
X37366434Y-61010158D01*
X37309414Y-61021500D01*
X36819068Y-61021500D01*
X36758563Y-61008662D01*
X36708485Y-60972361D01*
X36677461Y-60918853D01*
X36670840Y-60857357D01*
X36678066Y-60786621D01*
X36681500Y-60753009D01*
X36681499Y-60027992D01*
X36670999Y-59925203D01*
X36615814Y-59758666D01*
X36523712Y-59609344D01*
X36399656Y-59485288D01*
X36250334Y-59393186D01*
X36083797Y-59338001D01*
X36083795Y-59338000D01*
X36083793Y-59338000D01*
X35981013Y-59327500D01*
X34630995Y-59327500D01*
X34528201Y-59338001D01*
X34361666Y-59393186D01*
X34344803Y-59403587D01*
X34284723Y-59424660D01*
X34221332Y-59418730D01*
X34166204Y-59386880D01*
X34164983Y-59385767D01*
X34164981Y-59385764D01*
X34000562Y-59235876D01*
X34000559Y-59235874D01*
X33811401Y-59118752D01*
X33603942Y-59038382D01*
X33385243Y-58997500D01*
X33162757Y-58997500D01*
X32944057Y-59038382D01*
X32736598Y-59118752D01*
X32547440Y-59235874D01*
X32383021Y-59385761D01*
X32248939Y-59563314D01*
X32149770Y-59762471D01*
X32088885Y-59976464D01*
X32068356Y-60198000D01*
X32088885Y-60419535D01*
X32149770Y-60633528D01*
X32255096Y-60845049D01*
X32254057Y-60845566D01*
X32265775Y-60867795D01*
X32273500Y-60915149D01*
X32273500Y-61772404D01*
X32273452Y-61776179D01*
X32271129Y-61867838D01*
X32265261Y-61905632D01*
X32244402Y-61977429D01*
X32244402Y-61977430D01*
X32244402Y-61977431D01*
X32241500Y-62014306D01*
X32241500Y-62445694D01*
X32244402Y-62482569D01*
X32290256Y-62640398D01*
X32313864Y-62680317D01*
X32378229Y-62789154D01*
X32396623Y-62838615D01*
X32396623Y-62891385D01*
X32378229Y-62940846D01*
X32294097Y-63083107D01*
X32290256Y-63089602D01*
X32244402Y-63247431D01*
X32241500Y-63284306D01*
X32241500Y-63715694D01*
X32244402Y-63752569D01*
X32290256Y-63910398D01*
X32293610Y-63916069D01*
X32378229Y-64059154D01*
X32396623Y-64108615D01*
X32396623Y-64161385D01*
X32378229Y-64210846D01*
X32328414Y-64295080D01*
X32290256Y-64359602D01*
X32244402Y-64517431D01*
X32241500Y-64554306D01*
X32241500Y-64985694D01*
X32244402Y-65022569D01*
X32290256Y-65180398D01*
X32313943Y-65220451D01*
X32378229Y-65329154D01*
X32396623Y-65378615D01*
X32396623Y-65431385D01*
X32378229Y-65480846D01*
X32322762Y-65574637D01*
X32290256Y-65629602D01*
X32268114Y-65705814D01*
X32249031Y-65771499D01*
X32244402Y-65787431D01*
X32241500Y-65824306D01*
X32241500Y-66255694D01*
X32244402Y-66292569D01*
X32290256Y-66450398D01*
X32290257Y-66450399D01*
X32378229Y-66599154D01*
X32396623Y-66648615D01*
X32396623Y-66701385D01*
X32378229Y-66750846D01*
X32290257Y-66899600D01*
X32245121Y-67054957D01*
X32244402Y-67057431D01*
X32241500Y-67094306D01*
X32241500Y-67525694D01*
X32244402Y-67562569D01*
X32290256Y-67720398D01*
X32290257Y-67720399D01*
X32378229Y-67869154D01*
X32396623Y-67918615D01*
X32396623Y-67971385D01*
X32378229Y-68020846D01*
X32322658Y-68114813D01*
X32290256Y-68169602D01*
X32274596Y-68223505D01*
X32249161Y-68311052D01*
X32244402Y-68327431D01*
X32241500Y-68364306D01*
X32241500Y-68795694D01*
X32244402Y-68832569D01*
X32290256Y-68990398D01*
X32290257Y-68990399D01*
X32378229Y-69139154D01*
X32396623Y-69188615D01*
X32396623Y-69241385D01*
X32378229Y-69290846D01*
X32290257Y-69439600D01*
X32290256Y-69439602D01*
X32281879Y-69468437D01*
X32245379Y-69594069D01*
X32244402Y-69597431D01*
X32241500Y-69634306D01*
X32241500Y-70065694D01*
X32244402Y-70102569D01*
X32290256Y-70260398D01*
X32373919Y-70401865D01*
X32490135Y-70518081D01*
X32631602Y-70601744D01*
X32789431Y-70647598D01*
X32826306Y-70650500D01*
X34607690Y-70650500D01*
X34607694Y-70650500D01*
X34644569Y-70647598D01*
X34802398Y-70601744D01*
X34943865Y-70518081D01*
X35060081Y-70401865D01*
X35143744Y-70260398D01*
X35150563Y-70236928D01*
X35180855Y-70181139D01*
X35231621Y-70143024D01*
X35293646Y-70129500D01*
X37800999Y-70129500D01*
X37800999Y-70026795D01*
X37817239Y-69959150D01*
X37862419Y-69906251D01*
X37926690Y-69879629D01*
X37996043Y-69885088D01*
X38055358Y-69921436D01*
X39496591Y-71362669D01*
X39531744Y-71418457D01*
X39539378Y-71483953D01*
X39538500Y-71492120D01*
X39538500Y-73287876D01*
X39544908Y-73347481D01*
X39592701Y-73475622D01*
X39595204Y-73482331D01*
X39681454Y-73597546D01*
X39796669Y-73683796D01*
X39796671Y-73683796D01*
X39807191Y-73691672D01*
X39842322Y-73713664D01*
X39876470Y-73762846D01*
X39888500Y-73821500D01*
X39888500Y-77196404D01*
X39888452Y-77200178D01*
X39886242Y-77287362D01*
X39896482Y-77344493D01*
X39898054Y-77355702D01*
X39903926Y-77413438D01*
X39912559Y-77440956D01*
X39917053Y-77459265D01*
X39922142Y-77487654D01*
X39943671Y-77541553D01*
X39947463Y-77552202D01*
X39954840Y-77575712D01*
X39964842Y-77607591D01*
X39978837Y-77632805D01*
X39986929Y-77649844D01*
X39997623Y-77676618D01*
X40029557Y-77725072D01*
X40035423Y-77734755D01*
X40063590Y-77785501D01*
X40082369Y-77807376D01*
X40093726Y-77822437D01*
X40109597Y-77846518D01*
X40150634Y-77887555D01*
X40158329Y-77895858D01*
X40190636Y-77933491D01*
X40196136Y-77939897D01*
X40218936Y-77957546D01*
X40233090Y-77970011D01*
X40684238Y-78421159D01*
X40686873Y-78423862D01*
X40716156Y-78454668D01*
X40746941Y-78487053D01*
X40794584Y-78520214D01*
X40803603Y-78527014D01*
X40808038Y-78530630D01*
X40848593Y-78563698D01*
X40874150Y-78577048D01*
X40890283Y-78586822D01*
X40913951Y-78603295D01*
X40942105Y-78615377D01*
X40967289Y-78626184D01*
X40977498Y-78631032D01*
X41028951Y-78657909D01*
X41056675Y-78665841D01*
X41074438Y-78672166D01*
X41100941Y-78683540D01*
X41157783Y-78695221D01*
X41168780Y-78697919D01*
X41224582Y-78713887D01*
X41253336Y-78716076D01*
X41272010Y-78718694D01*
X41300259Y-78724500D01*
X41358290Y-78724500D01*
X41369602Y-78724929D01*
X41427477Y-78729337D01*
X41451647Y-78726258D01*
X41456083Y-78725694D01*
X41474906Y-78724500D01*
X46467404Y-78724500D01*
X46471178Y-78724548D01*
X46558361Y-78726757D01*
X46558361Y-78726756D01*
X46558363Y-78726757D01*
X46615487Y-78716518D01*
X46626698Y-78714945D01*
X46684438Y-78709074D01*
X46711950Y-78700441D01*
X46730270Y-78695945D01*
X46758653Y-78690858D01*
X46812558Y-78669324D01*
X46823183Y-78665541D01*
X46878588Y-78648159D01*
X46903792Y-78634168D01*
X46920841Y-78626072D01*
X46925130Y-78624358D01*
X46947617Y-78615377D01*
X46996103Y-78583421D01*
X47005738Y-78577584D01*
X47056502Y-78549409D01*
X47078380Y-78530625D01*
X47093444Y-78519268D01*
X47117517Y-78503403D01*
X47117516Y-78503403D01*
X47117519Y-78503402D01*
X47158566Y-78462353D01*
X47166860Y-78454668D01*
X47210895Y-78416866D01*
X47228544Y-78394063D01*
X47241002Y-78379917D01*
X48144279Y-77476641D01*
X48192619Y-77444342D01*
X48249639Y-77433000D01*
X49387621Y-77433000D01*
X49455266Y-77449240D01*
X49508165Y-77494420D01*
X49534787Y-77558691D01*
X49529328Y-77628044D01*
X49492980Y-77687359D01*
X49478683Y-77701655D01*
X49386641Y-77850879D01*
X49331493Y-78017305D01*
X49321000Y-78120017D01*
X49321000Y-78257500D01*
X51770999Y-78257500D01*
X51770999Y-78120026D01*
X51760505Y-78017301D01*
X51705358Y-77850879D01*
X51624631Y-77720000D01*
X66487364Y-77720000D01*
X66544568Y-77933491D01*
X66644401Y-78147582D01*
X66779887Y-78341075D01*
X66946924Y-78508112D01*
X67140417Y-78643598D01*
X67354508Y-78743431D01*
X67567999Y-78800636D01*
X67568000Y-78800636D01*
X67568000Y-77720000D01*
X68068000Y-77720000D01*
X68068000Y-78800636D01*
X68281491Y-78743431D01*
X68495582Y-78643598D01*
X68689075Y-78508112D01*
X68856112Y-78341075D01*
X68991598Y-78147582D01*
X69091431Y-77933491D01*
X69148636Y-77720000D01*
X70043364Y-77720000D01*
X70100568Y-77933491D01*
X70200401Y-78147582D01*
X70335887Y-78341075D01*
X70502924Y-78508112D01*
X70696417Y-78643598D01*
X70910508Y-78743431D01*
X71123999Y-78800636D01*
X71124000Y-78800636D01*
X71124000Y-77720000D01*
X71624000Y-77720000D01*
X71624000Y-78800636D01*
X71837491Y-78743431D01*
X72051582Y-78643598D01*
X72245075Y-78508112D01*
X72412112Y-78341075D01*
X72547598Y-78147582D01*
X72647431Y-77933491D01*
X72704636Y-77720000D01*
X73599364Y-77720000D01*
X73656568Y-77933491D01*
X73756401Y-78147582D01*
X73891887Y-78341075D01*
X74058924Y-78508112D01*
X74252417Y-78643598D01*
X74466508Y-78743431D01*
X74679999Y-78800636D01*
X74680000Y-78800636D01*
X74680000Y-77720000D01*
X75180000Y-77720000D01*
X75180000Y-78800636D01*
X75393491Y-78743431D01*
X75607582Y-78643598D01*
X75801075Y-78508112D01*
X75968112Y-78341075D01*
X76103598Y-78147582D01*
X76203431Y-77933491D01*
X76260636Y-77720000D01*
X75180000Y-77720000D01*
X74680000Y-77720000D01*
X73599364Y-77720000D01*
X72704636Y-77720000D01*
X71624000Y-77720000D01*
X71124000Y-77720000D01*
X70043364Y-77720000D01*
X69148636Y-77720000D01*
X68068000Y-77720000D01*
X67568000Y-77720000D01*
X66487364Y-77720000D01*
X51624631Y-77720000D01*
X51613316Y-77701655D01*
X51487373Y-77575712D01*
X51455074Y-77527373D01*
X51443732Y-77470353D01*
X51455074Y-77413333D01*
X51487373Y-77364994D01*
X51489653Y-77362713D01*
X51489656Y-77362712D01*
X51613712Y-77238656D01*
X51687343Y-77119279D01*
X51741545Y-77067392D01*
X51814161Y-77048500D01*
X52192554Y-77048500D01*
X52251208Y-77060530D01*
X52300391Y-77094679D01*
X52332160Y-77145431D01*
X52385096Y-77287362D01*
X52386204Y-77290331D01*
X52472454Y-77405546D01*
X52587669Y-77491796D01*
X52722517Y-77542091D01*
X52782127Y-77548500D01*
X54377872Y-77548499D01*
X54377876Y-77548499D01*
X54417612Y-77544226D01*
X54437483Y-77542091D01*
X54572331Y-77491796D01*
X54640705Y-77440610D01*
X54698326Y-77414295D01*
X54761671Y-77414295D01*
X54819292Y-77440610D01*
X54887076Y-77491352D01*
X54887669Y-77491796D01*
X55022517Y-77542091D01*
X55082127Y-77548500D01*
X56677872Y-77548499D01*
X56677876Y-77548499D01*
X56717612Y-77544226D01*
X56737483Y-77542091D01*
X56872331Y-77491796D01*
X56941125Y-77440296D01*
X56998743Y-77413983D01*
X57062088Y-77413983D01*
X57119709Y-77440298D01*
X57187908Y-77491351D01*
X57322626Y-77541598D01*
X57382169Y-77548000D01*
X57930000Y-77548000D01*
X57930000Y-76298000D01*
X58430000Y-76298000D01*
X58430000Y-77548000D01*
X58977831Y-77548000D01*
X59037373Y-77541598D01*
X59172088Y-77491352D01*
X59287188Y-77405188D01*
X59373352Y-77290088D01*
X59423598Y-77155373D01*
X59430000Y-77095831D01*
X59430000Y-76298000D01*
X58430000Y-76298000D01*
X57930000Y-76298000D01*
X57930000Y-74548000D01*
X58430000Y-74548000D01*
X58430000Y-75798000D01*
X59430000Y-75798000D01*
X59430000Y-75000169D01*
X59423598Y-74940626D01*
X59373352Y-74805911D01*
X59287188Y-74690811D01*
X59172088Y-74604647D01*
X59037373Y-74554401D01*
X58977831Y-74548000D01*
X58430000Y-74548000D01*
X57930000Y-74548000D01*
X57382169Y-74548000D01*
X57322626Y-74554401D01*
X57187908Y-74604648D01*
X57119709Y-74655702D01*
X57062079Y-74682019D01*
X56998724Y-74682013D01*
X56941100Y-74655684D01*
X56940182Y-74654997D01*
X56896254Y-74602417D01*
X56880500Y-74535736D01*
X56880500Y-74168000D01*
X61986658Y-74168000D01*
X61989350Y-74195332D01*
X61990019Y-74213705D01*
X61989242Y-74244362D01*
X61999160Y-74299699D01*
X62000779Y-74311378D01*
X62005975Y-74364130D01*
X62015009Y-74393912D01*
X62019086Y-74410872D01*
X62025141Y-74444651D01*
X62044641Y-74493471D01*
X62048854Y-74505485D01*
X62061752Y-74548000D01*
X62063186Y-74552727D01*
X62079575Y-74583391D01*
X62086532Y-74598344D01*
X62100621Y-74633614D01*
X62100623Y-74633617D01*
X62127551Y-74674475D01*
X62134536Y-74686213D01*
X62156090Y-74726538D01*
X62180457Y-74756230D01*
X62189687Y-74768758D01*
X62212595Y-74803516D01*
X62244614Y-74835535D01*
X62254434Y-74846370D01*
X62281116Y-74878882D01*
X62313628Y-74905564D01*
X62324463Y-74915384D01*
X63036238Y-75627159D01*
X63038873Y-75629862D01*
X63098941Y-75693053D01*
X63146584Y-75726214D01*
X63155603Y-75733014D01*
X63177502Y-75750870D01*
X63200593Y-75769698D01*
X63226150Y-75783048D01*
X63242283Y-75792822D01*
X63265951Y-75809295D01*
X63319289Y-75832184D01*
X63329498Y-75837032D01*
X63380951Y-75863909D01*
X63408675Y-75871841D01*
X63426438Y-75878166D01*
X63452941Y-75889540D01*
X63509783Y-75901221D01*
X63520780Y-75903919D01*
X63576582Y-75919887D01*
X63605336Y-75922076D01*
X63624010Y-75924694D01*
X63652259Y-75930500D01*
X63710290Y-75930500D01*
X63721602Y-75930929D01*
X63779477Y-75935337D01*
X63803647Y-75932258D01*
X63808083Y-75931694D01*
X63826906Y-75930500D01*
X66846886Y-75930500D01*
X66903906Y-75941842D01*
X66934864Y-75962527D01*
X66935921Y-75961018D01*
X66946598Y-75968494D01*
X66946599Y-75968495D01*
X67096587Y-76073518D01*
X67103347Y-76078251D01*
X67150049Y-76131504D01*
X67166884Y-76200305D01*
X67150049Y-76269105D01*
X67103347Y-76322358D01*
X66946924Y-76431887D01*
X66779890Y-76598921D01*
X66644399Y-76792423D01*
X66544568Y-77006509D01*
X66487363Y-77219999D01*
X66487364Y-77220000D01*
X69148636Y-77220000D01*
X69148636Y-77219999D01*
X69091431Y-77006509D01*
X68991600Y-76792423D01*
X68856109Y-76598921D01*
X68689075Y-76431887D01*
X68532652Y-76322358D01*
X68485950Y-76269105D01*
X68469115Y-76200305D01*
X68485951Y-76131504D01*
X68532649Y-76078253D01*
X68689401Y-75968495D01*
X68689401Y-75968494D01*
X68700079Y-75961018D01*
X68701135Y-75962527D01*
X68732094Y-75941842D01*
X68789114Y-75930500D01*
X70402886Y-75930500D01*
X70459906Y-75941842D01*
X70490864Y-75962527D01*
X70491921Y-75961018D01*
X70502598Y-75968494D01*
X70502599Y-75968495D01*
X70652587Y-76073518D01*
X70659347Y-76078251D01*
X70706049Y-76131504D01*
X70722884Y-76200305D01*
X70706049Y-76269105D01*
X70659347Y-76322358D01*
X70502924Y-76431887D01*
X70335890Y-76598921D01*
X70200399Y-76792423D01*
X70100568Y-77006509D01*
X70043363Y-77219999D01*
X70043364Y-77220000D01*
X72704636Y-77220000D01*
X72704636Y-77219999D01*
X72647431Y-77006509D01*
X72547600Y-76792423D01*
X72412109Y-76598921D01*
X72245075Y-76431887D01*
X72088652Y-76322358D01*
X72041950Y-76269105D01*
X72025115Y-76200305D01*
X72041951Y-76131504D01*
X72088649Y-76078253D01*
X72245401Y-75968495D01*
X72245401Y-75968494D01*
X72256079Y-75961018D01*
X72257135Y-75962527D01*
X72288094Y-75941842D01*
X72345114Y-75930500D01*
X73958886Y-75930500D01*
X74015906Y-75941842D01*
X74046864Y-75962527D01*
X74047921Y-75961018D01*
X74058598Y-75968494D01*
X74058599Y-75968495D01*
X74208587Y-76073518D01*
X74215347Y-76078251D01*
X74262049Y-76131504D01*
X74278884Y-76200305D01*
X74262049Y-76269105D01*
X74215347Y-76322358D01*
X74058924Y-76431887D01*
X73891890Y-76598921D01*
X73756399Y-76792423D01*
X73656568Y-77006509D01*
X73599363Y-77219999D01*
X73599364Y-77220000D01*
X76260636Y-77220000D01*
X76260636Y-77219999D01*
X76203431Y-77006509D01*
X76103600Y-76792423D01*
X75968109Y-76598921D01*
X75801075Y-76431887D01*
X75644652Y-76322358D01*
X75597950Y-76269105D01*
X75581115Y-76200305D01*
X75597951Y-76131504D01*
X75644649Y-76078253D01*
X75801401Y-75968495D01*
X75968495Y-75801401D01*
X76104035Y-75607830D01*
X76203903Y-75393663D01*
X76265063Y-75165408D01*
X76285659Y-74930000D01*
X76265063Y-74694592D01*
X76203903Y-74466337D01*
X76104035Y-74252171D01*
X75968495Y-74058599D01*
X75874076Y-73964180D01*
X75836470Y-73900799D01*
X75833840Y-73827148D01*
X75866829Y-73761246D01*
X75927364Y-73719216D01*
X76022331Y-73683796D01*
X76137546Y-73597546D01*
X76223796Y-73482331D01*
X76274091Y-73347483D01*
X76280500Y-73287873D01*
X76280499Y-71492128D01*
X76280499Y-71492127D01*
X76280499Y-71492123D01*
X76274091Y-71432518D01*
X76271005Y-71424245D01*
X76223796Y-71297669D01*
X76137546Y-71182454D01*
X76022331Y-71096204D01*
X75887483Y-71045909D01*
X75887482Y-71045908D01*
X75887480Y-71045908D01*
X75827876Y-71039500D01*
X74032123Y-71039500D01*
X73972518Y-71045908D01*
X73837670Y-71096203D01*
X73722454Y-71182454D01*
X73636204Y-71297669D01*
X73585908Y-71432519D01*
X73579500Y-71492123D01*
X73579500Y-73287876D01*
X73585908Y-73347481D01*
X73633701Y-73475622D01*
X73636204Y-73482331D01*
X73722454Y-73597546D01*
X73807512Y-73661221D01*
X73853754Y-73718604D01*
X73866838Y-73791130D01*
X73843564Y-73861056D01*
X73789626Y-73911274D01*
X73718218Y-73929500D01*
X72585782Y-73929500D01*
X72514374Y-73911274D01*
X72460436Y-73861056D01*
X72437162Y-73791130D01*
X72450246Y-73718604D01*
X72496487Y-73661221D01*
X72581546Y-73597546D01*
X72667796Y-73482331D01*
X72718091Y-73347483D01*
X72724500Y-73287873D01*
X72724499Y-71492128D01*
X72724499Y-71492127D01*
X72724499Y-71492123D01*
X72718091Y-71432518D01*
X72715005Y-71424245D01*
X72667796Y-71297669D01*
X72581546Y-71182454D01*
X72466331Y-71096204D01*
X72331483Y-71045909D01*
X72331482Y-71045908D01*
X72331480Y-71045908D01*
X72271876Y-71039500D01*
X70476123Y-71039500D01*
X70416518Y-71045908D01*
X70281670Y-71096203D01*
X70166454Y-71182454D01*
X70080204Y-71297669D01*
X70029908Y-71432519D01*
X70023500Y-71492123D01*
X70023500Y-73287876D01*
X70029908Y-73347481D01*
X70077701Y-73475622D01*
X70080204Y-73482331D01*
X70166454Y-73597546D01*
X70251512Y-73661221D01*
X70297754Y-73718604D01*
X70310838Y-73791130D01*
X70287564Y-73861056D01*
X70233626Y-73911274D01*
X70162218Y-73929500D01*
X69029782Y-73929500D01*
X68958374Y-73911274D01*
X68904436Y-73861056D01*
X68881162Y-73791130D01*
X68894246Y-73718604D01*
X68940487Y-73661221D01*
X69025546Y-73597546D01*
X69111796Y-73482331D01*
X69162091Y-73347483D01*
X69168500Y-73287873D01*
X69168499Y-71492128D01*
X69168499Y-71492127D01*
X69168499Y-71492123D01*
X69162091Y-71432518D01*
X69159005Y-71424245D01*
X69111796Y-71297669D01*
X69025546Y-71182454D01*
X68910331Y-71096204D01*
X68775483Y-71045909D01*
X68775482Y-71045908D01*
X68775480Y-71045908D01*
X68715876Y-71039500D01*
X66920123Y-71039500D01*
X66860518Y-71045908D01*
X66725670Y-71096203D01*
X66610454Y-71182454D01*
X66524204Y-71297669D01*
X66473908Y-71432519D01*
X66467500Y-71492123D01*
X66467500Y-73287876D01*
X66473908Y-73347481D01*
X66521701Y-73475622D01*
X66524204Y-73482331D01*
X66610454Y-73597546D01*
X66695512Y-73661221D01*
X66741754Y-73718604D01*
X66754838Y-73791130D01*
X66731564Y-73861056D01*
X66677626Y-73911274D01*
X66606218Y-73929500D01*
X64230138Y-73929500D01*
X64173118Y-73918158D01*
X64124779Y-73885859D01*
X63739389Y-73500469D01*
X63729569Y-73489634D01*
X63702883Y-73457116D01*
X63670364Y-73430429D01*
X63667751Y-73428061D01*
X63625525Y-73393629D01*
X63625162Y-73393332D01*
X63546824Y-73329041D01*
X63460121Y-73283752D01*
X63458870Y-73283091D01*
X63369668Y-73235413D01*
X63365050Y-73234091D01*
X63365049Y-73234091D01*
X63337493Y-73226206D01*
X63275958Y-73208598D01*
X63273697Y-73207931D01*
X63183672Y-73180622D01*
X63171244Y-73178251D01*
X63080661Y-73171353D01*
X63077374Y-73171066D01*
X62990559Y-73162516D01*
X62967904Y-73162768D01*
X62966521Y-73162662D01*
X62881836Y-73173447D01*
X62877619Y-73173923D01*
X62795867Y-73181975D01*
X62794094Y-73182513D01*
X62769691Y-73187730D01*
X62764671Y-73188369D01*
X62687329Y-73214805D01*
X62682394Y-73216396D01*
X62607274Y-73239184D01*
X62602407Y-73241786D01*
X62580382Y-73251362D01*
X62572127Y-73254184D01*
X62504823Y-73293802D01*
X62499480Y-73296801D01*
X62433456Y-73332092D01*
X62426364Y-73337913D01*
X62407444Y-73351127D01*
X62396776Y-73357407D01*
X62341538Y-73407313D01*
X62336177Y-73411930D01*
X62281113Y-73457120D01*
X62272970Y-73467042D01*
X62257689Y-73483067D01*
X62245785Y-73493822D01*
X62203887Y-73550878D01*
X62198971Y-73557208D01*
X62156091Y-73609458D01*
X62148312Y-73624012D01*
X62137011Y-73641952D01*
X62125350Y-73657832D01*
X62097313Y-73718850D01*
X62093331Y-73726872D01*
X62063185Y-73783273D01*
X62057335Y-73802558D01*
X62050147Y-73821505D01*
X62040396Y-73842728D01*
X62026036Y-73904606D01*
X62023477Y-73914173D01*
X62005975Y-73971868D01*
X62003642Y-73995554D01*
X62000505Y-74014622D01*
X61994396Y-74040948D01*
X61992879Y-74100798D01*
X61992210Y-74111620D01*
X61986658Y-74168000D01*
X56880500Y-74168000D01*
X56880500Y-71899500D01*
X59735001Y-71899500D01*
X59735001Y-72036974D01*
X59745494Y-72139698D01*
X59800641Y-72306120D01*
X59892683Y-72455344D01*
X60016655Y-72579316D01*
X60165879Y-72671358D01*
X60332305Y-72726506D01*
X60435017Y-72737000D01*
X60710000Y-72737000D01*
X60710000Y-71899500D01*
X61210000Y-71899500D01*
X61210000Y-72736999D01*
X61484974Y-72736999D01*
X61587698Y-72726505D01*
X61754120Y-72671358D01*
X61903344Y-72579316D01*
X62027316Y-72455344D01*
X62119358Y-72306120D01*
X62174506Y-72139694D01*
X62185000Y-72036983D01*
X62185000Y-71899500D01*
X61210000Y-71899500D01*
X60710000Y-71899500D01*
X59735001Y-71899500D01*
X56880500Y-71899500D01*
X56880500Y-71397499D01*
X56891842Y-71340479D01*
X56924141Y-71292140D01*
X56972480Y-71259841D01*
X57029500Y-71248499D01*
X57827876Y-71248499D01*
X57867612Y-71244227D01*
X57887483Y-71242091D01*
X58022331Y-71191796D01*
X58137546Y-71105546D01*
X58223796Y-70990331D01*
X58274091Y-70855483D01*
X58277513Y-70823656D01*
X58280500Y-70795876D01*
X58280500Y-70491500D01*
X58291842Y-70434480D01*
X58324141Y-70386141D01*
X58372480Y-70353842D01*
X58429500Y-70342500D01*
X59792414Y-70342500D01*
X59849434Y-70353842D01*
X59897773Y-70386141D01*
X60018626Y-70506994D01*
X60057190Y-70573789D01*
X60057190Y-70650917D01*
X60018626Y-70717712D01*
X59892683Y-70843655D01*
X59800641Y-70992879D01*
X59745493Y-71159305D01*
X59735000Y-71262017D01*
X59735000Y-71399500D01*
X62184999Y-71399500D01*
X62184999Y-71262026D01*
X62174505Y-71159301D01*
X62119358Y-70992879D01*
X62027316Y-70843655D01*
X61901373Y-70717712D01*
X61869074Y-70669373D01*
X61857732Y-70612353D01*
X61869074Y-70555333D01*
X61901374Y-70506994D01*
X62022228Y-70386141D01*
X62070566Y-70353842D01*
X62127586Y-70342500D01*
X66406404Y-70342500D01*
X66410178Y-70342548D01*
X66497361Y-70344757D01*
X66497361Y-70344756D01*
X66497363Y-70344757D01*
X66554487Y-70334518D01*
X66565698Y-70332945D01*
X66623438Y-70327074D01*
X66650950Y-70318441D01*
X66669270Y-70313945D01*
X66669845Y-70313842D01*
X66697653Y-70308858D01*
X66751558Y-70287324D01*
X66762183Y-70283541D01*
X66817588Y-70266159D01*
X66842792Y-70252168D01*
X66859841Y-70244072D01*
X66864130Y-70242358D01*
X66886617Y-70233377D01*
X66935103Y-70201421D01*
X66944738Y-70195584D01*
X66995502Y-70167409D01*
X67017380Y-70148625D01*
X67032444Y-70137268D01*
X67056517Y-70121403D01*
X67056516Y-70121403D01*
X67056519Y-70121402D01*
X67097566Y-70080353D01*
X67105859Y-70072669D01*
X67149895Y-70034866D01*
X67167550Y-70012056D01*
X67180002Y-69997917D01*
X75373158Y-61804760D01*
X75375823Y-61802163D01*
X75439052Y-61742060D01*
X75450120Y-61726158D01*
X75472217Y-61694408D01*
X75479004Y-61685406D01*
X75515698Y-61640407D01*
X75529053Y-61614838D01*
X75538822Y-61598715D01*
X75555295Y-61575049D01*
X75578182Y-61521713D01*
X75583038Y-61511489D01*
X75609909Y-61460049D01*
X75617842Y-61432319D01*
X75624162Y-61414569D01*
X75635540Y-61388058D01*
X75647226Y-61331187D01*
X75649919Y-61320220D01*
X75650497Y-61318203D01*
X75665887Y-61264418D01*
X75668076Y-61235664D01*
X75670694Y-61216989D01*
X75676500Y-61188741D01*
X75676500Y-61130711D01*
X75676930Y-61119398D01*
X75681337Y-61061524D01*
X75677694Y-61032918D01*
X75676500Y-61014095D01*
X75676500Y-40400596D01*
X75676548Y-40396822D01*
X75678757Y-40309638D01*
X75676500Y-40297048D01*
X75668517Y-40252508D01*
X75666945Y-40241299D01*
X75665763Y-40229672D01*
X75661074Y-40183562D01*
X75652440Y-40156045D01*
X75647944Y-40137724D01*
X75642858Y-40109349D01*
X75642858Y-40109347D01*
X75621324Y-40055437D01*
X75617535Y-40044794D01*
X75600159Y-39989412D01*
X75586164Y-39964198D01*
X75578071Y-39947157D01*
X75571850Y-39931582D01*
X75567377Y-39920383D01*
X75535429Y-39871908D01*
X75529577Y-39862247D01*
X75510481Y-39827843D01*
X75501409Y-39811498D01*
X75482621Y-39789613D01*
X75471273Y-39774563D01*
X75455402Y-39750481D01*
X75414363Y-39709442D01*
X75406668Y-39701139D01*
X75368865Y-39657104D01*
X75346062Y-39639453D01*
X75331908Y-39626987D01*
X68768279Y-33063359D01*
X68765644Y-33060656D01*
X68705558Y-32997446D01*
X68657921Y-32964289D01*
X68648882Y-32957474D01*
X68603908Y-32920803D01*
X68603907Y-32920802D01*
X68578341Y-32907447D01*
X68562216Y-32897677D01*
X68538550Y-32881206D01*
X68538551Y-32881206D01*
X68538549Y-32881205D01*
X68485216Y-32858317D01*
X68474992Y-32853462D01*
X68423550Y-32826591D01*
X68395826Y-32818658D01*
X68378058Y-32812332D01*
X68351557Y-32800959D01*
X68294701Y-32789275D01*
X68283716Y-32786578D01*
X68244739Y-32775426D01*
X68227919Y-32770613D01*
X68199151Y-32768422D01*
X68180476Y-32765802D01*
X68152242Y-32760000D01*
X68152241Y-32760000D01*
X68094211Y-32760000D01*
X68082898Y-32759570D01*
X68072865Y-32758806D01*
X68025024Y-32755163D01*
X68025023Y-32755163D01*
X67996418Y-32758806D01*
X67977595Y-32760000D01*
X65735258Y-32760000D01*
X65630892Y-32770613D01*
X65583560Y-32775426D01*
X65389412Y-32836340D01*
X65256127Y-32910319D01*
X65211498Y-32935091D01*
X65211496Y-32935091D01*
X65211495Y-32935093D01*
X65107867Y-33024055D01*
X65062561Y-33050725D01*
X65010813Y-33060000D01*
X64817170Y-33060000D01*
X64808173Y-33059728D01*
X64805683Y-33059577D01*
X64748893Y-33056141D01*
X64690452Y-33066850D01*
X64681559Y-33068203D01*
X64622626Y-33075359D01*
X64615278Y-33078146D01*
X64589316Y-33085384D01*
X64581566Y-33086804D01*
X64527401Y-33111181D01*
X64519093Y-33114623D01*
X64463565Y-33135683D01*
X64457089Y-33140153D01*
X64433618Y-33153391D01*
X64426446Y-33156619D01*
X64379683Y-33193254D01*
X64372439Y-33198584D01*
X64323572Y-33232315D01*
X64284198Y-33276759D01*
X64278030Y-33283311D01*
X63903484Y-33657859D01*
X63855145Y-33690158D01*
X63798125Y-33701500D01*
X63730372Y-33701500D01*
X62905658Y-33701500D01*
X62896662Y-33701228D01*
X62837394Y-33697643D01*
X62837393Y-33697643D01*
X62778967Y-33708348D01*
X62770076Y-33709701D01*
X62711127Y-33716859D01*
X62703774Y-33719648D01*
X62677810Y-33726886D01*
X62670071Y-33728304D01*
X62615919Y-33752676D01*
X62607607Y-33756119D01*
X62552069Y-33777182D01*
X62551069Y-33777873D01*
X62494357Y-33801606D01*
X62432892Y-33800424D01*
X62377136Y-33774527D01*
X62355331Y-33758204D01*
X62355329Y-33758203D01*
X62220478Y-33707907D01*
X62215461Y-33707368D01*
X62152126Y-33685387D01*
X62137522Y-33676211D01*
X62137521Y-33676210D01*
X61967255Y-33616632D01*
X61877720Y-33606543D01*
X61832955Y-33601500D01*
X61832954Y-33601500D01*
X59414194Y-33601500D01*
X59233805Y-33601500D01*
X59233801Y-33601500D01*
X59197851Y-33609704D01*
X59181390Y-33612501D01*
X59144746Y-33616631D01*
X59109929Y-33628813D01*
X59093882Y-33633436D01*
X59057939Y-33641640D01*
X59024718Y-33657638D01*
X59009287Y-33664030D01*
X58974474Y-33676212D01*
X58943245Y-33695833D01*
X58928630Y-33703911D01*
X58895413Y-33719908D01*
X58866588Y-33742895D01*
X58852967Y-33752559D01*
X58821739Y-33772181D01*
X58719352Y-33874566D01*
X58719348Y-33874573D01*
X58311059Y-34282862D01*
X58261850Y-34315518D01*
X58203821Y-34326491D01*
X58146086Y-34314058D01*
X58119839Y-34295669D01*
X58118494Y-34297602D01*
X58058421Y-34255789D01*
X58049382Y-34248974D01*
X58004408Y-34212303D01*
X58004407Y-34212302D01*
X57978841Y-34198947D01*
X57962716Y-34189177D01*
X57939050Y-34172706D01*
X57939051Y-34172706D01*
X57939049Y-34172705D01*
X57885716Y-34149817D01*
X57875492Y-34144962D01*
X57824050Y-34118091D01*
X57796326Y-34110158D01*
X57778558Y-34103832D01*
X57752057Y-34092459D01*
X57695201Y-34080775D01*
X57684216Y-34078078D01*
X57645236Y-34066925D01*
X57628419Y-34062113D01*
X57599651Y-34059922D01*
X57580976Y-34057302D01*
X57552742Y-34051500D01*
X57552741Y-34051500D01*
X57494711Y-34051500D01*
X57483398Y-34051070D01*
X57473365Y-34050306D01*
X57425524Y-34046663D01*
X57425523Y-34046663D01*
X57396918Y-34050306D01*
X57378095Y-34051500D01*
X47512596Y-34051500D01*
X47508822Y-34051452D01*
X47421636Y-34049242D01*
X47364505Y-34059482D01*
X47353295Y-34061054D01*
X47295563Y-34066925D01*
X47268035Y-34075561D01*
X47249729Y-34080054D01*
X47221346Y-34085142D01*
X47167451Y-34106669D01*
X47156792Y-34110464D01*
X47101410Y-34127841D01*
X47076195Y-34141836D01*
X47059164Y-34149924D01*
X47032382Y-34160622D01*
X46983925Y-34192557D01*
X46974249Y-34198419D01*
X46923499Y-34226589D01*
X46901616Y-34245375D01*
X46886560Y-34256727D01*
X46862482Y-34272596D01*
X46821440Y-34313637D01*
X46813141Y-34321328D01*
X46769106Y-34359132D01*
X46751453Y-34381937D01*
X46738990Y-34396087D01*
X44768856Y-36366222D01*
X44766154Y-36368856D01*
X44749852Y-36384354D01*
X44702944Y-36428944D01*
X44669791Y-36476575D01*
X44662978Y-36485611D01*
X44626301Y-36530592D01*
X44612950Y-36556152D01*
X44603180Y-36572279D01*
X44586703Y-36595952D01*
X44563812Y-36649293D01*
X44558958Y-36659513D01*
X44532092Y-36710948D01*
X44524158Y-36738674D01*
X44517833Y-36756440D01*
X44506458Y-36782945D01*
X44494776Y-36839788D01*
X44492079Y-36850776D01*
X44476112Y-36906583D01*
X44473921Y-36935344D01*
X44471303Y-36954012D01*
X44465500Y-36982256D01*
X44465500Y-37040289D01*
X44465070Y-37051602D01*
X44460663Y-37109477D01*
X44464306Y-37138082D01*
X44465500Y-37156905D01*
X44465500Y-38144886D01*
X44454158Y-38201906D01*
X44433472Y-38232864D01*
X44434982Y-38233921D01*
X44427505Y-38244598D01*
X44427505Y-38244599D01*
X44425986Y-38246768D01*
X44318054Y-38400911D01*
X44264800Y-38447613D01*
X44196000Y-38464448D01*
X44127200Y-38447613D01*
X44073946Y-38400911D01*
X43999462Y-38294537D01*
X43964495Y-38244599D01*
X43797401Y-38077505D01*
X43603830Y-37941965D01*
X43389663Y-37842097D01*
X43381034Y-37839785D01*
X43161407Y-37780936D01*
X42926000Y-37760341D01*
X42690592Y-37780936D01*
X42462336Y-37842097D01*
X42248172Y-37941964D01*
X42054594Y-38077508D01*
X41960179Y-38171923D01*
X41896798Y-38209529D01*
X41823148Y-38212159D01*
X41757246Y-38179170D01*
X41715215Y-38118633D01*
X41709643Y-38103694D01*
X41679796Y-38023669D01*
X41593546Y-37908454D01*
X41478331Y-37822204D01*
X41343483Y-37771909D01*
X41343482Y-37771908D01*
X41343480Y-37771908D01*
X41283876Y-37765500D01*
X39488123Y-37765500D01*
X39428518Y-37771908D01*
X39293670Y-37822203D01*
X39178454Y-37908454D01*
X39092204Y-38023669D01*
X39041908Y-38158519D01*
X39035500Y-38218124D01*
X39035500Y-38266500D01*
X39024158Y-38323520D01*
X38991859Y-38371859D01*
X38943520Y-38404158D01*
X38886500Y-38415500D01*
X38125657Y-38415500D01*
X38116661Y-38415228D01*
X38057394Y-38411643D01*
X38057393Y-38411643D01*
X37998967Y-38422348D01*
X37990076Y-38423701D01*
X37931127Y-38430859D01*
X37923774Y-38433648D01*
X37897810Y-38440886D01*
X37890071Y-38442304D01*
X37835919Y-38466676D01*
X37827607Y-38470119D01*
X37772068Y-38491182D01*
X37765590Y-38495654D01*
X37742107Y-38508898D01*
X37734942Y-38512122D01*
X37688208Y-38548736D01*
X37680963Y-38554068D01*
X37632070Y-38587817D01*
X37592691Y-38632267D01*
X37586523Y-38638819D01*
X37133450Y-39091891D01*
X37081227Y-39125735D01*
X37019736Y-39135298D01*
X36959702Y-39118910D01*
X36911598Y-39079432D01*
X36891619Y-39054379D01*
X36862797Y-39031394D01*
X36850339Y-39020261D01*
X35300260Y-37470182D01*
X35269038Y-37450564D01*
X35255412Y-37440896D01*
X35226586Y-37417908D01*
X35193359Y-37401906D01*
X35178741Y-37393826D01*
X35147525Y-37374212D01*
X35142635Y-37372501D01*
X35112712Y-37362030D01*
X35097284Y-37355639D01*
X35064059Y-37339639D01*
X35028102Y-37331431D01*
X35012055Y-37326808D01*
X34977256Y-37314632D01*
X34940609Y-37310502D01*
X34924146Y-37307704D01*
X34888197Y-37299500D01*
X34888194Y-37299500D01*
X34842954Y-37299500D01*
X32311320Y-37299500D01*
X32294638Y-37298563D01*
X32291521Y-37298211D01*
X32257999Y-37294434D01*
X32095228Y-37312774D01*
X32078745Y-37314632D01*
X32007279Y-37339639D01*
X31908477Y-37374211D01*
X31755737Y-37470184D01*
X31628184Y-37597737D01*
X31532211Y-37750476D01*
X31472630Y-37920748D01*
X31459691Y-38035604D01*
X31459691Y-38035607D01*
X31452435Y-38099999D01*
X31456563Y-38136637D01*
X31457500Y-38153320D01*
X31457500Y-44166490D01*
X31446158Y-44223510D01*
X31413859Y-44271849D01*
X31110110Y-44575596D01*
X31055714Y-44610250D01*
X30991769Y-44618670D01*
X30988004Y-44618340D01*
X30752592Y-44638936D01*
X30524336Y-44700097D01*
X30310172Y-44799964D01*
X30116598Y-44935505D01*
X29949505Y-45102598D01*
X29813964Y-45296172D01*
X29714097Y-45510336D01*
X29652936Y-45738592D01*
X29632341Y-45974000D01*
X29652936Y-46209407D01*
X29714097Y-46437663D01*
X29806296Y-46635385D01*
X29813965Y-46651830D01*
X29949505Y-46845401D01*
X30116599Y-47012495D01*
X30147410Y-47034069D01*
X30272911Y-47121946D01*
X30319613Y-47175200D01*
X30336448Y-47244000D01*
X30319613Y-47312800D01*
X30272911Y-47366054D01*
X30116598Y-47475505D01*
X29949505Y-47642598D01*
X29813964Y-47836172D01*
X29714097Y-48050336D01*
X29652936Y-48278592D01*
X29632341Y-48514000D01*
X29652936Y-48749407D01*
X29714097Y-48977663D01*
X29806296Y-49175385D01*
X29813965Y-49191830D01*
X29949505Y-49385401D01*
X30116599Y-49552495D01*
X30216806Y-49622661D01*
X30272911Y-49661946D01*
X30319613Y-49715200D01*
X30336448Y-49784000D01*
X30319613Y-49852800D01*
X30272911Y-49906054D01*
X30116598Y-50015505D01*
X29949505Y-50182598D01*
X29813964Y-50376172D01*
X29714097Y-50590336D01*
X29652936Y-50818592D01*
X29632341Y-51053999D01*
X24384000Y-51053999D01*
X24384000Y-30898479D01*
X24395342Y-30841459D01*
X24427641Y-30793120D01*
X24475980Y-30760821D01*
X24533000Y-30749479D01*
X77829000Y-30749479D01*
X77886020Y-30760821D01*
G37*
%TD.AperFunction*%
%TD*%
M02*
