%TF.GenerationSoftware,KiCad,Pcbnew,7.0.1*%
%TF.CreationDate,2023-04-28T23:06:15+02:00*%
%TF.ProjectId,test_ADC_and_CurrentSensors,74657374-5f41-4444-935f-616e645f4375,rev?*%
%TF.SameCoordinates,Original*%
%TF.FileFunction,Drillmap*%
%TF.FilePolarity,Positive*%
%FSLAX45Y45*%
G04 Gerber Fmt 4.5, Leading zero omitted, Abs format (unit mm)*
G04 Created by KiCad (PCBNEW 7.0.1) date 2023-04-28 23:06:15*
%MOMM*%
%LPD*%
G01*
G04 APERTURE LIST*
%ADD10C,0.100000*%
%ADD11C,0.200000*%
G04 APERTURE END LIST*
D10*
X2413000Y-3073400D02*
X7848600Y-3073400D01*
X7848600Y-8001000D01*
X2413000Y-8001000D01*
X2413000Y-3073400D01*
D11*
X2655619Y-8318524D02*
X2655619Y-8118524D01*
X2655619Y-8118524D02*
X2703238Y-8118524D01*
X2703238Y-8118524D02*
X2731810Y-8128048D01*
X2731810Y-8128048D02*
X2750857Y-8147095D01*
X2750857Y-8147095D02*
X2760381Y-8166143D01*
X2760381Y-8166143D02*
X2769905Y-8204238D01*
X2769905Y-8204238D02*
X2769905Y-8232809D01*
X2769905Y-8232809D02*
X2760381Y-8270905D01*
X2760381Y-8270905D02*
X2750857Y-8289952D01*
X2750857Y-8289952D02*
X2731810Y-8309000D01*
X2731810Y-8309000D02*
X2703238Y-8318524D01*
X2703238Y-8318524D02*
X2655619Y-8318524D01*
X2855619Y-8318524D02*
X2855619Y-8185190D01*
X2855619Y-8223286D02*
X2865143Y-8204238D01*
X2865143Y-8204238D02*
X2874667Y-8194714D01*
X2874667Y-8194714D02*
X2893714Y-8185190D01*
X2893714Y-8185190D02*
X2912762Y-8185190D01*
X2979428Y-8318524D02*
X2979428Y-8185190D01*
X2979428Y-8118524D02*
X2969905Y-8128048D01*
X2969905Y-8128048D02*
X2979428Y-8137571D01*
X2979428Y-8137571D02*
X2988952Y-8128048D01*
X2988952Y-8128048D02*
X2979428Y-8118524D01*
X2979428Y-8118524D02*
X2979428Y-8137571D01*
X3103238Y-8318524D02*
X3084190Y-8309000D01*
X3084190Y-8309000D02*
X3074667Y-8289952D01*
X3074667Y-8289952D02*
X3074667Y-8118524D01*
X3208000Y-8318524D02*
X3188952Y-8309000D01*
X3188952Y-8309000D02*
X3179428Y-8289952D01*
X3179428Y-8289952D02*
X3179428Y-8118524D01*
X3436571Y-8318524D02*
X3436571Y-8118524D01*
X3436571Y-8118524D02*
X3503238Y-8261381D01*
X3503238Y-8261381D02*
X3569905Y-8118524D01*
X3569905Y-8118524D02*
X3569905Y-8318524D01*
X3750857Y-8318524D02*
X3750857Y-8213762D01*
X3750857Y-8213762D02*
X3741333Y-8194714D01*
X3741333Y-8194714D02*
X3722286Y-8185190D01*
X3722286Y-8185190D02*
X3684190Y-8185190D01*
X3684190Y-8185190D02*
X3665143Y-8194714D01*
X3750857Y-8309000D02*
X3731809Y-8318524D01*
X3731809Y-8318524D02*
X3684190Y-8318524D01*
X3684190Y-8318524D02*
X3665143Y-8309000D01*
X3665143Y-8309000D02*
X3655619Y-8289952D01*
X3655619Y-8289952D02*
X3655619Y-8270905D01*
X3655619Y-8270905D02*
X3665143Y-8251857D01*
X3665143Y-8251857D02*
X3684190Y-8242333D01*
X3684190Y-8242333D02*
X3731809Y-8242333D01*
X3731809Y-8242333D02*
X3750857Y-8232809D01*
X3846095Y-8185190D02*
X3846095Y-8385190D01*
X3846095Y-8194714D02*
X3865143Y-8185190D01*
X3865143Y-8185190D02*
X3903238Y-8185190D01*
X3903238Y-8185190D02*
X3922286Y-8194714D01*
X3922286Y-8194714D02*
X3931809Y-8204238D01*
X3931809Y-8204238D02*
X3941333Y-8223286D01*
X3941333Y-8223286D02*
X3941333Y-8280428D01*
X3941333Y-8280428D02*
X3931809Y-8299476D01*
X3931809Y-8299476D02*
X3922286Y-8309000D01*
X3922286Y-8309000D02*
X3903238Y-8318524D01*
X3903238Y-8318524D02*
X3865143Y-8318524D01*
X3865143Y-8318524D02*
X3846095Y-8309000D01*
X4027048Y-8299476D02*
X4036571Y-8309000D01*
X4036571Y-8309000D02*
X4027048Y-8318524D01*
X4027048Y-8318524D02*
X4017524Y-8309000D01*
X4017524Y-8309000D02*
X4027048Y-8299476D01*
X4027048Y-8299476D02*
X4027048Y-8318524D01*
X4027048Y-8194714D02*
X4036571Y-8204238D01*
X4036571Y-8204238D02*
X4027048Y-8213762D01*
X4027048Y-8213762D02*
X4017524Y-8204238D01*
X4017524Y-8204238D02*
X4027048Y-8194714D01*
X4027048Y-8194714D02*
X4027048Y-8213762D01*
M02*
