M48
; DRILL file {KiCad 7.0.1} date Fri Apr 28 23:06:15 2023
; FORMAT={-:-/ absolute / metric / decimal}
; #@! TF.CreationDate,2023-04-28T23:06:15+02:00
; #@! TF.GenerationSoftware,Kicad,Pcbnew,7.0.1
; #@! TF.FileFunction,Plated,1,2,PTH
FMAT,2
METRIC
; #@! TA.AperFunction,Plated,PTH,ViaDrill
T1C0.400
; #@! TA.AperFunction,Plated,PTH,ViaDrill
T2C0.700
; #@! TA.AperFunction,Plated,PTH,ComponentDrill
T3C0.700
; #@! TA.AperFunction,Plated,PTH,ComponentDrill
T4C1.000
%
G90
G05
T1
X26.924Y-47.752
X27.178Y-34.036
X32.004Y-71.882
X33.909Y-54.864
X34.544Y-40.894
X36.068Y-40.386
X37.846Y-58.674
X37.846Y-77.216
X38.899Y-50.292
X39.116Y-45.212
X39.37Y-53.594
X39.986Y-49.422
X40.132Y-50.8
X42.164Y-43.18
X44.958Y-41.402
X45.974Y-63.754
X46.736Y-47.498
X46.736Y-58.928
X50.8Y-54.356
X51.816Y-42.638
X51.816Y-44.196
X52.07Y-48.622
X52.07Y-54.356
X53.086Y-38.1
X53.34Y-44.704
X54.356Y-49.022
X54.61Y-39.116
X56.642Y-67.31
X58.062Y-35.663
X59.436Y-43.434
X59.436Y-67.31
X60.706Y-78.74
X63.246Y-67.31
X63.754Y-71.374
X64.262Y-55.88
X65.532Y-37.338
X68.05Y-33.761
X71.882Y-43.872
X72.39Y-34.544
T2
X27.432Y-57.15
X36.576Y-43.942
X36.83Y-50.8
X43.942Y-57.795
X45.72Y-57.912
X49.53Y-57.56
X62.992Y-74.168
X63.246Y-38.1
X67.818Y-57.658
X69.342Y-46.99
T3
X25.654Y-60.198
X33.274Y-60.198
X35.814Y-74.93
X43.434Y-74.93
T4
X30.988Y-45.974
X30.988Y-48.514
X30.988Y-51.054
X30.988Y-53.594
X33.523Y-72.898
X36.063Y-72.898
X40.386Y-39.116
X40.889Y-72.39
X42.926Y-39.116
X43.429Y-72.39
X45.466Y-39.116
X48.006Y-39.116
X48.26Y-66.722
X48.26Y-69.262
X48.26Y-71.802
X50.546Y-39.116
X55.88Y-42.418
X55.88Y-44.958
X55.88Y-47.498
X55.88Y-50.038
X55.88Y-52.578
X55.88Y-55.118
X67.818Y-72.39
X67.818Y-74.93
X67.818Y-77.47
X71.374Y-72.39
X71.374Y-74.93
X71.374Y-77.47
X74.93Y-72.39
X74.93Y-74.93
X74.93Y-77.47
T0
M30
