%TF.GenerationSoftware,KiCad,Pcbnew,7.0.1*%
%TF.CreationDate,2023-04-28T23:06:09+02:00*%
%TF.ProjectId,test_ADC_and_CurrentSensors,74657374-5f41-4444-935f-616e645f4375,rev?*%
%TF.SameCoordinates,Original*%
%TF.FileFunction,Copper,L1,Top*%
%TF.FilePolarity,Positive*%
%FSLAX46Y46*%
G04 Gerber Fmt 4.6, Leading zero omitted, Abs format (unit mm)*
G04 Created by KiCad (PCBNEW 7.0.1) date 2023-04-28 23:06:09*
%MOMM*%
%LPD*%
G01*
G04 APERTURE LIST*
G04 Aperture macros list*
%AMRoundRect*
0 Rectangle with rounded corners*
0 $1 Rounding radius*
0 $2 $3 $4 $5 $6 $7 $8 $9 X,Y pos of 4 corners*
0 Add a 4 corners polygon primitive as box body*
4,1,4,$2,$3,$4,$5,$6,$7,$8,$9,$2,$3,0*
0 Add four circle primitives for the rounded corners*
1,1,$1+$1,$2,$3*
1,1,$1+$1,$4,$5*
1,1,$1+$1,$6,$7*
1,1,$1+$1,$8,$9*
0 Add four rect primitives between the rounded corners*
20,1,$1+$1,$2,$3,$4,$5,0*
20,1,$1+$1,$4,$5,$6,$7,0*
20,1,$1+$1,$6,$7,$8,$9,0*
20,1,$1+$1,$8,$9,$2,$3,0*%
G04 Aperture macros list end*
%TA.AperFunction,SMDPad,CuDef*%
%ADD10RoundRect,0.250000X0.337500X0.475000X-0.337500X0.475000X-0.337500X-0.475000X0.337500X-0.475000X0*%
%TD*%
%TA.AperFunction,ComponentPad*%
%ADD11R,1.700000X1.700000*%
%TD*%
%TA.AperFunction,ComponentPad*%
%ADD12O,1.700000X1.700000*%
%TD*%
%TA.AperFunction,SMDPad,CuDef*%
%ADD13RoundRect,0.250000X-0.475000X0.337500X-0.475000X-0.337500X0.475000X-0.337500X0.475000X0.337500X0*%
%TD*%
%TA.AperFunction,ComponentPad*%
%ADD14C,1.400000*%
%TD*%
%TA.AperFunction,ComponentPad*%
%ADD15O,1.400000X1.400000*%
%TD*%
%TA.AperFunction,ViaPad*%
%ADD16C,0.800000*%
%TD*%
%TA.AperFunction,ViaPad*%
%ADD17C,1.000000*%
%TD*%
%TA.AperFunction,Conductor*%
%ADD18C,1.000000*%
%TD*%
%TA.AperFunction,Conductor*%
%ADD19C,0.400000*%
%TD*%
%TA.AperFunction,Conductor*%
%ADD20C,0.600000*%
%TD*%
G04 APERTURE END LIST*
D10*
%TO.P,C9,1*%
%TO.N,GND*%
X47265500Y-42672000D03*
%TO.P,C9,2*%
%TO.N,+3.3V*%
X45190500Y-42672000D03*
%TD*%
D11*
%TO.P,J8,1,Pin_1*%
%TO.N,/servo/SERVO_PWM_3*%
X74930000Y-72390000D03*
D12*
%TO.P,J8,2,Pin_2*%
%TO.N,Vdrive*%
X74930000Y-74930000D03*
%TO.P,J8,3,Pin_3*%
%TO.N,GND*%
X74930000Y-77470000D03*
%TD*%
D11*
%TO.P,J4,1,Pin_1*%
%TO.N,SPI_CS_1*%
X55880000Y-55118000D03*
D12*
%TO.P,J4,2,Pin_2*%
%TO.N,SPI_CS_0*%
X55880000Y-52578000D03*
%TO.P,J4,3,Pin_3*%
%TO.N,SPI_MOSI*%
X55880000Y-50038000D03*
%TO.P,J4,4,Pin_4*%
%TO.N,SPI_MISO*%
X55880000Y-47498000D03*
%TO.P,J4,5,Pin_5*%
%TO.N,SPI_SCK*%
X55880000Y-44958000D03*
%TO.P,J4,6,Pin_6*%
%TO.N,GND*%
X55880000Y-42418000D03*
%TD*%
D13*
%TO.P,C6,1*%
%TO.N,+5V*%
X65532000Y-33760500D03*
%TO.P,C6,2*%
%TO.N,GND*%
X65532000Y-35835500D03*
%TD*%
D11*
%TO.P,J6,1,Pin_1*%
%TO.N,/servo/SERVO_PWM_1*%
X67818000Y-72390000D03*
D12*
%TO.P,J6,2,Pin_2*%
%TO.N,Vdrive*%
X67818000Y-74930000D03*
%TO.P,J6,3,Pin_3*%
%TO.N,GND*%
X67818000Y-77470000D03*
%TD*%
D13*
%TO.P,C7,1*%
%TO.N,+3.3V*%
X61214000Y-34522500D03*
%TO.P,C7,2*%
%TO.N,GND*%
X61214000Y-36597500D03*
%TD*%
D11*
%TO.P,J2,1,Pin_1*%
%TO.N,SWCLK*%
X40386000Y-39116000D03*
D12*
%TO.P,J2,2,Pin_2*%
%TO.N,SWDIO*%
X42926000Y-39116000D03*
%TO.P,J2,3,Pin_3*%
%TO.N,+3.3V*%
X45466000Y-39116000D03*
%TO.P,J2,4,Pin_4*%
%TO.N,GND*%
X48006000Y-39116000D03*
%TO.P,J2,5,Pin_5*%
%TO.N,NRST*%
X50546000Y-39116000D03*
%TD*%
D11*
%TO.P,J3,1,Pin_1*%
%TO.N,GND*%
X48260000Y-71802000D03*
D12*
%TO.P,J3,2,Pin_2*%
%TO.N,Vdrive*%
X48260000Y-69262000D03*
%TO.P,J3,3,Pin_3*%
%TO.N,+5V*%
X48260000Y-66722000D03*
%TD*%
D11*
%TO.P,J5,1,Pin_1*%
%TO.N,VCC*%
X40889000Y-72390000D03*
D12*
%TO.P,J5,2,Pin_2*%
%TO.N,Vdrive*%
X43429000Y-72390000D03*
%TD*%
D14*
%TO.P,R8,1*%
%TO.N,Net-(R2-Pad2)*%
X33274000Y-60198000D03*
D15*
%TO.P,R8,2*%
%TO.N,Net-(U1D--)*%
X25654000Y-60198000D03*
%TD*%
D11*
%TO.P,J9,1,Pin_1*%
%TO.N,V_REF*%
X33523000Y-72898000D03*
D12*
%TO.P,J9,2,Pin_2*%
%TO.N,Net-(J9-Pin_2)*%
X36063000Y-72898000D03*
%TD*%
D11*
%TO.P,J7,1,Pin_1*%
%TO.N,/servo/SERVO_PWM_2*%
X71374000Y-72390000D03*
D12*
%TO.P,J7,2,Pin_2*%
%TO.N,Vdrive*%
X71374000Y-74930000D03*
%TO.P,J7,3,Pin_3*%
%TO.N,GND*%
X71374000Y-77470000D03*
%TD*%
D11*
%TO.P,J1,1,Pin_1*%
%TO.N,GND*%
X30988000Y-53594000D03*
D12*
%TO.P,J1,2,Pin_2*%
%TO.N,SERVO_PWR*%
X30988000Y-51054000D03*
%TO.P,J1,3,Pin_3*%
%TO.N,SERVO_PWM*%
X30988000Y-48514000D03*
%TO.P,J1,4,Pin_4*%
%TO.N,SERVO_POTENTIOMETER*%
X30988000Y-45974000D03*
%TD*%
D14*
%TO.P,R7,1*%
%TO.N,Vdrive*%
X43434000Y-74930000D03*
D15*
%TO.P,R7,2*%
%TO.N,Net-(J9-Pin_2)*%
X35814000Y-74930000D03*
%TD*%
D16*
%TO.N,GND*%
X46736000Y-47498000D03*
X27178000Y-34036000D03*
X40132000Y-50800000D03*
X37846000Y-58674000D03*
X72390000Y-34544000D03*
X46736000Y-58928000D03*
X59436000Y-43434000D03*
X37846000Y-77216000D03*
X45974000Y-63754000D03*
X64262000Y-55880000D03*
X32004000Y-71882000D03*
X63246000Y-67310000D03*
X53340000Y-44704000D03*
X26924000Y-47752000D03*
X60706000Y-78740000D03*
X63754000Y-71374000D03*
X65532000Y-37338000D03*
X54610000Y-39116000D03*
X42164000Y-43180000D03*
X56642000Y-67310000D03*
X52070000Y-54356000D03*
X59436000Y-67310000D03*
X34544000Y-40894000D03*
%TO.N,+5V*%
X68050500Y-33760500D03*
%TO.N,+3.3V*%
X44958000Y-41402000D03*
X58062500Y-35663500D03*
%TO.N,SWDIO*%
X39116000Y-45212000D03*
X39370000Y-53594000D03*
D17*
%TO.N,SWCLK*%
X36830000Y-50800000D03*
X36576000Y-43942000D03*
%TO.N,Vdrive*%
X62992000Y-74168000D03*
D16*
%TO.N,R_CURRENT_SENSOR*%
X53086000Y-38100000D03*
D17*
X63246000Y-38100000D03*
D16*
X33909000Y-54864000D03*
%TO.N,HALL_CURRENT_SENSOR*%
X51816000Y-42638168D03*
X71882000Y-43872000D03*
D17*
%TO.N,SERVO_POTENTIOMETER*%
X69342000Y-46990000D03*
D16*
X36068000Y-40386000D03*
X51816000Y-44196000D03*
%TO.N,V_REF*%
X54356000Y-49022000D03*
%TO.N,SPI_SCK*%
X52070000Y-48622500D03*
D17*
%TO.N,/servo/SERVO_PWM_3*%
X49530000Y-57560404D03*
%TO.N,/servo/SERVO_PWM_2*%
X45720000Y-57912000D03*
%TO.N,/servo/SERVO_PWM_1*%
X43942000Y-57795500D03*
D16*
%TO.N,SPI_MISO*%
X39986000Y-49422000D03*
%TO.N,SERVO_PWM*%
X38899500Y-50292000D03*
X50800000Y-54356000D03*
D17*
%TO.N,R_2_CURRENT_SENSOR*%
X27432000Y-57150000D03*
X67818000Y-57658000D03*
%TD*%
D18*
%TO.N,+5V*%
X65532000Y-33760500D02*
X68050500Y-33760500D01*
D19*
%TO.N,+3.3V*%
X44958000Y-41402000D02*
X44958000Y-42439500D01*
X44958000Y-42439500D02*
X45190500Y-42672000D01*
D18*
X61214000Y-34522500D02*
X59203500Y-34522500D01*
X59203500Y-34522500D02*
X58062500Y-35663500D01*
D19*
%TO.N,SWDIO*%
X39116000Y-45212000D02*
X38100000Y-46228000D01*
X38100000Y-52324000D02*
X39370000Y-53594000D01*
X38100000Y-46228000D02*
X38100000Y-52324000D01*
%TO.N,SWCLK*%
X36830000Y-50800000D02*
X36068000Y-50038000D01*
X36068000Y-50038000D02*
X36068000Y-44450000D01*
X36068000Y-44450000D02*
X36576000Y-43942000D01*
D18*
%TO.N,Vdrive*%
X55626000Y-74168000D02*
X62992000Y-74168000D01*
X50720000Y-69262000D02*
X55626000Y-74168000D01*
X48260000Y-69262000D02*
X50720000Y-69262000D01*
D19*
%TO.N,R_CURRENT_SENSOR*%
X52324000Y-38100000D02*
X52832000Y-38100000D01*
X51054000Y-36830000D02*
X52324000Y-38100000D01*
X36576000Y-36830000D02*
X51054000Y-36830000D01*
X52832000Y-38100000D02*
X63246000Y-38100000D01*
X33909000Y-54864000D02*
X33274000Y-54229000D01*
X33274000Y-54229000D02*
X33274000Y-40132000D01*
X53086000Y-38100000D02*
X52832000Y-38100000D01*
X33274000Y-40132000D02*
X36576000Y-36830000D01*
%TO.N,HALL_CURRENT_SENSOR*%
X67634000Y-39624000D02*
X71882000Y-43872000D01*
X55304336Y-39624000D02*
X67634000Y-39624000D01*
X52290168Y-42638168D02*
X55304336Y-39624000D01*
X51816000Y-42638168D02*
X52290168Y-42638168D01*
%TO.N,SERVO_POTENTIOMETER*%
X55165000Y-40894000D02*
X63500000Y-40894000D01*
D20*
X48514000Y-45005000D02*
X48514000Y-45212000D01*
D19*
X63500000Y-40894000D02*
X69342000Y-46736000D01*
X51816000Y-44196000D02*
X51863000Y-44196000D01*
D20*
X49323000Y-44196000D02*
X48514000Y-45005000D01*
X51816000Y-44196000D02*
X49323000Y-44196000D01*
X48514000Y-45212000D02*
X40894000Y-45212000D01*
X40894000Y-45212000D02*
X36068000Y-40386000D01*
D19*
X69342000Y-46736000D02*
X69342000Y-46990000D01*
X51863000Y-44196000D02*
X55165000Y-40894000D01*
%TO.N,V_REF*%
X33523000Y-65273000D02*
X25400000Y-57150000D01*
X52870000Y-54687371D02*
X52870000Y-50508000D01*
X25400000Y-57150000D02*
X25400000Y-56388000D01*
X26162000Y-55880000D02*
X26416000Y-55626000D01*
X28194000Y-55626000D02*
X28702000Y-56134000D01*
X52401371Y-55156000D02*
X52870000Y-54687371D01*
X53848000Y-49530000D02*
X54356000Y-49022000D01*
X28702000Y-56134000D02*
X35306000Y-56134000D01*
X52870000Y-50508000D02*
X53848000Y-49530000D01*
X36360000Y-55156000D02*
X52401371Y-55156000D01*
X26416000Y-55626000D02*
X28194000Y-55626000D01*
X25400000Y-56388000D02*
X25908000Y-55880000D01*
X35306000Y-56134000D02*
X36322000Y-55118000D01*
X25908000Y-55880000D02*
X26162000Y-55880000D01*
X33523000Y-72898000D02*
X33523000Y-65273000D01*
X36322000Y-55118000D02*
X36360000Y-55156000D01*
%TO.N,SPI_SCK*%
X55118000Y-44958000D02*
X52870000Y-47206000D01*
X52870000Y-47206000D02*
X52870000Y-47822500D01*
X55880000Y-44958000D02*
X55118000Y-44958000D01*
X52870000Y-47822500D02*
X52070000Y-48622500D01*
%TO.N,/servo/SERVO_PWM_3*%
X65786000Y-59944000D02*
X74930000Y-69088000D01*
X49530000Y-57560404D02*
X50702404Y-57560404D01*
X50702404Y-57560404D02*
X53086000Y-59944000D01*
X53086000Y-59944000D02*
X65786000Y-59944000D01*
X74930000Y-69088000D02*
X74930000Y-72390000D01*
%TO.N,/servo/SERVO_PWM_2*%
X53594000Y-64262000D02*
X64262000Y-64262000D01*
X64262000Y-64262000D02*
X71374000Y-71374000D01*
X71374000Y-71374000D02*
X71374000Y-72390000D01*
X47244000Y-57912000D02*
X53594000Y-64262000D01*
X45720000Y-57912000D02*
X47244000Y-57912000D01*
%TO.N,/servo/SERVO_PWM_1*%
X43942000Y-57795500D02*
X58536500Y-72390000D01*
X58536500Y-72390000D02*
X67818000Y-72390000D01*
%TO.N,SPI_MISO*%
X52324000Y-49784000D02*
X54610000Y-47498000D01*
X54610000Y-47498000D02*
X55880000Y-47498000D01*
X40348000Y-49784000D02*
X52324000Y-49784000D01*
X39986000Y-49422000D02*
X40348000Y-49784000D01*
%TO.N,SERVO_PWM*%
X38899500Y-50698871D02*
X38899500Y-50292000D01*
X42556629Y-54356000D02*
X38899500Y-50698871D01*
X50800000Y-54356000D02*
X42556629Y-54356000D01*
%TO.N,R_2_CURRENT_SENSOR*%
X27432000Y-57150000D02*
X36068000Y-57150000D01*
X52324000Y-56134000D02*
X53848000Y-57658000D01*
X36068000Y-57150000D02*
X37084000Y-56134000D01*
X37084000Y-56134000D02*
X52324000Y-56134000D01*
X53848000Y-57658000D02*
X67818000Y-57658000D01*
%TD*%
%TA.AperFunction,Conductor*%
%TO.N,GND*%
G36*
X77886020Y-30760821D02*
G01*
X77934359Y-30793120D01*
X77966658Y-30841459D01*
X77978000Y-30898479D01*
X77978000Y-79860500D01*
X77966658Y-79917520D01*
X77934359Y-79965859D01*
X77886020Y-79998158D01*
X77829000Y-80009500D01*
X74606715Y-80009500D01*
X74606009Y-80009498D01*
X24532293Y-79772181D01*
X24458093Y-79751986D01*
X24403845Y-79697480D01*
X24384000Y-79623184D01*
X24384000Y-77720000D01*
X66487364Y-77720000D01*
X66544568Y-77933491D01*
X66644401Y-78147582D01*
X66779887Y-78341075D01*
X66946924Y-78508112D01*
X67140417Y-78643598D01*
X67354508Y-78743431D01*
X67567999Y-78800636D01*
X67568000Y-78800636D01*
X67568000Y-77720000D01*
X68068000Y-77720000D01*
X68068000Y-78800636D01*
X68281491Y-78743431D01*
X68495582Y-78643598D01*
X68689075Y-78508112D01*
X68856112Y-78341075D01*
X68991598Y-78147582D01*
X69091431Y-77933491D01*
X69148636Y-77720000D01*
X70043364Y-77720000D01*
X70100568Y-77933491D01*
X70200401Y-78147582D01*
X70335887Y-78341075D01*
X70502924Y-78508112D01*
X70696417Y-78643598D01*
X70910508Y-78743431D01*
X71123999Y-78800636D01*
X71124000Y-78800636D01*
X71124000Y-77720000D01*
X71624000Y-77720000D01*
X71624000Y-78800636D01*
X71837491Y-78743431D01*
X72051582Y-78643598D01*
X72245075Y-78508112D01*
X72412112Y-78341075D01*
X72547598Y-78147582D01*
X72647431Y-77933491D01*
X72704636Y-77720000D01*
X73599364Y-77720000D01*
X73656568Y-77933491D01*
X73756401Y-78147582D01*
X73891887Y-78341075D01*
X74058924Y-78508112D01*
X74252417Y-78643598D01*
X74466508Y-78743431D01*
X74679999Y-78800636D01*
X74680000Y-78800636D01*
X74680000Y-77720000D01*
X75180000Y-77720000D01*
X75180000Y-78800636D01*
X75393491Y-78743431D01*
X75607582Y-78643598D01*
X75801075Y-78508112D01*
X75968112Y-78341075D01*
X76103598Y-78147582D01*
X76203431Y-77933491D01*
X76260636Y-77720000D01*
X75180000Y-77720000D01*
X74680000Y-77720000D01*
X73599364Y-77720000D01*
X72704636Y-77720000D01*
X71624000Y-77720000D01*
X71124000Y-77720000D01*
X70043364Y-77720000D01*
X69148636Y-77720000D01*
X68068000Y-77720000D01*
X67568000Y-77720000D01*
X66487364Y-77720000D01*
X24384000Y-77720000D01*
X24384000Y-60952889D01*
X24402166Y-60881591D01*
X24452234Y-60827678D01*
X24521996Y-60804296D01*
X24594441Y-60817147D01*
X24651905Y-60863097D01*
X24763019Y-61010236D01*
X24927438Y-61160124D01*
X24927440Y-61160125D01*
X25116598Y-61277247D01*
X25324057Y-61357617D01*
X25324060Y-61357618D01*
X25542757Y-61398500D01*
X25765243Y-61398500D01*
X25983940Y-61357618D01*
X26191401Y-61277247D01*
X26380562Y-61160124D01*
X26544981Y-61010236D01*
X26679058Y-60832689D01*
X26778229Y-60633528D01*
X26839115Y-60419536D01*
X26859643Y-60198000D01*
X26839115Y-59976464D01*
X26838364Y-59973827D01*
X26834619Y-59909064D01*
X26858751Y-59848847D01*
X26906184Y-59804591D01*
X26967927Y-59784687D01*
X27032277Y-59792906D01*
X27087035Y-59827692D01*
X32778859Y-65519516D01*
X32811158Y-65567855D01*
X32822500Y-65624875D01*
X32822500Y-71398501D01*
X32811158Y-71455521D01*
X32778859Y-71503860D01*
X32730520Y-71536159D01*
X32673500Y-71547501D01*
X32625124Y-71547501D01*
X32565518Y-71553908D01*
X32430670Y-71604203D01*
X32315454Y-71690454D01*
X32229204Y-71805669D01*
X32178908Y-71940519D01*
X32172500Y-72000123D01*
X32172500Y-73795876D01*
X32178908Y-73855481D01*
X32222317Y-73971868D01*
X32229204Y-73990331D01*
X32315454Y-74105546D01*
X32430669Y-74191796D01*
X32565517Y-74242091D01*
X32625127Y-74248500D01*
X34420872Y-74248499D01*
X34420876Y-74248499D01*
X34460612Y-74244227D01*
X34480483Y-74242091D01*
X34538109Y-74220597D01*
X34608156Y-74212292D01*
X34674176Y-74237137D01*
X34721370Y-74289565D01*
X34739159Y-74357825D01*
X34723558Y-74426618D01*
X34689769Y-74494475D01*
X34628885Y-74708464D01*
X34608356Y-74930000D01*
X34626317Y-75123825D01*
X34628885Y-75151536D01*
X34635088Y-75173336D01*
X34689770Y-75365528D01*
X34788939Y-75564685D01*
X34788941Y-75564688D01*
X34788942Y-75564689D01*
X34923019Y-75742236D01*
X35087438Y-75892124D01*
X35087440Y-75892125D01*
X35276598Y-76009247D01*
X35454718Y-76078251D01*
X35484060Y-76089618D01*
X35702757Y-76130500D01*
X35925243Y-76130500D01*
X36143940Y-76089618D01*
X36351401Y-76009247D01*
X36540562Y-75892124D01*
X36704981Y-75742236D01*
X36839058Y-75564689D01*
X36938229Y-75365528D01*
X36999115Y-75151536D01*
X37019643Y-74930000D01*
X36999115Y-74708464D01*
X36950022Y-74535919D01*
X36938229Y-74494471D01*
X36839058Y-74295311D01*
X36787870Y-74227527D01*
X36762228Y-74173892D01*
X36759597Y-74114501D01*
X36780395Y-74058808D01*
X36821309Y-74015682D01*
X36934401Y-73936495D01*
X37101495Y-73769401D01*
X37237035Y-73575830D01*
X37336903Y-73361663D01*
X37356674Y-73287876D01*
X39538500Y-73287876D01*
X39544908Y-73347481D01*
X39579302Y-73439697D01*
X39595204Y-73482331D01*
X39681454Y-73597546D01*
X39796669Y-73683796D01*
X39931517Y-73734091D01*
X39991127Y-73740500D01*
X41786872Y-73740499D01*
X41786876Y-73740499D01*
X41826612Y-73736226D01*
X41846483Y-73734091D01*
X41981331Y-73683796D01*
X42096546Y-73597546D01*
X42182796Y-73482331D01*
X42218216Y-73387364D01*
X42260246Y-73326829D01*
X42326148Y-73293840D01*
X42399799Y-73296470D01*
X42463180Y-73334076D01*
X42557599Y-73428495D01*
X42751170Y-73564035D01*
X42793076Y-73583576D01*
X42848328Y-73609341D01*
X42898907Y-73647904D01*
X42928795Y-73704047D01*
X42932547Y-73767539D01*
X42909480Y-73826811D01*
X42863796Y-73871063D01*
X42707440Y-73967874D01*
X42543021Y-74117761D01*
X42408939Y-74295314D01*
X42309770Y-74494471D01*
X42248885Y-74708464D01*
X42228356Y-74930000D01*
X42246317Y-75123825D01*
X42248885Y-75151536D01*
X42255088Y-75173336D01*
X42309770Y-75365528D01*
X42408939Y-75564685D01*
X42408941Y-75564688D01*
X42408942Y-75564689D01*
X42543019Y-75742236D01*
X42707438Y-75892124D01*
X42707440Y-75892125D01*
X42896598Y-76009247D01*
X43074718Y-76078251D01*
X43104060Y-76089618D01*
X43322757Y-76130500D01*
X43545243Y-76130500D01*
X43763940Y-76089618D01*
X43971401Y-76009247D01*
X44160562Y-75892124D01*
X44324981Y-75742236D01*
X44459058Y-75564689D01*
X44558229Y-75365528D01*
X44619115Y-75151536D01*
X44639643Y-74930000D01*
X44619115Y-74708464D01*
X44570022Y-74535919D01*
X44558229Y-74494471D01*
X44459060Y-74295314D01*
X44423707Y-74248499D01*
X44324981Y-74117764D01*
X44311577Y-74105545D01*
X44160563Y-73967877D01*
X44160562Y-73967876D01*
X43999904Y-73868401D01*
X43954223Y-73824151D01*
X43931156Y-73764879D01*
X43934908Y-73701387D01*
X43964797Y-73645244D01*
X44015376Y-73606681D01*
X44106827Y-73564037D01*
X44185379Y-73509034D01*
X44300401Y-73428495D01*
X44467495Y-73261401D01*
X44603035Y-73067830D01*
X44702903Y-72853663D01*
X44764063Y-72625408D01*
X44784659Y-72390000D01*
X44764063Y-72154592D01*
X44736574Y-72052000D01*
X46910000Y-72052000D01*
X46910000Y-72699831D01*
X46916401Y-72759373D01*
X46966647Y-72894088D01*
X47052811Y-73009188D01*
X47167911Y-73095352D01*
X47302626Y-73145598D01*
X47362169Y-73152000D01*
X48010000Y-73152000D01*
X48010000Y-72052000D01*
X48510000Y-72052000D01*
X48510000Y-73152000D01*
X49157831Y-73152000D01*
X49217373Y-73145598D01*
X49352088Y-73095352D01*
X49467188Y-73009188D01*
X49553352Y-72894088D01*
X49603598Y-72759373D01*
X49610000Y-72699831D01*
X49610000Y-72052000D01*
X48510000Y-72052000D01*
X48010000Y-72052000D01*
X46910000Y-72052000D01*
X44736574Y-72052000D01*
X44702903Y-71926337D01*
X44603035Y-71712171D01*
X44467495Y-71518599D01*
X44300401Y-71351505D01*
X44106830Y-71215965D01*
X43892663Y-71116097D01*
X43664407Y-71054936D01*
X43429000Y-71034341D01*
X43193592Y-71054936D01*
X42965336Y-71116097D01*
X42751172Y-71215964D01*
X42557594Y-71351508D01*
X42463179Y-71445923D01*
X42399798Y-71483529D01*
X42326148Y-71486159D01*
X42260246Y-71453170D01*
X42218215Y-71392633D01*
X42182796Y-71297669D01*
X42096546Y-71182454D01*
X41981331Y-71096204D01*
X41846483Y-71045909D01*
X41846482Y-71045908D01*
X41846480Y-71045908D01*
X41786876Y-71039500D01*
X39991123Y-71039500D01*
X39931518Y-71045908D01*
X39796670Y-71096203D01*
X39681454Y-71182454D01*
X39595204Y-71297669D01*
X39544908Y-71432519D01*
X39538500Y-71492123D01*
X39538500Y-73287876D01*
X37356674Y-73287876D01*
X37398063Y-73133408D01*
X37418659Y-72898000D01*
X37398063Y-72662592D01*
X37336903Y-72434337D01*
X37237035Y-72220171D01*
X37101495Y-72026599D01*
X36934401Y-71859505D01*
X36740830Y-71723965D01*
X36526663Y-71624097D01*
X36526662Y-71624096D01*
X36298407Y-71562936D01*
X36063000Y-71542341D01*
X35827592Y-71562936D01*
X35599336Y-71624097D01*
X35385172Y-71723964D01*
X35191594Y-71859508D01*
X35097179Y-71953923D01*
X35033798Y-71991529D01*
X34960148Y-71994159D01*
X34894246Y-71961170D01*
X34852215Y-71900633D01*
X34816796Y-71805669D01*
X34730546Y-71690454D01*
X34615331Y-71604204D01*
X34480483Y-71553909D01*
X34480482Y-71553908D01*
X34480480Y-71553908D01*
X34420876Y-71547500D01*
X34420873Y-71547500D01*
X34372500Y-71547500D01*
X34315480Y-71536158D01*
X34267141Y-71503859D01*
X34234842Y-71455520D01*
X34223500Y-71398500D01*
X34223500Y-65298670D01*
X34223772Y-65289672D01*
X34227358Y-65230395D01*
X34227358Y-65230394D01*
X34216648Y-65171956D01*
X34215297Y-65163077D01*
X34208140Y-65104128D01*
X34205354Y-65096782D01*
X34198112Y-65070801D01*
X34196695Y-65063067D01*
X34172321Y-65008912D01*
X34168875Y-65000594D01*
X34147817Y-64945067D01*
X34143350Y-64938596D01*
X34130102Y-64915106D01*
X34126879Y-64907945D01*
X34090259Y-64861202D01*
X34084927Y-64853955D01*
X34051184Y-64805072D01*
X34006739Y-64765697D01*
X34000185Y-64759528D01*
X29438657Y-60198000D01*
X32068356Y-60198000D01*
X32088885Y-60419535D01*
X32149770Y-60633528D01*
X32248939Y-60832685D01*
X32248941Y-60832688D01*
X32248942Y-60832689D01*
X32383019Y-61010236D01*
X32547438Y-61160124D01*
X32547440Y-61160125D01*
X32736598Y-61277247D01*
X32944057Y-61357617D01*
X32944060Y-61357618D01*
X33162757Y-61398500D01*
X33385243Y-61398500D01*
X33603940Y-61357618D01*
X33811401Y-61277247D01*
X34000562Y-61160124D01*
X34164981Y-61010236D01*
X34299058Y-60832689D01*
X34398229Y-60633528D01*
X34459115Y-60419536D01*
X34479643Y-60198000D01*
X34459115Y-59976464D01*
X34398229Y-59762472D01*
X34398229Y-59762471D01*
X34299060Y-59563314D01*
X34226186Y-59466813D01*
X34164981Y-59385764D01*
X34000562Y-59235876D01*
X33994557Y-59232158D01*
X33811401Y-59118752D01*
X33603942Y-59038382D01*
X33385243Y-58997500D01*
X33162757Y-58997500D01*
X32944057Y-59038382D01*
X32736598Y-59118752D01*
X32547440Y-59235874D01*
X32383021Y-59385761D01*
X32248939Y-59563314D01*
X32149770Y-59762471D01*
X32088885Y-59976464D01*
X32068356Y-60198000D01*
X29438657Y-60198000D01*
X27610985Y-58370328D01*
X27572741Y-58304709D01*
X27571809Y-58228765D01*
X27608431Y-58162227D01*
X27673090Y-58122385D01*
X27816727Y-58078814D01*
X27990538Y-57985910D01*
X28114321Y-57884322D01*
X28158651Y-57859210D01*
X28208848Y-57850500D01*
X36042330Y-57850500D01*
X36051326Y-57850771D01*
X36066379Y-57851682D01*
X36110604Y-57854358D01*
X36110604Y-57854357D01*
X36110606Y-57854358D01*
X36169053Y-57843646D01*
X36177911Y-57842298D01*
X36236872Y-57835140D01*
X36244211Y-57832356D01*
X36270199Y-57825112D01*
X36273193Y-57824563D01*
X36277932Y-57823695D01*
X36332109Y-57799310D01*
X36340384Y-57795882D01*
X36395930Y-57774818D01*
X36402394Y-57770355D01*
X36425890Y-57757103D01*
X36433057Y-57753878D01*
X36479823Y-57717238D01*
X36487043Y-57711926D01*
X36535929Y-57678183D01*
X36575318Y-57633720D01*
X36581455Y-57627200D01*
X37330515Y-56878141D01*
X37378855Y-56845842D01*
X37435875Y-56834500D01*
X43121348Y-56834500D01*
X43186373Y-56849438D01*
X43238360Y-56891255D01*
X43266886Y-56951568D01*
X43266231Y-57018283D01*
X43236527Y-57078025D01*
X43106087Y-57236965D01*
X43013186Y-57410771D01*
X42955976Y-57599366D01*
X42936659Y-57795500D01*
X42955976Y-57991633D01*
X43013186Y-58180228D01*
X43106087Y-58354034D01*
X43106089Y-58354037D01*
X43106090Y-58354038D01*
X43231117Y-58506383D01*
X43383462Y-58631410D01*
X43383463Y-58631410D01*
X43383465Y-58631412D01*
X43529554Y-58709498D01*
X43557273Y-58724314D01*
X43745868Y-58781524D01*
X43905234Y-58797219D01*
X43954333Y-58810808D01*
X43995986Y-58840143D01*
X58023028Y-72867185D01*
X58029182Y-72873722D01*
X58068571Y-72918183D01*
X58068572Y-72918183D01*
X58069911Y-72919695D01*
X58102149Y-72979357D01*
X58104606Y-73047127D01*
X58076774Y-73108967D01*
X58024417Y-73152068D01*
X57958382Y-73167500D01*
X56102138Y-73167500D01*
X56045118Y-73156158D01*
X55996779Y-73123859D01*
X51437779Y-68564859D01*
X51435144Y-68562156D01*
X51375058Y-68498946D01*
X51327421Y-68465789D01*
X51318382Y-68458974D01*
X51273408Y-68422303D01*
X51273407Y-68422302D01*
X51247841Y-68408947D01*
X51231716Y-68399177D01*
X51208050Y-68382706D01*
X51208051Y-68382706D01*
X51208049Y-68382705D01*
X51154716Y-68359817D01*
X51144492Y-68354962D01*
X51093050Y-68328091D01*
X51065326Y-68320158D01*
X51047558Y-68313832D01*
X51021057Y-68302459D01*
X50964201Y-68290775D01*
X50953216Y-68288078D01*
X50920396Y-68278687D01*
X50897419Y-68272113D01*
X50868651Y-68269922D01*
X50849976Y-68267302D01*
X50821742Y-68261500D01*
X50821741Y-68261500D01*
X50763711Y-68261500D01*
X50752398Y-68261070D01*
X50742365Y-68260306D01*
X50694524Y-68256663D01*
X50694523Y-68256663D01*
X50665918Y-68260306D01*
X50647095Y-68261500D01*
X49231114Y-68261500D01*
X49174094Y-68250158D01*
X49143134Y-68229471D01*
X49142078Y-68230981D01*
X48975088Y-68114052D01*
X48928387Y-68060799D01*
X48911552Y-67991998D01*
X48928388Y-67923198D01*
X48975086Y-67869947D01*
X49131401Y-67760495D01*
X49298495Y-67593401D01*
X49434035Y-67399830D01*
X49533903Y-67185663D01*
X49595063Y-66957408D01*
X49615659Y-66722000D01*
X49595063Y-66486592D01*
X49533903Y-66258337D01*
X49434035Y-66044171D01*
X49298495Y-65850599D01*
X49131401Y-65683505D01*
X48937830Y-65547965D01*
X48723663Y-65448097D01*
X48723662Y-65448096D01*
X48495407Y-65386936D01*
X48260000Y-65366341D01*
X48024592Y-65386936D01*
X47796336Y-65448097D01*
X47582172Y-65547964D01*
X47388598Y-65683505D01*
X47221505Y-65850598D01*
X47085964Y-66044172D01*
X46986097Y-66258336D01*
X46924936Y-66486592D01*
X46904341Y-66722000D01*
X46924936Y-66957407D01*
X46986097Y-67185663D01*
X47085964Y-67399828D01*
X47221505Y-67593401D01*
X47388598Y-67760494D01*
X47544911Y-67869946D01*
X47591613Y-67923200D01*
X47608448Y-67992000D01*
X47591613Y-68060800D01*
X47544911Y-68114054D01*
X47388598Y-68223505D01*
X47221505Y-68390598D01*
X47085964Y-68584172D01*
X46986097Y-68798336D01*
X46924936Y-69026592D01*
X46904341Y-69261999D01*
X46924936Y-69497407D01*
X46986097Y-69725663D01*
X47085964Y-69939828D01*
X47221505Y-70133401D01*
X47316311Y-70228207D01*
X47353916Y-70291588D01*
X47356547Y-70365238D01*
X47323559Y-70431140D01*
X47263023Y-70473171D01*
X47167913Y-70508645D01*
X47052811Y-70594811D01*
X46966647Y-70709911D01*
X46916401Y-70844626D01*
X46910000Y-70904169D01*
X46910000Y-71552000D01*
X49610000Y-71552000D01*
X49610000Y-70904169D01*
X49603598Y-70844626D01*
X49553352Y-70709911D01*
X49467187Y-70594809D01*
X49381655Y-70530780D01*
X49335412Y-70473396D01*
X49322328Y-70400870D01*
X49345602Y-70330944D01*
X49399540Y-70280726D01*
X49470948Y-70262500D01*
X50243861Y-70262500D01*
X50300881Y-70273842D01*
X50349220Y-70306141D01*
X54908238Y-74865159D01*
X54910873Y-74867862D01*
X54970941Y-74931053D01*
X55018584Y-74964214D01*
X55027603Y-74971014D01*
X55055069Y-74993409D01*
X55072593Y-75007698D01*
X55098150Y-75021048D01*
X55114283Y-75030822D01*
X55137951Y-75047295D01*
X55191289Y-75070184D01*
X55201498Y-75075032D01*
X55252951Y-75101909D01*
X55280675Y-75109841D01*
X55298438Y-75116166D01*
X55324941Y-75127540D01*
X55381783Y-75139221D01*
X55392780Y-75141919D01*
X55448582Y-75157887D01*
X55477336Y-75160076D01*
X55496010Y-75162694D01*
X55524259Y-75168500D01*
X55582290Y-75168500D01*
X55593602Y-75168929D01*
X55651477Y-75173337D01*
X55675647Y-75170258D01*
X55680083Y-75169694D01*
X55698906Y-75168500D01*
X62935524Y-75168500D01*
X62950127Y-75169216D01*
X62992000Y-75173341D01*
X63033872Y-75169216D01*
X63037389Y-75169044D01*
X63042737Y-75168500D01*
X63042742Y-75168500D01*
X63091193Y-75163572D01*
X63091673Y-75163630D01*
X63091663Y-75163525D01*
X63100080Y-75162696D01*
X63188132Y-75154024D01*
X63188134Y-75154023D01*
X63192908Y-75153553D01*
X63194433Y-75153074D01*
X63194438Y-75153074D01*
X63286428Y-75124210D01*
X63287510Y-75123876D01*
X63376727Y-75096814D01*
X63376730Y-75096811D01*
X63384392Y-75094488D01*
X63469649Y-75047167D01*
X63471684Y-75046058D01*
X63550538Y-75003910D01*
X63550539Y-75003909D01*
X63554672Y-75001700D01*
X63565096Y-74994615D01*
X63566498Y-74993410D01*
X63566502Y-74993409D01*
X63634101Y-74935374D01*
X63636539Y-74933329D01*
X63702883Y-74878883D01*
X63702884Y-74878881D01*
X63704013Y-74877955D01*
X63719851Y-74861762D01*
X63720895Y-74860866D01*
X63773154Y-74793351D01*
X63775789Y-74790047D01*
X63827908Y-74726540D01*
X63827910Y-74726538D01*
X63828772Y-74724924D01*
X63842366Y-74703939D01*
X63845448Y-74699958D01*
X63881449Y-74626560D01*
X63883792Y-74621986D01*
X63920814Y-74552727D01*
X63922411Y-74547460D01*
X63931226Y-74525086D01*
X63935060Y-74517271D01*
X63948248Y-74466336D01*
X63954634Y-74441673D01*
X63956293Y-74435767D01*
X63978024Y-74364132D01*
X63978922Y-74355011D01*
X63982961Y-74332261D01*
X63986063Y-74320285D01*
X63989834Y-74245916D01*
X63990360Y-74238873D01*
X63992979Y-74212292D01*
X63997341Y-74168000D01*
X63996082Y-74155225D01*
X63995556Y-74133088D01*
X63996369Y-74117064D01*
X63985646Y-74047072D01*
X63984651Y-74039157D01*
X63978024Y-73971868D01*
X63973234Y-73956078D01*
X63968538Y-73935399D01*
X63965556Y-73915929D01*
X63942231Y-73852951D01*
X63939382Y-73844488D01*
X63920814Y-73783273D01*
X63911316Y-73765505D01*
X63902995Y-73747010D01*
X63898242Y-73734175D01*
X63894886Y-73725113D01*
X63861281Y-73671198D01*
X63856339Y-73662649D01*
X63827910Y-73609462D01*
X63812808Y-73591060D01*
X63801541Y-73575354D01*
X63787251Y-73552428D01*
X63745995Y-73509027D01*
X63738822Y-73500909D01*
X63723268Y-73481956D01*
X63702883Y-73457116D01*
X63681658Y-73439697D01*
X63668193Y-73427179D01*
X63647058Y-73404946D01*
X63600915Y-73372829D01*
X63591513Y-73365717D01*
X63586573Y-73361663D01*
X63578063Y-73354679D01*
X63534930Y-73296522D01*
X63524304Y-73224897D01*
X63548697Y-73156721D01*
X63602348Y-73108094D01*
X63672587Y-73090500D01*
X66318501Y-73090500D01*
X66375521Y-73101842D01*
X66423860Y-73134141D01*
X66456159Y-73182480D01*
X66467501Y-73239500D01*
X66467501Y-73287876D01*
X66473908Y-73347481D01*
X66508302Y-73439697D01*
X66524204Y-73482331D01*
X66610454Y-73597546D01*
X66725669Y-73683796D01*
X66820633Y-73719215D01*
X66881170Y-73761246D01*
X66914159Y-73827148D01*
X66911529Y-73900798D01*
X66873923Y-73964179D01*
X66779508Y-74058594D01*
X66643964Y-74252172D01*
X66544097Y-74466336D01*
X66482936Y-74694592D01*
X66462341Y-74930000D01*
X66482936Y-75165407D01*
X66544097Y-75393663D01*
X66643964Y-75607828D01*
X66779505Y-75801401D01*
X66946598Y-75968494D01*
X67103347Y-76078251D01*
X67150049Y-76131504D01*
X67166884Y-76200305D01*
X67150049Y-76269105D01*
X67103347Y-76322358D01*
X66946924Y-76431887D01*
X66779890Y-76598921D01*
X66644399Y-76792423D01*
X66544568Y-77006509D01*
X66487363Y-77219999D01*
X66487364Y-77220000D01*
X69148636Y-77220000D01*
X69148636Y-77219999D01*
X69091431Y-77006509D01*
X68991600Y-76792423D01*
X68856109Y-76598921D01*
X68689075Y-76431887D01*
X68532652Y-76322358D01*
X68485950Y-76269105D01*
X68469115Y-76200305D01*
X68485951Y-76131504D01*
X68532649Y-76078253D01*
X68689401Y-75968495D01*
X68856495Y-75801401D01*
X68992035Y-75607830D01*
X69091903Y-75393663D01*
X69153063Y-75165408D01*
X69173659Y-74930000D01*
X69153063Y-74694592D01*
X69091903Y-74466337D01*
X68992035Y-74252171D01*
X68856495Y-74058599D01*
X68762075Y-73964179D01*
X68724470Y-73900799D01*
X68721840Y-73827148D01*
X68754829Y-73761246D01*
X68815364Y-73719216D01*
X68910331Y-73683796D01*
X69025546Y-73597546D01*
X69111796Y-73482331D01*
X69162091Y-73347483D01*
X69168500Y-73287873D01*
X69168499Y-71492128D01*
X69168499Y-71492124D01*
X69168499Y-71492123D01*
X69162091Y-71432518D01*
X69149403Y-71398501D01*
X69111796Y-71297669D01*
X69025546Y-71182454D01*
X68910331Y-71096204D01*
X68775483Y-71045909D01*
X68775482Y-71045908D01*
X68775480Y-71045908D01*
X68715876Y-71039500D01*
X66920123Y-71039500D01*
X66860518Y-71045908D01*
X66725670Y-71096203D01*
X66610454Y-71182454D01*
X66524204Y-71297669D01*
X66473908Y-71432519D01*
X66467500Y-71492124D01*
X66467500Y-71540500D01*
X66456158Y-71597520D01*
X66423859Y-71645859D01*
X66375520Y-71678158D01*
X66318500Y-71689500D01*
X58888375Y-71689500D01*
X58831355Y-71678158D01*
X58783016Y-71645859D01*
X46164183Y-59027026D01*
X46128062Y-58968405D01*
X46122155Y-58899804D01*
X46147722Y-58835871D01*
X46199302Y-58790262D01*
X46278538Y-58747910D01*
X46402321Y-58646322D01*
X46446651Y-58621210D01*
X46496848Y-58612500D01*
X46892125Y-58612500D01*
X46949145Y-58623842D01*
X46997484Y-58656141D01*
X53080528Y-64739185D01*
X53086697Y-64745739D01*
X53126071Y-64790183D01*
X53174945Y-64823919D01*
X53182182Y-64829243D01*
X53228943Y-64865878D01*
X53236112Y-64869104D01*
X53259596Y-64882349D01*
X53266070Y-64886818D01*
X53321597Y-64907876D01*
X53329914Y-64911321D01*
X53384068Y-64935694D01*
X53387980Y-64936410D01*
X53391795Y-64937110D01*
X53417782Y-64944354D01*
X53425128Y-64947140D01*
X53484113Y-64954301D01*
X53492966Y-64955649D01*
X53551394Y-64966357D01*
X53610662Y-64962771D01*
X53619658Y-64962500D01*
X63910125Y-64962500D01*
X63967145Y-64973842D01*
X64015484Y-65006141D01*
X70086009Y-71076666D01*
X70122575Y-71136657D01*
X70127587Y-71206734D01*
X70099930Y-71271318D01*
X70080204Y-71297667D01*
X70029908Y-71432519D01*
X70023500Y-71492123D01*
X70023500Y-73287876D01*
X70029908Y-73347481D01*
X70064302Y-73439697D01*
X70080204Y-73482331D01*
X70166454Y-73597546D01*
X70281669Y-73683796D01*
X70376633Y-73719215D01*
X70437170Y-73761246D01*
X70470159Y-73827148D01*
X70467529Y-73900798D01*
X70429923Y-73964179D01*
X70335508Y-74058594D01*
X70199964Y-74252172D01*
X70100097Y-74466336D01*
X70038936Y-74694592D01*
X70018341Y-74930000D01*
X70038936Y-75165407D01*
X70100097Y-75393663D01*
X70199964Y-75607828D01*
X70335505Y-75801401D01*
X70502598Y-75968494D01*
X70659347Y-76078251D01*
X70706049Y-76131504D01*
X70722884Y-76200305D01*
X70706049Y-76269105D01*
X70659347Y-76322358D01*
X70502924Y-76431887D01*
X70335890Y-76598921D01*
X70200399Y-76792423D01*
X70100568Y-77006509D01*
X70043363Y-77219999D01*
X70043364Y-77220000D01*
X72704636Y-77220000D01*
X72704636Y-77219999D01*
X72647431Y-77006509D01*
X72547600Y-76792423D01*
X72412109Y-76598921D01*
X72245075Y-76431887D01*
X72088652Y-76322358D01*
X72041950Y-76269105D01*
X72025115Y-76200305D01*
X72041951Y-76131504D01*
X72088649Y-76078253D01*
X72245401Y-75968495D01*
X72412495Y-75801401D01*
X72548035Y-75607830D01*
X72647903Y-75393663D01*
X72709063Y-75165408D01*
X72729659Y-74930000D01*
X72709063Y-74694592D01*
X72647903Y-74466337D01*
X72548035Y-74252171D01*
X72412495Y-74058599D01*
X72318075Y-73964179D01*
X72280470Y-73900799D01*
X72277840Y-73827148D01*
X72310829Y-73761246D01*
X72371364Y-73719216D01*
X72466331Y-73683796D01*
X72581546Y-73597546D01*
X72667796Y-73482331D01*
X72718091Y-73347483D01*
X72724500Y-73287873D01*
X72724499Y-71492128D01*
X72724499Y-71492124D01*
X72724499Y-71492123D01*
X72718091Y-71432518D01*
X72705403Y-71398501D01*
X72667796Y-71297669D01*
X72581546Y-71182454D01*
X72466331Y-71096204D01*
X72331483Y-71045909D01*
X72331482Y-71045908D01*
X72331480Y-71045908D01*
X72271876Y-71039500D01*
X72271873Y-71039500D01*
X72074366Y-71039500D01*
X72009140Y-71024465D01*
X71957078Y-70982393D01*
X71941254Y-70962196D01*
X71935931Y-70954963D01*
X71902183Y-70906071D01*
X71857739Y-70866697D01*
X71851185Y-70860528D01*
X64775470Y-63784813D01*
X64769300Y-63778258D01*
X64729928Y-63733815D01*
X64681056Y-63700081D01*
X64673808Y-63694748D01*
X64627057Y-63658122D01*
X64619887Y-63654895D01*
X64596402Y-63641649D01*
X64589930Y-63637182D01*
X64534406Y-63616124D01*
X64526092Y-63612680D01*
X64471933Y-63588305D01*
X64464190Y-63586886D01*
X64438221Y-63579646D01*
X64430872Y-63576859D01*
X64371941Y-63569703D01*
X64363048Y-63568350D01*
X64304606Y-63557641D01*
X64247672Y-63561086D01*
X64245326Y-63561228D01*
X64236330Y-63561500D01*
X53945875Y-63561500D01*
X53888855Y-63550158D01*
X53840516Y-63517859D01*
X49087318Y-58764661D01*
X49052387Y-58709498D01*
X49044395Y-58644697D01*
X49064876Y-58582700D01*
X49109897Y-58535413D01*
X49170815Y-58511915D01*
X49235927Y-58516717D01*
X49333868Y-58546428D01*
X49530000Y-58565745D01*
X49726132Y-58546428D01*
X49914727Y-58489218D01*
X50088538Y-58396314D01*
X50199225Y-58305475D01*
X50212323Y-58294726D01*
X50256651Y-58269614D01*
X50306848Y-58260904D01*
X50350529Y-58260904D01*
X50407549Y-58272246D01*
X50455888Y-58304545D01*
X52572528Y-60421185D01*
X52578697Y-60427739D01*
X52618072Y-60472184D01*
X52666955Y-60505927D01*
X52674202Y-60511259D01*
X52720945Y-60547879D01*
X52728106Y-60551102D01*
X52751596Y-60564350D01*
X52758067Y-60568817D01*
X52813594Y-60589875D01*
X52821912Y-60593321D01*
X52876067Y-60617695D01*
X52883801Y-60619112D01*
X52909782Y-60626354D01*
X52917128Y-60629140D01*
X52976088Y-60636298D01*
X52984956Y-60637648D01*
X53043394Y-60648358D01*
X53043394Y-60648357D01*
X53043395Y-60648358D01*
X53078665Y-60646224D01*
X53102673Y-60644771D01*
X53111670Y-60644500D01*
X65434125Y-60644500D01*
X65491145Y-60655842D01*
X65539484Y-60688141D01*
X74185859Y-69334516D01*
X74218158Y-69382855D01*
X74229500Y-69439875D01*
X74229500Y-70890501D01*
X74218158Y-70947521D01*
X74185859Y-70995860D01*
X74137520Y-71028159D01*
X74080500Y-71039501D01*
X74032124Y-71039501D01*
X73972518Y-71045908D01*
X73837670Y-71096203D01*
X73722454Y-71182454D01*
X73636204Y-71297669D01*
X73585908Y-71432519D01*
X73579500Y-71492123D01*
X73579500Y-73287876D01*
X73585908Y-73347481D01*
X73620302Y-73439697D01*
X73636204Y-73482331D01*
X73722454Y-73597546D01*
X73837669Y-73683796D01*
X73932633Y-73719215D01*
X73993170Y-73761246D01*
X74026159Y-73827148D01*
X74023529Y-73900798D01*
X73985923Y-73964179D01*
X73891508Y-74058594D01*
X73755964Y-74252172D01*
X73656097Y-74466336D01*
X73594936Y-74694592D01*
X73574341Y-74930000D01*
X73594936Y-75165407D01*
X73656097Y-75393663D01*
X73755964Y-75607828D01*
X73891505Y-75801401D01*
X74058598Y-75968494D01*
X74215347Y-76078251D01*
X74262049Y-76131504D01*
X74278884Y-76200305D01*
X74262049Y-76269105D01*
X74215347Y-76322358D01*
X74058924Y-76431887D01*
X73891890Y-76598921D01*
X73756399Y-76792423D01*
X73656568Y-77006509D01*
X73599363Y-77219999D01*
X73599364Y-77220000D01*
X76260636Y-77220000D01*
X76260636Y-77219999D01*
X76203431Y-77006509D01*
X76103600Y-76792423D01*
X75968109Y-76598921D01*
X75801075Y-76431887D01*
X75644652Y-76322358D01*
X75597950Y-76269105D01*
X75581115Y-76200305D01*
X75597951Y-76131504D01*
X75644649Y-76078253D01*
X75801401Y-75968495D01*
X75968495Y-75801401D01*
X76104035Y-75607830D01*
X76203903Y-75393663D01*
X76265063Y-75165408D01*
X76285659Y-74930000D01*
X76265063Y-74694592D01*
X76203903Y-74466337D01*
X76104035Y-74252171D01*
X75968495Y-74058599D01*
X75874075Y-73964179D01*
X75836470Y-73900799D01*
X75833840Y-73827148D01*
X75866829Y-73761246D01*
X75927364Y-73719216D01*
X76022331Y-73683796D01*
X76137546Y-73597546D01*
X76223796Y-73482331D01*
X76274091Y-73347483D01*
X76280500Y-73287873D01*
X76280499Y-71492128D01*
X76280499Y-71492124D01*
X76280499Y-71492123D01*
X76274091Y-71432518D01*
X76261403Y-71398501D01*
X76223796Y-71297669D01*
X76137546Y-71182454D01*
X76022331Y-71096204D01*
X75887483Y-71045909D01*
X75887482Y-71045908D01*
X75887480Y-71045908D01*
X75827876Y-71039500D01*
X75827873Y-71039500D01*
X75779500Y-71039500D01*
X75722480Y-71028158D01*
X75674141Y-70995859D01*
X75641842Y-70947520D01*
X75630500Y-70890500D01*
X75630500Y-69113670D01*
X75630772Y-69104672D01*
X75634358Y-69045395D01*
X75630912Y-69026592D01*
X75623648Y-68986956D01*
X75622297Y-68978077D01*
X75615140Y-68919128D01*
X75612354Y-68911782D01*
X75605112Y-68885801D01*
X75603695Y-68878067D01*
X75579321Y-68823912D01*
X75575875Y-68815594D01*
X75554817Y-68760067D01*
X75550350Y-68753596D01*
X75537102Y-68730106D01*
X75533879Y-68722945D01*
X75497259Y-68676202D01*
X75491927Y-68668955D01*
X75458184Y-68620072D01*
X75413739Y-68580697D01*
X75407185Y-68574528D01*
X66299470Y-59466813D01*
X66293300Y-59460258D01*
X66253928Y-59415815D01*
X66205056Y-59382081D01*
X66197808Y-59376748D01*
X66151057Y-59340122D01*
X66143887Y-59336895D01*
X66120402Y-59323649D01*
X66113930Y-59319182D01*
X66058406Y-59298124D01*
X66050092Y-59294680D01*
X65995933Y-59270305D01*
X65988190Y-59268886D01*
X65962221Y-59261646D01*
X65954872Y-59258859D01*
X65895941Y-59251703D01*
X65887048Y-59250350D01*
X65828606Y-59239641D01*
X65771672Y-59243086D01*
X65769326Y-59243228D01*
X65760330Y-59243500D01*
X53437875Y-59243500D01*
X53380855Y-59232158D01*
X53332516Y-59199859D01*
X51221516Y-57088859D01*
X51185168Y-57029544D01*
X51179709Y-56960191D01*
X51206331Y-56895920D01*
X51259230Y-56850740D01*
X51326875Y-56834500D01*
X51972125Y-56834500D01*
X52029145Y-56845842D01*
X52077484Y-56878141D01*
X53334521Y-58135177D01*
X53340690Y-58141731D01*
X53380069Y-58186182D01*
X53401199Y-58200766D01*
X53428960Y-58219929D01*
X53436191Y-58225249D01*
X53482943Y-58261877D01*
X53490110Y-58265102D01*
X53513598Y-58278350D01*
X53520070Y-58282818D01*
X53575605Y-58303879D01*
X53583912Y-58307320D01*
X53638068Y-58331694D01*
X53641980Y-58332410D01*
X53645795Y-58333110D01*
X53671782Y-58340354D01*
X53679128Y-58343140D01*
X53738108Y-58350301D01*
X53746966Y-58351649D01*
X53805394Y-58362357D01*
X53805394Y-58362356D01*
X53805395Y-58362357D01*
X53831267Y-58360791D01*
X53864662Y-58358771D01*
X53873658Y-58358500D01*
X67041152Y-58358500D01*
X67091349Y-58367210D01*
X67135677Y-58392322D01*
X67253744Y-58489217D01*
X67259462Y-58493910D01*
X67433273Y-58586814D01*
X67621868Y-58644024D01*
X67818000Y-58663341D01*
X68014132Y-58644024D01*
X68202727Y-58586814D01*
X68376538Y-58493910D01*
X68528883Y-58368883D01*
X68653910Y-58216538D01*
X68746814Y-58042727D01*
X68804024Y-57854132D01*
X68823341Y-57658000D01*
X68804024Y-57461868D01*
X68746814Y-57273273D01*
X68737294Y-57255462D01*
X68653912Y-57099465D01*
X68653910Y-57099462D01*
X68528883Y-56947117D01*
X68376538Y-56822090D01*
X68376537Y-56822089D01*
X68376534Y-56822087D01*
X68202728Y-56729186D01*
X68014133Y-56671976D01*
X67818000Y-56652659D01*
X67621866Y-56671976D01*
X67433271Y-56729186D01*
X67259462Y-56822089D01*
X67135677Y-56923678D01*
X67091349Y-56948790D01*
X67041152Y-56957500D01*
X54199874Y-56957500D01*
X54142854Y-56946158D01*
X54094515Y-56913859D01*
X52969700Y-55789043D01*
X52931136Y-55722248D01*
X52931136Y-55645120D01*
X52969697Y-55578329D01*
X53347193Y-55200832D01*
X53353712Y-55194696D01*
X53398183Y-55155300D01*
X53431940Y-55106393D01*
X53437237Y-55099192D01*
X53473877Y-55052428D01*
X53477096Y-55045275D01*
X53490354Y-55021767D01*
X53494818Y-55015301D01*
X53515889Y-54959738D01*
X53519316Y-54951465D01*
X53543694Y-54897303D01*
X53545110Y-54889572D01*
X53552351Y-54863593D01*
X53555140Y-54856243D01*
X53562300Y-54797266D01*
X53563648Y-54788408D01*
X53574357Y-54729977D01*
X53570771Y-54670708D01*
X53570500Y-54661713D01*
X53570500Y-50859875D01*
X53581842Y-50802855D01*
X53614141Y-50754516D01*
X53938782Y-50429875D01*
X54282818Y-50085838D01*
X54339665Y-50050317D01*
X54406333Y-50043310D01*
X54469326Y-50066237D01*
X54515893Y-50114458D01*
X54536608Y-50178212D01*
X54544936Y-50273407D01*
X54599301Y-50476299D01*
X54606097Y-50501663D01*
X54705965Y-50715830D01*
X54841504Y-50909400D01*
X54841505Y-50909401D01*
X55008598Y-51076494D01*
X55164911Y-51185946D01*
X55211613Y-51239200D01*
X55228448Y-51308000D01*
X55211613Y-51376800D01*
X55164911Y-51430054D01*
X55008598Y-51539505D01*
X54841505Y-51706598D01*
X54705964Y-51900172D01*
X54606097Y-52114336D01*
X54544936Y-52342592D01*
X54524341Y-52578000D01*
X54544936Y-52813407D01*
X54606096Y-53041662D01*
X54606097Y-53041663D01*
X54705965Y-53255830D01*
X54775644Y-53355342D01*
X54841505Y-53449401D01*
X54935923Y-53543819D01*
X54973528Y-53607200D01*
X54976159Y-53680850D01*
X54943171Y-53746752D01*
X54882634Y-53788783D01*
X54787672Y-53824201D01*
X54672454Y-53910454D01*
X54586204Y-54025669D01*
X54535908Y-54160519D01*
X54529500Y-54220123D01*
X54529500Y-56015876D01*
X54535908Y-56075481D01*
X54582023Y-56199123D01*
X54586204Y-56210331D01*
X54672454Y-56325546D01*
X54787669Y-56411796D01*
X54922517Y-56462091D01*
X54982127Y-56468500D01*
X56777872Y-56468499D01*
X56777876Y-56468499D01*
X56817612Y-56464227D01*
X56837483Y-56462091D01*
X56972331Y-56411796D01*
X57087546Y-56325546D01*
X57173796Y-56210331D01*
X57224091Y-56075483D01*
X57230500Y-56015873D01*
X57230499Y-54220128D01*
X57230499Y-54220127D01*
X57230499Y-54220123D01*
X57224091Y-54160518D01*
X57211297Y-54126216D01*
X57173796Y-54025669D01*
X57087546Y-53910454D01*
X56972331Y-53824204D01*
X56877365Y-53788784D01*
X56816828Y-53746752D01*
X56783840Y-53680850D01*
X56786471Y-53607199D01*
X56824077Y-53543819D01*
X56918492Y-53449404D01*
X56918491Y-53449404D01*
X56918495Y-53449401D01*
X57054035Y-53255830D01*
X57153903Y-53041663D01*
X57215063Y-52813408D01*
X57235659Y-52578000D01*
X57215063Y-52342592D01*
X57153903Y-52114337D01*
X57054035Y-51900171D01*
X56918495Y-51706599D01*
X56751401Y-51539505D01*
X56595089Y-51430054D01*
X56548387Y-51376800D01*
X56531552Y-51308000D01*
X56548387Y-51239200D01*
X56595089Y-51185946D01*
X56603523Y-51180039D01*
X56751401Y-51076495D01*
X56918495Y-50909401D01*
X57054035Y-50715830D01*
X57153903Y-50501663D01*
X57215063Y-50273408D01*
X57235659Y-50038000D01*
X57215063Y-49802592D01*
X57153903Y-49574337D01*
X57054035Y-49360171D01*
X56918495Y-49166599D01*
X56751401Y-48999505D01*
X56751400Y-48999504D01*
X56595088Y-48890052D01*
X56548387Y-48836799D01*
X56531552Y-48767998D01*
X56548388Y-48699198D01*
X56595086Y-48645947D01*
X56751401Y-48536495D01*
X56918495Y-48369401D01*
X57054035Y-48175830D01*
X57153903Y-47961663D01*
X57215063Y-47733408D01*
X57235659Y-47498000D01*
X57215063Y-47262592D01*
X57153903Y-47034337D01*
X57054035Y-46820171D01*
X56918495Y-46626599D01*
X56751401Y-46459505D01*
X56711356Y-46431465D01*
X56595089Y-46350054D01*
X56548387Y-46296800D01*
X56531552Y-46228000D01*
X56548387Y-46159200D01*
X56595089Y-46105946D01*
X56641935Y-46073144D01*
X56751401Y-45996495D01*
X56918495Y-45829401D01*
X57054035Y-45635830D01*
X57153903Y-45421663D01*
X57215063Y-45193408D01*
X57235659Y-44958000D01*
X57215063Y-44722592D01*
X57153903Y-44494337D01*
X57054035Y-44280171D01*
X56918495Y-44086599D01*
X56751401Y-43919505D01*
X56594652Y-43809748D01*
X56547950Y-43756494D01*
X56531115Y-43687694D01*
X56547951Y-43618893D01*
X56594652Y-43565640D01*
X56751078Y-43456109D01*
X56918112Y-43289075D01*
X57053598Y-43095582D01*
X57153431Y-42881491D01*
X57210636Y-42668000D01*
X55779000Y-42668000D01*
X55721980Y-42656658D01*
X55673641Y-42624359D01*
X55641342Y-42576020D01*
X55630000Y-42519000D01*
X55630000Y-42317000D01*
X55641342Y-42259980D01*
X55673641Y-42211641D01*
X55721980Y-42179342D01*
X55779000Y-42168000D01*
X57210636Y-42168000D01*
X57210636Y-42167999D01*
X57153431Y-41954509D01*
X57084399Y-41806470D01*
X57070758Y-41733755D01*
X57093774Y-41663442D01*
X57147772Y-41612868D01*
X57219439Y-41594500D01*
X63148125Y-41594500D01*
X63205145Y-41605842D01*
X63253484Y-41638141D01*
X68310918Y-46695575D01*
X68345849Y-46750737D01*
X68353841Y-46815536D01*
X68336659Y-46990000D01*
X68338875Y-47012495D01*
X68355976Y-47186133D01*
X68413186Y-47374728D01*
X68506087Y-47548534D01*
X68506089Y-47548537D01*
X68506090Y-47548538D01*
X68631117Y-47700883D01*
X68783462Y-47825910D01*
X68783463Y-47825910D01*
X68783465Y-47825912D01*
X68957271Y-47918813D01*
X68957273Y-47918814D01*
X69145868Y-47976024D01*
X69342000Y-47995341D01*
X69538132Y-47976024D01*
X69726727Y-47918814D01*
X69900538Y-47825910D01*
X70052883Y-47700883D01*
X70177910Y-47548538D01*
X70270814Y-47374727D01*
X70328024Y-47186132D01*
X70347341Y-46990000D01*
X70328024Y-46793868D01*
X70270814Y-46605273D01*
X70270813Y-46605271D01*
X70177912Y-46431465D01*
X70177910Y-46431462D01*
X70052883Y-46279117D01*
X69900538Y-46154090D01*
X69900537Y-46154089D01*
X69900534Y-46154087D01*
X69726728Y-46061186D01*
X69663563Y-46042025D01*
X69601457Y-46004800D01*
X64175516Y-40578859D01*
X64139168Y-40519544D01*
X64133709Y-40450191D01*
X64160331Y-40385920D01*
X64213230Y-40340740D01*
X64280875Y-40324500D01*
X67282125Y-40324500D01*
X67339145Y-40335842D01*
X67387484Y-40368141D01*
X70949235Y-43929892D01*
X70978361Y-43971104D01*
X70992060Y-44019674D01*
X70996326Y-44060258D01*
X71054820Y-44240282D01*
X71054821Y-44240284D01*
X71129596Y-44369799D01*
X71149467Y-44404216D01*
X71230612Y-44494337D01*
X71276129Y-44544888D01*
X71429270Y-44656151D01*
X71602197Y-44733144D01*
X71787354Y-44772500D01*
X71976645Y-44772500D01*
X71976646Y-44772500D01*
X72161803Y-44733144D01*
X72334730Y-44656151D01*
X72487871Y-44544888D01*
X72614533Y-44404216D01*
X72709179Y-44240284D01*
X72767674Y-44060256D01*
X72787460Y-43872000D01*
X72767674Y-43683744D01*
X72709179Y-43503716D01*
X72614533Y-43339784D01*
X72551202Y-43269448D01*
X72487872Y-43199113D01*
X72484975Y-43197008D01*
X72334730Y-43087849D01*
X72161803Y-43010856D01*
X72141084Y-43006452D01*
X72014116Y-42979464D01*
X71973998Y-42964664D01*
X71939736Y-42939079D01*
X68147470Y-39146813D01*
X68141300Y-39140258D01*
X68101928Y-39095815D01*
X68053056Y-39062081D01*
X68045808Y-39056748D01*
X67999057Y-39020122D01*
X67991887Y-39016895D01*
X67968402Y-39003649D01*
X67961930Y-38999182D01*
X67906406Y-38978124D01*
X67898092Y-38974680D01*
X67843933Y-38950305D01*
X67836190Y-38948886D01*
X67810221Y-38941646D01*
X67802872Y-38938859D01*
X67743941Y-38931703D01*
X67735048Y-38930350D01*
X67676606Y-38919641D01*
X67619672Y-38923086D01*
X67617326Y-38923228D01*
X67608330Y-38923500D01*
X64179495Y-38923500D01*
X64114470Y-38908562D01*
X64062483Y-38866745D01*
X64033957Y-38806432D01*
X64034612Y-38739716D01*
X64064317Y-38679975D01*
X64081910Y-38658538D01*
X64174814Y-38484727D01*
X64232024Y-38296132D01*
X64251341Y-38100000D01*
X64232024Y-37903868D01*
X64174814Y-37715273D01*
X64145298Y-37660052D01*
X64081912Y-37541465D01*
X64081910Y-37541462D01*
X63956883Y-37389117D01*
X63804538Y-37264090D01*
X63804537Y-37264089D01*
X63804534Y-37264087D01*
X63630728Y-37171186D01*
X63442133Y-37113976D01*
X63246000Y-37094659D01*
X63049866Y-37113976D01*
X62861271Y-37171186D01*
X62687462Y-37264089D01*
X62649347Y-37295370D01*
X62580269Y-37327002D01*
X62504575Y-37320463D01*
X62441945Y-37277451D01*
X62408665Y-37209152D01*
X62413386Y-37133322D01*
X62428506Y-37087691D01*
X62439000Y-36984983D01*
X62439000Y-36847500D01*
X59989001Y-36847500D01*
X59989001Y-36984974D01*
X59999494Y-37087699D01*
X60037911Y-37203633D01*
X60043740Y-37273167D01*
X60017272Y-37337729D01*
X59964312Y-37383161D01*
X59896474Y-37399500D01*
X53702279Y-37399500D01*
X53656236Y-37392207D01*
X53614700Y-37371044D01*
X53538730Y-37315849D01*
X53516283Y-37305855D01*
X53365803Y-37238856D01*
X53200090Y-37203633D01*
X53180646Y-37199500D01*
X52991354Y-37199500D01*
X52971910Y-37203633D01*
X52806196Y-37238856D01*
X52655716Y-37305855D01*
X52597713Y-37318714D01*
X52539296Y-37307887D01*
X52489753Y-37275096D01*
X51567470Y-36352813D01*
X51561300Y-36346258D01*
X51521928Y-36301815D01*
X51473056Y-36268081D01*
X51465808Y-36262748D01*
X51419057Y-36226122D01*
X51411887Y-36222895D01*
X51388402Y-36209649D01*
X51381930Y-36205182D01*
X51326406Y-36184124D01*
X51318092Y-36180680D01*
X51263933Y-36156305D01*
X51256190Y-36154886D01*
X51230221Y-36147646D01*
X51222872Y-36144859D01*
X51163941Y-36137703D01*
X51155048Y-36136350D01*
X51096606Y-36125641D01*
X51039672Y-36129086D01*
X51037326Y-36129228D01*
X51028330Y-36129500D01*
X36601658Y-36129500D01*
X36592662Y-36129228D01*
X36533394Y-36125643D01*
X36533393Y-36125643D01*
X36474967Y-36136348D01*
X36466076Y-36137701D01*
X36407127Y-36144859D01*
X36399774Y-36147648D01*
X36373810Y-36154886D01*
X36366068Y-36156304D01*
X36311907Y-36180680D01*
X36303596Y-36184123D01*
X36248065Y-36205183D01*
X36241591Y-36209652D01*
X36218118Y-36222891D01*
X36210944Y-36226120D01*
X36164182Y-36262754D01*
X36156939Y-36268083D01*
X36108073Y-36301814D01*
X36068698Y-36346259D01*
X36062530Y-36352811D01*
X32796811Y-39618530D01*
X32790259Y-39624698D01*
X32745815Y-39664072D01*
X32712084Y-39712939D01*
X32706754Y-39720183D01*
X32670119Y-39766946D01*
X32666891Y-39774118D01*
X32653653Y-39797589D01*
X32649183Y-39804065D01*
X32628123Y-39859593D01*
X32624681Y-39867901D01*
X32600304Y-39922066D01*
X32598884Y-39929816D01*
X32591646Y-39955778D01*
X32588859Y-39963126D01*
X32581703Y-40022059D01*
X32580350Y-40030952D01*
X32569641Y-40089393D01*
X32573228Y-40148672D01*
X32573500Y-40157670D01*
X32573500Y-45541466D01*
X32556665Y-45610267D01*
X32509963Y-45663520D01*
X32443948Y-45689191D01*
X32373539Y-45681480D01*
X32314645Y-45642129D01*
X32280577Y-45580030D01*
X32270244Y-45541466D01*
X32261903Y-45510337D01*
X32162035Y-45296171D01*
X32026495Y-45102599D01*
X31859401Y-44935505D01*
X31665830Y-44799965D01*
X31451663Y-44700097D01*
X31223407Y-44638936D01*
X30988000Y-44618341D01*
X30752592Y-44638936D01*
X30524336Y-44700097D01*
X30310172Y-44799964D01*
X30116598Y-44935505D01*
X29949505Y-45102598D01*
X29813964Y-45296172D01*
X29714097Y-45510336D01*
X29652936Y-45738592D01*
X29632341Y-45974000D01*
X29652936Y-46209407D01*
X29714097Y-46437663D01*
X29802199Y-46626599D01*
X29813965Y-46651830D01*
X29949505Y-46845401D01*
X30116599Y-47012495D01*
X30141282Y-47029778D01*
X30272911Y-47121946D01*
X30319613Y-47175200D01*
X30336448Y-47244000D01*
X30319613Y-47312800D01*
X30272911Y-47366054D01*
X30116598Y-47475505D01*
X29949505Y-47642598D01*
X29813964Y-47836172D01*
X29714097Y-48050336D01*
X29652936Y-48278592D01*
X29632341Y-48514000D01*
X29652936Y-48749407D01*
X29714097Y-48977663D01*
X29802199Y-49166599D01*
X29813965Y-49191830D01*
X29907785Y-49325819D01*
X29949505Y-49385401D01*
X30116598Y-49552494D01*
X30272911Y-49661946D01*
X30319613Y-49715200D01*
X30336448Y-49784000D01*
X30319613Y-49852800D01*
X30272911Y-49906054D01*
X30116598Y-50015505D01*
X29949505Y-50182598D01*
X29813964Y-50376172D01*
X29714097Y-50590336D01*
X29652936Y-50818592D01*
X29632341Y-51053999D01*
X29652936Y-51289407D01*
X29714097Y-51517663D01*
X29802199Y-51706599D01*
X29813965Y-51731830D01*
X29919536Y-51882601D01*
X29949505Y-51925401D01*
X30044311Y-52020207D01*
X30081916Y-52083588D01*
X30084547Y-52157238D01*
X30051559Y-52223140D01*
X29991023Y-52265171D01*
X29895913Y-52300645D01*
X29780811Y-52386811D01*
X29694647Y-52501911D01*
X29644401Y-52636626D01*
X29638000Y-52696169D01*
X29638000Y-53344000D01*
X31089000Y-53344000D01*
X31146020Y-53355342D01*
X31194359Y-53387641D01*
X31226658Y-53435980D01*
X31238000Y-53493000D01*
X31238000Y-54944000D01*
X31885831Y-54944000D01*
X31945373Y-54937598D01*
X32080088Y-54887352D01*
X32195188Y-54801188D01*
X32281352Y-54686088D01*
X32331598Y-54551373D01*
X32334479Y-54524581D01*
X32362177Y-54452795D01*
X32421996Y-54404400D01*
X32497983Y-54392301D01*
X32569874Y-54419724D01*
X32618498Y-54479356D01*
X32624680Y-54493092D01*
X32628124Y-54501406D01*
X32649182Y-54556930D01*
X32653649Y-54563402D01*
X32666895Y-54586887D01*
X32670122Y-54594057D01*
X32706748Y-54640808D01*
X32712081Y-54648056D01*
X32745815Y-54696928D01*
X32790258Y-54736300D01*
X32796813Y-54742470D01*
X32976235Y-54921892D01*
X33005361Y-54963104D01*
X33019060Y-55011674D01*
X33023326Y-55052258D01*
X33083826Y-55238456D01*
X33089285Y-55307808D01*
X33062663Y-55372080D01*
X33009764Y-55417260D01*
X32942119Y-55433500D01*
X29053874Y-55433500D01*
X28996854Y-55422158D01*
X28948515Y-55389859D01*
X28834779Y-55276123D01*
X28707470Y-55148813D01*
X28701300Y-55142258D01*
X28661928Y-55097815D01*
X28613056Y-55064081D01*
X28605808Y-55058748D01*
X28559057Y-55022122D01*
X28551887Y-55018895D01*
X28528402Y-55005649D01*
X28521930Y-55001182D01*
X28466406Y-54980124D01*
X28458092Y-54976680D01*
X28403933Y-54952305D01*
X28396190Y-54950886D01*
X28370221Y-54943646D01*
X28362872Y-54940859D01*
X28303941Y-54933703D01*
X28295048Y-54932350D01*
X28236606Y-54921641D01*
X28179672Y-54925086D01*
X28177326Y-54925228D01*
X28168330Y-54925500D01*
X26441658Y-54925500D01*
X26432662Y-54925228D01*
X26373394Y-54921643D01*
X26373393Y-54921643D01*
X26314967Y-54932348D01*
X26306076Y-54933701D01*
X26247127Y-54940859D01*
X26239774Y-54943648D01*
X26213810Y-54950886D01*
X26206068Y-54952304D01*
X26151907Y-54976680D01*
X26143596Y-54980123D01*
X26088065Y-55001183D01*
X26081591Y-55005652D01*
X26058118Y-55018891D01*
X26050944Y-55022120D01*
X26004182Y-55058754D01*
X25996939Y-55064083D01*
X25948071Y-55097816D01*
X25915879Y-55134153D01*
X25877546Y-55165130D01*
X25831205Y-55181907D01*
X25806967Y-55186348D01*
X25798076Y-55187701D01*
X25739127Y-55194859D01*
X25731774Y-55197648D01*
X25705810Y-55204886D01*
X25698071Y-55206304D01*
X25643919Y-55230676D01*
X25635607Y-55234119D01*
X25580068Y-55255182D01*
X25573590Y-55259654D01*
X25550107Y-55272898D01*
X25542942Y-55276122D01*
X25496208Y-55312736D01*
X25488963Y-55318068D01*
X25440070Y-55351817D01*
X25400691Y-55396267D01*
X25394523Y-55402819D01*
X24922811Y-55874530D01*
X24916259Y-55880698D01*
X24871815Y-55920072D01*
X24838084Y-55968939D01*
X24832754Y-55976183D01*
X24796119Y-56022946D01*
X24792891Y-56030118D01*
X24779653Y-56053589D01*
X24775183Y-56060065D01*
X24754123Y-56115593D01*
X24750681Y-56123901D01*
X24726304Y-56178066D01*
X24724884Y-56185816D01*
X24717646Y-56211778D01*
X24714859Y-56219126D01*
X24707703Y-56278059D01*
X24706350Y-56286952D01*
X24695641Y-56345393D01*
X24699228Y-56404672D01*
X24699500Y-56413670D01*
X24699500Y-57124330D01*
X24699228Y-57133328D01*
X24695641Y-57192606D01*
X24706350Y-57251048D01*
X24707703Y-57259941D01*
X24714859Y-57318872D01*
X24717646Y-57326221D01*
X24724886Y-57352190D01*
X24726305Y-57359933D01*
X24750680Y-57414092D01*
X24754124Y-57422406D01*
X24775182Y-57477930D01*
X24779649Y-57484402D01*
X24792895Y-57507887D01*
X24796122Y-57515057D01*
X24832748Y-57561808D01*
X24838081Y-57569056D01*
X24871815Y-57617928D01*
X24916258Y-57657300D01*
X24922813Y-57663470D01*
X26029630Y-58770287D01*
X26067583Y-58834870D01*
X26069313Y-58909759D01*
X26034384Y-58976026D01*
X25971622Y-59016922D01*
X25896893Y-59022109D01*
X25765244Y-58997500D01*
X25765243Y-58997500D01*
X25542757Y-58997500D01*
X25324057Y-59038382D01*
X25116598Y-59118752D01*
X24927440Y-59235874D01*
X24763019Y-59385763D01*
X24651905Y-59532903D01*
X24594441Y-59578853D01*
X24521996Y-59591704D01*
X24452234Y-59568322D01*
X24402166Y-59514409D01*
X24384000Y-59443111D01*
X24384000Y-53844000D01*
X29638000Y-53844000D01*
X29638000Y-54491831D01*
X29644401Y-54551373D01*
X29694647Y-54686088D01*
X29780811Y-54801188D01*
X29895911Y-54887352D01*
X30030626Y-54937598D01*
X30090169Y-54944000D01*
X30738000Y-54944000D01*
X30738000Y-53844000D01*
X29638000Y-53844000D01*
X24384000Y-53844000D01*
X24384000Y-35688977D01*
X57057163Y-35688977D01*
X57082869Y-35890827D01*
X57099978Y-35940879D01*
X57148684Y-36083372D01*
X57251910Y-36258727D01*
X57388321Y-36409713D01*
X57552333Y-36530149D01*
X57737232Y-36615105D01*
X57935446Y-36661103D01*
X58129050Y-36666008D01*
X58138861Y-36666257D01*
X58138861Y-36666256D01*
X58138863Y-36666257D01*
X58339153Y-36630358D01*
X58339156Y-36630357D01*
X58528113Y-36554879D01*
X58528114Y-36554877D01*
X58528117Y-36554877D01*
X58698019Y-36442902D01*
X59574279Y-35566641D01*
X59622619Y-35534342D01*
X59679639Y-35523000D01*
X60055621Y-35523000D01*
X60123266Y-35539240D01*
X60176165Y-35584420D01*
X60202787Y-35648691D01*
X60197328Y-35718044D01*
X60160980Y-35777359D01*
X60146683Y-35791655D01*
X60054641Y-35940879D01*
X59999493Y-36107305D01*
X59989000Y-36210017D01*
X59989000Y-36347500D01*
X62438999Y-36347500D01*
X62438999Y-36210026D01*
X62428505Y-36107301D01*
X62421281Y-36085500D01*
X64307001Y-36085500D01*
X64307001Y-36222974D01*
X64317494Y-36325698D01*
X64372641Y-36492120D01*
X64464683Y-36641344D01*
X64588655Y-36765316D01*
X64737879Y-36857358D01*
X64904305Y-36912506D01*
X65007017Y-36923000D01*
X65282000Y-36923000D01*
X65282000Y-36085500D01*
X65782000Y-36085500D01*
X65782000Y-36922999D01*
X66056974Y-36922999D01*
X66159698Y-36912505D01*
X66326120Y-36857358D01*
X66475344Y-36765316D01*
X66599316Y-36641344D01*
X66691358Y-36492120D01*
X66746506Y-36325694D01*
X66757000Y-36222983D01*
X66757000Y-36085500D01*
X65782000Y-36085500D01*
X65282000Y-36085500D01*
X64307001Y-36085500D01*
X62421281Y-36085500D01*
X62373358Y-35940879D01*
X62281316Y-35791655D01*
X62155373Y-35665712D01*
X62123074Y-35617373D01*
X62111732Y-35560353D01*
X62123074Y-35503333D01*
X62155373Y-35454994D01*
X62157653Y-35452713D01*
X62157656Y-35452712D01*
X62281712Y-35328656D01*
X62373814Y-35179334D01*
X62428999Y-35012797D01*
X62439500Y-34910009D01*
X62439499Y-34148004D01*
X64306500Y-34148004D01*
X64317001Y-34250797D01*
X64372186Y-34417334D01*
X64394409Y-34453363D01*
X64464288Y-34566656D01*
X64590626Y-34692994D01*
X64629190Y-34759789D01*
X64629190Y-34836917D01*
X64590626Y-34903712D01*
X64464683Y-35029655D01*
X64372641Y-35178879D01*
X64317493Y-35345305D01*
X64307000Y-35448017D01*
X64307000Y-35585500D01*
X66756999Y-35585500D01*
X66756999Y-35448026D01*
X66746505Y-35345301D01*
X66691358Y-35178879D01*
X66599316Y-35029655D01*
X66585020Y-35015359D01*
X66548672Y-34956044D01*
X66543213Y-34886691D01*
X66569835Y-34822420D01*
X66622734Y-34777240D01*
X66690379Y-34761000D01*
X68101237Y-34761000D01*
X68101242Y-34761000D01*
X68252938Y-34745574D01*
X68447088Y-34684659D01*
X68625002Y-34585909D01*
X68779395Y-34453366D01*
X68903948Y-34292458D01*
X68993560Y-34109771D01*
X69044563Y-33912785D01*
X69054869Y-33709564D01*
X69024056Y-33508429D01*
X68953386Y-33317613D01*
X68845752Y-33144929D01*
X68705559Y-32997447D01*
X68538549Y-32881205D01*
X68351558Y-32800960D01*
X68351557Y-32800959D01*
X68152242Y-32760000D01*
X68152241Y-32760000D01*
X66403956Y-32760000D01*
X66363302Y-32754347D01*
X66327310Y-32738509D01*
X66233426Y-32707399D01*
X66159797Y-32683001D01*
X66159795Y-32683000D01*
X66159793Y-32683000D01*
X66057013Y-32672500D01*
X65006995Y-32672500D01*
X64904201Y-32683001D01*
X64737666Y-32738186D01*
X64588343Y-32830288D01*
X64464288Y-32954343D01*
X64372186Y-33103666D01*
X64317000Y-33270206D01*
X64306500Y-33372986D01*
X64306500Y-34148004D01*
X62439499Y-34148004D01*
X62439499Y-34134992D01*
X62428999Y-34032203D01*
X62373814Y-33865666D01*
X62281712Y-33716344D01*
X62157656Y-33592288D01*
X62008334Y-33500186D01*
X61841797Y-33445001D01*
X61841795Y-33445000D01*
X61841793Y-33445000D01*
X61739013Y-33434500D01*
X60688995Y-33434500D01*
X60586201Y-33445001D01*
X60418689Y-33500509D01*
X60382698Y-33516347D01*
X60342044Y-33522000D01*
X59218096Y-33522000D01*
X59214322Y-33521952D01*
X59127136Y-33519742D01*
X59070005Y-33529982D01*
X59058797Y-33531554D01*
X59001061Y-33537426D01*
X58973544Y-33546059D01*
X58955234Y-33550553D01*
X58926849Y-33555641D01*
X58872948Y-33577170D01*
X58862289Y-33580965D01*
X58806909Y-33598341D01*
X58781704Y-33612331D01*
X58764672Y-33620420D01*
X58737883Y-33631121D01*
X58689426Y-33663057D01*
X58679745Y-33668922D01*
X58628999Y-33697089D01*
X58607111Y-33715879D01*
X58592060Y-33727227D01*
X58567984Y-33743095D01*
X58526948Y-33784131D01*
X58518648Y-33791823D01*
X58474605Y-33829633D01*
X58456949Y-33852442D01*
X58444486Y-33866592D01*
X57319160Y-34991919D01*
X57222803Y-35110091D01*
X57128590Y-35290452D01*
X57072613Y-35486081D01*
X57057163Y-35688977D01*
X24384000Y-35688977D01*
X24384000Y-30898479D01*
X24395342Y-30841459D01*
X24427641Y-30793120D01*
X24475980Y-30760821D01*
X24533000Y-30749479D01*
X77829000Y-30749479D01*
X77886020Y-30760821D01*
G37*
%TD.AperFunction*%
%TA.AperFunction,Conductor*%
G36*
X39316601Y-37546261D02*
G01*
X39369187Y-37590208D01*
X39396539Y-37653045D01*
X39392870Y-37721479D01*
X39358958Y-37781032D01*
X39301975Y-37819106D01*
X39293670Y-37822203D01*
X39178454Y-37908454D01*
X39092204Y-38023669D01*
X39041908Y-38158519D01*
X39035500Y-38218123D01*
X39035500Y-40013876D01*
X39041908Y-40073481D01*
X39088254Y-40197742D01*
X39092204Y-40208331D01*
X39178454Y-40323546D01*
X39293669Y-40409796D01*
X39428517Y-40460091D01*
X39488127Y-40466500D01*
X41283872Y-40466499D01*
X41283876Y-40466499D01*
X41323612Y-40462227D01*
X41343483Y-40460091D01*
X41478331Y-40409796D01*
X41593546Y-40323546D01*
X41679796Y-40208331D01*
X41715216Y-40113364D01*
X41757246Y-40052829D01*
X41823148Y-40019840D01*
X41896799Y-40022470D01*
X41960179Y-40060075D01*
X42054599Y-40154495D01*
X42248170Y-40290035D01*
X42462337Y-40389903D01*
X42690592Y-40451063D01*
X42926000Y-40471659D01*
X43161408Y-40451063D01*
X43389663Y-40389903D01*
X43603830Y-40290035D01*
X43797401Y-40154495D01*
X43964495Y-39987401D01*
X44073945Y-39831089D01*
X44127200Y-39784387D01*
X44196000Y-39767552D01*
X44264800Y-39784387D01*
X44318054Y-39831089D01*
X44396501Y-39943123D01*
X44427505Y-39987401D01*
X44594599Y-40154495D01*
X44671485Y-40208331D01*
X44756648Y-40267963D01*
X44802252Y-40319149D01*
X44820111Y-40385336D01*
X44806444Y-40452514D01*
X44764145Y-40506462D01*
X44702166Y-40535760D01*
X44678200Y-40540854D01*
X44505271Y-40617848D01*
X44352127Y-40729113D01*
X44225467Y-40869783D01*
X44130820Y-41033717D01*
X44072326Y-41213742D01*
X44052539Y-41401999D01*
X44072326Y-41590257D01*
X44130820Y-41770282D01*
X44143740Y-41792661D01*
X44162929Y-41852016D01*
X44156137Y-41914025D01*
X44113000Y-42044204D01*
X44102500Y-42146986D01*
X44102500Y-43197004D01*
X44111906Y-43289075D01*
X44113001Y-43299797D01*
X44168186Y-43466334D01*
X44260288Y-43615656D01*
X44384344Y-43739712D01*
X44533666Y-43831814D01*
X44700203Y-43886999D01*
X44802991Y-43897500D01*
X45578008Y-43897499D01*
X45680797Y-43886999D01*
X45847334Y-43831814D01*
X45996656Y-43739712D01*
X46120712Y-43615656D01*
X46120713Y-43615653D01*
X46122994Y-43613373D01*
X46171333Y-43581074D01*
X46228353Y-43569732D01*
X46285373Y-43581074D01*
X46333712Y-43613373D01*
X46459655Y-43739316D01*
X46608879Y-43831358D01*
X46775305Y-43886506D01*
X46878017Y-43897000D01*
X47015500Y-43897000D01*
X47015500Y-42922000D01*
X47515500Y-42922000D01*
X47515500Y-43896999D01*
X47652974Y-43896999D01*
X47755698Y-43886505D01*
X47922120Y-43831358D01*
X48071344Y-43739316D01*
X48195316Y-43615344D01*
X48287358Y-43466120D01*
X48342506Y-43299694D01*
X48353000Y-43196983D01*
X48353000Y-42922000D01*
X47515500Y-42922000D01*
X47015500Y-42922000D01*
X47015500Y-41447001D01*
X46878026Y-41447001D01*
X46775301Y-41457494D01*
X46608879Y-41512641D01*
X46459655Y-41604683D01*
X46333712Y-41730626D01*
X46266917Y-41769190D01*
X46189789Y-41769190D01*
X46122994Y-41730626D01*
X45996653Y-41604285D01*
X45931360Y-41564012D01*
X45890410Y-41526635D01*
X45865961Y-41476873D01*
X45863494Y-41447000D01*
X47515500Y-41447000D01*
X47515500Y-42422000D01*
X48352999Y-42422000D01*
X48352999Y-42147026D01*
X48342505Y-42044301D01*
X48287358Y-41877879D01*
X48195316Y-41728655D01*
X48071344Y-41604683D01*
X47922120Y-41512641D01*
X47755694Y-41457493D01*
X47652983Y-41447000D01*
X47515500Y-41447000D01*
X45863494Y-41447000D01*
X45861398Y-41421618D01*
X45863460Y-41402000D01*
X45863460Y-41401999D01*
X45843674Y-41213744D01*
X45785179Y-41033716D01*
X45690533Y-40869784D01*
X45563871Y-40729112D01*
X45563870Y-40729111D01*
X45563869Y-40729110D01*
X45559493Y-40725931D01*
X45513380Y-40671173D01*
X45498128Y-40601227D01*
X45517259Y-40532242D01*
X45566355Y-40480142D01*
X45634083Y-40456953D01*
X45701408Y-40451063D01*
X45929663Y-40389903D01*
X46143830Y-40290035D01*
X46337401Y-40154495D01*
X46504495Y-39987401D01*
X46614253Y-39830649D01*
X46667504Y-39783951D01*
X46736305Y-39767115D01*
X46805105Y-39783950D01*
X46858358Y-39830652D01*
X46967887Y-39987075D01*
X47134924Y-40154112D01*
X47328417Y-40289598D01*
X47542508Y-40389431D01*
X47755999Y-40446636D01*
X47756000Y-40446636D01*
X47756000Y-39015000D01*
X47767342Y-38957980D01*
X47799641Y-38909641D01*
X47847980Y-38877342D01*
X47905000Y-38866000D01*
X48107000Y-38866000D01*
X48164020Y-38877342D01*
X48212359Y-38909641D01*
X48244658Y-38957980D01*
X48256000Y-39015000D01*
X48256000Y-40446636D01*
X48469491Y-40389431D01*
X48683582Y-40289598D01*
X48877075Y-40154112D01*
X49044109Y-39987078D01*
X49153640Y-39830652D01*
X49206893Y-39783951D01*
X49275694Y-39767115D01*
X49344494Y-39783950D01*
X49397748Y-39830652D01*
X49476501Y-39943123D01*
X49507505Y-39987401D01*
X49674599Y-40154495D01*
X49868170Y-40290035D01*
X50082337Y-40389903D01*
X50310592Y-40451063D01*
X50546000Y-40471659D01*
X50781408Y-40451063D01*
X51009663Y-40389903D01*
X51223830Y-40290035D01*
X51417401Y-40154495D01*
X51584495Y-39987401D01*
X51720035Y-39793830D01*
X51819903Y-39579663D01*
X51881063Y-39351408D01*
X51901659Y-39116000D01*
X51883924Y-38913298D01*
X51897106Y-38837798D01*
X51946077Y-38778837D01*
X52017877Y-38752019D01*
X52093508Y-38764440D01*
X52114068Y-38773694D01*
X52117980Y-38774410D01*
X52121795Y-38775110D01*
X52147782Y-38782354D01*
X52155128Y-38785140D01*
X52214113Y-38792301D01*
X52222966Y-38793649D01*
X52281394Y-38804357D01*
X52340662Y-38800771D01*
X52349658Y-38800500D01*
X52469721Y-38800500D01*
X52515764Y-38807793D01*
X52557299Y-38828955D01*
X52633270Y-38884151D01*
X52806197Y-38961144D01*
X52991354Y-39000500D01*
X53180645Y-39000500D01*
X53180646Y-39000500D01*
X53365803Y-38961144D01*
X53538730Y-38884151D01*
X53614700Y-38828955D01*
X53656236Y-38807793D01*
X53702279Y-38800500D01*
X54786089Y-38800500D01*
X54858500Y-38819279D01*
X54912659Y-38870881D01*
X54934915Y-38942300D01*
X54919657Y-39015534D01*
X54870732Y-39072122D01*
X54857846Y-39081017D01*
X54836406Y-39095817D01*
X54797034Y-39140259D01*
X54790866Y-39146811D01*
X52206490Y-41731187D01*
X52143449Y-41768692D01*
X52070152Y-41771571D01*
X51910646Y-41737668D01*
X51721354Y-41737668D01*
X51628775Y-41757345D01*
X51536196Y-41777024D01*
X51363271Y-41854016D01*
X51210127Y-41965281D01*
X51083467Y-42105951D01*
X50988820Y-42269885D01*
X50930326Y-42449910D01*
X50910539Y-42638167D01*
X50930326Y-42826425D01*
X50966143Y-42936659D01*
X50988821Y-43006452D01*
X51040280Y-43095582D01*
X51084400Y-43172000D01*
X51104362Y-43246500D01*
X51084400Y-43321000D01*
X51029862Y-43375538D01*
X50955362Y-43395500D01*
X49232804Y-43395500D01*
X49196855Y-43403704D01*
X49180392Y-43406502D01*
X49143742Y-43410632D01*
X49108938Y-43422810D01*
X49092891Y-43427433D01*
X49056939Y-43435639D01*
X49023707Y-43451642D01*
X49008280Y-43458032D01*
X48973477Y-43470211D01*
X48942257Y-43489827D01*
X48927641Y-43497905D01*
X48894414Y-43513907D01*
X48865582Y-43536899D01*
X48851964Y-43546562D01*
X48820738Y-43566184D01*
X48767790Y-43619131D01*
X48019062Y-44367859D01*
X47970723Y-44400158D01*
X47913703Y-44411500D01*
X41287296Y-44411500D01*
X41230276Y-44400158D01*
X41181937Y-44367859D01*
X36950980Y-40136902D01*
X36914632Y-40077588D01*
X36895179Y-40017716D01*
X36800533Y-39853784D01*
X36722496Y-39767115D01*
X36673872Y-39713113D01*
X36673633Y-39712939D01*
X36520730Y-39601849D01*
X36347803Y-39524856D01*
X36162646Y-39485500D01*
X35973354Y-39485500D01*
X35880775Y-39505177D01*
X35788196Y-39524856D01*
X35615271Y-39601848D01*
X35462127Y-39713113D01*
X35335467Y-39853783D01*
X35240820Y-40017717D01*
X35182326Y-40197742D01*
X35162539Y-40386000D01*
X35182326Y-40574257D01*
X35183821Y-40578859D01*
X35240821Y-40754284D01*
X35335467Y-40918216D01*
X35462129Y-41058888D01*
X35615270Y-41170151D01*
X35778955Y-41243029D01*
X35823710Y-41273788D01*
X38727585Y-44177663D01*
X38764524Y-44238837D01*
X38768731Y-44310174D01*
X38739239Y-44375266D01*
X38682831Y-44419139D01*
X38663270Y-44427848D01*
X38663270Y-44427849D01*
X38510127Y-44539113D01*
X38383467Y-44679783D01*
X38288820Y-44843717D01*
X38230324Y-45023745D01*
X38226059Y-45064325D01*
X38212361Y-45112894D01*
X38183235Y-45154106D01*
X37622811Y-45714530D01*
X37616259Y-45720698D01*
X37571815Y-45760072D01*
X37538084Y-45808939D01*
X37532754Y-45816183D01*
X37496119Y-45862946D01*
X37492891Y-45870118D01*
X37479653Y-45893589D01*
X37475183Y-45900065D01*
X37454123Y-45955593D01*
X37450681Y-45963901D01*
X37426304Y-46018066D01*
X37424884Y-46025816D01*
X37417646Y-46051778D01*
X37414859Y-46059126D01*
X37407703Y-46118059D01*
X37406350Y-46126952D01*
X37395641Y-46185393D01*
X37399228Y-46244672D01*
X37399500Y-46253670D01*
X37399500Y-49726333D01*
X37383590Y-49793325D01*
X37339259Y-49846011D01*
X37275973Y-49873139D01*
X37207247Y-49868917D01*
X37026133Y-49813976D01*
X37005440Y-49811938D01*
X36902894Y-49801838D01*
X36834720Y-49777445D01*
X36786094Y-49723794D01*
X36768500Y-49653556D01*
X36768500Y-45039631D01*
X36781781Y-44978138D01*
X36819258Y-44927607D01*
X36874246Y-44897047D01*
X36960727Y-44870814D01*
X37134538Y-44777910D01*
X37286883Y-44652883D01*
X37411910Y-44500538D01*
X37504814Y-44326727D01*
X37562024Y-44138132D01*
X37581341Y-43942000D01*
X37562024Y-43745868D01*
X37504814Y-43557273D01*
X37481635Y-43513908D01*
X37411912Y-43383465D01*
X37411910Y-43383462D01*
X37286883Y-43231117D01*
X37134538Y-43106090D01*
X37134537Y-43106089D01*
X37134534Y-43106087D01*
X36960728Y-43013186D01*
X36772133Y-42955976D01*
X36576000Y-42936659D01*
X36379866Y-42955976D01*
X36191271Y-43013186D01*
X36017465Y-43106087D01*
X35865117Y-43231117D01*
X35740087Y-43383465D01*
X35647186Y-43557271D01*
X35589976Y-43745866D01*
X35589975Y-43745868D01*
X35589976Y-43745868D01*
X35574964Y-43898286D01*
X35549305Y-43968325D01*
X35506084Y-44030939D01*
X35500754Y-44038183D01*
X35464119Y-44084946D01*
X35460891Y-44092118D01*
X35447653Y-44115589D01*
X35443183Y-44122065D01*
X35422123Y-44177593D01*
X35418681Y-44185901D01*
X35394304Y-44240066D01*
X35392884Y-44247816D01*
X35385646Y-44273778D01*
X35382859Y-44281126D01*
X35375703Y-44340059D01*
X35374350Y-44348952D01*
X35363641Y-44407393D01*
X35367228Y-44466672D01*
X35367500Y-44475670D01*
X35367500Y-50012330D01*
X35367228Y-50021328D01*
X35363641Y-50080606D01*
X35374350Y-50139048D01*
X35375703Y-50147941D01*
X35382859Y-50206872D01*
X35385646Y-50214221D01*
X35392886Y-50240190D01*
X35394305Y-50247933D01*
X35418680Y-50302092D01*
X35422124Y-50310406D01*
X35443182Y-50365930D01*
X35447649Y-50372402D01*
X35460895Y-50395887D01*
X35464122Y-50403057D01*
X35500748Y-50449808D01*
X35506081Y-50457056D01*
X35539815Y-50505928D01*
X35584258Y-50545300D01*
X35590813Y-50551470D01*
X35785356Y-50746013D01*
X35814691Y-50787666D01*
X35828279Y-50836767D01*
X35843975Y-50996128D01*
X35901186Y-51184728D01*
X35994087Y-51358534D01*
X35994089Y-51358537D01*
X35994090Y-51358538D01*
X36119117Y-51510883D01*
X36271462Y-51635910D01*
X36271463Y-51635910D01*
X36271465Y-51635912D01*
X36441619Y-51726861D01*
X36445273Y-51728814D01*
X36633868Y-51786024D01*
X36830000Y-51805341D01*
X37026132Y-51786024D01*
X37207247Y-51731082D01*
X37275973Y-51726861D01*
X37339259Y-51753989D01*
X37383590Y-51806675D01*
X37399500Y-51873667D01*
X37399500Y-52298330D01*
X37399228Y-52307328D01*
X37395641Y-52366606D01*
X37406350Y-52425048D01*
X37407703Y-52433941D01*
X37414859Y-52492872D01*
X37417646Y-52500221D01*
X37424886Y-52526190D01*
X37426305Y-52533933D01*
X37450680Y-52588092D01*
X37454124Y-52596406D01*
X37475182Y-52651930D01*
X37479649Y-52658402D01*
X37492895Y-52681887D01*
X37496122Y-52689057D01*
X37532748Y-52735808D01*
X37538081Y-52743056D01*
X37571815Y-52791928D01*
X37616258Y-52831300D01*
X37622813Y-52837470D01*
X38437235Y-53651892D01*
X38466361Y-53693104D01*
X38480060Y-53741674D01*
X38484326Y-53782258D01*
X38540149Y-53954061D01*
X38542821Y-53962284D01*
X38610697Y-54079849D01*
X38637467Y-54126216D01*
X38710025Y-54206800D01*
X38742807Y-54266431D01*
X38745657Y-54334420D01*
X38717979Y-54396585D01*
X38665547Y-54439961D01*
X38599296Y-54455500D01*
X36588791Y-54455500D01*
X36549805Y-54447131D01*
X36549726Y-54447566D01*
X36498801Y-54438233D01*
X36481336Y-54433928D01*
X36449196Y-54423913D01*
X36415591Y-54421881D01*
X36397730Y-54419712D01*
X36387711Y-54417876D01*
X36364604Y-54413641D01*
X36330992Y-54415674D01*
X36313007Y-54415674D01*
X36279395Y-54413641D01*
X36246260Y-54419713D01*
X36228404Y-54421881D01*
X36194803Y-54423913D01*
X36162663Y-54433928D01*
X36145202Y-54438232D01*
X36112068Y-54444304D01*
X36081356Y-54458127D01*
X36064536Y-54464506D01*
X36032391Y-54474523D01*
X36003574Y-54491942D01*
X35987656Y-54500297D01*
X35956943Y-54514121D01*
X35930436Y-54534888D01*
X35915634Y-54545105D01*
X35886816Y-54562526D01*
X35835675Y-54613667D01*
X35059484Y-55389859D01*
X35011145Y-55422158D01*
X34954125Y-55433500D01*
X34875881Y-55433500D01*
X34808236Y-55417260D01*
X34755337Y-55372080D01*
X34728715Y-55307809D01*
X34734174Y-55238456D01*
X34761193Y-55155300D01*
X34794674Y-55052256D01*
X34814460Y-54864000D01*
X34794674Y-54675744D01*
X34736179Y-54495716D01*
X34641533Y-54331784D01*
X34514871Y-54191112D01*
X34361730Y-54079849D01*
X34361728Y-54079848D01*
X34188802Y-54002855D01*
X34092522Y-53982391D01*
X34031767Y-53954061D01*
X33989580Y-53901964D01*
X33974500Y-53836647D01*
X33974500Y-40483875D01*
X33985842Y-40426855D01*
X34018141Y-40378516D01*
X36822516Y-37574141D01*
X36870855Y-37541842D01*
X36927875Y-37530500D01*
X39249906Y-37530500D01*
X39316601Y-37546261D01*
G37*
%TD.AperFunction*%
%TA.AperFunction,Conductor*%
G36*
X40013672Y-50404401D02*
G01*
X40020070Y-50408818D01*
X40075605Y-50429879D01*
X40083912Y-50433320D01*
X40138068Y-50457694D01*
X40141980Y-50458410D01*
X40145795Y-50459110D01*
X40171782Y-50466354D01*
X40179128Y-50469140D01*
X40238113Y-50476301D01*
X40246966Y-50477649D01*
X40305394Y-50488357D01*
X40364662Y-50484771D01*
X40373658Y-50484500D01*
X52020500Y-50484500D01*
X52077520Y-50495842D01*
X52125859Y-50528141D01*
X52158158Y-50576480D01*
X52169500Y-50633500D01*
X52169500Y-54306500D01*
X52158158Y-54363520D01*
X52125859Y-54411859D01*
X52077520Y-54444158D01*
X52020500Y-54455500D01*
X51850078Y-54455500D01*
X51780127Y-54438059D01*
X51726551Y-54389819D01*
X51701894Y-54322074D01*
X51695418Y-54260456D01*
X51685674Y-54167744D01*
X51627179Y-53987716D01*
X51532533Y-53823784D01*
X51414868Y-53693104D01*
X51405872Y-53683113D01*
X51405871Y-53683112D01*
X51252730Y-53571849D01*
X51189774Y-53543819D01*
X51079803Y-53494856D01*
X51071071Y-53493000D01*
X50894646Y-53455500D01*
X50705354Y-53455500D01*
X50612775Y-53475177D01*
X50520196Y-53494856D01*
X50347271Y-53571848D01*
X50347269Y-53571849D01*
X50347270Y-53571849D01*
X50271299Y-53627044D01*
X50229764Y-53648207D01*
X50183721Y-53655500D01*
X42908504Y-53655500D01*
X42851484Y-53644158D01*
X42803145Y-53611859D01*
X39823670Y-50632384D01*
X39786336Y-50569918D01*
X39783040Y-50497220D01*
X39814569Y-50431632D01*
X39873400Y-50388799D01*
X39945501Y-50378938D01*
X40013672Y-50404401D01*
G37*
%TD.AperFunction*%
%TA.AperFunction,Conductor*%
G36*
X54542154Y-42718219D02*
G01*
X54580718Y-42785014D01*
X54606569Y-42881491D01*
X54706401Y-43095582D01*
X54841887Y-43289075D01*
X55008924Y-43456112D01*
X55165348Y-43565642D01*
X55212050Y-43618895D01*
X55228885Y-43687695D01*
X55212049Y-43756496D01*
X55165348Y-43809748D01*
X55133837Y-43831813D01*
X55008598Y-43919505D01*
X54841505Y-44086598D01*
X54705962Y-44280174D01*
X54630384Y-44442249D01*
X54600704Y-44484637D01*
X52392811Y-46692530D01*
X52386259Y-46698698D01*
X52341815Y-46738072D01*
X52308084Y-46786939D01*
X52302754Y-46794183D01*
X52266119Y-46840946D01*
X52262891Y-46848118D01*
X52249653Y-46871589D01*
X52245183Y-46878065D01*
X52224123Y-46933593D01*
X52220681Y-46941901D01*
X52196304Y-46996066D01*
X52194884Y-47003816D01*
X52187646Y-47029778D01*
X52184859Y-47037126D01*
X52177703Y-47096059D01*
X52176350Y-47104952D01*
X52165641Y-47163393D01*
X52169228Y-47222672D01*
X52169500Y-47231670D01*
X52169500Y-47470625D01*
X52158158Y-47527645D01*
X52125858Y-47575984D01*
X52012262Y-47689579D01*
X51978001Y-47715164D01*
X51937883Y-47729964D01*
X51790196Y-47761356D01*
X51617271Y-47838348D01*
X51464127Y-47949613D01*
X51337467Y-48090283D01*
X51242820Y-48254217D01*
X51184326Y-48434242D01*
X51164539Y-48622500D01*
X51184326Y-48810757D01*
X51209572Y-48888456D01*
X51215031Y-48957809D01*
X51188409Y-49022080D01*
X51135510Y-49067260D01*
X51067865Y-49083500D01*
X40916401Y-49083500D01*
X40841901Y-49063538D01*
X40787363Y-49009000D01*
X40743460Y-48932959D01*
X40718533Y-48889784D01*
X40591871Y-48749112D01*
X40438730Y-48637849D01*
X40265803Y-48560856D01*
X40080646Y-48521500D01*
X39891354Y-48521500D01*
X39798775Y-48541178D01*
X39706196Y-48560856D01*
X39533271Y-48637848D01*
X39380127Y-48749113D01*
X39253467Y-48889783D01*
X39158820Y-49053717D01*
X39100326Y-49233741D01*
X39097769Y-49258074D01*
X39073112Y-49325819D01*
X39019537Y-49374059D01*
X38949585Y-49391500D01*
X38949500Y-49391500D01*
X38892480Y-49380158D01*
X38844141Y-49347859D01*
X38811842Y-49299520D01*
X38800500Y-49242500D01*
X38800500Y-46579875D01*
X38811842Y-46522855D01*
X38844141Y-46474516D01*
X38994692Y-46323965D01*
X39173739Y-46144917D01*
X39207999Y-46119335D01*
X39248114Y-46104535D01*
X39395803Y-46073144D01*
X39568730Y-45996151D01*
X39721871Y-45884888D01*
X39848533Y-45744216D01*
X39914545Y-45629877D01*
X39960803Y-45580490D01*
X40024134Y-45556654D01*
X40091477Y-45563286D01*
X40148942Y-45599020D01*
X40391738Y-45841816D01*
X40422956Y-45861431D01*
X40436586Y-45871102D01*
X40465412Y-45894091D01*
X40465413Y-45894091D01*
X40465414Y-45894092D01*
X40498637Y-45910091D01*
X40513257Y-45918171D01*
X40544478Y-45937789D01*
X40579281Y-45949967D01*
X40594710Y-45956358D01*
X40627939Y-45972360D01*
X40663895Y-45980566D01*
X40679929Y-45985185D01*
X40714745Y-45997368D01*
X40751389Y-46001496D01*
X40767854Y-46004294D01*
X40803806Y-46012500D01*
X40849046Y-46012500D01*
X40984195Y-46012500D01*
X48460680Y-46012500D01*
X48477361Y-46013436D01*
X48514000Y-46017565D01*
X48693255Y-45997368D01*
X48863522Y-45937789D01*
X49016262Y-45841816D01*
X49143816Y-45714262D01*
X49239789Y-45561522D01*
X49299368Y-45391255D01*
X49299368Y-45391254D01*
X49304913Y-45375408D01*
X49305177Y-45375500D01*
X49312368Y-45350535D01*
X49341253Y-45309823D01*
X49610936Y-45040141D01*
X49659276Y-45007842D01*
X49716296Y-44996500D01*
X51368319Y-44996500D01*
X51428923Y-45009382D01*
X51536197Y-45057144D01*
X51721354Y-45096500D01*
X51910645Y-45096500D01*
X51910646Y-45096500D01*
X52095803Y-45057144D01*
X52268730Y-44980151D01*
X52421871Y-44868888D01*
X52548533Y-44728216D01*
X52643179Y-44564284D01*
X52701674Y-44384256D01*
X52701673Y-44384256D01*
X52706514Y-44369361D01*
X52707864Y-44369799D01*
X52714109Y-44347642D01*
X52743240Y-44306415D01*
X54331439Y-42718216D01*
X54398231Y-42679655D01*
X54475359Y-42679655D01*
X54542154Y-42718219D01*
G37*
%TD.AperFunction*%
%TD*%
M02*
