%TF.GenerationSoftware,KiCad,Pcbnew,7.0.1*%
%TF.CreationDate,2023-04-28T23:06:15+02:00*%
%TF.ProjectId,test_ADC_and_CurrentSensors,74657374-5f41-4444-935f-616e645f4375,rev?*%
%TF.SameCoordinates,Original*%
%TF.FileFunction,Drillmap*%
%TF.FilePolarity,Positive*%
%FSLAX45Y45*%
G04 Gerber Fmt 4.5, Leading zero omitted, Abs format (unit mm)*
G04 Created by KiCad (PCBNEW 7.0.1) date 2023-04-28 23:06:15*
%MOMM*%
%LPD*%
G01*
G04 APERTURE LIST*
%ADD10C,0.100000*%
%ADD11C,0.200000*%
%ADD12C,0.040000*%
%ADD13C,0.070000*%
G04 APERTURE END LIST*
D10*
X2413000Y-3073400D02*
X7848600Y-3073400D01*
X7848600Y-8001000D01*
X2413000Y-8001000D01*
X2413000Y-3073400D01*
D11*
D12*
X2672400Y-4755200D02*
X2712400Y-4795200D01*
X2712400Y-4755200D02*
X2672400Y-4795200D01*
X2697800Y-3383600D02*
X2737800Y-3423600D01*
X2737800Y-3383600D02*
X2697800Y-3423600D01*
X3180400Y-7168200D02*
X3220400Y-7208200D01*
X3220400Y-7168200D02*
X3180400Y-7208200D01*
X3370900Y-5466400D02*
X3410900Y-5506400D01*
X3410900Y-5466400D02*
X3370900Y-5506400D01*
X3434400Y-4069400D02*
X3474400Y-4109400D01*
X3474400Y-4069400D02*
X3434400Y-4109400D01*
X3586800Y-4018600D02*
X3626800Y-4058600D01*
X3626800Y-4018600D02*
X3586800Y-4058600D01*
X3764600Y-5847400D02*
X3804600Y-5887400D01*
X3804600Y-5847400D02*
X3764600Y-5887400D01*
X3764600Y-7701600D02*
X3804600Y-7741600D01*
X3804600Y-7701600D02*
X3764600Y-7741600D01*
X3869950Y-5009200D02*
X3909950Y-5049200D01*
X3909950Y-5009200D02*
X3869950Y-5049200D01*
X3891600Y-4501200D02*
X3931600Y-4541200D01*
X3931600Y-4501200D02*
X3891600Y-4541200D01*
X3917000Y-5339400D02*
X3957000Y-5379400D01*
X3957000Y-5339400D02*
X3917000Y-5379400D01*
X3978600Y-4922200D02*
X4018600Y-4962200D01*
X4018600Y-4922200D02*
X3978600Y-4962200D01*
X3993200Y-5060000D02*
X4033200Y-5100000D01*
X4033200Y-5060000D02*
X3993200Y-5100000D01*
X4196400Y-4298000D02*
X4236400Y-4338000D01*
X4236400Y-4298000D02*
X4196400Y-4338000D01*
X4475800Y-4120200D02*
X4515800Y-4160200D01*
X4515800Y-4120200D02*
X4475800Y-4160200D01*
X4577400Y-6355400D02*
X4617400Y-6395400D01*
X4617400Y-6355400D02*
X4577400Y-6395400D01*
X4653600Y-4729800D02*
X4693600Y-4769800D01*
X4693600Y-4729800D02*
X4653600Y-4769800D01*
X4653600Y-5872800D02*
X4693600Y-5912800D01*
X4693600Y-5872800D02*
X4653600Y-5912800D01*
X5060000Y-5415600D02*
X5100000Y-5455600D01*
X5100000Y-5415600D02*
X5060000Y-5455600D01*
X5161600Y-4243817D02*
X5201600Y-4283817D01*
X5201600Y-4243817D02*
X5161600Y-4283817D01*
X5161600Y-4399600D02*
X5201600Y-4439600D01*
X5201600Y-4399600D02*
X5161600Y-4439600D01*
X5187000Y-4842250D02*
X5227000Y-4882250D01*
X5227000Y-4842250D02*
X5187000Y-4882250D01*
X5187000Y-5415600D02*
X5227000Y-5455600D01*
X5227000Y-5415600D02*
X5187000Y-5455600D01*
X5288600Y-3790000D02*
X5328600Y-3830000D01*
X5328600Y-3790000D02*
X5288600Y-3830000D01*
X5314000Y-4450400D02*
X5354000Y-4490400D01*
X5354000Y-4450400D02*
X5314000Y-4490400D01*
X5415600Y-4882200D02*
X5455600Y-4922200D01*
X5455600Y-4882200D02*
X5415600Y-4922200D01*
X5441000Y-3891600D02*
X5481000Y-3931600D01*
X5481000Y-3891600D02*
X5441000Y-3931600D01*
X5644200Y-6711000D02*
X5684200Y-6751000D01*
X5684200Y-6711000D02*
X5644200Y-6751000D01*
X5786250Y-3546350D02*
X5826250Y-3586350D01*
X5826250Y-3546350D02*
X5786250Y-3586350D01*
X5923600Y-4323400D02*
X5963600Y-4363400D01*
X5963600Y-4323400D02*
X5923600Y-4363400D01*
X5923600Y-6711000D02*
X5963600Y-6751000D01*
X5963600Y-6711000D02*
X5923600Y-6751000D01*
X6050600Y-7854000D02*
X6090600Y-7894000D01*
X6090600Y-7854000D02*
X6050600Y-7894000D01*
X6304600Y-6711000D02*
X6344600Y-6751000D01*
X6344600Y-6711000D02*
X6304600Y-6751000D01*
X6355400Y-7117400D02*
X6395400Y-7157400D01*
X6395400Y-7117400D02*
X6355400Y-7157400D01*
X6406200Y-5568000D02*
X6446200Y-5608000D01*
X6446200Y-5568000D02*
X6406200Y-5608000D01*
X6533200Y-3713800D02*
X6573200Y-3753800D01*
X6573200Y-3713800D02*
X6533200Y-3753800D01*
X6785050Y-3356050D02*
X6825050Y-3396050D01*
X6825050Y-3356050D02*
X6785050Y-3396050D01*
X7168200Y-4367200D02*
X7208200Y-4407200D01*
X7208200Y-4367200D02*
X7168200Y-4407200D01*
X7219000Y-3434400D02*
X7259000Y-3474400D01*
X7259000Y-3434400D02*
X7219000Y-3474400D01*
D13*
X2778200Y-5715000D02*
G75*
G03*
X2778200Y-5715000I-35000J0D01*
G01*
X3692600Y-4394200D02*
G75*
G03*
X3692600Y-4394200I-35000J0D01*
G01*
X3718000Y-5080000D02*
G75*
G03*
X3718000Y-5080000I-35000J0D01*
G01*
X4429200Y-5779550D02*
G75*
G03*
X4429200Y-5779550I-35000J0D01*
G01*
X4607000Y-5791200D02*
G75*
G03*
X4607000Y-5791200I-35000J0D01*
G01*
X4988000Y-5756040D02*
G75*
G03*
X4988000Y-5756040I-35000J0D01*
G01*
X6334200Y-7416800D02*
G75*
G03*
X6334200Y-7416800I-35000J0D01*
G01*
X6359600Y-3810000D02*
G75*
G03*
X6359600Y-3810000I-35000J0D01*
G01*
X6816800Y-5765800D02*
G75*
G03*
X6816800Y-5765800I-35000J0D01*
G01*
X6969200Y-4699000D02*
G75*
G03*
X6969200Y-4699000I-35000J0D01*
G01*
X2565400Y-5984800D02*
X2565400Y-6054800D01*
X2530400Y-6019800D02*
X2600400Y-6019800D01*
X3327400Y-5984800D02*
X3327400Y-6054800D01*
X3292400Y-6019800D02*
X3362400Y-6019800D01*
X3581400Y-7458000D02*
X3581400Y-7528000D01*
X3546400Y-7493000D02*
X3616400Y-7493000D01*
X4343400Y-7458000D02*
X4343400Y-7528000D01*
X4308400Y-7493000D02*
X4378400Y-7493000D01*
D10*
X3134156Y-4632756D02*
X3134156Y-4562044D01*
X3063444Y-4562044D01*
X3063444Y-4632756D01*
X3134156Y-4632756D01*
X3134156Y-4886756D02*
X3134156Y-4816044D01*
X3063444Y-4816044D01*
X3063444Y-4886756D01*
X3134156Y-4886756D01*
X3134156Y-5140756D02*
X3134156Y-5070044D01*
X3063444Y-5070044D01*
X3063444Y-5140756D01*
X3134156Y-5140756D01*
X3134156Y-5394756D02*
X3134156Y-5324044D01*
X3063444Y-5324044D01*
X3063444Y-5394756D01*
X3134156Y-5394756D01*
X3387656Y-7325156D02*
X3387656Y-7254444D01*
X3316944Y-7254444D01*
X3316944Y-7325156D01*
X3387656Y-7325156D01*
X3641656Y-7325156D02*
X3641656Y-7254444D01*
X3570944Y-7254444D01*
X3570944Y-7325156D01*
X3641656Y-7325156D01*
X4073956Y-3946956D02*
X4073956Y-3876244D01*
X4003244Y-3876244D01*
X4003244Y-3946956D01*
X4073956Y-3946956D01*
X4124256Y-7274356D02*
X4124256Y-7203644D01*
X4053544Y-7203644D01*
X4053544Y-7274356D01*
X4124256Y-7274356D01*
X4327956Y-3946956D02*
X4327956Y-3876244D01*
X4257244Y-3876244D01*
X4257244Y-3946956D01*
X4327956Y-3946956D01*
X4378256Y-7274356D02*
X4378256Y-7203644D01*
X4307544Y-7203644D01*
X4307544Y-7274356D01*
X4378256Y-7274356D01*
X4581956Y-3946956D02*
X4581956Y-3876244D01*
X4511244Y-3876244D01*
X4511244Y-3946956D01*
X4581956Y-3946956D01*
X4835956Y-3946956D02*
X4835956Y-3876244D01*
X4765244Y-3876244D01*
X4765244Y-3946956D01*
X4835956Y-3946956D01*
X4861356Y-6707556D02*
X4861356Y-6636844D01*
X4790644Y-6636844D01*
X4790644Y-6707556D01*
X4861356Y-6707556D01*
X4861356Y-6961556D02*
X4861356Y-6890844D01*
X4790644Y-6890844D01*
X4790644Y-6961556D01*
X4861356Y-6961556D01*
X4861356Y-7215556D02*
X4861356Y-7144844D01*
X4790644Y-7144844D01*
X4790644Y-7215556D01*
X4861356Y-7215556D01*
X5089956Y-3946956D02*
X5089956Y-3876244D01*
X5019244Y-3876244D01*
X5019244Y-3946956D01*
X5089956Y-3946956D01*
X5623356Y-4277156D02*
X5623356Y-4206444D01*
X5552644Y-4206444D01*
X5552644Y-4277156D01*
X5623356Y-4277156D01*
X5623356Y-4531156D02*
X5623356Y-4460444D01*
X5552644Y-4460444D01*
X5552644Y-4531156D01*
X5623356Y-4531156D01*
X5623356Y-4785156D02*
X5623356Y-4714444D01*
X5552644Y-4714444D01*
X5552644Y-4785156D01*
X5623356Y-4785156D01*
X5623356Y-5039156D02*
X5623356Y-4968444D01*
X5552644Y-4968444D01*
X5552644Y-5039156D01*
X5623356Y-5039156D01*
X5623356Y-5293156D02*
X5623356Y-5222444D01*
X5552644Y-5222444D01*
X5552644Y-5293156D01*
X5623356Y-5293156D01*
X5623356Y-5547156D02*
X5623356Y-5476444D01*
X5552644Y-5476444D01*
X5552644Y-5547156D01*
X5623356Y-5547156D01*
X6817156Y-7274356D02*
X6817156Y-7203644D01*
X6746444Y-7203644D01*
X6746444Y-7274356D01*
X6817156Y-7274356D01*
X6817156Y-7528356D02*
X6817156Y-7457644D01*
X6746444Y-7457644D01*
X6746444Y-7528356D01*
X6817156Y-7528356D01*
X6817156Y-7782356D02*
X6817156Y-7711644D01*
X6746444Y-7711644D01*
X6746444Y-7782356D01*
X6817156Y-7782356D01*
X7172756Y-7274356D02*
X7172756Y-7203644D01*
X7102044Y-7203644D01*
X7102044Y-7274356D01*
X7172756Y-7274356D01*
X7172756Y-7528356D02*
X7172756Y-7457644D01*
X7102044Y-7457644D01*
X7102044Y-7528356D01*
X7172756Y-7528356D01*
X7172756Y-7782356D02*
X7172756Y-7711644D01*
X7102044Y-7711644D01*
X7102044Y-7782356D01*
X7172756Y-7782356D01*
X7528356Y-7274356D02*
X7528356Y-7203644D01*
X7457644Y-7203644D01*
X7457644Y-7274356D01*
X7528356Y-7274356D01*
X7528356Y-7528356D02*
X7528356Y-7457644D01*
X7457644Y-7457644D01*
X7457644Y-7528356D01*
X7528356Y-7528356D01*
X7528356Y-7782356D02*
X7528356Y-7711644D01*
X7457644Y-7711644D01*
X7457644Y-7782356D01*
X7528356Y-7782356D01*
D11*
X2655619Y-8318524D02*
X2655619Y-8118524D01*
X2655619Y-8118524D02*
X2703238Y-8118524D01*
X2703238Y-8118524D02*
X2731810Y-8128048D01*
X2731810Y-8128048D02*
X2750857Y-8147095D01*
X2750857Y-8147095D02*
X2760381Y-8166143D01*
X2760381Y-8166143D02*
X2769905Y-8204238D01*
X2769905Y-8204238D02*
X2769905Y-8232809D01*
X2769905Y-8232809D02*
X2760381Y-8270905D01*
X2760381Y-8270905D02*
X2750857Y-8289952D01*
X2750857Y-8289952D02*
X2731810Y-8309000D01*
X2731810Y-8309000D02*
X2703238Y-8318524D01*
X2703238Y-8318524D02*
X2655619Y-8318524D01*
X2855619Y-8318524D02*
X2855619Y-8185190D01*
X2855619Y-8223286D02*
X2865143Y-8204238D01*
X2865143Y-8204238D02*
X2874667Y-8194714D01*
X2874667Y-8194714D02*
X2893714Y-8185190D01*
X2893714Y-8185190D02*
X2912762Y-8185190D01*
X2979428Y-8318524D02*
X2979428Y-8185190D01*
X2979428Y-8118524D02*
X2969905Y-8128048D01*
X2969905Y-8128048D02*
X2979428Y-8137571D01*
X2979428Y-8137571D02*
X2988952Y-8128048D01*
X2988952Y-8128048D02*
X2979428Y-8118524D01*
X2979428Y-8118524D02*
X2979428Y-8137571D01*
X3103238Y-8318524D02*
X3084190Y-8309000D01*
X3084190Y-8309000D02*
X3074667Y-8289952D01*
X3074667Y-8289952D02*
X3074667Y-8118524D01*
X3208000Y-8318524D02*
X3188952Y-8309000D01*
X3188952Y-8309000D02*
X3179428Y-8289952D01*
X3179428Y-8289952D02*
X3179428Y-8118524D01*
X3436571Y-8318524D02*
X3436571Y-8118524D01*
X3436571Y-8118524D02*
X3503238Y-8261381D01*
X3503238Y-8261381D02*
X3569905Y-8118524D01*
X3569905Y-8118524D02*
X3569905Y-8318524D01*
X3750857Y-8318524D02*
X3750857Y-8213762D01*
X3750857Y-8213762D02*
X3741333Y-8194714D01*
X3741333Y-8194714D02*
X3722286Y-8185190D01*
X3722286Y-8185190D02*
X3684190Y-8185190D01*
X3684190Y-8185190D02*
X3665143Y-8194714D01*
X3750857Y-8309000D02*
X3731809Y-8318524D01*
X3731809Y-8318524D02*
X3684190Y-8318524D01*
X3684190Y-8318524D02*
X3665143Y-8309000D01*
X3665143Y-8309000D02*
X3655619Y-8289952D01*
X3655619Y-8289952D02*
X3655619Y-8270905D01*
X3655619Y-8270905D02*
X3665143Y-8251857D01*
X3665143Y-8251857D02*
X3684190Y-8242333D01*
X3684190Y-8242333D02*
X3731809Y-8242333D01*
X3731809Y-8242333D02*
X3750857Y-8232809D01*
X3846095Y-8185190D02*
X3846095Y-8385190D01*
X3846095Y-8194714D02*
X3865143Y-8185190D01*
X3865143Y-8185190D02*
X3903238Y-8185190D01*
X3903238Y-8185190D02*
X3922286Y-8194714D01*
X3922286Y-8194714D02*
X3931809Y-8204238D01*
X3931809Y-8204238D02*
X3941333Y-8223286D01*
X3941333Y-8223286D02*
X3941333Y-8280428D01*
X3941333Y-8280428D02*
X3931809Y-8299476D01*
X3931809Y-8299476D02*
X3922286Y-8309000D01*
X3922286Y-8309000D02*
X3903238Y-8318524D01*
X3903238Y-8318524D02*
X3865143Y-8318524D01*
X3865143Y-8318524D02*
X3846095Y-8309000D01*
X4027048Y-8299476D02*
X4036571Y-8309000D01*
X4036571Y-8309000D02*
X4027048Y-8318524D01*
X4027048Y-8318524D02*
X4017524Y-8309000D01*
X4017524Y-8309000D02*
X4027048Y-8299476D01*
X4027048Y-8299476D02*
X4027048Y-8318524D01*
X4027048Y-8194714D02*
X4036571Y-8204238D01*
X4036571Y-8204238D02*
X4027048Y-8213762D01*
X4027048Y-8213762D02*
X4017524Y-8204238D01*
X4017524Y-8204238D02*
X4027048Y-8194714D01*
X4027048Y-8194714D02*
X4027048Y-8213762D01*
D12*
X2368000Y-8626000D02*
X2408000Y-8666000D01*
X2408000Y-8626000D02*
X2368000Y-8666000D01*
D11*
X2693714Y-8538524D02*
X2712762Y-8538524D01*
X2712762Y-8538524D02*
X2731810Y-8548048D01*
X2731810Y-8548048D02*
X2741333Y-8557571D01*
X2741333Y-8557571D02*
X2750857Y-8576619D01*
X2750857Y-8576619D02*
X2760381Y-8614714D01*
X2760381Y-8614714D02*
X2760381Y-8662333D01*
X2760381Y-8662333D02*
X2750857Y-8700429D01*
X2750857Y-8700429D02*
X2741333Y-8719476D01*
X2741333Y-8719476D02*
X2731810Y-8729000D01*
X2731810Y-8729000D02*
X2712762Y-8738524D01*
X2712762Y-8738524D02*
X2693714Y-8738524D01*
X2693714Y-8738524D02*
X2674667Y-8729000D01*
X2674667Y-8729000D02*
X2665143Y-8719476D01*
X2665143Y-8719476D02*
X2655619Y-8700429D01*
X2655619Y-8700429D02*
X2646095Y-8662333D01*
X2646095Y-8662333D02*
X2646095Y-8614714D01*
X2646095Y-8614714D02*
X2655619Y-8576619D01*
X2655619Y-8576619D02*
X2665143Y-8557571D01*
X2665143Y-8557571D02*
X2674667Y-8548048D01*
X2674667Y-8548048D02*
X2693714Y-8538524D01*
X2846095Y-8719476D02*
X2855619Y-8729000D01*
X2855619Y-8729000D02*
X2846095Y-8738524D01*
X2846095Y-8738524D02*
X2836571Y-8729000D01*
X2836571Y-8729000D02*
X2846095Y-8719476D01*
X2846095Y-8719476D02*
X2846095Y-8738524D01*
X3027048Y-8605190D02*
X3027048Y-8738524D01*
X2979428Y-8529000D02*
X2931809Y-8671857D01*
X2931809Y-8671857D02*
X3055619Y-8671857D01*
X3169905Y-8538524D02*
X3188952Y-8538524D01*
X3188952Y-8538524D02*
X3208000Y-8548048D01*
X3208000Y-8548048D02*
X3217524Y-8557571D01*
X3217524Y-8557571D02*
X3227048Y-8576619D01*
X3227048Y-8576619D02*
X3236571Y-8614714D01*
X3236571Y-8614714D02*
X3236571Y-8662333D01*
X3236571Y-8662333D02*
X3227048Y-8700429D01*
X3227048Y-8700429D02*
X3217524Y-8719476D01*
X3217524Y-8719476D02*
X3208000Y-8729000D01*
X3208000Y-8729000D02*
X3188952Y-8738524D01*
X3188952Y-8738524D02*
X3169905Y-8738524D01*
X3169905Y-8738524D02*
X3150857Y-8729000D01*
X3150857Y-8729000D02*
X3141333Y-8719476D01*
X3141333Y-8719476D02*
X3131809Y-8700429D01*
X3131809Y-8700429D02*
X3122286Y-8662333D01*
X3122286Y-8662333D02*
X3122286Y-8614714D01*
X3122286Y-8614714D02*
X3131809Y-8576619D01*
X3131809Y-8576619D02*
X3141333Y-8557571D01*
X3141333Y-8557571D02*
X3150857Y-8548048D01*
X3150857Y-8548048D02*
X3169905Y-8538524D01*
X3360381Y-8538524D02*
X3379429Y-8538524D01*
X3379429Y-8538524D02*
X3398476Y-8548048D01*
X3398476Y-8548048D02*
X3408000Y-8557571D01*
X3408000Y-8557571D02*
X3417524Y-8576619D01*
X3417524Y-8576619D02*
X3427048Y-8614714D01*
X3427048Y-8614714D02*
X3427048Y-8662333D01*
X3427048Y-8662333D02*
X3417524Y-8700429D01*
X3417524Y-8700429D02*
X3408000Y-8719476D01*
X3408000Y-8719476D02*
X3398476Y-8729000D01*
X3398476Y-8729000D02*
X3379429Y-8738524D01*
X3379429Y-8738524D02*
X3360381Y-8738524D01*
X3360381Y-8738524D02*
X3341333Y-8729000D01*
X3341333Y-8729000D02*
X3331809Y-8719476D01*
X3331809Y-8719476D02*
X3322286Y-8700429D01*
X3322286Y-8700429D02*
X3312762Y-8662333D01*
X3312762Y-8662333D02*
X3312762Y-8614714D01*
X3312762Y-8614714D02*
X3322286Y-8576619D01*
X3322286Y-8576619D02*
X3331809Y-8557571D01*
X3331809Y-8557571D02*
X3341333Y-8548048D01*
X3341333Y-8548048D02*
X3360381Y-8538524D01*
X3512762Y-8738524D02*
X3512762Y-8605190D01*
X3512762Y-8624238D02*
X3522286Y-8614714D01*
X3522286Y-8614714D02*
X3541333Y-8605190D01*
X3541333Y-8605190D02*
X3569905Y-8605190D01*
X3569905Y-8605190D02*
X3588952Y-8614714D01*
X3588952Y-8614714D02*
X3598476Y-8633762D01*
X3598476Y-8633762D02*
X3598476Y-8738524D01*
X3598476Y-8633762D02*
X3608000Y-8614714D01*
X3608000Y-8614714D02*
X3627048Y-8605190D01*
X3627048Y-8605190D02*
X3655619Y-8605190D01*
X3655619Y-8605190D02*
X3674667Y-8614714D01*
X3674667Y-8614714D02*
X3684190Y-8633762D01*
X3684190Y-8633762D02*
X3684190Y-8738524D01*
X3779429Y-8738524D02*
X3779429Y-8605190D01*
X3779429Y-8624238D02*
X3788952Y-8614714D01*
X3788952Y-8614714D02*
X3808000Y-8605190D01*
X3808000Y-8605190D02*
X3836571Y-8605190D01*
X3836571Y-8605190D02*
X3855619Y-8614714D01*
X3855619Y-8614714D02*
X3865143Y-8633762D01*
X3865143Y-8633762D02*
X3865143Y-8738524D01*
X3865143Y-8633762D02*
X3874667Y-8614714D01*
X3874667Y-8614714D02*
X3893714Y-8605190D01*
X3893714Y-8605190D02*
X3922286Y-8605190D01*
X3922286Y-8605190D02*
X3941333Y-8614714D01*
X3941333Y-8614714D02*
X3950857Y-8633762D01*
X3950857Y-8633762D02*
X3950857Y-8738524D01*
X4341333Y-8529000D02*
X4169905Y-8786143D01*
X4598476Y-8538524D02*
X4617524Y-8538524D01*
X4617524Y-8538524D02*
X4636572Y-8548048D01*
X4636572Y-8548048D02*
X4646095Y-8557571D01*
X4646095Y-8557571D02*
X4655619Y-8576619D01*
X4655619Y-8576619D02*
X4665143Y-8614714D01*
X4665143Y-8614714D02*
X4665143Y-8662333D01*
X4665143Y-8662333D02*
X4655619Y-8700429D01*
X4655619Y-8700429D02*
X4646095Y-8719476D01*
X4646095Y-8719476D02*
X4636572Y-8729000D01*
X4636572Y-8729000D02*
X4617524Y-8738524D01*
X4617524Y-8738524D02*
X4598476Y-8738524D01*
X4598476Y-8738524D02*
X4579429Y-8729000D01*
X4579429Y-8729000D02*
X4569905Y-8719476D01*
X4569905Y-8719476D02*
X4560381Y-8700429D01*
X4560381Y-8700429D02*
X4550857Y-8662333D01*
X4550857Y-8662333D02*
X4550857Y-8614714D01*
X4550857Y-8614714D02*
X4560381Y-8576619D01*
X4560381Y-8576619D02*
X4569905Y-8557571D01*
X4569905Y-8557571D02*
X4579429Y-8548048D01*
X4579429Y-8548048D02*
X4598476Y-8538524D01*
X4750857Y-8719476D02*
X4760381Y-8729000D01*
X4760381Y-8729000D02*
X4750857Y-8738524D01*
X4750857Y-8738524D02*
X4741334Y-8729000D01*
X4741334Y-8729000D02*
X4750857Y-8719476D01*
X4750857Y-8719476D02*
X4750857Y-8738524D01*
X4884191Y-8538524D02*
X4903238Y-8538524D01*
X4903238Y-8538524D02*
X4922286Y-8548048D01*
X4922286Y-8548048D02*
X4931810Y-8557571D01*
X4931810Y-8557571D02*
X4941334Y-8576619D01*
X4941334Y-8576619D02*
X4950857Y-8614714D01*
X4950857Y-8614714D02*
X4950857Y-8662333D01*
X4950857Y-8662333D02*
X4941334Y-8700429D01*
X4941334Y-8700429D02*
X4931810Y-8719476D01*
X4931810Y-8719476D02*
X4922286Y-8729000D01*
X4922286Y-8729000D02*
X4903238Y-8738524D01*
X4903238Y-8738524D02*
X4884191Y-8738524D01*
X4884191Y-8738524D02*
X4865143Y-8729000D01*
X4865143Y-8729000D02*
X4855619Y-8719476D01*
X4855619Y-8719476D02*
X4846095Y-8700429D01*
X4846095Y-8700429D02*
X4836572Y-8662333D01*
X4836572Y-8662333D02*
X4836572Y-8614714D01*
X4836572Y-8614714D02*
X4846095Y-8576619D01*
X4846095Y-8576619D02*
X4855619Y-8557571D01*
X4855619Y-8557571D02*
X4865143Y-8548048D01*
X4865143Y-8548048D02*
X4884191Y-8538524D01*
X5141334Y-8738524D02*
X5027048Y-8738524D01*
X5084191Y-8738524D02*
X5084191Y-8538524D01*
X5084191Y-8538524D02*
X5065143Y-8567095D01*
X5065143Y-8567095D02*
X5046095Y-8586143D01*
X5046095Y-8586143D02*
X5027048Y-8595667D01*
X5322286Y-8538524D02*
X5227048Y-8538524D01*
X5227048Y-8538524D02*
X5217524Y-8633762D01*
X5217524Y-8633762D02*
X5227048Y-8624238D01*
X5227048Y-8624238D02*
X5246095Y-8614714D01*
X5246095Y-8614714D02*
X5293715Y-8614714D01*
X5293715Y-8614714D02*
X5312762Y-8624238D01*
X5312762Y-8624238D02*
X5322286Y-8633762D01*
X5322286Y-8633762D02*
X5331810Y-8652810D01*
X5331810Y-8652810D02*
X5331810Y-8700429D01*
X5331810Y-8700429D02*
X5322286Y-8719476D01*
X5322286Y-8719476D02*
X5312762Y-8729000D01*
X5312762Y-8729000D02*
X5293715Y-8738524D01*
X5293715Y-8738524D02*
X5246095Y-8738524D01*
X5246095Y-8738524D02*
X5227048Y-8729000D01*
X5227048Y-8729000D02*
X5217524Y-8719476D01*
X5398476Y-8538524D02*
X5531810Y-8538524D01*
X5531810Y-8538524D02*
X5446095Y-8738524D01*
X5598476Y-8538524D02*
X5598476Y-8576619D01*
X5674667Y-8538524D02*
X5674667Y-8576619D01*
X5969905Y-8814714D02*
X5960381Y-8805190D01*
X5960381Y-8805190D02*
X5941334Y-8776619D01*
X5941334Y-8776619D02*
X5931810Y-8757571D01*
X5931810Y-8757571D02*
X5922286Y-8729000D01*
X5922286Y-8729000D02*
X5912762Y-8681381D01*
X5912762Y-8681381D02*
X5912762Y-8643286D01*
X5912762Y-8643286D02*
X5922286Y-8595667D01*
X5922286Y-8595667D02*
X5931810Y-8567095D01*
X5931810Y-8567095D02*
X5941334Y-8548048D01*
X5941334Y-8548048D02*
X5960381Y-8519476D01*
X5960381Y-8519476D02*
X5969905Y-8509952D01*
X6027048Y-8538524D02*
X6150857Y-8538524D01*
X6150857Y-8538524D02*
X6084191Y-8614714D01*
X6084191Y-8614714D02*
X6112762Y-8614714D01*
X6112762Y-8614714D02*
X6131810Y-8624238D01*
X6131810Y-8624238D02*
X6141334Y-8633762D01*
X6141334Y-8633762D02*
X6150857Y-8652810D01*
X6150857Y-8652810D02*
X6150857Y-8700429D01*
X6150857Y-8700429D02*
X6141334Y-8719476D01*
X6141334Y-8719476D02*
X6131810Y-8729000D01*
X6131810Y-8729000D02*
X6112762Y-8738524D01*
X6112762Y-8738524D02*
X6055619Y-8738524D01*
X6055619Y-8738524D02*
X6036572Y-8729000D01*
X6036572Y-8729000D02*
X6027048Y-8719476D01*
X6246095Y-8738524D02*
X6284191Y-8738524D01*
X6284191Y-8738524D02*
X6303238Y-8729000D01*
X6303238Y-8729000D02*
X6312762Y-8719476D01*
X6312762Y-8719476D02*
X6331810Y-8690905D01*
X6331810Y-8690905D02*
X6341334Y-8652810D01*
X6341334Y-8652810D02*
X6341334Y-8576619D01*
X6341334Y-8576619D02*
X6331810Y-8557571D01*
X6331810Y-8557571D02*
X6322286Y-8548048D01*
X6322286Y-8548048D02*
X6303238Y-8538524D01*
X6303238Y-8538524D02*
X6265143Y-8538524D01*
X6265143Y-8538524D02*
X6246095Y-8548048D01*
X6246095Y-8548048D02*
X6236572Y-8557571D01*
X6236572Y-8557571D02*
X6227048Y-8576619D01*
X6227048Y-8576619D02*
X6227048Y-8624238D01*
X6227048Y-8624238D02*
X6236572Y-8643286D01*
X6236572Y-8643286D02*
X6246095Y-8652810D01*
X6246095Y-8652810D02*
X6265143Y-8662333D01*
X6265143Y-8662333D02*
X6303238Y-8662333D01*
X6303238Y-8662333D02*
X6322286Y-8652810D01*
X6322286Y-8652810D02*
X6331810Y-8643286D01*
X6331810Y-8643286D02*
X6341334Y-8624238D01*
X6579429Y-8738524D02*
X6579429Y-8538524D01*
X6665143Y-8738524D02*
X6665143Y-8633762D01*
X6665143Y-8633762D02*
X6655619Y-8614714D01*
X6655619Y-8614714D02*
X6636572Y-8605190D01*
X6636572Y-8605190D02*
X6608000Y-8605190D01*
X6608000Y-8605190D02*
X6588953Y-8614714D01*
X6588953Y-8614714D02*
X6579429Y-8624238D01*
X6788953Y-8738524D02*
X6769905Y-8729000D01*
X6769905Y-8729000D02*
X6760381Y-8719476D01*
X6760381Y-8719476D02*
X6750857Y-8700429D01*
X6750857Y-8700429D02*
X6750857Y-8643286D01*
X6750857Y-8643286D02*
X6760381Y-8624238D01*
X6760381Y-8624238D02*
X6769905Y-8614714D01*
X6769905Y-8614714D02*
X6788953Y-8605190D01*
X6788953Y-8605190D02*
X6817524Y-8605190D01*
X6817524Y-8605190D02*
X6836572Y-8614714D01*
X6836572Y-8614714D02*
X6846096Y-8624238D01*
X6846096Y-8624238D02*
X6855619Y-8643286D01*
X6855619Y-8643286D02*
X6855619Y-8700429D01*
X6855619Y-8700429D02*
X6846096Y-8719476D01*
X6846096Y-8719476D02*
X6836572Y-8729000D01*
X6836572Y-8729000D02*
X6817524Y-8738524D01*
X6817524Y-8738524D02*
X6788953Y-8738524D01*
X6969905Y-8738524D02*
X6950857Y-8729000D01*
X6950857Y-8729000D02*
X6941334Y-8709952D01*
X6941334Y-8709952D02*
X6941334Y-8538524D01*
X7122286Y-8729000D02*
X7103238Y-8738524D01*
X7103238Y-8738524D02*
X7065143Y-8738524D01*
X7065143Y-8738524D02*
X7046096Y-8729000D01*
X7046096Y-8729000D02*
X7036572Y-8709952D01*
X7036572Y-8709952D02*
X7036572Y-8633762D01*
X7036572Y-8633762D02*
X7046096Y-8614714D01*
X7046096Y-8614714D02*
X7065143Y-8605190D01*
X7065143Y-8605190D02*
X7103238Y-8605190D01*
X7103238Y-8605190D02*
X7122286Y-8614714D01*
X7122286Y-8614714D02*
X7131810Y-8633762D01*
X7131810Y-8633762D02*
X7131810Y-8652810D01*
X7131810Y-8652810D02*
X7036572Y-8671857D01*
X7208000Y-8729000D02*
X7227048Y-8738524D01*
X7227048Y-8738524D02*
X7265143Y-8738524D01*
X7265143Y-8738524D02*
X7284191Y-8729000D01*
X7284191Y-8729000D02*
X7293715Y-8709952D01*
X7293715Y-8709952D02*
X7293715Y-8700429D01*
X7293715Y-8700429D02*
X7284191Y-8681381D01*
X7284191Y-8681381D02*
X7265143Y-8671857D01*
X7265143Y-8671857D02*
X7236572Y-8671857D01*
X7236572Y-8671857D02*
X7217524Y-8662333D01*
X7217524Y-8662333D02*
X7208000Y-8643286D01*
X7208000Y-8643286D02*
X7208000Y-8633762D01*
X7208000Y-8633762D02*
X7217524Y-8614714D01*
X7217524Y-8614714D02*
X7236572Y-8605190D01*
X7236572Y-8605190D02*
X7265143Y-8605190D01*
X7265143Y-8605190D02*
X7284191Y-8614714D01*
X7360381Y-8814714D02*
X7369905Y-8805190D01*
X7369905Y-8805190D02*
X7388953Y-8776619D01*
X7388953Y-8776619D02*
X7398477Y-8757571D01*
X7398477Y-8757571D02*
X7408000Y-8729000D01*
X7408000Y-8729000D02*
X7417524Y-8681381D01*
X7417524Y-8681381D02*
X7417524Y-8643286D01*
X7417524Y-8643286D02*
X7408000Y-8595667D01*
X7408000Y-8595667D02*
X7398477Y-8567095D01*
X7398477Y-8567095D02*
X7388953Y-8548048D01*
X7388953Y-8548048D02*
X7369905Y-8519476D01*
X7369905Y-8519476D02*
X7360381Y-8509952D01*
D13*
X2408000Y-8910000D02*
G75*
G03*
X2408000Y-8910000I-35000J0D01*
G01*
D11*
X2693714Y-8802524D02*
X2712762Y-8802524D01*
X2712762Y-8802524D02*
X2731810Y-8812048D01*
X2731810Y-8812048D02*
X2741333Y-8821571D01*
X2741333Y-8821571D02*
X2750857Y-8840619D01*
X2750857Y-8840619D02*
X2760381Y-8878714D01*
X2760381Y-8878714D02*
X2760381Y-8926333D01*
X2760381Y-8926333D02*
X2750857Y-8964429D01*
X2750857Y-8964429D02*
X2741333Y-8983476D01*
X2741333Y-8983476D02*
X2731810Y-8993000D01*
X2731810Y-8993000D02*
X2712762Y-9002524D01*
X2712762Y-9002524D02*
X2693714Y-9002524D01*
X2693714Y-9002524D02*
X2674667Y-8993000D01*
X2674667Y-8993000D02*
X2665143Y-8983476D01*
X2665143Y-8983476D02*
X2655619Y-8964429D01*
X2655619Y-8964429D02*
X2646095Y-8926333D01*
X2646095Y-8926333D02*
X2646095Y-8878714D01*
X2646095Y-8878714D02*
X2655619Y-8840619D01*
X2655619Y-8840619D02*
X2665143Y-8821571D01*
X2665143Y-8821571D02*
X2674667Y-8812048D01*
X2674667Y-8812048D02*
X2693714Y-8802524D01*
X2846095Y-8983476D02*
X2855619Y-8993000D01*
X2855619Y-8993000D02*
X2846095Y-9002524D01*
X2846095Y-9002524D02*
X2836571Y-8993000D01*
X2836571Y-8993000D02*
X2846095Y-8983476D01*
X2846095Y-8983476D02*
X2846095Y-9002524D01*
X2922286Y-8802524D02*
X3055619Y-8802524D01*
X3055619Y-8802524D02*
X2969905Y-9002524D01*
X3169905Y-8802524D02*
X3188952Y-8802524D01*
X3188952Y-8802524D02*
X3208000Y-8812048D01*
X3208000Y-8812048D02*
X3217524Y-8821571D01*
X3217524Y-8821571D02*
X3227048Y-8840619D01*
X3227048Y-8840619D02*
X3236571Y-8878714D01*
X3236571Y-8878714D02*
X3236571Y-8926333D01*
X3236571Y-8926333D02*
X3227048Y-8964429D01*
X3227048Y-8964429D02*
X3217524Y-8983476D01*
X3217524Y-8983476D02*
X3208000Y-8993000D01*
X3208000Y-8993000D02*
X3188952Y-9002524D01*
X3188952Y-9002524D02*
X3169905Y-9002524D01*
X3169905Y-9002524D02*
X3150857Y-8993000D01*
X3150857Y-8993000D02*
X3141333Y-8983476D01*
X3141333Y-8983476D02*
X3131809Y-8964429D01*
X3131809Y-8964429D02*
X3122286Y-8926333D01*
X3122286Y-8926333D02*
X3122286Y-8878714D01*
X3122286Y-8878714D02*
X3131809Y-8840619D01*
X3131809Y-8840619D02*
X3141333Y-8821571D01*
X3141333Y-8821571D02*
X3150857Y-8812048D01*
X3150857Y-8812048D02*
X3169905Y-8802524D01*
X3360381Y-8802524D02*
X3379429Y-8802524D01*
X3379429Y-8802524D02*
X3398476Y-8812048D01*
X3398476Y-8812048D02*
X3408000Y-8821571D01*
X3408000Y-8821571D02*
X3417524Y-8840619D01*
X3417524Y-8840619D02*
X3427048Y-8878714D01*
X3427048Y-8878714D02*
X3427048Y-8926333D01*
X3427048Y-8926333D02*
X3417524Y-8964429D01*
X3417524Y-8964429D02*
X3408000Y-8983476D01*
X3408000Y-8983476D02*
X3398476Y-8993000D01*
X3398476Y-8993000D02*
X3379429Y-9002524D01*
X3379429Y-9002524D02*
X3360381Y-9002524D01*
X3360381Y-9002524D02*
X3341333Y-8993000D01*
X3341333Y-8993000D02*
X3331809Y-8983476D01*
X3331809Y-8983476D02*
X3322286Y-8964429D01*
X3322286Y-8964429D02*
X3312762Y-8926333D01*
X3312762Y-8926333D02*
X3312762Y-8878714D01*
X3312762Y-8878714D02*
X3322286Y-8840619D01*
X3322286Y-8840619D02*
X3331809Y-8821571D01*
X3331809Y-8821571D02*
X3341333Y-8812048D01*
X3341333Y-8812048D02*
X3360381Y-8802524D01*
X3512762Y-9002524D02*
X3512762Y-8869190D01*
X3512762Y-8888238D02*
X3522286Y-8878714D01*
X3522286Y-8878714D02*
X3541333Y-8869190D01*
X3541333Y-8869190D02*
X3569905Y-8869190D01*
X3569905Y-8869190D02*
X3588952Y-8878714D01*
X3588952Y-8878714D02*
X3598476Y-8897762D01*
X3598476Y-8897762D02*
X3598476Y-9002524D01*
X3598476Y-8897762D02*
X3608000Y-8878714D01*
X3608000Y-8878714D02*
X3627048Y-8869190D01*
X3627048Y-8869190D02*
X3655619Y-8869190D01*
X3655619Y-8869190D02*
X3674667Y-8878714D01*
X3674667Y-8878714D02*
X3684190Y-8897762D01*
X3684190Y-8897762D02*
X3684190Y-9002524D01*
X3779429Y-9002524D02*
X3779429Y-8869190D01*
X3779429Y-8888238D02*
X3788952Y-8878714D01*
X3788952Y-8878714D02*
X3808000Y-8869190D01*
X3808000Y-8869190D02*
X3836571Y-8869190D01*
X3836571Y-8869190D02*
X3855619Y-8878714D01*
X3855619Y-8878714D02*
X3865143Y-8897762D01*
X3865143Y-8897762D02*
X3865143Y-9002524D01*
X3865143Y-8897762D02*
X3874667Y-8878714D01*
X3874667Y-8878714D02*
X3893714Y-8869190D01*
X3893714Y-8869190D02*
X3922286Y-8869190D01*
X3922286Y-8869190D02*
X3941333Y-8878714D01*
X3941333Y-8878714D02*
X3950857Y-8897762D01*
X3950857Y-8897762D02*
X3950857Y-9002524D01*
X4341333Y-8793000D02*
X4169905Y-9050143D01*
X4598476Y-8802524D02*
X4617524Y-8802524D01*
X4617524Y-8802524D02*
X4636572Y-8812048D01*
X4636572Y-8812048D02*
X4646095Y-8821571D01*
X4646095Y-8821571D02*
X4655619Y-8840619D01*
X4655619Y-8840619D02*
X4665143Y-8878714D01*
X4665143Y-8878714D02*
X4665143Y-8926333D01*
X4665143Y-8926333D02*
X4655619Y-8964429D01*
X4655619Y-8964429D02*
X4646095Y-8983476D01*
X4646095Y-8983476D02*
X4636572Y-8993000D01*
X4636572Y-8993000D02*
X4617524Y-9002524D01*
X4617524Y-9002524D02*
X4598476Y-9002524D01*
X4598476Y-9002524D02*
X4579429Y-8993000D01*
X4579429Y-8993000D02*
X4569905Y-8983476D01*
X4569905Y-8983476D02*
X4560381Y-8964429D01*
X4560381Y-8964429D02*
X4550857Y-8926333D01*
X4550857Y-8926333D02*
X4550857Y-8878714D01*
X4550857Y-8878714D02*
X4560381Y-8840619D01*
X4560381Y-8840619D02*
X4569905Y-8821571D01*
X4569905Y-8821571D02*
X4579429Y-8812048D01*
X4579429Y-8812048D02*
X4598476Y-8802524D01*
X4750857Y-8983476D02*
X4760381Y-8993000D01*
X4760381Y-8993000D02*
X4750857Y-9002524D01*
X4750857Y-9002524D02*
X4741334Y-8993000D01*
X4741334Y-8993000D02*
X4750857Y-8983476D01*
X4750857Y-8983476D02*
X4750857Y-9002524D01*
X4884191Y-8802524D02*
X4903238Y-8802524D01*
X4903238Y-8802524D02*
X4922286Y-8812048D01*
X4922286Y-8812048D02*
X4931810Y-8821571D01*
X4931810Y-8821571D02*
X4941334Y-8840619D01*
X4941334Y-8840619D02*
X4950857Y-8878714D01*
X4950857Y-8878714D02*
X4950857Y-8926333D01*
X4950857Y-8926333D02*
X4941334Y-8964429D01*
X4941334Y-8964429D02*
X4931810Y-8983476D01*
X4931810Y-8983476D02*
X4922286Y-8993000D01*
X4922286Y-8993000D02*
X4903238Y-9002524D01*
X4903238Y-9002524D02*
X4884191Y-9002524D01*
X4884191Y-9002524D02*
X4865143Y-8993000D01*
X4865143Y-8993000D02*
X4855619Y-8983476D01*
X4855619Y-8983476D02*
X4846095Y-8964429D01*
X4846095Y-8964429D02*
X4836572Y-8926333D01*
X4836572Y-8926333D02*
X4836572Y-8878714D01*
X4836572Y-8878714D02*
X4846095Y-8840619D01*
X4846095Y-8840619D02*
X4855619Y-8821571D01*
X4855619Y-8821571D02*
X4865143Y-8812048D01*
X4865143Y-8812048D02*
X4884191Y-8802524D01*
X5027048Y-8821571D02*
X5036572Y-8812048D01*
X5036572Y-8812048D02*
X5055619Y-8802524D01*
X5055619Y-8802524D02*
X5103238Y-8802524D01*
X5103238Y-8802524D02*
X5122286Y-8812048D01*
X5122286Y-8812048D02*
X5131810Y-8821571D01*
X5131810Y-8821571D02*
X5141334Y-8840619D01*
X5141334Y-8840619D02*
X5141334Y-8859667D01*
X5141334Y-8859667D02*
X5131810Y-8888238D01*
X5131810Y-8888238D02*
X5017524Y-9002524D01*
X5017524Y-9002524D02*
X5141334Y-9002524D01*
X5208000Y-8802524D02*
X5341334Y-8802524D01*
X5341334Y-8802524D02*
X5255619Y-9002524D01*
X5503238Y-8802524D02*
X5465143Y-8802524D01*
X5465143Y-8802524D02*
X5446095Y-8812048D01*
X5446095Y-8812048D02*
X5436572Y-8821571D01*
X5436572Y-8821571D02*
X5417524Y-8850143D01*
X5417524Y-8850143D02*
X5408000Y-8888238D01*
X5408000Y-8888238D02*
X5408000Y-8964429D01*
X5408000Y-8964429D02*
X5417524Y-8983476D01*
X5417524Y-8983476D02*
X5427048Y-8993000D01*
X5427048Y-8993000D02*
X5446095Y-9002524D01*
X5446095Y-9002524D02*
X5484191Y-9002524D01*
X5484191Y-9002524D02*
X5503238Y-8993000D01*
X5503238Y-8993000D02*
X5512762Y-8983476D01*
X5512762Y-8983476D02*
X5522286Y-8964429D01*
X5522286Y-8964429D02*
X5522286Y-8916810D01*
X5522286Y-8916810D02*
X5512762Y-8897762D01*
X5512762Y-8897762D02*
X5503238Y-8888238D01*
X5503238Y-8888238D02*
X5484191Y-8878714D01*
X5484191Y-8878714D02*
X5446095Y-8878714D01*
X5446095Y-8878714D02*
X5427048Y-8888238D01*
X5427048Y-8888238D02*
X5417524Y-8897762D01*
X5417524Y-8897762D02*
X5408000Y-8916810D01*
X5598476Y-8802524D02*
X5598476Y-8840619D01*
X5674667Y-8802524D02*
X5674667Y-8840619D01*
X5969905Y-9078714D02*
X5960381Y-9069190D01*
X5960381Y-9069190D02*
X5941334Y-9040619D01*
X5941334Y-9040619D02*
X5931810Y-9021571D01*
X5931810Y-9021571D02*
X5922286Y-8993000D01*
X5922286Y-8993000D02*
X5912762Y-8945381D01*
X5912762Y-8945381D02*
X5912762Y-8907286D01*
X5912762Y-8907286D02*
X5922286Y-8859667D01*
X5922286Y-8859667D02*
X5931810Y-8831095D01*
X5931810Y-8831095D02*
X5941334Y-8812048D01*
X5941334Y-8812048D02*
X5960381Y-8783476D01*
X5960381Y-8783476D02*
X5969905Y-8773952D01*
X6150857Y-9002524D02*
X6036572Y-9002524D01*
X6093714Y-9002524D02*
X6093714Y-8802524D01*
X6093714Y-8802524D02*
X6074667Y-8831095D01*
X6074667Y-8831095D02*
X6055619Y-8850143D01*
X6055619Y-8850143D02*
X6036572Y-8859667D01*
X6274667Y-8802524D02*
X6293715Y-8802524D01*
X6293715Y-8802524D02*
X6312762Y-8812048D01*
X6312762Y-8812048D02*
X6322286Y-8821571D01*
X6322286Y-8821571D02*
X6331810Y-8840619D01*
X6331810Y-8840619D02*
X6341334Y-8878714D01*
X6341334Y-8878714D02*
X6341334Y-8926333D01*
X6341334Y-8926333D02*
X6331810Y-8964429D01*
X6331810Y-8964429D02*
X6322286Y-8983476D01*
X6322286Y-8983476D02*
X6312762Y-8993000D01*
X6312762Y-8993000D02*
X6293715Y-9002524D01*
X6293715Y-9002524D02*
X6274667Y-9002524D01*
X6274667Y-9002524D02*
X6255619Y-8993000D01*
X6255619Y-8993000D02*
X6246095Y-8983476D01*
X6246095Y-8983476D02*
X6236572Y-8964429D01*
X6236572Y-8964429D02*
X6227048Y-8926333D01*
X6227048Y-8926333D02*
X6227048Y-8878714D01*
X6227048Y-8878714D02*
X6236572Y-8840619D01*
X6236572Y-8840619D02*
X6246095Y-8821571D01*
X6246095Y-8821571D02*
X6255619Y-8812048D01*
X6255619Y-8812048D02*
X6274667Y-8802524D01*
X6579429Y-9002524D02*
X6579429Y-8802524D01*
X6665143Y-9002524D02*
X6665143Y-8897762D01*
X6665143Y-8897762D02*
X6655619Y-8878714D01*
X6655619Y-8878714D02*
X6636572Y-8869190D01*
X6636572Y-8869190D02*
X6608000Y-8869190D01*
X6608000Y-8869190D02*
X6588953Y-8878714D01*
X6588953Y-8878714D02*
X6579429Y-8888238D01*
X6788953Y-9002524D02*
X6769905Y-8993000D01*
X6769905Y-8993000D02*
X6760381Y-8983476D01*
X6760381Y-8983476D02*
X6750857Y-8964429D01*
X6750857Y-8964429D02*
X6750857Y-8907286D01*
X6750857Y-8907286D02*
X6760381Y-8888238D01*
X6760381Y-8888238D02*
X6769905Y-8878714D01*
X6769905Y-8878714D02*
X6788953Y-8869190D01*
X6788953Y-8869190D02*
X6817524Y-8869190D01*
X6817524Y-8869190D02*
X6836572Y-8878714D01*
X6836572Y-8878714D02*
X6846096Y-8888238D01*
X6846096Y-8888238D02*
X6855619Y-8907286D01*
X6855619Y-8907286D02*
X6855619Y-8964429D01*
X6855619Y-8964429D02*
X6846096Y-8983476D01*
X6846096Y-8983476D02*
X6836572Y-8993000D01*
X6836572Y-8993000D02*
X6817524Y-9002524D01*
X6817524Y-9002524D02*
X6788953Y-9002524D01*
X6969905Y-9002524D02*
X6950857Y-8993000D01*
X6950857Y-8993000D02*
X6941334Y-8973952D01*
X6941334Y-8973952D02*
X6941334Y-8802524D01*
X7122286Y-8993000D02*
X7103238Y-9002524D01*
X7103238Y-9002524D02*
X7065143Y-9002524D01*
X7065143Y-9002524D02*
X7046096Y-8993000D01*
X7046096Y-8993000D02*
X7036572Y-8973952D01*
X7036572Y-8973952D02*
X7036572Y-8897762D01*
X7036572Y-8897762D02*
X7046096Y-8878714D01*
X7046096Y-8878714D02*
X7065143Y-8869190D01*
X7065143Y-8869190D02*
X7103238Y-8869190D01*
X7103238Y-8869190D02*
X7122286Y-8878714D01*
X7122286Y-8878714D02*
X7131810Y-8897762D01*
X7131810Y-8897762D02*
X7131810Y-8916810D01*
X7131810Y-8916810D02*
X7036572Y-8935857D01*
X7208000Y-8993000D02*
X7227048Y-9002524D01*
X7227048Y-9002524D02*
X7265143Y-9002524D01*
X7265143Y-9002524D02*
X7284191Y-8993000D01*
X7284191Y-8993000D02*
X7293715Y-8973952D01*
X7293715Y-8973952D02*
X7293715Y-8964429D01*
X7293715Y-8964429D02*
X7284191Y-8945381D01*
X7284191Y-8945381D02*
X7265143Y-8935857D01*
X7265143Y-8935857D02*
X7236572Y-8935857D01*
X7236572Y-8935857D02*
X7217524Y-8926333D01*
X7217524Y-8926333D02*
X7208000Y-8907286D01*
X7208000Y-8907286D02*
X7208000Y-8897762D01*
X7208000Y-8897762D02*
X7217524Y-8878714D01*
X7217524Y-8878714D02*
X7236572Y-8869190D01*
X7236572Y-8869190D02*
X7265143Y-8869190D01*
X7265143Y-8869190D02*
X7284191Y-8878714D01*
X7360381Y-9078714D02*
X7369905Y-9069190D01*
X7369905Y-9069190D02*
X7388953Y-9040619D01*
X7388953Y-9040619D02*
X7398477Y-9021571D01*
X7398477Y-9021571D02*
X7408000Y-8993000D01*
X7408000Y-8993000D02*
X7417524Y-8945381D01*
X7417524Y-8945381D02*
X7417524Y-8907286D01*
X7417524Y-8907286D02*
X7408000Y-8859667D01*
X7408000Y-8859667D02*
X7398477Y-8831095D01*
X7398477Y-8831095D02*
X7388953Y-8812048D01*
X7388953Y-8812048D02*
X7369905Y-8783476D01*
X7369905Y-8783476D02*
X7360381Y-8773952D01*
D13*
X2373000Y-9139000D02*
X2373000Y-9209000D01*
X2338000Y-9174000D02*
X2408000Y-9174000D01*
D11*
X2693714Y-9066524D02*
X2712762Y-9066524D01*
X2712762Y-9066524D02*
X2731810Y-9076048D01*
X2731810Y-9076048D02*
X2741333Y-9085571D01*
X2741333Y-9085571D02*
X2750857Y-9104619D01*
X2750857Y-9104619D02*
X2760381Y-9142714D01*
X2760381Y-9142714D02*
X2760381Y-9190333D01*
X2760381Y-9190333D02*
X2750857Y-9228429D01*
X2750857Y-9228429D02*
X2741333Y-9247476D01*
X2741333Y-9247476D02*
X2731810Y-9257000D01*
X2731810Y-9257000D02*
X2712762Y-9266524D01*
X2712762Y-9266524D02*
X2693714Y-9266524D01*
X2693714Y-9266524D02*
X2674667Y-9257000D01*
X2674667Y-9257000D02*
X2665143Y-9247476D01*
X2665143Y-9247476D02*
X2655619Y-9228429D01*
X2655619Y-9228429D02*
X2646095Y-9190333D01*
X2646095Y-9190333D02*
X2646095Y-9142714D01*
X2646095Y-9142714D02*
X2655619Y-9104619D01*
X2655619Y-9104619D02*
X2665143Y-9085571D01*
X2665143Y-9085571D02*
X2674667Y-9076048D01*
X2674667Y-9076048D02*
X2693714Y-9066524D01*
X2846095Y-9247476D02*
X2855619Y-9257000D01*
X2855619Y-9257000D02*
X2846095Y-9266524D01*
X2846095Y-9266524D02*
X2836571Y-9257000D01*
X2836571Y-9257000D02*
X2846095Y-9247476D01*
X2846095Y-9247476D02*
X2846095Y-9266524D01*
X2922286Y-9066524D02*
X3055619Y-9066524D01*
X3055619Y-9066524D02*
X2969905Y-9266524D01*
X3169905Y-9066524D02*
X3188952Y-9066524D01*
X3188952Y-9066524D02*
X3208000Y-9076048D01*
X3208000Y-9076048D02*
X3217524Y-9085571D01*
X3217524Y-9085571D02*
X3227048Y-9104619D01*
X3227048Y-9104619D02*
X3236571Y-9142714D01*
X3236571Y-9142714D02*
X3236571Y-9190333D01*
X3236571Y-9190333D02*
X3227048Y-9228429D01*
X3227048Y-9228429D02*
X3217524Y-9247476D01*
X3217524Y-9247476D02*
X3208000Y-9257000D01*
X3208000Y-9257000D02*
X3188952Y-9266524D01*
X3188952Y-9266524D02*
X3169905Y-9266524D01*
X3169905Y-9266524D02*
X3150857Y-9257000D01*
X3150857Y-9257000D02*
X3141333Y-9247476D01*
X3141333Y-9247476D02*
X3131809Y-9228429D01*
X3131809Y-9228429D02*
X3122286Y-9190333D01*
X3122286Y-9190333D02*
X3122286Y-9142714D01*
X3122286Y-9142714D02*
X3131809Y-9104619D01*
X3131809Y-9104619D02*
X3141333Y-9085571D01*
X3141333Y-9085571D02*
X3150857Y-9076048D01*
X3150857Y-9076048D02*
X3169905Y-9066524D01*
X3360381Y-9066524D02*
X3379429Y-9066524D01*
X3379429Y-9066524D02*
X3398476Y-9076048D01*
X3398476Y-9076048D02*
X3408000Y-9085571D01*
X3408000Y-9085571D02*
X3417524Y-9104619D01*
X3417524Y-9104619D02*
X3427048Y-9142714D01*
X3427048Y-9142714D02*
X3427048Y-9190333D01*
X3427048Y-9190333D02*
X3417524Y-9228429D01*
X3417524Y-9228429D02*
X3408000Y-9247476D01*
X3408000Y-9247476D02*
X3398476Y-9257000D01*
X3398476Y-9257000D02*
X3379429Y-9266524D01*
X3379429Y-9266524D02*
X3360381Y-9266524D01*
X3360381Y-9266524D02*
X3341333Y-9257000D01*
X3341333Y-9257000D02*
X3331809Y-9247476D01*
X3331809Y-9247476D02*
X3322286Y-9228429D01*
X3322286Y-9228429D02*
X3312762Y-9190333D01*
X3312762Y-9190333D02*
X3312762Y-9142714D01*
X3312762Y-9142714D02*
X3322286Y-9104619D01*
X3322286Y-9104619D02*
X3331809Y-9085571D01*
X3331809Y-9085571D02*
X3341333Y-9076048D01*
X3341333Y-9076048D02*
X3360381Y-9066524D01*
X3512762Y-9266524D02*
X3512762Y-9133190D01*
X3512762Y-9152238D02*
X3522286Y-9142714D01*
X3522286Y-9142714D02*
X3541333Y-9133190D01*
X3541333Y-9133190D02*
X3569905Y-9133190D01*
X3569905Y-9133190D02*
X3588952Y-9142714D01*
X3588952Y-9142714D02*
X3598476Y-9161762D01*
X3598476Y-9161762D02*
X3598476Y-9266524D01*
X3598476Y-9161762D02*
X3608000Y-9142714D01*
X3608000Y-9142714D02*
X3627048Y-9133190D01*
X3627048Y-9133190D02*
X3655619Y-9133190D01*
X3655619Y-9133190D02*
X3674667Y-9142714D01*
X3674667Y-9142714D02*
X3684190Y-9161762D01*
X3684190Y-9161762D02*
X3684190Y-9266524D01*
X3779429Y-9266524D02*
X3779429Y-9133190D01*
X3779429Y-9152238D02*
X3788952Y-9142714D01*
X3788952Y-9142714D02*
X3808000Y-9133190D01*
X3808000Y-9133190D02*
X3836571Y-9133190D01*
X3836571Y-9133190D02*
X3855619Y-9142714D01*
X3855619Y-9142714D02*
X3865143Y-9161762D01*
X3865143Y-9161762D02*
X3865143Y-9266524D01*
X3865143Y-9161762D02*
X3874667Y-9142714D01*
X3874667Y-9142714D02*
X3893714Y-9133190D01*
X3893714Y-9133190D02*
X3922286Y-9133190D01*
X3922286Y-9133190D02*
X3941333Y-9142714D01*
X3941333Y-9142714D02*
X3950857Y-9161762D01*
X3950857Y-9161762D02*
X3950857Y-9266524D01*
X4341333Y-9057000D02*
X4169905Y-9314143D01*
X4598476Y-9066524D02*
X4617524Y-9066524D01*
X4617524Y-9066524D02*
X4636572Y-9076048D01*
X4636572Y-9076048D02*
X4646095Y-9085571D01*
X4646095Y-9085571D02*
X4655619Y-9104619D01*
X4655619Y-9104619D02*
X4665143Y-9142714D01*
X4665143Y-9142714D02*
X4665143Y-9190333D01*
X4665143Y-9190333D02*
X4655619Y-9228429D01*
X4655619Y-9228429D02*
X4646095Y-9247476D01*
X4646095Y-9247476D02*
X4636572Y-9257000D01*
X4636572Y-9257000D02*
X4617524Y-9266524D01*
X4617524Y-9266524D02*
X4598476Y-9266524D01*
X4598476Y-9266524D02*
X4579429Y-9257000D01*
X4579429Y-9257000D02*
X4569905Y-9247476D01*
X4569905Y-9247476D02*
X4560381Y-9228429D01*
X4560381Y-9228429D02*
X4550857Y-9190333D01*
X4550857Y-9190333D02*
X4550857Y-9142714D01*
X4550857Y-9142714D02*
X4560381Y-9104619D01*
X4560381Y-9104619D02*
X4569905Y-9085571D01*
X4569905Y-9085571D02*
X4579429Y-9076048D01*
X4579429Y-9076048D02*
X4598476Y-9066524D01*
X4750857Y-9247476D02*
X4760381Y-9257000D01*
X4760381Y-9257000D02*
X4750857Y-9266524D01*
X4750857Y-9266524D02*
X4741334Y-9257000D01*
X4741334Y-9257000D02*
X4750857Y-9247476D01*
X4750857Y-9247476D02*
X4750857Y-9266524D01*
X4884191Y-9066524D02*
X4903238Y-9066524D01*
X4903238Y-9066524D02*
X4922286Y-9076048D01*
X4922286Y-9076048D02*
X4931810Y-9085571D01*
X4931810Y-9085571D02*
X4941334Y-9104619D01*
X4941334Y-9104619D02*
X4950857Y-9142714D01*
X4950857Y-9142714D02*
X4950857Y-9190333D01*
X4950857Y-9190333D02*
X4941334Y-9228429D01*
X4941334Y-9228429D02*
X4931810Y-9247476D01*
X4931810Y-9247476D02*
X4922286Y-9257000D01*
X4922286Y-9257000D02*
X4903238Y-9266524D01*
X4903238Y-9266524D02*
X4884191Y-9266524D01*
X4884191Y-9266524D02*
X4865143Y-9257000D01*
X4865143Y-9257000D02*
X4855619Y-9247476D01*
X4855619Y-9247476D02*
X4846095Y-9228429D01*
X4846095Y-9228429D02*
X4836572Y-9190333D01*
X4836572Y-9190333D02*
X4836572Y-9142714D01*
X4836572Y-9142714D02*
X4846095Y-9104619D01*
X4846095Y-9104619D02*
X4855619Y-9085571D01*
X4855619Y-9085571D02*
X4865143Y-9076048D01*
X4865143Y-9076048D02*
X4884191Y-9066524D01*
X5027048Y-9085571D02*
X5036572Y-9076048D01*
X5036572Y-9076048D02*
X5055619Y-9066524D01*
X5055619Y-9066524D02*
X5103238Y-9066524D01*
X5103238Y-9066524D02*
X5122286Y-9076048D01*
X5122286Y-9076048D02*
X5131810Y-9085571D01*
X5131810Y-9085571D02*
X5141334Y-9104619D01*
X5141334Y-9104619D02*
X5141334Y-9123667D01*
X5141334Y-9123667D02*
X5131810Y-9152238D01*
X5131810Y-9152238D02*
X5017524Y-9266524D01*
X5017524Y-9266524D02*
X5141334Y-9266524D01*
X5208000Y-9066524D02*
X5341334Y-9066524D01*
X5341334Y-9066524D02*
X5255619Y-9266524D01*
X5503238Y-9066524D02*
X5465143Y-9066524D01*
X5465143Y-9066524D02*
X5446095Y-9076048D01*
X5446095Y-9076048D02*
X5436572Y-9085571D01*
X5436572Y-9085571D02*
X5417524Y-9114143D01*
X5417524Y-9114143D02*
X5408000Y-9152238D01*
X5408000Y-9152238D02*
X5408000Y-9228429D01*
X5408000Y-9228429D02*
X5417524Y-9247476D01*
X5417524Y-9247476D02*
X5427048Y-9257000D01*
X5427048Y-9257000D02*
X5446095Y-9266524D01*
X5446095Y-9266524D02*
X5484191Y-9266524D01*
X5484191Y-9266524D02*
X5503238Y-9257000D01*
X5503238Y-9257000D02*
X5512762Y-9247476D01*
X5512762Y-9247476D02*
X5522286Y-9228429D01*
X5522286Y-9228429D02*
X5522286Y-9180810D01*
X5522286Y-9180810D02*
X5512762Y-9161762D01*
X5512762Y-9161762D02*
X5503238Y-9152238D01*
X5503238Y-9152238D02*
X5484191Y-9142714D01*
X5484191Y-9142714D02*
X5446095Y-9142714D01*
X5446095Y-9142714D02*
X5427048Y-9152238D01*
X5427048Y-9152238D02*
X5417524Y-9161762D01*
X5417524Y-9161762D02*
X5408000Y-9180810D01*
X5598476Y-9066524D02*
X5598476Y-9104619D01*
X5674667Y-9066524D02*
X5674667Y-9104619D01*
X5969905Y-9342714D02*
X5960381Y-9333190D01*
X5960381Y-9333190D02*
X5941334Y-9304619D01*
X5941334Y-9304619D02*
X5931810Y-9285571D01*
X5931810Y-9285571D02*
X5922286Y-9257000D01*
X5922286Y-9257000D02*
X5912762Y-9209381D01*
X5912762Y-9209381D02*
X5912762Y-9171286D01*
X5912762Y-9171286D02*
X5922286Y-9123667D01*
X5922286Y-9123667D02*
X5931810Y-9095095D01*
X5931810Y-9095095D02*
X5941334Y-9076048D01*
X5941334Y-9076048D02*
X5960381Y-9047476D01*
X5960381Y-9047476D02*
X5969905Y-9037952D01*
X6131810Y-9133190D02*
X6131810Y-9266524D01*
X6084191Y-9057000D02*
X6036572Y-9199857D01*
X6036572Y-9199857D02*
X6160381Y-9199857D01*
X6388953Y-9266524D02*
X6388953Y-9066524D01*
X6474667Y-9266524D02*
X6474667Y-9161762D01*
X6474667Y-9161762D02*
X6465143Y-9142714D01*
X6465143Y-9142714D02*
X6446096Y-9133190D01*
X6446096Y-9133190D02*
X6417524Y-9133190D01*
X6417524Y-9133190D02*
X6398476Y-9142714D01*
X6398476Y-9142714D02*
X6388953Y-9152238D01*
X6598476Y-9266524D02*
X6579429Y-9257000D01*
X6579429Y-9257000D02*
X6569905Y-9247476D01*
X6569905Y-9247476D02*
X6560381Y-9228429D01*
X6560381Y-9228429D02*
X6560381Y-9171286D01*
X6560381Y-9171286D02*
X6569905Y-9152238D01*
X6569905Y-9152238D02*
X6579429Y-9142714D01*
X6579429Y-9142714D02*
X6598476Y-9133190D01*
X6598476Y-9133190D02*
X6627048Y-9133190D01*
X6627048Y-9133190D02*
X6646096Y-9142714D01*
X6646096Y-9142714D02*
X6655619Y-9152238D01*
X6655619Y-9152238D02*
X6665143Y-9171286D01*
X6665143Y-9171286D02*
X6665143Y-9228429D01*
X6665143Y-9228429D02*
X6655619Y-9247476D01*
X6655619Y-9247476D02*
X6646096Y-9257000D01*
X6646096Y-9257000D02*
X6627048Y-9266524D01*
X6627048Y-9266524D02*
X6598476Y-9266524D01*
X6779429Y-9266524D02*
X6760381Y-9257000D01*
X6760381Y-9257000D02*
X6750857Y-9237952D01*
X6750857Y-9237952D02*
X6750857Y-9066524D01*
X6931810Y-9257000D02*
X6912762Y-9266524D01*
X6912762Y-9266524D02*
X6874667Y-9266524D01*
X6874667Y-9266524D02*
X6855619Y-9257000D01*
X6855619Y-9257000D02*
X6846096Y-9237952D01*
X6846096Y-9237952D02*
X6846096Y-9161762D01*
X6846096Y-9161762D02*
X6855619Y-9142714D01*
X6855619Y-9142714D02*
X6874667Y-9133190D01*
X6874667Y-9133190D02*
X6912762Y-9133190D01*
X6912762Y-9133190D02*
X6931810Y-9142714D01*
X6931810Y-9142714D02*
X6941334Y-9161762D01*
X6941334Y-9161762D02*
X6941334Y-9180810D01*
X6941334Y-9180810D02*
X6846096Y-9199857D01*
X7017524Y-9257000D02*
X7036572Y-9266524D01*
X7036572Y-9266524D02*
X7074667Y-9266524D01*
X7074667Y-9266524D02*
X7093715Y-9257000D01*
X7093715Y-9257000D02*
X7103238Y-9237952D01*
X7103238Y-9237952D02*
X7103238Y-9228429D01*
X7103238Y-9228429D02*
X7093715Y-9209381D01*
X7093715Y-9209381D02*
X7074667Y-9199857D01*
X7074667Y-9199857D02*
X7046096Y-9199857D01*
X7046096Y-9199857D02*
X7027048Y-9190333D01*
X7027048Y-9190333D02*
X7017524Y-9171286D01*
X7017524Y-9171286D02*
X7017524Y-9161762D01*
X7017524Y-9161762D02*
X7027048Y-9142714D01*
X7027048Y-9142714D02*
X7046096Y-9133190D01*
X7046096Y-9133190D02*
X7074667Y-9133190D01*
X7074667Y-9133190D02*
X7093715Y-9142714D01*
X7169905Y-9342714D02*
X7179429Y-9333190D01*
X7179429Y-9333190D02*
X7198477Y-9304619D01*
X7198477Y-9304619D02*
X7208000Y-9285571D01*
X7208000Y-9285571D02*
X7217524Y-9257000D01*
X7217524Y-9257000D02*
X7227048Y-9209381D01*
X7227048Y-9209381D02*
X7227048Y-9171286D01*
X7227048Y-9171286D02*
X7217524Y-9123667D01*
X7217524Y-9123667D02*
X7208000Y-9095095D01*
X7208000Y-9095095D02*
X7198477Y-9076048D01*
X7198477Y-9076048D02*
X7179429Y-9047476D01*
X7179429Y-9047476D02*
X7169905Y-9037952D01*
D10*
X2393356Y-9473356D02*
X2393356Y-9402644D01*
X2322644Y-9402644D01*
X2322644Y-9473356D01*
X2393356Y-9473356D01*
D11*
X2760381Y-9530524D02*
X2646095Y-9530524D01*
X2703238Y-9530524D02*
X2703238Y-9330524D01*
X2703238Y-9330524D02*
X2684190Y-9359095D01*
X2684190Y-9359095D02*
X2665143Y-9378143D01*
X2665143Y-9378143D02*
X2646095Y-9387667D01*
X2846095Y-9511476D02*
X2855619Y-9521000D01*
X2855619Y-9521000D02*
X2846095Y-9530524D01*
X2846095Y-9530524D02*
X2836571Y-9521000D01*
X2836571Y-9521000D02*
X2846095Y-9511476D01*
X2846095Y-9511476D02*
X2846095Y-9530524D01*
X2979428Y-9330524D02*
X2998476Y-9330524D01*
X2998476Y-9330524D02*
X3017524Y-9340048D01*
X3017524Y-9340048D02*
X3027048Y-9349571D01*
X3027048Y-9349571D02*
X3036571Y-9368619D01*
X3036571Y-9368619D02*
X3046095Y-9406714D01*
X3046095Y-9406714D02*
X3046095Y-9454333D01*
X3046095Y-9454333D02*
X3036571Y-9492429D01*
X3036571Y-9492429D02*
X3027048Y-9511476D01*
X3027048Y-9511476D02*
X3017524Y-9521000D01*
X3017524Y-9521000D02*
X2998476Y-9530524D01*
X2998476Y-9530524D02*
X2979428Y-9530524D01*
X2979428Y-9530524D02*
X2960381Y-9521000D01*
X2960381Y-9521000D02*
X2950857Y-9511476D01*
X2950857Y-9511476D02*
X2941333Y-9492429D01*
X2941333Y-9492429D02*
X2931809Y-9454333D01*
X2931809Y-9454333D02*
X2931809Y-9406714D01*
X2931809Y-9406714D02*
X2941333Y-9368619D01*
X2941333Y-9368619D02*
X2950857Y-9349571D01*
X2950857Y-9349571D02*
X2960381Y-9340048D01*
X2960381Y-9340048D02*
X2979428Y-9330524D01*
X3169905Y-9330524D02*
X3188952Y-9330524D01*
X3188952Y-9330524D02*
X3208000Y-9340048D01*
X3208000Y-9340048D02*
X3217524Y-9349571D01*
X3217524Y-9349571D02*
X3227048Y-9368619D01*
X3227048Y-9368619D02*
X3236571Y-9406714D01*
X3236571Y-9406714D02*
X3236571Y-9454333D01*
X3236571Y-9454333D02*
X3227048Y-9492429D01*
X3227048Y-9492429D02*
X3217524Y-9511476D01*
X3217524Y-9511476D02*
X3208000Y-9521000D01*
X3208000Y-9521000D02*
X3188952Y-9530524D01*
X3188952Y-9530524D02*
X3169905Y-9530524D01*
X3169905Y-9530524D02*
X3150857Y-9521000D01*
X3150857Y-9521000D02*
X3141333Y-9511476D01*
X3141333Y-9511476D02*
X3131809Y-9492429D01*
X3131809Y-9492429D02*
X3122286Y-9454333D01*
X3122286Y-9454333D02*
X3122286Y-9406714D01*
X3122286Y-9406714D02*
X3131809Y-9368619D01*
X3131809Y-9368619D02*
X3141333Y-9349571D01*
X3141333Y-9349571D02*
X3150857Y-9340048D01*
X3150857Y-9340048D02*
X3169905Y-9330524D01*
X3360381Y-9330524D02*
X3379429Y-9330524D01*
X3379429Y-9330524D02*
X3398476Y-9340048D01*
X3398476Y-9340048D02*
X3408000Y-9349571D01*
X3408000Y-9349571D02*
X3417524Y-9368619D01*
X3417524Y-9368619D02*
X3427048Y-9406714D01*
X3427048Y-9406714D02*
X3427048Y-9454333D01*
X3427048Y-9454333D02*
X3417524Y-9492429D01*
X3417524Y-9492429D02*
X3408000Y-9511476D01*
X3408000Y-9511476D02*
X3398476Y-9521000D01*
X3398476Y-9521000D02*
X3379429Y-9530524D01*
X3379429Y-9530524D02*
X3360381Y-9530524D01*
X3360381Y-9530524D02*
X3341333Y-9521000D01*
X3341333Y-9521000D02*
X3331809Y-9511476D01*
X3331809Y-9511476D02*
X3322286Y-9492429D01*
X3322286Y-9492429D02*
X3312762Y-9454333D01*
X3312762Y-9454333D02*
X3312762Y-9406714D01*
X3312762Y-9406714D02*
X3322286Y-9368619D01*
X3322286Y-9368619D02*
X3331809Y-9349571D01*
X3331809Y-9349571D02*
X3341333Y-9340048D01*
X3341333Y-9340048D02*
X3360381Y-9330524D01*
X3512762Y-9530524D02*
X3512762Y-9397190D01*
X3512762Y-9416238D02*
X3522286Y-9406714D01*
X3522286Y-9406714D02*
X3541333Y-9397190D01*
X3541333Y-9397190D02*
X3569905Y-9397190D01*
X3569905Y-9397190D02*
X3588952Y-9406714D01*
X3588952Y-9406714D02*
X3598476Y-9425762D01*
X3598476Y-9425762D02*
X3598476Y-9530524D01*
X3598476Y-9425762D02*
X3608000Y-9406714D01*
X3608000Y-9406714D02*
X3627048Y-9397190D01*
X3627048Y-9397190D02*
X3655619Y-9397190D01*
X3655619Y-9397190D02*
X3674667Y-9406714D01*
X3674667Y-9406714D02*
X3684190Y-9425762D01*
X3684190Y-9425762D02*
X3684190Y-9530524D01*
X3779429Y-9530524D02*
X3779429Y-9397190D01*
X3779429Y-9416238D02*
X3788952Y-9406714D01*
X3788952Y-9406714D02*
X3808000Y-9397190D01*
X3808000Y-9397190D02*
X3836571Y-9397190D01*
X3836571Y-9397190D02*
X3855619Y-9406714D01*
X3855619Y-9406714D02*
X3865143Y-9425762D01*
X3865143Y-9425762D02*
X3865143Y-9530524D01*
X3865143Y-9425762D02*
X3874667Y-9406714D01*
X3874667Y-9406714D02*
X3893714Y-9397190D01*
X3893714Y-9397190D02*
X3922286Y-9397190D01*
X3922286Y-9397190D02*
X3941333Y-9406714D01*
X3941333Y-9406714D02*
X3950857Y-9425762D01*
X3950857Y-9425762D02*
X3950857Y-9530524D01*
X4341333Y-9321000D02*
X4169905Y-9578143D01*
X4598476Y-9330524D02*
X4617524Y-9330524D01*
X4617524Y-9330524D02*
X4636572Y-9340048D01*
X4636572Y-9340048D02*
X4646095Y-9349571D01*
X4646095Y-9349571D02*
X4655619Y-9368619D01*
X4655619Y-9368619D02*
X4665143Y-9406714D01*
X4665143Y-9406714D02*
X4665143Y-9454333D01*
X4665143Y-9454333D02*
X4655619Y-9492429D01*
X4655619Y-9492429D02*
X4646095Y-9511476D01*
X4646095Y-9511476D02*
X4636572Y-9521000D01*
X4636572Y-9521000D02*
X4617524Y-9530524D01*
X4617524Y-9530524D02*
X4598476Y-9530524D01*
X4598476Y-9530524D02*
X4579429Y-9521000D01*
X4579429Y-9521000D02*
X4569905Y-9511476D01*
X4569905Y-9511476D02*
X4560381Y-9492429D01*
X4560381Y-9492429D02*
X4550857Y-9454333D01*
X4550857Y-9454333D02*
X4550857Y-9406714D01*
X4550857Y-9406714D02*
X4560381Y-9368619D01*
X4560381Y-9368619D02*
X4569905Y-9349571D01*
X4569905Y-9349571D02*
X4579429Y-9340048D01*
X4579429Y-9340048D02*
X4598476Y-9330524D01*
X4750857Y-9511476D02*
X4760381Y-9521000D01*
X4760381Y-9521000D02*
X4750857Y-9530524D01*
X4750857Y-9530524D02*
X4741334Y-9521000D01*
X4741334Y-9521000D02*
X4750857Y-9511476D01*
X4750857Y-9511476D02*
X4750857Y-9530524D01*
X4884191Y-9330524D02*
X4903238Y-9330524D01*
X4903238Y-9330524D02*
X4922286Y-9340048D01*
X4922286Y-9340048D02*
X4931810Y-9349571D01*
X4931810Y-9349571D02*
X4941334Y-9368619D01*
X4941334Y-9368619D02*
X4950857Y-9406714D01*
X4950857Y-9406714D02*
X4950857Y-9454333D01*
X4950857Y-9454333D02*
X4941334Y-9492429D01*
X4941334Y-9492429D02*
X4931810Y-9511476D01*
X4931810Y-9511476D02*
X4922286Y-9521000D01*
X4922286Y-9521000D02*
X4903238Y-9530524D01*
X4903238Y-9530524D02*
X4884191Y-9530524D01*
X4884191Y-9530524D02*
X4865143Y-9521000D01*
X4865143Y-9521000D02*
X4855619Y-9511476D01*
X4855619Y-9511476D02*
X4846095Y-9492429D01*
X4846095Y-9492429D02*
X4836572Y-9454333D01*
X4836572Y-9454333D02*
X4836572Y-9406714D01*
X4836572Y-9406714D02*
X4846095Y-9368619D01*
X4846095Y-9368619D02*
X4855619Y-9349571D01*
X4855619Y-9349571D02*
X4865143Y-9340048D01*
X4865143Y-9340048D02*
X4884191Y-9330524D01*
X5017524Y-9330524D02*
X5141334Y-9330524D01*
X5141334Y-9330524D02*
X5074667Y-9406714D01*
X5074667Y-9406714D02*
X5103238Y-9406714D01*
X5103238Y-9406714D02*
X5122286Y-9416238D01*
X5122286Y-9416238D02*
X5131810Y-9425762D01*
X5131810Y-9425762D02*
X5141334Y-9444810D01*
X5141334Y-9444810D02*
X5141334Y-9492429D01*
X5141334Y-9492429D02*
X5131810Y-9511476D01*
X5131810Y-9511476D02*
X5122286Y-9521000D01*
X5122286Y-9521000D02*
X5103238Y-9530524D01*
X5103238Y-9530524D02*
X5046095Y-9530524D01*
X5046095Y-9530524D02*
X5027048Y-9521000D01*
X5027048Y-9521000D02*
X5017524Y-9511476D01*
X5236572Y-9530524D02*
X5274667Y-9530524D01*
X5274667Y-9530524D02*
X5293715Y-9521000D01*
X5293715Y-9521000D02*
X5303238Y-9511476D01*
X5303238Y-9511476D02*
X5322286Y-9482905D01*
X5322286Y-9482905D02*
X5331810Y-9444810D01*
X5331810Y-9444810D02*
X5331810Y-9368619D01*
X5331810Y-9368619D02*
X5322286Y-9349571D01*
X5322286Y-9349571D02*
X5312762Y-9340048D01*
X5312762Y-9340048D02*
X5293715Y-9330524D01*
X5293715Y-9330524D02*
X5255619Y-9330524D01*
X5255619Y-9330524D02*
X5236572Y-9340048D01*
X5236572Y-9340048D02*
X5227048Y-9349571D01*
X5227048Y-9349571D02*
X5217524Y-9368619D01*
X5217524Y-9368619D02*
X5217524Y-9416238D01*
X5217524Y-9416238D02*
X5227048Y-9435286D01*
X5227048Y-9435286D02*
X5236572Y-9444810D01*
X5236572Y-9444810D02*
X5255619Y-9454333D01*
X5255619Y-9454333D02*
X5293715Y-9454333D01*
X5293715Y-9454333D02*
X5312762Y-9444810D01*
X5312762Y-9444810D02*
X5322286Y-9435286D01*
X5322286Y-9435286D02*
X5331810Y-9416238D01*
X5503238Y-9397190D02*
X5503238Y-9530524D01*
X5455619Y-9321000D02*
X5408000Y-9463857D01*
X5408000Y-9463857D02*
X5531810Y-9463857D01*
X5598476Y-9330524D02*
X5598476Y-9368619D01*
X5674667Y-9330524D02*
X5674667Y-9368619D01*
X5969905Y-9606714D02*
X5960381Y-9597190D01*
X5960381Y-9597190D02*
X5941334Y-9568619D01*
X5941334Y-9568619D02*
X5931810Y-9549571D01*
X5931810Y-9549571D02*
X5922286Y-9521000D01*
X5922286Y-9521000D02*
X5912762Y-9473381D01*
X5912762Y-9473381D02*
X5912762Y-9435286D01*
X5912762Y-9435286D02*
X5922286Y-9387667D01*
X5922286Y-9387667D02*
X5931810Y-9359095D01*
X5931810Y-9359095D02*
X5941334Y-9340048D01*
X5941334Y-9340048D02*
X5960381Y-9311476D01*
X5960381Y-9311476D02*
X5969905Y-9301952D01*
X6027048Y-9330524D02*
X6150857Y-9330524D01*
X6150857Y-9330524D02*
X6084191Y-9406714D01*
X6084191Y-9406714D02*
X6112762Y-9406714D01*
X6112762Y-9406714D02*
X6131810Y-9416238D01*
X6131810Y-9416238D02*
X6141334Y-9425762D01*
X6141334Y-9425762D02*
X6150857Y-9444810D01*
X6150857Y-9444810D02*
X6150857Y-9492429D01*
X6150857Y-9492429D02*
X6141334Y-9511476D01*
X6141334Y-9511476D02*
X6131810Y-9521000D01*
X6131810Y-9521000D02*
X6112762Y-9530524D01*
X6112762Y-9530524D02*
X6055619Y-9530524D01*
X6055619Y-9530524D02*
X6036572Y-9521000D01*
X6036572Y-9521000D02*
X6027048Y-9511476D01*
X6341334Y-9530524D02*
X6227048Y-9530524D01*
X6284191Y-9530524D02*
X6284191Y-9330524D01*
X6284191Y-9330524D02*
X6265143Y-9359095D01*
X6265143Y-9359095D02*
X6246095Y-9378143D01*
X6246095Y-9378143D02*
X6227048Y-9387667D01*
X6579429Y-9530524D02*
X6579429Y-9330524D01*
X6665143Y-9530524D02*
X6665143Y-9425762D01*
X6665143Y-9425762D02*
X6655619Y-9406714D01*
X6655619Y-9406714D02*
X6636572Y-9397190D01*
X6636572Y-9397190D02*
X6608000Y-9397190D01*
X6608000Y-9397190D02*
X6588953Y-9406714D01*
X6588953Y-9406714D02*
X6579429Y-9416238D01*
X6788953Y-9530524D02*
X6769905Y-9521000D01*
X6769905Y-9521000D02*
X6760381Y-9511476D01*
X6760381Y-9511476D02*
X6750857Y-9492429D01*
X6750857Y-9492429D02*
X6750857Y-9435286D01*
X6750857Y-9435286D02*
X6760381Y-9416238D01*
X6760381Y-9416238D02*
X6769905Y-9406714D01*
X6769905Y-9406714D02*
X6788953Y-9397190D01*
X6788953Y-9397190D02*
X6817524Y-9397190D01*
X6817524Y-9397190D02*
X6836572Y-9406714D01*
X6836572Y-9406714D02*
X6846096Y-9416238D01*
X6846096Y-9416238D02*
X6855619Y-9435286D01*
X6855619Y-9435286D02*
X6855619Y-9492429D01*
X6855619Y-9492429D02*
X6846096Y-9511476D01*
X6846096Y-9511476D02*
X6836572Y-9521000D01*
X6836572Y-9521000D02*
X6817524Y-9530524D01*
X6817524Y-9530524D02*
X6788953Y-9530524D01*
X6969905Y-9530524D02*
X6950857Y-9521000D01*
X6950857Y-9521000D02*
X6941334Y-9501952D01*
X6941334Y-9501952D02*
X6941334Y-9330524D01*
X7122286Y-9521000D02*
X7103238Y-9530524D01*
X7103238Y-9530524D02*
X7065143Y-9530524D01*
X7065143Y-9530524D02*
X7046096Y-9521000D01*
X7046096Y-9521000D02*
X7036572Y-9501952D01*
X7036572Y-9501952D02*
X7036572Y-9425762D01*
X7036572Y-9425762D02*
X7046096Y-9406714D01*
X7046096Y-9406714D02*
X7065143Y-9397190D01*
X7065143Y-9397190D02*
X7103238Y-9397190D01*
X7103238Y-9397190D02*
X7122286Y-9406714D01*
X7122286Y-9406714D02*
X7131810Y-9425762D01*
X7131810Y-9425762D02*
X7131810Y-9444810D01*
X7131810Y-9444810D02*
X7036572Y-9463857D01*
X7208000Y-9521000D02*
X7227048Y-9530524D01*
X7227048Y-9530524D02*
X7265143Y-9530524D01*
X7265143Y-9530524D02*
X7284191Y-9521000D01*
X7284191Y-9521000D02*
X7293715Y-9501952D01*
X7293715Y-9501952D02*
X7293715Y-9492429D01*
X7293715Y-9492429D02*
X7284191Y-9473381D01*
X7284191Y-9473381D02*
X7265143Y-9463857D01*
X7265143Y-9463857D02*
X7236572Y-9463857D01*
X7236572Y-9463857D02*
X7217524Y-9454333D01*
X7217524Y-9454333D02*
X7208000Y-9435286D01*
X7208000Y-9435286D02*
X7208000Y-9425762D01*
X7208000Y-9425762D02*
X7217524Y-9406714D01*
X7217524Y-9406714D02*
X7236572Y-9397190D01*
X7236572Y-9397190D02*
X7265143Y-9397190D01*
X7265143Y-9397190D02*
X7284191Y-9406714D01*
X7360381Y-9606714D02*
X7369905Y-9597190D01*
X7369905Y-9597190D02*
X7388953Y-9568619D01*
X7388953Y-9568619D02*
X7398477Y-9549571D01*
X7398477Y-9549571D02*
X7408000Y-9521000D01*
X7408000Y-9521000D02*
X7417524Y-9473381D01*
X7417524Y-9473381D02*
X7417524Y-9435286D01*
X7417524Y-9435286D02*
X7408000Y-9387667D01*
X7408000Y-9387667D02*
X7398477Y-9359095D01*
X7398477Y-9359095D02*
X7388953Y-9340048D01*
X7388953Y-9340048D02*
X7369905Y-9311476D01*
X7369905Y-9311476D02*
X7360381Y-9301952D01*
M02*
