%TF.GenerationSoftware,KiCad,Pcbnew,7.0.1*%
%TF.CreationDate,2023-04-28T23:06:09+02:00*%
%TF.ProjectId,test_ADC_and_CurrentSensors,74657374-5f41-4444-935f-616e645f4375,rev?*%
%TF.SameCoordinates,Original*%
%TF.FileFunction,Legend,Top*%
%TF.FilePolarity,Positive*%
%FSLAX46Y46*%
G04 Gerber Fmt 4.6, Leading zero omitted, Abs format (unit mm)*
G04 Created by KiCad (PCBNEW 7.0.1) date 2023-04-28 23:06:09*
%MOMM*%
%LPD*%
G01*
G04 APERTURE LIST*
G04 Aperture macros list*
%AMRoundRect*
0 Rectangle with rounded corners*
0 $1 Rounding radius*
0 $2 $3 $4 $5 $6 $7 $8 $9 X,Y pos of 4 corners*
0 Add a 4 corners polygon primitive as box body*
4,1,4,$2,$3,$4,$5,$6,$7,$8,$9,$2,$3,0*
0 Add four circle primitives for the rounded corners*
1,1,$1+$1,$2,$3*
1,1,$1+$1,$4,$5*
1,1,$1+$1,$6,$7*
1,1,$1+$1,$8,$9*
0 Add four rect primitives between the rounded corners*
20,1,$1+$1,$2,$3,$4,$5,0*
20,1,$1+$1,$4,$5,$6,$7,0*
20,1,$1+$1,$6,$7,$8,$9,0*
20,1,$1+$1,$8,$9,$2,$3,0*%
G04 Aperture macros list end*
%ADD10C,0.300000*%
%ADD11C,0.150000*%
%ADD12C,0.120000*%
%ADD13RoundRect,0.250000X0.337500X0.475000X-0.337500X0.475000X-0.337500X-0.475000X0.337500X-0.475000X0*%
%ADD14R,1.700000X1.700000*%
%ADD15O,1.700000X1.700000*%
%ADD16RoundRect,0.250000X-0.475000X0.337500X-0.475000X-0.337500X0.475000X-0.337500X0.475000X0.337500X0*%
%ADD17C,1.400000*%
%ADD18O,1.400000X1.400000*%
G04 APERTURE END LIST*
D10*
X33430714Y-70008857D02*
X33502142Y-69794571D01*
X33502142Y-69794571D02*
X33573571Y-69723142D01*
X33573571Y-69723142D02*
X33716428Y-69651714D01*
X33716428Y-69651714D02*
X33930714Y-69651714D01*
X33930714Y-69651714D02*
X34073571Y-69723142D01*
X34073571Y-69723142D02*
X34145000Y-69794571D01*
X34145000Y-69794571D02*
X34216428Y-69937428D01*
X34216428Y-69937428D02*
X34216428Y-70508857D01*
X34216428Y-70508857D02*
X32716428Y-70508857D01*
X32716428Y-70508857D02*
X32716428Y-70008857D01*
X32716428Y-70008857D02*
X32787857Y-69866000D01*
X32787857Y-69866000D02*
X32859285Y-69794571D01*
X32859285Y-69794571D02*
X33002142Y-69723142D01*
X33002142Y-69723142D02*
X33145000Y-69723142D01*
X33145000Y-69723142D02*
X33287857Y-69794571D01*
X33287857Y-69794571D02*
X33359285Y-69866000D01*
X33359285Y-69866000D02*
X33430714Y-70008857D01*
X33430714Y-70008857D02*
X33430714Y-70508857D01*
X33787857Y-69080285D02*
X33787857Y-68366000D01*
X34216428Y-69223142D02*
X32716428Y-68723142D01*
X32716428Y-68723142D02*
X34216428Y-68223142D01*
X32716428Y-67937428D02*
X32716428Y-67080286D01*
X34216428Y-67508857D02*
X32716428Y-67508857D01*
X32716428Y-66794571D02*
X32716428Y-65937429D01*
X34216428Y-66366000D02*
X32716428Y-66366000D01*
X34359285Y-65794572D02*
X34359285Y-64651714D01*
X32716428Y-64508857D02*
X34216428Y-64008857D01*
X34216428Y-64008857D02*
X32716428Y-63508857D01*
X34359285Y-63366001D02*
X34359285Y-62223143D01*
X34216428Y-61008858D02*
X33502142Y-61508858D01*
X34216428Y-61866001D02*
X32716428Y-61866001D01*
X32716428Y-61866001D02*
X32716428Y-61294572D01*
X32716428Y-61294572D02*
X32787857Y-61151715D01*
X32787857Y-61151715D02*
X32859285Y-61080286D01*
X32859285Y-61080286D02*
X33002142Y-61008858D01*
X33002142Y-61008858D02*
X33216428Y-61008858D01*
X33216428Y-61008858D02*
X33359285Y-61080286D01*
X33359285Y-61080286D02*
X33430714Y-61151715D01*
X33430714Y-61151715D02*
X33502142Y-61294572D01*
X33502142Y-61294572D02*
X33502142Y-61866001D01*
X33430714Y-60366001D02*
X33430714Y-59866001D01*
X34216428Y-59651715D02*
X34216428Y-60366001D01*
X34216428Y-60366001D02*
X32716428Y-60366001D01*
X32716428Y-60366001D02*
X32716428Y-59651715D01*
X33430714Y-58508858D02*
X33430714Y-59008858D01*
X34216428Y-59008858D02*
X32716428Y-59008858D01*
X32716428Y-59008858D02*
X32716428Y-58294572D01*
X36575000Y-70580285D02*
X36646428Y-70366000D01*
X36646428Y-70366000D02*
X36646428Y-70008857D01*
X36646428Y-70008857D02*
X36575000Y-69866000D01*
X36575000Y-69866000D02*
X36503571Y-69794571D01*
X36503571Y-69794571D02*
X36360714Y-69723142D01*
X36360714Y-69723142D02*
X36217857Y-69723142D01*
X36217857Y-69723142D02*
X36075000Y-69794571D01*
X36075000Y-69794571D02*
X36003571Y-69866000D01*
X36003571Y-69866000D02*
X35932142Y-70008857D01*
X35932142Y-70008857D02*
X35860714Y-70294571D01*
X35860714Y-70294571D02*
X35789285Y-70437428D01*
X35789285Y-70437428D02*
X35717857Y-70508857D01*
X35717857Y-70508857D02*
X35575000Y-70580285D01*
X35575000Y-70580285D02*
X35432142Y-70580285D01*
X35432142Y-70580285D02*
X35289285Y-70508857D01*
X35289285Y-70508857D02*
X35217857Y-70437428D01*
X35217857Y-70437428D02*
X35146428Y-70294571D01*
X35146428Y-70294571D02*
X35146428Y-69937428D01*
X35146428Y-69937428D02*
X35217857Y-69723142D01*
X35146428Y-69294571D02*
X35146428Y-68437429D01*
X36646428Y-68866000D02*
X35146428Y-68866000D01*
X36646428Y-67937429D02*
X35146428Y-67937429D01*
X35146428Y-67937429D02*
X36217857Y-67437429D01*
X36217857Y-67437429D02*
X35146428Y-66937429D01*
X35146428Y-66937429D02*
X36646428Y-66937429D01*
X36789285Y-66580286D02*
X36789285Y-65437428D01*
X36217857Y-65151714D02*
X36217857Y-64437429D01*
X36646428Y-65294571D02*
X35146428Y-64794571D01*
X35146428Y-64794571D02*
X36646428Y-64294571D01*
X36646428Y-63794572D02*
X35146428Y-63794572D01*
X35146428Y-63794572D02*
X35146428Y-63437429D01*
X35146428Y-63437429D02*
X35217857Y-63223143D01*
X35217857Y-63223143D02*
X35360714Y-63080286D01*
X35360714Y-63080286D02*
X35503571Y-63008857D01*
X35503571Y-63008857D02*
X35789285Y-62937429D01*
X35789285Y-62937429D02*
X36003571Y-62937429D01*
X36003571Y-62937429D02*
X36289285Y-63008857D01*
X36289285Y-63008857D02*
X36432142Y-63080286D01*
X36432142Y-63080286D02*
X36575000Y-63223143D01*
X36575000Y-63223143D02*
X36646428Y-63437429D01*
X36646428Y-63437429D02*
X36646428Y-63794572D01*
X36503571Y-61437429D02*
X36575000Y-61508857D01*
X36575000Y-61508857D02*
X36646428Y-61723143D01*
X36646428Y-61723143D02*
X36646428Y-61866000D01*
X36646428Y-61866000D02*
X36575000Y-62080286D01*
X36575000Y-62080286D02*
X36432142Y-62223143D01*
X36432142Y-62223143D02*
X36289285Y-62294572D01*
X36289285Y-62294572D02*
X36003571Y-62366000D01*
X36003571Y-62366000D02*
X35789285Y-62366000D01*
X35789285Y-62366000D02*
X35503571Y-62294572D01*
X35503571Y-62294572D02*
X35360714Y-62223143D01*
X35360714Y-62223143D02*
X35217857Y-62080286D01*
X35217857Y-62080286D02*
X35146428Y-61866000D01*
X35146428Y-61866000D02*
X35146428Y-61723143D01*
X35146428Y-61723143D02*
X35217857Y-61508857D01*
X35217857Y-61508857D02*
X35289285Y-61437429D01*
X69815000Y-68040285D02*
X69886428Y-67826000D01*
X69886428Y-67826000D02*
X69886428Y-67468857D01*
X69886428Y-67468857D02*
X69815000Y-67326000D01*
X69815000Y-67326000D02*
X69743571Y-67254571D01*
X69743571Y-67254571D02*
X69600714Y-67183142D01*
X69600714Y-67183142D02*
X69457857Y-67183142D01*
X69457857Y-67183142D02*
X69315000Y-67254571D01*
X69315000Y-67254571D02*
X69243571Y-67326000D01*
X69243571Y-67326000D02*
X69172142Y-67468857D01*
X69172142Y-67468857D02*
X69100714Y-67754571D01*
X69100714Y-67754571D02*
X69029285Y-67897428D01*
X69029285Y-67897428D02*
X68957857Y-67968857D01*
X68957857Y-67968857D02*
X68815000Y-68040285D01*
X68815000Y-68040285D02*
X68672142Y-68040285D01*
X68672142Y-68040285D02*
X68529285Y-67968857D01*
X68529285Y-67968857D02*
X68457857Y-67897428D01*
X68457857Y-67897428D02*
X68386428Y-67754571D01*
X68386428Y-67754571D02*
X68386428Y-67397428D01*
X68386428Y-67397428D02*
X68457857Y-67183142D01*
X69886428Y-65754571D02*
X69886428Y-66611714D01*
X69886428Y-66183143D02*
X68386428Y-66183143D01*
X68386428Y-66183143D02*
X68600714Y-66326000D01*
X68600714Y-66326000D02*
X68743571Y-66468857D01*
X68743571Y-66468857D02*
X68815000Y-66611714D01*
X72245000Y-68040285D02*
X72316428Y-67826000D01*
X72316428Y-67826000D02*
X72316428Y-67468857D01*
X72316428Y-67468857D02*
X72245000Y-67326000D01*
X72245000Y-67326000D02*
X72173571Y-67254571D01*
X72173571Y-67254571D02*
X72030714Y-67183142D01*
X72030714Y-67183142D02*
X71887857Y-67183142D01*
X71887857Y-67183142D02*
X71745000Y-67254571D01*
X71745000Y-67254571D02*
X71673571Y-67326000D01*
X71673571Y-67326000D02*
X71602142Y-67468857D01*
X71602142Y-67468857D02*
X71530714Y-67754571D01*
X71530714Y-67754571D02*
X71459285Y-67897428D01*
X71459285Y-67897428D02*
X71387857Y-67968857D01*
X71387857Y-67968857D02*
X71245000Y-68040285D01*
X71245000Y-68040285D02*
X71102142Y-68040285D01*
X71102142Y-68040285D02*
X70959285Y-67968857D01*
X70959285Y-67968857D02*
X70887857Y-67897428D01*
X70887857Y-67897428D02*
X70816428Y-67754571D01*
X70816428Y-67754571D02*
X70816428Y-67397428D01*
X70816428Y-67397428D02*
X70887857Y-67183142D01*
X70959285Y-66611714D02*
X70887857Y-66540286D01*
X70887857Y-66540286D02*
X70816428Y-66397429D01*
X70816428Y-66397429D02*
X70816428Y-66040286D01*
X70816428Y-66040286D02*
X70887857Y-65897429D01*
X70887857Y-65897429D02*
X70959285Y-65826000D01*
X70959285Y-65826000D02*
X71102142Y-65754571D01*
X71102142Y-65754571D02*
X71245000Y-65754571D01*
X71245000Y-65754571D02*
X71459285Y-65826000D01*
X71459285Y-65826000D02*
X72316428Y-66683143D01*
X72316428Y-66683143D02*
X72316428Y-65754571D01*
X74675000Y-68040285D02*
X74746428Y-67826000D01*
X74746428Y-67826000D02*
X74746428Y-67468857D01*
X74746428Y-67468857D02*
X74675000Y-67326000D01*
X74675000Y-67326000D02*
X74603571Y-67254571D01*
X74603571Y-67254571D02*
X74460714Y-67183142D01*
X74460714Y-67183142D02*
X74317857Y-67183142D01*
X74317857Y-67183142D02*
X74175000Y-67254571D01*
X74175000Y-67254571D02*
X74103571Y-67326000D01*
X74103571Y-67326000D02*
X74032142Y-67468857D01*
X74032142Y-67468857D02*
X73960714Y-67754571D01*
X73960714Y-67754571D02*
X73889285Y-67897428D01*
X73889285Y-67897428D02*
X73817857Y-67968857D01*
X73817857Y-67968857D02*
X73675000Y-68040285D01*
X73675000Y-68040285D02*
X73532142Y-68040285D01*
X73532142Y-68040285D02*
X73389285Y-67968857D01*
X73389285Y-67968857D02*
X73317857Y-67897428D01*
X73317857Y-67897428D02*
X73246428Y-67754571D01*
X73246428Y-67754571D02*
X73246428Y-67397428D01*
X73246428Y-67397428D02*
X73317857Y-67183142D01*
X73246428Y-66683143D02*
X73246428Y-65754571D01*
X73246428Y-65754571D02*
X73817857Y-66254571D01*
X73817857Y-66254571D02*
X73817857Y-66040286D01*
X73817857Y-66040286D02*
X73889285Y-65897429D01*
X73889285Y-65897429D02*
X73960714Y-65826000D01*
X73960714Y-65826000D02*
X74103571Y-65754571D01*
X74103571Y-65754571D02*
X74460714Y-65754571D01*
X74460714Y-65754571D02*
X74603571Y-65826000D01*
X74603571Y-65826000D02*
X74675000Y-65897429D01*
X74675000Y-65897429D02*
X74746428Y-66040286D01*
X74746428Y-66040286D02*
X74746428Y-66468857D01*
X74746428Y-66468857D02*
X74675000Y-66611714D01*
X74675000Y-66611714D02*
X74603571Y-66683143D01*
X59031142Y-73188428D02*
X59031142Y-71688428D01*
X59031142Y-71688428D02*
X59602571Y-71688428D01*
X59602571Y-71688428D02*
X59745428Y-71759857D01*
X59745428Y-71759857D02*
X59816857Y-71831285D01*
X59816857Y-71831285D02*
X59888285Y-71974142D01*
X59888285Y-71974142D02*
X59888285Y-72188428D01*
X59888285Y-72188428D02*
X59816857Y-72331285D01*
X59816857Y-72331285D02*
X59745428Y-72402714D01*
X59745428Y-72402714D02*
X59602571Y-72474142D01*
X59602571Y-72474142D02*
X59031142Y-72474142D01*
X60388285Y-71688428D02*
X60745428Y-73188428D01*
X60745428Y-73188428D02*
X61031142Y-72117000D01*
X61031142Y-72117000D02*
X61316857Y-73188428D01*
X61316857Y-73188428D02*
X61674000Y-71688428D01*
X62245428Y-73188428D02*
X62245428Y-71688428D01*
X62245428Y-71688428D02*
X62745428Y-72759857D01*
X62745428Y-72759857D02*
X63245428Y-71688428D01*
X63245428Y-71688428D02*
X63245428Y-73188428D01*
X58816857Y-74118428D02*
X59316857Y-75618428D01*
X59316857Y-75618428D02*
X59816857Y-74118428D01*
X59959714Y-75761285D02*
X61102571Y-75761285D01*
X62102571Y-75618428D02*
X62102571Y-74118428D01*
X62102571Y-75547000D02*
X61959713Y-75618428D01*
X61959713Y-75618428D02*
X61673999Y-75618428D01*
X61673999Y-75618428D02*
X61531142Y-75547000D01*
X61531142Y-75547000D02*
X61459713Y-75475571D01*
X61459713Y-75475571D02*
X61388285Y-75332714D01*
X61388285Y-75332714D02*
X61388285Y-74904142D01*
X61388285Y-74904142D02*
X61459713Y-74761285D01*
X61459713Y-74761285D02*
X61531142Y-74689857D01*
X61531142Y-74689857D02*
X61673999Y-74618428D01*
X61673999Y-74618428D02*
X61959713Y-74618428D01*
X61959713Y-74618428D02*
X62102571Y-74689857D01*
X62816856Y-75618428D02*
X62816856Y-74618428D01*
X62816856Y-74904142D02*
X62888285Y-74761285D01*
X62888285Y-74761285D02*
X62959714Y-74689857D01*
X62959714Y-74689857D02*
X63102571Y-74618428D01*
X63102571Y-74618428D02*
X63245428Y-74618428D01*
X63745427Y-75618428D02*
X63745427Y-74618428D01*
X63745427Y-74118428D02*
X63673999Y-74189857D01*
X63673999Y-74189857D02*
X63745427Y-74261285D01*
X63745427Y-74261285D02*
X63816856Y-74189857D01*
X63816856Y-74189857D02*
X63745427Y-74118428D01*
X63745427Y-74118428D02*
X63745427Y-74261285D01*
X64316856Y-74618428D02*
X64673999Y-75618428D01*
X64673999Y-75618428D02*
X65031142Y-74618428D01*
X66173999Y-75547000D02*
X66031142Y-75618428D01*
X66031142Y-75618428D02*
X65745428Y-75618428D01*
X65745428Y-75618428D02*
X65602570Y-75547000D01*
X65602570Y-75547000D02*
X65531142Y-75404142D01*
X65531142Y-75404142D02*
X65531142Y-74832714D01*
X65531142Y-74832714D02*
X65602570Y-74689857D01*
X65602570Y-74689857D02*
X65745428Y-74618428D01*
X65745428Y-74618428D02*
X66031142Y-74618428D01*
X66031142Y-74618428D02*
X66173999Y-74689857D01*
X66173999Y-74689857D02*
X66245428Y-74832714D01*
X66245428Y-74832714D02*
X66245428Y-74975571D01*
X66245428Y-74975571D02*
X65531142Y-75118428D01*
X59816857Y-76619857D02*
X59674000Y-76548428D01*
X59674000Y-76548428D02*
X59459714Y-76548428D01*
X59459714Y-76548428D02*
X59245428Y-76619857D01*
X59245428Y-76619857D02*
X59102571Y-76762714D01*
X59102571Y-76762714D02*
X59031142Y-76905571D01*
X59031142Y-76905571D02*
X58959714Y-77191285D01*
X58959714Y-77191285D02*
X58959714Y-77405571D01*
X58959714Y-77405571D02*
X59031142Y-77691285D01*
X59031142Y-77691285D02*
X59102571Y-77834142D01*
X59102571Y-77834142D02*
X59245428Y-77977000D01*
X59245428Y-77977000D02*
X59459714Y-78048428D01*
X59459714Y-78048428D02*
X59602571Y-78048428D01*
X59602571Y-78048428D02*
X59816857Y-77977000D01*
X59816857Y-77977000D02*
X59888285Y-77905571D01*
X59888285Y-77905571D02*
X59888285Y-77405571D01*
X59888285Y-77405571D02*
X59602571Y-77405571D01*
X60531142Y-78048428D02*
X60531142Y-76548428D01*
X60531142Y-76548428D02*
X61388285Y-78048428D01*
X61388285Y-78048428D02*
X61388285Y-76548428D01*
X62102571Y-78048428D02*
X62102571Y-76548428D01*
X62102571Y-76548428D02*
X62459714Y-76548428D01*
X62459714Y-76548428D02*
X62674000Y-76619857D01*
X62674000Y-76619857D02*
X62816857Y-76762714D01*
X62816857Y-76762714D02*
X62888286Y-76905571D01*
X62888286Y-76905571D02*
X62959714Y-77191285D01*
X62959714Y-77191285D02*
X62959714Y-77405571D01*
X62959714Y-77405571D02*
X62888286Y-77691285D01*
X62888286Y-77691285D02*
X62816857Y-77834142D01*
X62816857Y-77834142D02*
X62674000Y-77977000D01*
X62674000Y-77977000D02*
X62459714Y-78048428D01*
X62459714Y-78048428D02*
X62102571Y-78048428D01*
X40082428Y-70723142D02*
X41582428Y-70223142D01*
X41582428Y-70223142D02*
X40082428Y-69723142D01*
X41439571Y-68366000D02*
X41511000Y-68437428D01*
X41511000Y-68437428D02*
X41582428Y-68651714D01*
X41582428Y-68651714D02*
X41582428Y-68794571D01*
X41582428Y-68794571D02*
X41511000Y-69008857D01*
X41511000Y-69008857D02*
X41368142Y-69151714D01*
X41368142Y-69151714D02*
X41225285Y-69223143D01*
X41225285Y-69223143D02*
X40939571Y-69294571D01*
X40939571Y-69294571D02*
X40725285Y-69294571D01*
X40725285Y-69294571D02*
X40439571Y-69223143D01*
X40439571Y-69223143D02*
X40296714Y-69151714D01*
X40296714Y-69151714D02*
X40153857Y-69008857D01*
X40153857Y-69008857D02*
X40082428Y-68794571D01*
X40082428Y-68794571D02*
X40082428Y-68651714D01*
X40082428Y-68651714D02*
X40153857Y-68437428D01*
X40153857Y-68437428D02*
X40225285Y-68366000D01*
X41439571Y-66866000D02*
X41511000Y-66937428D01*
X41511000Y-66937428D02*
X41582428Y-67151714D01*
X41582428Y-67151714D02*
X41582428Y-67294571D01*
X41582428Y-67294571D02*
X41511000Y-67508857D01*
X41511000Y-67508857D02*
X41368142Y-67651714D01*
X41368142Y-67651714D02*
X41225285Y-67723143D01*
X41225285Y-67723143D02*
X40939571Y-67794571D01*
X40939571Y-67794571D02*
X40725285Y-67794571D01*
X40725285Y-67794571D02*
X40439571Y-67723143D01*
X40439571Y-67723143D02*
X40296714Y-67651714D01*
X40296714Y-67651714D02*
X40153857Y-67508857D01*
X40153857Y-67508857D02*
X40082428Y-67294571D01*
X40082428Y-67294571D02*
X40082428Y-67151714D01*
X40082428Y-67151714D02*
X40153857Y-66937428D01*
X40153857Y-66937428D02*
X40225285Y-66866000D01*
X42512428Y-70723142D02*
X44012428Y-70223142D01*
X44012428Y-70223142D02*
X42512428Y-69723142D01*
X44155285Y-69580286D02*
X44155285Y-68437428D01*
X44012428Y-68080286D02*
X42512428Y-68080286D01*
X42512428Y-68080286D02*
X42512428Y-67723143D01*
X42512428Y-67723143D02*
X42583857Y-67508857D01*
X42583857Y-67508857D02*
X42726714Y-67366000D01*
X42726714Y-67366000D02*
X42869571Y-67294571D01*
X42869571Y-67294571D02*
X43155285Y-67223143D01*
X43155285Y-67223143D02*
X43369571Y-67223143D01*
X43369571Y-67223143D02*
X43655285Y-67294571D01*
X43655285Y-67294571D02*
X43798142Y-67366000D01*
X43798142Y-67366000D02*
X43941000Y-67508857D01*
X43941000Y-67508857D02*
X44012428Y-67723143D01*
X44012428Y-67723143D02*
X44012428Y-68080286D01*
X44012428Y-66580286D02*
X43012428Y-66580286D01*
X43298142Y-66580286D02*
X43155285Y-66508857D01*
X43155285Y-66508857D02*
X43083857Y-66437429D01*
X43083857Y-66437429D02*
X43012428Y-66294571D01*
X43012428Y-66294571D02*
X43012428Y-66151714D01*
X44012428Y-65651715D02*
X43012428Y-65651715D01*
X42512428Y-65651715D02*
X42583857Y-65723143D01*
X42583857Y-65723143D02*
X42655285Y-65651715D01*
X42655285Y-65651715D02*
X42583857Y-65580286D01*
X42583857Y-65580286D02*
X42512428Y-65651715D01*
X42512428Y-65651715D02*
X42655285Y-65651715D01*
X43012428Y-65080286D02*
X44012428Y-64723143D01*
X44012428Y-64723143D02*
X43012428Y-64366000D01*
X43941000Y-63223143D02*
X44012428Y-63366000D01*
X44012428Y-63366000D02*
X44012428Y-63651715D01*
X44012428Y-63651715D02*
X43941000Y-63794572D01*
X43941000Y-63794572D02*
X43798142Y-63866000D01*
X43798142Y-63866000D02*
X43226714Y-63866000D01*
X43226714Y-63866000D02*
X43083857Y-63794572D01*
X43083857Y-63794572D02*
X43012428Y-63651715D01*
X43012428Y-63651715D02*
X43012428Y-63366000D01*
X43012428Y-63366000D02*
X43083857Y-63223143D01*
X43083857Y-63223143D02*
X43226714Y-63151715D01*
X43226714Y-63151715D02*
X43369571Y-63151715D01*
X43369571Y-63151715D02*
X43512428Y-63866000D01*
X50649142Y-67029000D02*
X51792000Y-67029000D01*
X51220571Y-67600428D02*
X51220571Y-66457571D01*
X53220571Y-66100428D02*
X52506285Y-66100428D01*
X52506285Y-66100428D02*
X52434857Y-66814714D01*
X52434857Y-66814714D02*
X52506285Y-66743285D01*
X52506285Y-66743285D02*
X52649143Y-66671857D01*
X52649143Y-66671857D02*
X53006285Y-66671857D01*
X53006285Y-66671857D02*
X53149143Y-66743285D01*
X53149143Y-66743285D02*
X53220571Y-66814714D01*
X53220571Y-66814714D02*
X53292000Y-66957571D01*
X53292000Y-66957571D02*
X53292000Y-67314714D01*
X53292000Y-67314714D02*
X53220571Y-67457571D01*
X53220571Y-67457571D02*
X53149143Y-67529000D01*
X53149143Y-67529000D02*
X53006285Y-67600428D01*
X53006285Y-67600428D02*
X52649143Y-67600428D01*
X52649143Y-67600428D02*
X52506285Y-67529000D01*
X52506285Y-67529000D02*
X52434857Y-67457571D01*
X53720571Y-66100428D02*
X54220571Y-67600428D01*
X54220571Y-67600428D02*
X54720571Y-66100428D01*
X50434857Y-68530428D02*
X50934857Y-70030428D01*
X50934857Y-70030428D02*
X51434857Y-68530428D01*
X51577714Y-70173285D02*
X52720571Y-70173285D01*
X53720571Y-70030428D02*
X53720571Y-68530428D01*
X53720571Y-69959000D02*
X53577713Y-70030428D01*
X53577713Y-70030428D02*
X53291999Y-70030428D01*
X53291999Y-70030428D02*
X53149142Y-69959000D01*
X53149142Y-69959000D02*
X53077713Y-69887571D01*
X53077713Y-69887571D02*
X53006285Y-69744714D01*
X53006285Y-69744714D02*
X53006285Y-69316142D01*
X53006285Y-69316142D02*
X53077713Y-69173285D01*
X53077713Y-69173285D02*
X53149142Y-69101857D01*
X53149142Y-69101857D02*
X53291999Y-69030428D01*
X53291999Y-69030428D02*
X53577713Y-69030428D01*
X53577713Y-69030428D02*
X53720571Y-69101857D01*
X54434856Y-70030428D02*
X54434856Y-69030428D01*
X54434856Y-69316142D02*
X54506285Y-69173285D01*
X54506285Y-69173285D02*
X54577714Y-69101857D01*
X54577714Y-69101857D02*
X54720571Y-69030428D01*
X54720571Y-69030428D02*
X54863428Y-69030428D01*
X55363427Y-70030428D02*
X55363427Y-69030428D01*
X55363427Y-68530428D02*
X55291999Y-68601857D01*
X55291999Y-68601857D02*
X55363427Y-68673285D01*
X55363427Y-68673285D02*
X55434856Y-68601857D01*
X55434856Y-68601857D02*
X55363427Y-68530428D01*
X55363427Y-68530428D02*
X55363427Y-68673285D01*
X55934856Y-69030428D02*
X56291999Y-70030428D01*
X56291999Y-70030428D02*
X56649142Y-69030428D01*
X57791999Y-69959000D02*
X57649142Y-70030428D01*
X57649142Y-70030428D02*
X57363428Y-70030428D01*
X57363428Y-70030428D02*
X57220570Y-69959000D01*
X57220570Y-69959000D02*
X57149142Y-69816142D01*
X57149142Y-69816142D02*
X57149142Y-69244714D01*
X57149142Y-69244714D02*
X57220570Y-69101857D01*
X57220570Y-69101857D02*
X57363428Y-69030428D01*
X57363428Y-69030428D02*
X57649142Y-69030428D01*
X57649142Y-69030428D02*
X57791999Y-69101857D01*
X57791999Y-69101857D02*
X57863428Y-69244714D01*
X57863428Y-69244714D02*
X57863428Y-69387571D01*
X57863428Y-69387571D02*
X57149142Y-69530428D01*
X51434857Y-71031857D02*
X51292000Y-70960428D01*
X51292000Y-70960428D02*
X51077714Y-70960428D01*
X51077714Y-70960428D02*
X50863428Y-71031857D01*
X50863428Y-71031857D02*
X50720571Y-71174714D01*
X50720571Y-71174714D02*
X50649142Y-71317571D01*
X50649142Y-71317571D02*
X50577714Y-71603285D01*
X50577714Y-71603285D02*
X50577714Y-71817571D01*
X50577714Y-71817571D02*
X50649142Y-72103285D01*
X50649142Y-72103285D02*
X50720571Y-72246142D01*
X50720571Y-72246142D02*
X50863428Y-72389000D01*
X50863428Y-72389000D02*
X51077714Y-72460428D01*
X51077714Y-72460428D02*
X51220571Y-72460428D01*
X51220571Y-72460428D02*
X51434857Y-72389000D01*
X51434857Y-72389000D02*
X51506285Y-72317571D01*
X51506285Y-72317571D02*
X51506285Y-71817571D01*
X51506285Y-71817571D02*
X51220571Y-71817571D01*
X52149142Y-72460428D02*
X52149142Y-70960428D01*
X52149142Y-70960428D02*
X53006285Y-72460428D01*
X53006285Y-72460428D02*
X53006285Y-70960428D01*
X53720571Y-72460428D02*
X53720571Y-70960428D01*
X53720571Y-70960428D02*
X54077714Y-70960428D01*
X54077714Y-70960428D02*
X54292000Y-71031857D01*
X54292000Y-71031857D02*
X54434857Y-71174714D01*
X54434857Y-71174714D02*
X54506286Y-71317571D01*
X54506286Y-71317571D02*
X54577714Y-71603285D01*
X54577714Y-71603285D02*
X54577714Y-71817571D01*
X54577714Y-71817571D02*
X54506286Y-72103285D01*
X54506286Y-72103285D02*
X54434857Y-72246142D01*
X54434857Y-72246142D02*
X54292000Y-72389000D01*
X54292000Y-72389000D02*
X54077714Y-72460428D01*
X54077714Y-72460428D02*
X53720571Y-72460428D01*
X33631142Y-46374428D02*
X33631142Y-44874428D01*
X33631142Y-44874428D02*
X34202571Y-44874428D01*
X34202571Y-44874428D02*
X34345428Y-44945857D01*
X34345428Y-44945857D02*
X34416857Y-45017285D01*
X34416857Y-45017285D02*
X34488285Y-45160142D01*
X34488285Y-45160142D02*
X34488285Y-45374428D01*
X34488285Y-45374428D02*
X34416857Y-45517285D01*
X34416857Y-45517285D02*
X34345428Y-45588714D01*
X34345428Y-45588714D02*
X34202571Y-45660142D01*
X34202571Y-45660142D02*
X33631142Y-45660142D01*
X35345428Y-46374428D02*
X35202571Y-46303000D01*
X35202571Y-46303000D02*
X35131142Y-46231571D01*
X35131142Y-46231571D02*
X35059714Y-46088714D01*
X35059714Y-46088714D02*
X35059714Y-45660142D01*
X35059714Y-45660142D02*
X35131142Y-45517285D01*
X35131142Y-45517285D02*
X35202571Y-45445857D01*
X35202571Y-45445857D02*
X35345428Y-45374428D01*
X35345428Y-45374428D02*
X35559714Y-45374428D01*
X35559714Y-45374428D02*
X35702571Y-45445857D01*
X35702571Y-45445857D02*
X35774000Y-45517285D01*
X35774000Y-45517285D02*
X35845428Y-45660142D01*
X35845428Y-45660142D02*
X35845428Y-46088714D01*
X35845428Y-46088714D02*
X35774000Y-46231571D01*
X35774000Y-46231571D02*
X35702571Y-46303000D01*
X35702571Y-46303000D02*
X35559714Y-46374428D01*
X35559714Y-46374428D02*
X35345428Y-46374428D01*
X36274000Y-45374428D02*
X36845428Y-45374428D01*
X36488285Y-44874428D02*
X36488285Y-46160142D01*
X36488285Y-46160142D02*
X36559714Y-46303000D01*
X36559714Y-46303000D02*
X36702571Y-46374428D01*
X36702571Y-46374428D02*
X36845428Y-46374428D01*
X37916857Y-46303000D02*
X37774000Y-46374428D01*
X37774000Y-46374428D02*
X37488286Y-46374428D01*
X37488286Y-46374428D02*
X37345428Y-46303000D01*
X37345428Y-46303000D02*
X37274000Y-46160142D01*
X37274000Y-46160142D02*
X37274000Y-45588714D01*
X37274000Y-45588714D02*
X37345428Y-45445857D01*
X37345428Y-45445857D02*
X37488286Y-45374428D01*
X37488286Y-45374428D02*
X37774000Y-45374428D01*
X37774000Y-45374428D02*
X37916857Y-45445857D01*
X37916857Y-45445857D02*
X37988286Y-45588714D01*
X37988286Y-45588714D02*
X37988286Y-45731571D01*
X37988286Y-45731571D02*
X37274000Y-45874428D01*
X38631142Y-45374428D02*
X38631142Y-46374428D01*
X38631142Y-45517285D02*
X38702571Y-45445857D01*
X38702571Y-45445857D02*
X38845428Y-45374428D01*
X38845428Y-45374428D02*
X39059714Y-45374428D01*
X39059714Y-45374428D02*
X39202571Y-45445857D01*
X39202571Y-45445857D02*
X39274000Y-45588714D01*
X39274000Y-45588714D02*
X39274000Y-46374428D01*
X39774000Y-45374428D02*
X40345428Y-45374428D01*
X39988285Y-44874428D02*
X39988285Y-46160142D01*
X39988285Y-46160142D02*
X40059714Y-46303000D01*
X40059714Y-46303000D02*
X40202571Y-46374428D01*
X40202571Y-46374428D02*
X40345428Y-46374428D01*
X40845428Y-46374428D02*
X40845428Y-45374428D01*
X40845428Y-44874428D02*
X40774000Y-44945857D01*
X40774000Y-44945857D02*
X40845428Y-45017285D01*
X40845428Y-45017285D02*
X40916857Y-44945857D01*
X40916857Y-44945857D02*
X40845428Y-44874428D01*
X40845428Y-44874428D02*
X40845428Y-45017285D01*
X41774000Y-46374428D02*
X41631143Y-46303000D01*
X41631143Y-46303000D02*
X41559714Y-46231571D01*
X41559714Y-46231571D02*
X41488286Y-46088714D01*
X41488286Y-46088714D02*
X41488286Y-45660142D01*
X41488286Y-45660142D02*
X41559714Y-45517285D01*
X41559714Y-45517285D02*
X41631143Y-45445857D01*
X41631143Y-45445857D02*
X41774000Y-45374428D01*
X41774000Y-45374428D02*
X41988286Y-45374428D01*
X41988286Y-45374428D02*
X42131143Y-45445857D01*
X42131143Y-45445857D02*
X42202572Y-45517285D01*
X42202572Y-45517285D02*
X42274000Y-45660142D01*
X42274000Y-45660142D02*
X42274000Y-46088714D01*
X42274000Y-46088714D02*
X42202572Y-46231571D01*
X42202572Y-46231571D02*
X42131143Y-46303000D01*
X42131143Y-46303000D02*
X41988286Y-46374428D01*
X41988286Y-46374428D02*
X41774000Y-46374428D01*
X42916857Y-46374428D02*
X42916857Y-45374428D01*
X42916857Y-45517285D02*
X42988286Y-45445857D01*
X42988286Y-45445857D02*
X43131143Y-45374428D01*
X43131143Y-45374428D02*
X43345429Y-45374428D01*
X43345429Y-45374428D02*
X43488286Y-45445857D01*
X43488286Y-45445857D02*
X43559715Y-45588714D01*
X43559715Y-45588714D02*
X43559715Y-46374428D01*
X43559715Y-45588714D02*
X43631143Y-45445857D01*
X43631143Y-45445857D02*
X43774000Y-45374428D01*
X43774000Y-45374428D02*
X43988286Y-45374428D01*
X43988286Y-45374428D02*
X44131143Y-45445857D01*
X44131143Y-45445857D02*
X44202572Y-45588714D01*
X44202572Y-45588714D02*
X44202572Y-46374428D01*
X45488286Y-46303000D02*
X45345429Y-46374428D01*
X45345429Y-46374428D02*
X45059715Y-46374428D01*
X45059715Y-46374428D02*
X44916857Y-46303000D01*
X44916857Y-46303000D02*
X44845429Y-46160142D01*
X44845429Y-46160142D02*
X44845429Y-45588714D01*
X44845429Y-45588714D02*
X44916857Y-45445857D01*
X44916857Y-45445857D02*
X45059715Y-45374428D01*
X45059715Y-45374428D02*
X45345429Y-45374428D01*
X45345429Y-45374428D02*
X45488286Y-45445857D01*
X45488286Y-45445857D02*
X45559715Y-45588714D01*
X45559715Y-45588714D02*
X45559715Y-45731571D01*
X45559715Y-45731571D02*
X44845429Y-45874428D01*
X45988286Y-45374428D02*
X46559714Y-45374428D01*
X46202571Y-44874428D02*
X46202571Y-46160142D01*
X46202571Y-46160142D02*
X46274000Y-46303000D01*
X46274000Y-46303000D02*
X46416857Y-46374428D01*
X46416857Y-46374428D02*
X46559714Y-46374428D01*
X47631143Y-46303000D02*
X47488286Y-46374428D01*
X47488286Y-46374428D02*
X47202572Y-46374428D01*
X47202572Y-46374428D02*
X47059714Y-46303000D01*
X47059714Y-46303000D02*
X46988286Y-46160142D01*
X46988286Y-46160142D02*
X46988286Y-45588714D01*
X46988286Y-45588714D02*
X47059714Y-45445857D01*
X47059714Y-45445857D02*
X47202572Y-45374428D01*
X47202572Y-45374428D02*
X47488286Y-45374428D01*
X47488286Y-45374428D02*
X47631143Y-45445857D01*
X47631143Y-45445857D02*
X47702572Y-45588714D01*
X47702572Y-45588714D02*
X47702572Y-45731571D01*
X47702572Y-45731571D02*
X46988286Y-45874428D01*
X48345428Y-46374428D02*
X48345428Y-45374428D01*
X48345428Y-45660142D02*
X48416857Y-45517285D01*
X48416857Y-45517285D02*
X48488286Y-45445857D01*
X48488286Y-45445857D02*
X48631143Y-45374428D01*
X48631143Y-45374428D02*
X48774000Y-45374428D01*
X33631142Y-48804428D02*
X33631142Y-47304428D01*
X33631142Y-47304428D02*
X34202571Y-47304428D01*
X34202571Y-47304428D02*
X34345428Y-47375857D01*
X34345428Y-47375857D02*
X34416857Y-47447285D01*
X34416857Y-47447285D02*
X34488285Y-47590142D01*
X34488285Y-47590142D02*
X34488285Y-47804428D01*
X34488285Y-47804428D02*
X34416857Y-47947285D01*
X34416857Y-47947285D02*
X34345428Y-48018714D01*
X34345428Y-48018714D02*
X34202571Y-48090142D01*
X34202571Y-48090142D02*
X33631142Y-48090142D01*
X34988285Y-47304428D02*
X35345428Y-48804428D01*
X35345428Y-48804428D02*
X35631142Y-47733000D01*
X35631142Y-47733000D02*
X35916857Y-48804428D01*
X35916857Y-48804428D02*
X36274000Y-47304428D01*
X36845428Y-48804428D02*
X36845428Y-47304428D01*
X36845428Y-47304428D02*
X37345428Y-48375857D01*
X37345428Y-48375857D02*
X37845428Y-47304428D01*
X37845428Y-47304428D02*
X37845428Y-48804428D01*
X33559714Y-51163000D02*
X33774000Y-51234428D01*
X33774000Y-51234428D02*
X34131142Y-51234428D01*
X34131142Y-51234428D02*
X34274000Y-51163000D01*
X34274000Y-51163000D02*
X34345428Y-51091571D01*
X34345428Y-51091571D02*
X34416857Y-50948714D01*
X34416857Y-50948714D02*
X34416857Y-50805857D01*
X34416857Y-50805857D02*
X34345428Y-50663000D01*
X34345428Y-50663000D02*
X34274000Y-50591571D01*
X34274000Y-50591571D02*
X34131142Y-50520142D01*
X34131142Y-50520142D02*
X33845428Y-50448714D01*
X33845428Y-50448714D02*
X33702571Y-50377285D01*
X33702571Y-50377285D02*
X33631142Y-50305857D01*
X33631142Y-50305857D02*
X33559714Y-50163000D01*
X33559714Y-50163000D02*
X33559714Y-50020142D01*
X33559714Y-50020142D02*
X33631142Y-49877285D01*
X33631142Y-49877285D02*
X33702571Y-49805857D01*
X33702571Y-49805857D02*
X33845428Y-49734428D01*
X33845428Y-49734428D02*
X34202571Y-49734428D01*
X34202571Y-49734428D02*
X34416857Y-49805857D01*
X35059713Y-50448714D02*
X35559713Y-50448714D01*
X35773999Y-51234428D02*
X35059713Y-51234428D01*
X35059713Y-51234428D02*
X35059713Y-49734428D01*
X35059713Y-49734428D02*
X35773999Y-49734428D01*
X37273999Y-51234428D02*
X36773999Y-50520142D01*
X36416856Y-51234428D02*
X36416856Y-49734428D01*
X36416856Y-49734428D02*
X36988285Y-49734428D01*
X36988285Y-49734428D02*
X37131142Y-49805857D01*
X37131142Y-49805857D02*
X37202571Y-49877285D01*
X37202571Y-49877285D02*
X37273999Y-50020142D01*
X37273999Y-50020142D02*
X37273999Y-50234428D01*
X37273999Y-50234428D02*
X37202571Y-50377285D01*
X37202571Y-50377285D02*
X37131142Y-50448714D01*
X37131142Y-50448714D02*
X36988285Y-50520142D01*
X36988285Y-50520142D02*
X36416856Y-50520142D01*
X37702571Y-49734428D02*
X38202571Y-51234428D01*
X38202571Y-51234428D02*
X38702571Y-49734428D01*
X39488285Y-49734428D02*
X39773999Y-49734428D01*
X39773999Y-49734428D02*
X39916856Y-49805857D01*
X39916856Y-49805857D02*
X40059713Y-49948714D01*
X40059713Y-49948714D02*
X40131142Y-50234428D01*
X40131142Y-50234428D02*
X40131142Y-50734428D01*
X40131142Y-50734428D02*
X40059713Y-51020142D01*
X40059713Y-51020142D02*
X39916856Y-51163000D01*
X39916856Y-51163000D02*
X39773999Y-51234428D01*
X39773999Y-51234428D02*
X39488285Y-51234428D01*
X39488285Y-51234428D02*
X39345428Y-51163000D01*
X39345428Y-51163000D02*
X39202570Y-51020142D01*
X39202570Y-51020142D02*
X39131142Y-50734428D01*
X39131142Y-50734428D02*
X39131142Y-50234428D01*
X39131142Y-50234428D02*
X39202570Y-49948714D01*
X39202570Y-49948714D02*
X39345428Y-49805857D01*
X39345428Y-49805857D02*
X39488285Y-49734428D01*
X40416857Y-51377285D02*
X41559714Y-51377285D01*
X41916856Y-51234428D02*
X41916856Y-49734428D01*
X41916856Y-49734428D02*
X42488285Y-49734428D01*
X42488285Y-49734428D02*
X42631142Y-49805857D01*
X42631142Y-49805857D02*
X42702571Y-49877285D01*
X42702571Y-49877285D02*
X42773999Y-50020142D01*
X42773999Y-50020142D02*
X42773999Y-50234428D01*
X42773999Y-50234428D02*
X42702571Y-50377285D01*
X42702571Y-50377285D02*
X42631142Y-50448714D01*
X42631142Y-50448714D02*
X42488285Y-50520142D01*
X42488285Y-50520142D02*
X41916856Y-50520142D01*
X43273999Y-49734428D02*
X43631142Y-51234428D01*
X43631142Y-51234428D02*
X43916856Y-50163000D01*
X43916856Y-50163000D02*
X44202571Y-51234428D01*
X44202571Y-51234428D02*
X44559714Y-49734428D01*
X45988285Y-51234428D02*
X45488285Y-50520142D01*
X45131142Y-51234428D02*
X45131142Y-49734428D01*
X45131142Y-49734428D02*
X45702571Y-49734428D01*
X45702571Y-49734428D02*
X45845428Y-49805857D01*
X45845428Y-49805857D02*
X45916857Y-49877285D01*
X45916857Y-49877285D02*
X45988285Y-50020142D01*
X45988285Y-50020142D02*
X45988285Y-50234428D01*
X45988285Y-50234428D02*
X45916857Y-50377285D01*
X45916857Y-50377285D02*
X45845428Y-50448714D01*
X45845428Y-50448714D02*
X45702571Y-50520142D01*
X45702571Y-50520142D02*
X45131142Y-50520142D01*
X34416857Y-52235857D02*
X34274000Y-52164428D01*
X34274000Y-52164428D02*
X34059714Y-52164428D01*
X34059714Y-52164428D02*
X33845428Y-52235857D01*
X33845428Y-52235857D02*
X33702571Y-52378714D01*
X33702571Y-52378714D02*
X33631142Y-52521571D01*
X33631142Y-52521571D02*
X33559714Y-52807285D01*
X33559714Y-52807285D02*
X33559714Y-53021571D01*
X33559714Y-53021571D02*
X33631142Y-53307285D01*
X33631142Y-53307285D02*
X33702571Y-53450142D01*
X33702571Y-53450142D02*
X33845428Y-53593000D01*
X33845428Y-53593000D02*
X34059714Y-53664428D01*
X34059714Y-53664428D02*
X34202571Y-53664428D01*
X34202571Y-53664428D02*
X34416857Y-53593000D01*
X34416857Y-53593000D02*
X34488285Y-53521571D01*
X34488285Y-53521571D02*
X34488285Y-53021571D01*
X34488285Y-53021571D02*
X34202571Y-53021571D01*
X35131142Y-53664428D02*
X35131142Y-52164428D01*
X35131142Y-52164428D02*
X35988285Y-53664428D01*
X35988285Y-53664428D02*
X35988285Y-52164428D01*
X36702571Y-53664428D02*
X36702571Y-52164428D01*
X36702571Y-52164428D02*
X37059714Y-52164428D01*
X37059714Y-52164428D02*
X37274000Y-52235857D01*
X37274000Y-52235857D02*
X37416857Y-52378714D01*
X37416857Y-52378714D02*
X37488286Y-52521571D01*
X37488286Y-52521571D02*
X37559714Y-52807285D01*
X37559714Y-52807285D02*
X37559714Y-53021571D01*
X37559714Y-53021571D02*
X37488286Y-53307285D01*
X37488286Y-53307285D02*
X37416857Y-53450142D01*
X37416857Y-53450142D02*
X37274000Y-53593000D01*
X37274000Y-53593000D02*
X37059714Y-53664428D01*
X37059714Y-53664428D02*
X36702571Y-53664428D01*
X59308857Y-41863857D02*
X59166000Y-41792428D01*
X59166000Y-41792428D02*
X58951714Y-41792428D01*
X58951714Y-41792428D02*
X58737428Y-41863857D01*
X58737428Y-41863857D02*
X58594571Y-42006714D01*
X58594571Y-42006714D02*
X58523142Y-42149571D01*
X58523142Y-42149571D02*
X58451714Y-42435285D01*
X58451714Y-42435285D02*
X58451714Y-42649571D01*
X58451714Y-42649571D02*
X58523142Y-42935285D01*
X58523142Y-42935285D02*
X58594571Y-43078142D01*
X58594571Y-43078142D02*
X58737428Y-43221000D01*
X58737428Y-43221000D02*
X58951714Y-43292428D01*
X58951714Y-43292428D02*
X59094571Y-43292428D01*
X59094571Y-43292428D02*
X59308857Y-43221000D01*
X59308857Y-43221000D02*
X59380285Y-43149571D01*
X59380285Y-43149571D02*
X59380285Y-42649571D01*
X59380285Y-42649571D02*
X59094571Y-42649571D01*
X60023142Y-43292428D02*
X60023142Y-41792428D01*
X60023142Y-41792428D02*
X60880285Y-43292428D01*
X60880285Y-43292428D02*
X60880285Y-41792428D01*
X61594571Y-43292428D02*
X61594571Y-41792428D01*
X61594571Y-41792428D02*
X61951714Y-41792428D01*
X61951714Y-41792428D02*
X62166000Y-41863857D01*
X62166000Y-41863857D02*
X62308857Y-42006714D01*
X62308857Y-42006714D02*
X62380286Y-42149571D01*
X62380286Y-42149571D02*
X62451714Y-42435285D01*
X62451714Y-42435285D02*
X62451714Y-42649571D01*
X62451714Y-42649571D02*
X62380286Y-42935285D01*
X62380286Y-42935285D02*
X62308857Y-43078142D01*
X62308857Y-43078142D02*
X62166000Y-43221000D01*
X62166000Y-43221000D02*
X61951714Y-43292428D01*
X61951714Y-43292428D02*
X61594571Y-43292428D01*
X58451714Y-45651000D02*
X58666000Y-45722428D01*
X58666000Y-45722428D02*
X59023142Y-45722428D01*
X59023142Y-45722428D02*
X59166000Y-45651000D01*
X59166000Y-45651000D02*
X59237428Y-45579571D01*
X59237428Y-45579571D02*
X59308857Y-45436714D01*
X59308857Y-45436714D02*
X59308857Y-45293857D01*
X59308857Y-45293857D02*
X59237428Y-45151000D01*
X59237428Y-45151000D02*
X59166000Y-45079571D01*
X59166000Y-45079571D02*
X59023142Y-45008142D01*
X59023142Y-45008142D02*
X58737428Y-44936714D01*
X58737428Y-44936714D02*
X58594571Y-44865285D01*
X58594571Y-44865285D02*
X58523142Y-44793857D01*
X58523142Y-44793857D02*
X58451714Y-44651000D01*
X58451714Y-44651000D02*
X58451714Y-44508142D01*
X58451714Y-44508142D02*
X58523142Y-44365285D01*
X58523142Y-44365285D02*
X58594571Y-44293857D01*
X58594571Y-44293857D02*
X58737428Y-44222428D01*
X58737428Y-44222428D02*
X59094571Y-44222428D01*
X59094571Y-44222428D02*
X59308857Y-44293857D01*
X59951713Y-45722428D02*
X59951713Y-44222428D01*
X59951713Y-44222428D02*
X60523142Y-44222428D01*
X60523142Y-44222428D02*
X60665999Y-44293857D01*
X60665999Y-44293857D02*
X60737428Y-44365285D01*
X60737428Y-44365285D02*
X60808856Y-44508142D01*
X60808856Y-44508142D02*
X60808856Y-44722428D01*
X60808856Y-44722428D02*
X60737428Y-44865285D01*
X60737428Y-44865285D02*
X60665999Y-44936714D01*
X60665999Y-44936714D02*
X60523142Y-45008142D01*
X60523142Y-45008142D02*
X59951713Y-45008142D01*
X61451713Y-45722428D02*
X61451713Y-44222428D01*
X61808857Y-45865285D02*
X62951714Y-45865285D01*
X63237428Y-45651000D02*
X63451714Y-45722428D01*
X63451714Y-45722428D02*
X63808856Y-45722428D01*
X63808856Y-45722428D02*
X63951714Y-45651000D01*
X63951714Y-45651000D02*
X64023142Y-45579571D01*
X64023142Y-45579571D02*
X64094571Y-45436714D01*
X64094571Y-45436714D02*
X64094571Y-45293857D01*
X64094571Y-45293857D02*
X64023142Y-45151000D01*
X64023142Y-45151000D02*
X63951714Y-45079571D01*
X63951714Y-45079571D02*
X63808856Y-45008142D01*
X63808856Y-45008142D02*
X63523142Y-44936714D01*
X63523142Y-44936714D02*
X63380285Y-44865285D01*
X63380285Y-44865285D02*
X63308856Y-44793857D01*
X63308856Y-44793857D02*
X63237428Y-44651000D01*
X63237428Y-44651000D02*
X63237428Y-44508142D01*
X63237428Y-44508142D02*
X63308856Y-44365285D01*
X63308856Y-44365285D02*
X63380285Y-44293857D01*
X63380285Y-44293857D02*
X63523142Y-44222428D01*
X63523142Y-44222428D02*
X63880285Y-44222428D01*
X63880285Y-44222428D02*
X64094571Y-44293857D01*
X65594570Y-45579571D02*
X65523142Y-45651000D01*
X65523142Y-45651000D02*
X65308856Y-45722428D01*
X65308856Y-45722428D02*
X65165999Y-45722428D01*
X65165999Y-45722428D02*
X64951713Y-45651000D01*
X64951713Y-45651000D02*
X64808856Y-45508142D01*
X64808856Y-45508142D02*
X64737427Y-45365285D01*
X64737427Y-45365285D02*
X64665999Y-45079571D01*
X64665999Y-45079571D02*
X64665999Y-44865285D01*
X64665999Y-44865285D02*
X64737427Y-44579571D01*
X64737427Y-44579571D02*
X64808856Y-44436714D01*
X64808856Y-44436714D02*
X64951713Y-44293857D01*
X64951713Y-44293857D02*
X65165999Y-44222428D01*
X65165999Y-44222428D02*
X65308856Y-44222428D01*
X65308856Y-44222428D02*
X65523142Y-44293857D01*
X65523142Y-44293857D02*
X65594570Y-44365285D01*
X66237427Y-45722428D02*
X66237427Y-44222428D01*
X67094570Y-45722428D02*
X66451713Y-44865285D01*
X67094570Y-44222428D02*
X66237427Y-45079571D01*
X58451714Y-48081000D02*
X58666000Y-48152428D01*
X58666000Y-48152428D02*
X59023142Y-48152428D01*
X59023142Y-48152428D02*
X59166000Y-48081000D01*
X59166000Y-48081000D02*
X59237428Y-48009571D01*
X59237428Y-48009571D02*
X59308857Y-47866714D01*
X59308857Y-47866714D02*
X59308857Y-47723857D01*
X59308857Y-47723857D02*
X59237428Y-47581000D01*
X59237428Y-47581000D02*
X59166000Y-47509571D01*
X59166000Y-47509571D02*
X59023142Y-47438142D01*
X59023142Y-47438142D02*
X58737428Y-47366714D01*
X58737428Y-47366714D02*
X58594571Y-47295285D01*
X58594571Y-47295285D02*
X58523142Y-47223857D01*
X58523142Y-47223857D02*
X58451714Y-47081000D01*
X58451714Y-47081000D02*
X58451714Y-46938142D01*
X58451714Y-46938142D02*
X58523142Y-46795285D01*
X58523142Y-46795285D02*
X58594571Y-46723857D01*
X58594571Y-46723857D02*
X58737428Y-46652428D01*
X58737428Y-46652428D02*
X59094571Y-46652428D01*
X59094571Y-46652428D02*
X59308857Y-46723857D01*
X59951713Y-48152428D02*
X59951713Y-46652428D01*
X59951713Y-46652428D02*
X60523142Y-46652428D01*
X60523142Y-46652428D02*
X60665999Y-46723857D01*
X60665999Y-46723857D02*
X60737428Y-46795285D01*
X60737428Y-46795285D02*
X60808856Y-46938142D01*
X60808856Y-46938142D02*
X60808856Y-47152428D01*
X60808856Y-47152428D02*
X60737428Y-47295285D01*
X60737428Y-47295285D02*
X60665999Y-47366714D01*
X60665999Y-47366714D02*
X60523142Y-47438142D01*
X60523142Y-47438142D02*
X59951713Y-47438142D01*
X61451713Y-48152428D02*
X61451713Y-46652428D01*
X61808857Y-48295285D02*
X62951714Y-48295285D01*
X63308856Y-48152428D02*
X63308856Y-46652428D01*
X63308856Y-46652428D02*
X63808856Y-47723857D01*
X63808856Y-47723857D02*
X64308856Y-46652428D01*
X64308856Y-46652428D02*
X64308856Y-48152428D01*
X65023142Y-48152428D02*
X65023142Y-46652428D01*
X65666000Y-48081000D02*
X65880286Y-48152428D01*
X65880286Y-48152428D02*
X66237428Y-48152428D01*
X66237428Y-48152428D02*
X66380286Y-48081000D01*
X66380286Y-48081000D02*
X66451714Y-48009571D01*
X66451714Y-48009571D02*
X66523143Y-47866714D01*
X66523143Y-47866714D02*
X66523143Y-47723857D01*
X66523143Y-47723857D02*
X66451714Y-47581000D01*
X66451714Y-47581000D02*
X66380286Y-47509571D01*
X66380286Y-47509571D02*
X66237428Y-47438142D01*
X66237428Y-47438142D02*
X65951714Y-47366714D01*
X65951714Y-47366714D02*
X65808857Y-47295285D01*
X65808857Y-47295285D02*
X65737428Y-47223857D01*
X65737428Y-47223857D02*
X65666000Y-47081000D01*
X65666000Y-47081000D02*
X65666000Y-46938142D01*
X65666000Y-46938142D02*
X65737428Y-46795285D01*
X65737428Y-46795285D02*
X65808857Y-46723857D01*
X65808857Y-46723857D02*
X65951714Y-46652428D01*
X65951714Y-46652428D02*
X66308857Y-46652428D01*
X66308857Y-46652428D02*
X66523143Y-46723857D01*
X67451714Y-46652428D02*
X67737428Y-46652428D01*
X67737428Y-46652428D02*
X67880285Y-46723857D01*
X67880285Y-46723857D02*
X68023142Y-46866714D01*
X68023142Y-46866714D02*
X68094571Y-47152428D01*
X68094571Y-47152428D02*
X68094571Y-47652428D01*
X68094571Y-47652428D02*
X68023142Y-47938142D01*
X68023142Y-47938142D02*
X67880285Y-48081000D01*
X67880285Y-48081000D02*
X67737428Y-48152428D01*
X67737428Y-48152428D02*
X67451714Y-48152428D01*
X67451714Y-48152428D02*
X67308857Y-48081000D01*
X67308857Y-48081000D02*
X67165999Y-47938142D01*
X67165999Y-47938142D02*
X67094571Y-47652428D01*
X67094571Y-47652428D02*
X67094571Y-47152428D01*
X67094571Y-47152428D02*
X67165999Y-46866714D01*
X67165999Y-46866714D02*
X67308857Y-46723857D01*
X67308857Y-46723857D02*
X67451714Y-46652428D01*
X58451714Y-50511000D02*
X58666000Y-50582428D01*
X58666000Y-50582428D02*
X59023142Y-50582428D01*
X59023142Y-50582428D02*
X59166000Y-50511000D01*
X59166000Y-50511000D02*
X59237428Y-50439571D01*
X59237428Y-50439571D02*
X59308857Y-50296714D01*
X59308857Y-50296714D02*
X59308857Y-50153857D01*
X59308857Y-50153857D02*
X59237428Y-50011000D01*
X59237428Y-50011000D02*
X59166000Y-49939571D01*
X59166000Y-49939571D02*
X59023142Y-49868142D01*
X59023142Y-49868142D02*
X58737428Y-49796714D01*
X58737428Y-49796714D02*
X58594571Y-49725285D01*
X58594571Y-49725285D02*
X58523142Y-49653857D01*
X58523142Y-49653857D02*
X58451714Y-49511000D01*
X58451714Y-49511000D02*
X58451714Y-49368142D01*
X58451714Y-49368142D02*
X58523142Y-49225285D01*
X58523142Y-49225285D02*
X58594571Y-49153857D01*
X58594571Y-49153857D02*
X58737428Y-49082428D01*
X58737428Y-49082428D02*
X59094571Y-49082428D01*
X59094571Y-49082428D02*
X59308857Y-49153857D01*
X59951713Y-50582428D02*
X59951713Y-49082428D01*
X59951713Y-49082428D02*
X60523142Y-49082428D01*
X60523142Y-49082428D02*
X60665999Y-49153857D01*
X60665999Y-49153857D02*
X60737428Y-49225285D01*
X60737428Y-49225285D02*
X60808856Y-49368142D01*
X60808856Y-49368142D02*
X60808856Y-49582428D01*
X60808856Y-49582428D02*
X60737428Y-49725285D01*
X60737428Y-49725285D02*
X60665999Y-49796714D01*
X60665999Y-49796714D02*
X60523142Y-49868142D01*
X60523142Y-49868142D02*
X59951713Y-49868142D01*
X61451713Y-50582428D02*
X61451713Y-49082428D01*
X61808857Y-50725285D02*
X62951714Y-50725285D01*
X63308856Y-50582428D02*
X63308856Y-49082428D01*
X63308856Y-49082428D02*
X63808856Y-50153857D01*
X63808856Y-50153857D02*
X64308856Y-49082428D01*
X64308856Y-49082428D02*
X64308856Y-50582428D01*
X65308857Y-49082428D02*
X65594571Y-49082428D01*
X65594571Y-49082428D02*
X65737428Y-49153857D01*
X65737428Y-49153857D02*
X65880285Y-49296714D01*
X65880285Y-49296714D02*
X65951714Y-49582428D01*
X65951714Y-49582428D02*
X65951714Y-50082428D01*
X65951714Y-50082428D02*
X65880285Y-50368142D01*
X65880285Y-50368142D02*
X65737428Y-50511000D01*
X65737428Y-50511000D02*
X65594571Y-50582428D01*
X65594571Y-50582428D02*
X65308857Y-50582428D01*
X65308857Y-50582428D02*
X65166000Y-50511000D01*
X65166000Y-50511000D02*
X65023142Y-50368142D01*
X65023142Y-50368142D02*
X64951714Y-50082428D01*
X64951714Y-50082428D02*
X64951714Y-49582428D01*
X64951714Y-49582428D02*
X65023142Y-49296714D01*
X65023142Y-49296714D02*
X65166000Y-49153857D01*
X65166000Y-49153857D02*
X65308857Y-49082428D01*
X66523143Y-50511000D02*
X66737429Y-50582428D01*
X66737429Y-50582428D02*
X67094571Y-50582428D01*
X67094571Y-50582428D02*
X67237429Y-50511000D01*
X67237429Y-50511000D02*
X67308857Y-50439571D01*
X67308857Y-50439571D02*
X67380286Y-50296714D01*
X67380286Y-50296714D02*
X67380286Y-50153857D01*
X67380286Y-50153857D02*
X67308857Y-50011000D01*
X67308857Y-50011000D02*
X67237429Y-49939571D01*
X67237429Y-49939571D02*
X67094571Y-49868142D01*
X67094571Y-49868142D02*
X66808857Y-49796714D01*
X66808857Y-49796714D02*
X66666000Y-49725285D01*
X66666000Y-49725285D02*
X66594571Y-49653857D01*
X66594571Y-49653857D02*
X66523143Y-49511000D01*
X66523143Y-49511000D02*
X66523143Y-49368142D01*
X66523143Y-49368142D02*
X66594571Y-49225285D01*
X66594571Y-49225285D02*
X66666000Y-49153857D01*
X66666000Y-49153857D02*
X66808857Y-49082428D01*
X66808857Y-49082428D02*
X67166000Y-49082428D01*
X67166000Y-49082428D02*
X67380286Y-49153857D01*
X68023142Y-50582428D02*
X68023142Y-49082428D01*
X58451714Y-52941000D02*
X58666000Y-53012428D01*
X58666000Y-53012428D02*
X59023142Y-53012428D01*
X59023142Y-53012428D02*
X59166000Y-52941000D01*
X59166000Y-52941000D02*
X59237428Y-52869571D01*
X59237428Y-52869571D02*
X59308857Y-52726714D01*
X59308857Y-52726714D02*
X59308857Y-52583857D01*
X59308857Y-52583857D02*
X59237428Y-52441000D01*
X59237428Y-52441000D02*
X59166000Y-52369571D01*
X59166000Y-52369571D02*
X59023142Y-52298142D01*
X59023142Y-52298142D02*
X58737428Y-52226714D01*
X58737428Y-52226714D02*
X58594571Y-52155285D01*
X58594571Y-52155285D02*
X58523142Y-52083857D01*
X58523142Y-52083857D02*
X58451714Y-51941000D01*
X58451714Y-51941000D02*
X58451714Y-51798142D01*
X58451714Y-51798142D02*
X58523142Y-51655285D01*
X58523142Y-51655285D02*
X58594571Y-51583857D01*
X58594571Y-51583857D02*
X58737428Y-51512428D01*
X58737428Y-51512428D02*
X59094571Y-51512428D01*
X59094571Y-51512428D02*
X59308857Y-51583857D01*
X59951713Y-53012428D02*
X59951713Y-51512428D01*
X59951713Y-51512428D02*
X60523142Y-51512428D01*
X60523142Y-51512428D02*
X60665999Y-51583857D01*
X60665999Y-51583857D02*
X60737428Y-51655285D01*
X60737428Y-51655285D02*
X60808856Y-51798142D01*
X60808856Y-51798142D02*
X60808856Y-52012428D01*
X60808856Y-52012428D02*
X60737428Y-52155285D01*
X60737428Y-52155285D02*
X60665999Y-52226714D01*
X60665999Y-52226714D02*
X60523142Y-52298142D01*
X60523142Y-52298142D02*
X59951713Y-52298142D01*
X61451713Y-53012428D02*
X61451713Y-51512428D01*
X61808857Y-53155285D02*
X62951714Y-53155285D01*
X64165999Y-52869571D02*
X64094571Y-52941000D01*
X64094571Y-52941000D02*
X63880285Y-53012428D01*
X63880285Y-53012428D02*
X63737428Y-53012428D01*
X63737428Y-53012428D02*
X63523142Y-52941000D01*
X63523142Y-52941000D02*
X63380285Y-52798142D01*
X63380285Y-52798142D02*
X63308856Y-52655285D01*
X63308856Y-52655285D02*
X63237428Y-52369571D01*
X63237428Y-52369571D02*
X63237428Y-52155285D01*
X63237428Y-52155285D02*
X63308856Y-51869571D01*
X63308856Y-51869571D02*
X63380285Y-51726714D01*
X63380285Y-51726714D02*
X63523142Y-51583857D01*
X63523142Y-51583857D02*
X63737428Y-51512428D01*
X63737428Y-51512428D02*
X63880285Y-51512428D01*
X63880285Y-51512428D02*
X64094571Y-51583857D01*
X64094571Y-51583857D02*
X64165999Y-51655285D01*
X64737428Y-52941000D02*
X64951714Y-53012428D01*
X64951714Y-53012428D02*
X65308856Y-53012428D01*
X65308856Y-53012428D02*
X65451714Y-52941000D01*
X65451714Y-52941000D02*
X65523142Y-52869571D01*
X65523142Y-52869571D02*
X65594571Y-52726714D01*
X65594571Y-52726714D02*
X65594571Y-52583857D01*
X65594571Y-52583857D02*
X65523142Y-52441000D01*
X65523142Y-52441000D02*
X65451714Y-52369571D01*
X65451714Y-52369571D02*
X65308856Y-52298142D01*
X65308856Y-52298142D02*
X65023142Y-52226714D01*
X65023142Y-52226714D02*
X64880285Y-52155285D01*
X64880285Y-52155285D02*
X64808856Y-52083857D01*
X64808856Y-52083857D02*
X64737428Y-51941000D01*
X64737428Y-51941000D02*
X64737428Y-51798142D01*
X64737428Y-51798142D02*
X64808856Y-51655285D01*
X64808856Y-51655285D02*
X64880285Y-51583857D01*
X64880285Y-51583857D02*
X65023142Y-51512428D01*
X65023142Y-51512428D02*
X65380285Y-51512428D01*
X65380285Y-51512428D02*
X65594571Y-51583857D01*
X65880285Y-53155285D02*
X67023142Y-53155285D01*
X67665999Y-51512428D02*
X67808856Y-51512428D01*
X67808856Y-51512428D02*
X67951713Y-51583857D01*
X67951713Y-51583857D02*
X68023142Y-51655285D01*
X68023142Y-51655285D02*
X68094570Y-51798142D01*
X68094570Y-51798142D02*
X68165999Y-52083857D01*
X68165999Y-52083857D02*
X68165999Y-52441000D01*
X68165999Y-52441000D02*
X68094570Y-52726714D01*
X68094570Y-52726714D02*
X68023142Y-52869571D01*
X68023142Y-52869571D02*
X67951713Y-52941000D01*
X67951713Y-52941000D02*
X67808856Y-53012428D01*
X67808856Y-53012428D02*
X67665999Y-53012428D01*
X67665999Y-53012428D02*
X67523142Y-52941000D01*
X67523142Y-52941000D02*
X67451713Y-52869571D01*
X67451713Y-52869571D02*
X67380284Y-52726714D01*
X67380284Y-52726714D02*
X67308856Y-52441000D01*
X67308856Y-52441000D02*
X67308856Y-52083857D01*
X67308856Y-52083857D02*
X67380284Y-51798142D01*
X67380284Y-51798142D02*
X67451713Y-51655285D01*
X67451713Y-51655285D02*
X67523142Y-51583857D01*
X67523142Y-51583857D02*
X67665999Y-51512428D01*
X58451714Y-55371000D02*
X58666000Y-55442428D01*
X58666000Y-55442428D02*
X59023142Y-55442428D01*
X59023142Y-55442428D02*
X59166000Y-55371000D01*
X59166000Y-55371000D02*
X59237428Y-55299571D01*
X59237428Y-55299571D02*
X59308857Y-55156714D01*
X59308857Y-55156714D02*
X59308857Y-55013857D01*
X59308857Y-55013857D02*
X59237428Y-54871000D01*
X59237428Y-54871000D02*
X59166000Y-54799571D01*
X59166000Y-54799571D02*
X59023142Y-54728142D01*
X59023142Y-54728142D02*
X58737428Y-54656714D01*
X58737428Y-54656714D02*
X58594571Y-54585285D01*
X58594571Y-54585285D02*
X58523142Y-54513857D01*
X58523142Y-54513857D02*
X58451714Y-54371000D01*
X58451714Y-54371000D02*
X58451714Y-54228142D01*
X58451714Y-54228142D02*
X58523142Y-54085285D01*
X58523142Y-54085285D02*
X58594571Y-54013857D01*
X58594571Y-54013857D02*
X58737428Y-53942428D01*
X58737428Y-53942428D02*
X59094571Y-53942428D01*
X59094571Y-53942428D02*
X59308857Y-54013857D01*
X59951713Y-55442428D02*
X59951713Y-53942428D01*
X59951713Y-53942428D02*
X60523142Y-53942428D01*
X60523142Y-53942428D02*
X60665999Y-54013857D01*
X60665999Y-54013857D02*
X60737428Y-54085285D01*
X60737428Y-54085285D02*
X60808856Y-54228142D01*
X60808856Y-54228142D02*
X60808856Y-54442428D01*
X60808856Y-54442428D02*
X60737428Y-54585285D01*
X60737428Y-54585285D02*
X60665999Y-54656714D01*
X60665999Y-54656714D02*
X60523142Y-54728142D01*
X60523142Y-54728142D02*
X59951713Y-54728142D01*
X61451713Y-55442428D02*
X61451713Y-53942428D01*
X61808857Y-55585285D02*
X62951714Y-55585285D01*
X64165999Y-55299571D02*
X64094571Y-55371000D01*
X64094571Y-55371000D02*
X63880285Y-55442428D01*
X63880285Y-55442428D02*
X63737428Y-55442428D01*
X63737428Y-55442428D02*
X63523142Y-55371000D01*
X63523142Y-55371000D02*
X63380285Y-55228142D01*
X63380285Y-55228142D02*
X63308856Y-55085285D01*
X63308856Y-55085285D02*
X63237428Y-54799571D01*
X63237428Y-54799571D02*
X63237428Y-54585285D01*
X63237428Y-54585285D02*
X63308856Y-54299571D01*
X63308856Y-54299571D02*
X63380285Y-54156714D01*
X63380285Y-54156714D02*
X63523142Y-54013857D01*
X63523142Y-54013857D02*
X63737428Y-53942428D01*
X63737428Y-53942428D02*
X63880285Y-53942428D01*
X63880285Y-53942428D02*
X64094571Y-54013857D01*
X64094571Y-54013857D02*
X64165999Y-54085285D01*
X64737428Y-55371000D02*
X64951714Y-55442428D01*
X64951714Y-55442428D02*
X65308856Y-55442428D01*
X65308856Y-55442428D02*
X65451714Y-55371000D01*
X65451714Y-55371000D02*
X65523142Y-55299571D01*
X65523142Y-55299571D02*
X65594571Y-55156714D01*
X65594571Y-55156714D02*
X65594571Y-55013857D01*
X65594571Y-55013857D02*
X65523142Y-54871000D01*
X65523142Y-54871000D02*
X65451714Y-54799571D01*
X65451714Y-54799571D02*
X65308856Y-54728142D01*
X65308856Y-54728142D02*
X65023142Y-54656714D01*
X65023142Y-54656714D02*
X64880285Y-54585285D01*
X64880285Y-54585285D02*
X64808856Y-54513857D01*
X64808856Y-54513857D02*
X64737428Y-54371000D01*
X64737428Y-54371000D02*
X64737428Y-54228142D01*
X64737428Y-54228142D02*
X64808856Y-54085285D01*
X64808856Y-54085285D02*
X64880285Y-54013857D01*
X64880285Y-54013857D02*
X65023142Y-53942428D01*
X65023142Y-53942428D02*
X65380285Y-53942428D01*
X65380285Y-53942428D02*
X65594571Y-54013857D01*
X65880285Y-55585285D02*
X67023142Y-55585285D01*
X68165999Y-55442428D02*
X67308856Y-55442428D01*
X67737427Y-55442428D02*
X67737427Y-53942428D01*
X67737427Y-53942428D02*
X67594570Y-54156714D01*
X67594570Y-54156714D02*
X67451713Y-54299571D01*
X67451713Y-54299571D02*
X67308856Y-54371000D01*
X41587000Y-37560285D02*
X41658428Y-37417428D01*
X41658428Y-37417428D02*
X41658428Y-37131714D01*
X41658428Y-37131714D02*
X41587000Y-36988857D01*
X41587000Y-36988857D02*
X41444142Y-36917428D01*
X41444142Y-36917428D02*
X41372714Y-36917428D01*
X41372714Y-36917428D02*
X41229857Y-36988857D01*
X41229857Y-36988857D02*
X41158428Y-37131714D01*
X41158428Y-37131714D02*
X41158428Y-37346000D01*
X41158428Y-37346000D02*
X41087000Y-37488857D01*
X41087000Y-37488857D02*
X40944142Y-37560285D01*
X40944142Y-37560285D02*
X40872714Y-37560285D01*
X40872714Y-37560285D02*
X40729857Y-37488857D01*
X40729857Y-37488857D02*
X40658428Y-37346000D01*
X40658428Y-37346000D02*
X40658428Y-37131714D01*
X40658428Y-37131714D02*
X40729857Y-36988857D01*
X40658428Y-36417428D02*
X41658428Y-36131714D01*
X41658428Y-36131714D02*
X40944142Y-35845999D01*
X40944142Y-35845999D02*
X41658428Y-35560285D01*
X41658428Y-35560285D02*
X40658428Y-35274571D01*
X41587000Y-34060285D02*
X41658428Y-34203142D01*
X41658428Y-34203142D02*
X41658428Y-34488856D01*
X41658428Y-34488856D02*
X41587000Y-34631713D01*
X41587000Y-34631713D02*
X41515571Y-34703142D01*
X41515571Y-34703142D02*
X41372714Y-34774570D01*
X41372714Y-34774570D02*
X40944142Y-34774570D01*
X40944142Y-34774570D02*
X40801285Y-34703142D01*
X40801285Y-34703142D02*
X40729857Y-34631713D01*
X40729857Y-34631713D02*
X40658428Y-34488856D01*
X40658428Y-34488856D02*
X40658428Y-34203142D01*
X40658428Y-34203142D02*
X40729857Y-34060285D01*
X41658428Y-33203142D02*
X41587000Y-33345999D01*
X41587000Y-33345999D02*
X41444142Y-33417428D01*
X41444142Y-33417428D02*
X40158428Y-33417428D01*
X41658428Y-32631714D02*
X40158428Y-32631714D01*
X41087000Y-32488857D02*
X41658428Y-32060285D01*
X40658428Y-32060285D02*
X41229857Y-32631714D01*
X44017000Y-37560285D02*
X44088428Y-37417428D01*
X44088428Y-37417428D02*
X44088428Y-37131714D01*
X44088428Y-37131714D02*
X44017000Y-36988857D01*
X44017000Y-36988857D02*
X43874142Y-36917428D01*
X43874142Y-36917428D02*
X43802714Y-36917428D01*
X43802714Y-36917428D02*
X43659857Y-36988857D01*
X43659857Y-36988857D02*
X43588428Y-37131714D01*
X43588428Y-37131714D02*
X43588428Y-37346000D01*
X43588428Y-37346000D02*
X43517000Y-37488857D01*
X43517000Y-37488857D02*
X43374142Y-37560285D01*
X43374142Y-37560285D02*
X43302714Y-37560285D01*
X43302714Y-37560285D02*
X43159857Y-37488857D01*
X43159857Y-37488857D02*
X43088428Y-37346000D01*
X43088428Y-37346000D02*
X43088428Y-37131714D01*
X43088428Y-37131714D02*
X43159857Y-36988857D01*
X43088428Y-36417428D02*
X44088428Y-36131714D01*
X44088428Y-36131714D02*
X43374142Y-35845999D01*
X43374142Y-35845999D02*
X44088428Y-35560285D01*
X44088428Y-35560285D02*
X43088428Y-35274571D01*
X44088428Y-34060285D02*
X42588428Y-34060285D01*
X44017000Y-34060285D02*
X44088428Y-34203142D01*
X44088428Y-34203142D02*
X44088428Y-34488856D01*
X44088428Y-34488856D02*
X44017000Y-34631713D01*
X44017000Y-34631713D02*
X43945571Y-34703142D01*
X43945571Y-34703142D02*
X43802714Y-34774570D01*
X43802714Y-34774570D02*
X43374142Y-34774570D01*
X43374142Y-34774570D02*
X43231285Y-34703142D01*
X43231285Y-34703142D02*
X43159857Y-34631713D01*
X43159857Y-34631713D02*
X43088428Y-34488856D01*
X43088428Y-34488856D02*
X43088428Y-34203142D01*
X43088428Y-34203142D02*
X43159857Y-34060285D01*
X44088428Y-33345999D02*
X43088428Y-33345999D01*
X42588428Y-33345999D02*
X42659857Y-33417427D01*
X42659857Y-33417427D02*
X42731285Y-33345999D01*
X42731285Y-33345999D02*
X42659857Y-33274570D01*
X42659857Y-33274570D02*
X42588428Y-33345999D01*
X42588428Y-33345999D02*
X42731285Y-33345999D01*
X44088428Y-32417427D02*
X44017000Y-32560284D01*
X44017000Y-32560284D02*
X43945571Y-32631713D01*
X43945571Y-32631713D02*
X43802714Y-32703141D01*
X43802714Y-32703141D02*
X43374142Y-32703141D01*
X43374142Y-32703141D02*
X43231285Y-32631713D01*
X43231285Y-32631713D02*
X43159857Y-32560284D01*
X43159857Y-32560284D02*
X43088428Y-32417427D01*
X43088428Y-32417427D02*
X43088428Y-32203141D01*
X43088428Y-32203141D02*
X43159857Y-32060284D01*
X43159857Y-32060284D02*
X43231285Y-31988856D01*
X43231285Y-31988856D02*
X43374142Y-31917427D01*
X43374142Y-31917427D02*
X43802714Y-31917427D01*
X43802714Y-31917427D02*
X43945571Y-31988856D01*
X43945571Y-31988856D02*
X44017000Y-32060284D01*
X44017000Y-32060284D02*
X44088428Y-32203141D01*
X44088428Y-32203141D02*
X44088428Y-32417427D01*
X45947000Y-37488857D02*
X45947000Y-36346000D01*
X46518428Y-36917428D02*
X45375571Y-36917428D01*
X45018428Y-35774571D02*
X45018428Y-34845999D01*
X45018428Y-34845999D02*
X45589857Y-35345999D01*
X45589857Y-35345999D02*
X45589857Y-35131714D01*
X45589857Y-35131714D02*
X45661285Y-34988857D01*
X45661285Y-34988857D02*
X45732714Y-34917428D01*
X45732714Y-34917428D02*
X45875571Y-34845999D01*
X45875571Y-34845999D02*
X46232714Y-34845999D01*
X46232714Y-34845999D02*
X46375571Y-34917428D01*
X46375571Y-34917428D02*
X46447000Y-34988857D01*
X46447000Y-34988857D02*
X46518428Y-35131714D01*
X46518428Y-35131714D02*
X46518428Y-35560285D01*
X46518428Y-35560285D02*
X46447000Y-35703142D01*
X46447000Y-35703142D02*
X46375571Y-35774571D01*
X46375571Y-34203143D02*
X46447000Y-34131714D01*
X46447000Y-34131714D02*
X46518428Y-34203143D01*
X46518428Y-34203143D02*
X46447000Y-34274571D01*
X46447000Y-34274571D02*
X46375571Y-34203143D01*
X46375571Y-34203143D02*
X46518428Y-34203143D01*
X45018428Y-33631714D02*
X45018428Y-32703142D01*
X45018428Y-32703142D02*
X45589857Y-33203142D01*
X45589857Y-33203142D02*
X45589857Y-32988857D01*
X45589857Y-32988857D02*
X45661285Y-32846000D01*
X45661285Y-32846000D02*
X45732714Y-32774571D01*
X45732714Y-32774571D02*
X45875571Y-32703142D01*
X45875571Y-32703142D02*
X46232714Y-32703142D01*
X46232714Y-32703142D02*
X46375571Y-32774571D01*
X46375571Y-32774571D02*
X46447000Y-32846000D01*
X46447000Y-32846000D02*
X46518428Y-32988857D01*
X46518428Y-32988857D02*
X46518428Y-33417428D01*
X46518428Y-33417428D02*
X46447000Y-33560285D01*
X46447000Y-33560285D02*
X46375571Y-33631714D01*
X45018428Y-32274571D02*
X46518428Y-31774571D01*
X46518428Y-31774571D02*
X45018428Y-31274571D01*
X47519857Y-36703142D02*
X47448428Y-36846000D01*
X47448428Y-36846000D02*
X47448428Y-37060285D01*
X47448428Y-37060285D02*
X47519857Y-37274571D01*
X47519857Y-37274571D02*
X47662714Y-37417428D01*
X47662714Y-37417428D02*
X47805571Y-37488857D01*
X47805571Y-37488857D02*
X48091285Y-37560285D01*
X48091285Y-37560285D02*
X48305571Y-37560285D01*
X48305571Y-37560285D02*
X48591285Y-37488857D01*
X48591285Y-37488857D02*
X48734142Y-37417428D01*
X48734142Y-37417428D02*
X48877000Y-37274571D01*
X48877000Y-37274571D02*
X48948428Y-37060285D01*
X48948428Y-37060285D02*
X48948428Y-36917428D01*
X48948428Y-36917428D02*
X48877000Y-36703142D01*
X48877000Y-36703142D02*
X48805571Y-36631714D01*
X48805571Y-36631714D02*
X48305571Y-36631714D01*
X48305571Y-36631714D02*
X48305571Y-36917428D01*
X48948428Y-35988857D02*
X47448428Y-35988857D01*
X47448428Y-35988857D02*
X48948428Y-35131714D01*
X48948428Y-35131714D02*
X47448428Y-35131714D01*
X48948428Y-34417428D02*
X47448428Y-34417428D01*
X47448428Y-34417428D02*
X47448428Y-34060285D01*
X47448428Y-34060285D02*
X47519857Y-33845999D01*
X47519857Y-33845999D02*
X47662714Y-33703142D01*
X47662714Y-33703142D02*
X47805571Y-33631713D01*
X47805571Y-33631713D02*
X48091285Y-33560285D01*
X48091285Y-33560285D02*
X48305571Y-33560285D01*
X48305571Y-33560285D02*
X48591285Y-33631713D01*
X48591285Y-33631713D02*
X48734142Y-33703142D01*
X48734142Y-33703142D02*
X48877000Y-33845999D01*
X48877000Y-33845999D02*
X48948428Y-34060285D01*
X48948428Y-34060285D02*
X48948428Y-34417428D01*
X51378428Y-37488857D02*
X49878428Y-37488857D01*
X49878428Y-37488857D02*
X51378428Y-36631714D01*
X51378428Y-36631714D02*
X49878428Y-36631714D01*
X51378428Y-35060285D02*
X50664142Y-35560285D01*
X51378428Y-35917428D02*
X49878428Y-35917428D01*
X49878428Y-35917428D02*
X49878428Y-35345999D01*
X49878428Y-35345999D02*
X49949857Y-35203142D01*
X49949857Y-35203142D02*
X50021285Y-35131713D01*
X50021285Y-35131713D02*
X50164142Y-35060285D01*
X50164142Y-35060285D02*
X50378428Y-35060285D01*
X50378428Y-35060285D02*
X50521285Y-35131713D01*
X50521285Y-35131713D02*
X50592714Y-35203142D01*
X50592714Y-35203142D02*
X50664142Y-35345999D01*
X50664142Y-35345999D02*
X50664142Y-35917428D01*
X51307000Y-34488856D02*
X51378428Y-34274571D01*
X51378428Y-34274571D02*
X51378428Y-33917428D01*
X51378428Y-33917428D02*
X51307000Y-33774571D01*
X51307000Y-33774571D02*
X51235571Y-33703142D01*
X51235571Y-33703142D02*
X51092714Y-33631713D01*
X51092714Y-33631713D02*
X50949857Y-33631713D01*
X50949857Y-33631713D02*
X50807000Y-33703142D01*
X50807000Y-33703142D02*
X50735571Y-33774571D01*
X50735571Y-33774571D02*
X50664142Y-33917428D01*
X50664142Y-33917428D02*
X50592714Y-34203142D01*
X50592714Y-34203142D02*
X50521285Y-34345999D01*
X50521285Y-34345999D02*
X50449857Y-34417428D01*
X50449857Y-34417428D02*
X50307000Y-34488856D01*
X50307000Y-34488856D02*
X50164142Y-34488856D01*
X50164142Y-34488856D02*
X50021285Y-34417428D01*
X50021285Y-34417428D02*
X49949857Y-34345999D01*
X49949857Y-34345999D02*
X49878428Y-34203142D01*
X49878428Y-34203142D02*
X49878428Y-33845999D01*
X49878428Y-33845999D02*
X49949857Y-33631713D01*
X49878428Y-33203142D02*
X49878428Y-32346000D01*
X51378428Y-32774571D02*
X49878428Y-32774571D01*
D11*
%TO.C,J8*%
X74596666Y-69082619D02*
X74596666Y-69796904D01*
X74596666Y-69796904D02*
X74549047Y-69939761D01*
X74549047Y-69939761D02*
X74453809Y-70035000D01*
X74453809Y-70035000D02*
X74310952Y-70082619D01*
X74310952Y-70082619D02*
X74215714Y-70082619D01*
X75215714Y-69511190D02*
X75120476Y-69463571D01*
X75120476Y-69463571D02*
X75072857Y-69415952D01*
X75072857Y-69415952D02*
X75025238Y-69320714D01*
X75025238Y-69320714D02*
X75025238Y-69273095D01*
X75025238Y-69273095D02*
X75072857Y-69177857D01*
X75072857Y-69177857D02*
X75120476Y-69130238D01*
X75120476Y-69130238D02*
X75215714Y-69082619D01*
X75215714Y-69082619D02*
X75406190Y-69082619D01*
X75406190Y-69082619D02*
X75501428Y-69130238D01*
X75501428Y-69130238D02*
X75549047Y-69177857D01*
X75549047Y-69177857D02*
X75596666Y-69273095D01*
X75596666Y-69273095D02*
X75596666Y-69320714D01*
X75596666Y-69320714D02*
X75549047Y-69415952D01*
X75549047Y-69415952D02*
X75501428Y-69463571D01*
X75501428Y-69463571D02*
X75406190Y-69511190D01*
X75406190Y-69511190D02*
X75215714Y-69511190D01*
X75215714Y-69511190D02*
X75120476Y-69558809D01*
X75120476Y-69558809D02*
X75072857Y-69606428D01*
X75072857Y-69606428D02*
X75025238Y-69701666D01*
X75025238Y-69701666D02*
X75025238Y-69892142D01*
X75025238Y-69892142D02*
X75072857Y-69987380D01*
X75072857Y-69987380D02*
X75120476Y-70035000D01*
X75120476Y-70035000D02*
X75215714Y-70082619D01*
X75215714Y-70082619D02*
X75406190Y-70082619D01*
X75406190Y-70082619D02*
X75501428Y-70035000D01*
X75501428Y-70035000D02*
X75549047Y-69987380D01*
X75549047Y-69987380D02*
X75596666Y-69892142D01*
X75596666Y-69892142D02*
X75596666Y-69701666D01*
X75596666Y-69701666D02*
X75549047Y-69606428D01*
X75549047Y-69606428D02*
X75501428Y-69558809D01*
X75501428Y-69558809D02*
X75406190Y-69511190D01*
%TO.C,J4*%
X55546666Y-57350619D02*
X55546666Y-58064904D01*
X55546666Y-58064904D02*
X55499047Y-58207761D01*
X55499047Y-58207761D02*
X55403809Y-58303000D01*
X55403809Y-58303000D02*
X55260952Y-58350619D01*
X55260952Y-58350619D02*
X55165714Y-58350619D01*
X56451428Y-57683952D02*
X56451428Y-58350619D01*
X56213333Y-57303000D02*
X55975238Y-58017285D01*
X55975238Y-58017285D02*
X56594285Y-58017285D01*
%TO.C,C6*%
X67579380Y-34964666D02*
X67627000Y-35012285D01*
X67627000Y-35012285D02*
X67674619Y-35155142D01*
X67674619Y-35155142D02*
X67674619Y-35250380D01*
X67674619Y-35250380D02*
X67627000Y-35393237D01*
X67627000Y-35393237D02*
X67531761Y-35488475D01*
X67531761Y-35488475D02*
X67436523Y-35536094D01*
X67436523Y-35536094D02*
X67246047Y-35583713D01*
X67246047Y-35583713D02*
X67103190Y-35583713D01*
X67103190Y-35583713D02*
X66912714Y-35536094D01*
X66912714Y-35536094D02*
X66817476Y-35488475D01*
X66817476Y-35488475D02*
X66722238Y-35393237D01*
X66722238Y-35393237D02*
X66674619Y-35250380D01*
X66674619Y-35250380D02*
X66674619Y-35155142D01*
X66674619Y-35155142D02*
X66722238Y-35012285D01*
X66722238Y-35012285D02*
X66769857Y-34964666D01*
X66674619Y-34107523D02*
X66674619Y-34297999D01*
X66674619Y-34297999D02*
X66722238Y-34393237D01*
X66722238Y-34393237D02*
X66769857Y-34440856D01*
X66769857Y-34440856D02*
X66912714Y-34536094D01*
X66912714Y-34536094D02*
X67103190Y-34583713D01*
X67103190Y-34583713D02*
X67484142Y-34583713D01*
X67484142Y-34583713D02*
X67579380Y-34536094D01*
X67579380Y-34536094D02*
X67627000Y-34488475D01*
X67627000Y-34488475D02*
X67674619Y-34393237D01*
X67674619Y-34393237D02*
X67674619Y-34202761D01*
X67674619Y-34202761D02*
X67627000Y-34107523D01*
X67627000Y-34107523D02*
X67579380Y-34059904D01*
X67579380Y-34059904D02*
X67484142Y-34012285D01*
X67484142Y-34012285D02*
X67246047Y-34012285D01*
X67246047Y-34012285D02*
X67150809Y-34059904D01*
X67150809Y-34059904D02*
X67103190Y-34107523D01*
X67103190Y-34107523D02*
X67055571Y-34202761D01*
X67055571Y-34202761D02*
X67055571Y-34393237D01*
X67055571Y-34393237D02*
X67103190Y-34488475D01*
X67103190Y-34488475D02*
X67150809Y-34536094D01*
X67150809Y-34536094D02*
X67246047Y-34583713D01*
%TO.C,J6*%
X67484666Y-69082619D02*
X67484666Y-69796904D01*
X67484666Y-69796904D02*
X67437047Y-69939761D01*
X67437047Y-69939761D02*
X67341809Y-70035000D01*
X67341809Y-70035000D02*
X67198952Y-70082619D01*
X67198952Y-70082619D02*
X67103714Y-70082619D01*
X68389428Y-69082619D02*
X68198952Y-69082619D01*
X68198952Y-69082619D02*
X68103714Y-69130238D01*
X68103714Y-69130238D02*
X68056095Y-69177857D01*
X68056095Y-69177857D02*
X67960857Y-69320714D01*
X67960857Y-69320714D02*
X67913238Y-69511190D01*
X67913238Y-69511190D02*
X67913238Y-69892142D01*
X67913238Y-69892142D02*
X67960857Y-69987380D01*
X67960857Y-69987380D02*
X68008476Y-70035000D01*
X68008476Y-70035000D02*
X68103714Y-70082619D01*
X68103714Y-70082619D02*
X68294190Y-70082619D01*
X68294190Y-70082619D02*
X68389428Y-70035000D01*
X68389428Y-70035000D02*
X68437047Y-69987380D01*
X68437047Y-69987380D02*
X68484666Y-69892142D01*
X68484666Y-69892142D02*
X68484666Y-69654047D01*
X68484666Y-69654047D02*
X68437047Y-69558809D01*
X68437047Y-69558809D02*
X68389428Y-69511190D01*
X68389428Y-69511190D02*
X68294190Y-69463571D01*
X68294190Y-69463571D02*
X68103714Y-69463571D01*
X68103714Y-69463571D02*
X68008476Y-69511190D01*
X68008476Y-69511190D02*
X67960857Y-69558809D01*
X67960857Y-69558809D02*
X67913238Y-69654047D01*
%TO.C,C7*%
X63261380Y-35726666D02*
X63309000Y-35774285D01*
X63309000Y-35774285D02*
X63356619Y-35917142D01*
X63356619Y-35917142D02*
X63356619Y-36012380D01*
X63356619Y-36012380D02*
X63309000Y-36155237D01*
X63309000Y-36155237D02*
X63213761Y-36250475D01*
X63213761Y-36250475D02*
X63118523Y-36298094D01*
X63118523Y-36298094D02*
X62928047Y-36345713D01*
X62928047Y-36345713D02*
X62785190Y-36345713D01*
X62785190Y-36345713D02*
X62594714Y-36298094D01*
X62594714Y-36298094D02*
X62499476Y-36250475D01*
X62499476Y-36250475D02*
X62404238Y-36155237D01*
X62404238Y-36155237D02*
X62356619Y-36012380D01*
X62356619Y-36012380D02*
X62356619Y-35917142D01*
X62356619Y-35917142D02*
X62404238Y-35774285D01*
X62404238Y-35774285D02*
X62451857Y-35726666D01*
X62356619Y-35393332D02*
X62356619Y-34726666D01*
X62356619Y-34726666D02*
X63356619Y-35155237D01*
%TO.C,J2*%
X37078619Y-39449333D02*
X37792904Y-39449333D01*
X37792904Y-39449333D02*
X37935761Y-39496952D01*
X37935761Y-39496952D02*
X38031000Y-39592190D01*
X38031000Y-39592190D02*
X38078619Y-39735047D01*
X38078619Y-39735047D02*
X38078619Y-39830285D01*
X37173857Y-39020761D02*
X37126238Y-38973142D01*
X37126238Y-38973142D02*
X37078619Y-38877904D01*
X37078619Y-38877904D02*
X37078619Y-38639809D01*
X37078619Y-38639809D02*
X37126238Y-38544571D01*
X37126238Y-38544571D02*
X37173857Y-38496952D01*
X37173857Y-38496952D02*
X37269095Y-38449333D01*
X37269095Y-38449333D02*
X37364333Y-38449333D01*
X37364333Y-38449333D02*
X37507190Y-38496952D01*
X37507190Y-38496952D02*
X38078619Y-39068380D01*
X38078619Y-39068380D02*
X38078619Y-38449333D01*
%TO.C,J3*%
X47926666Y-74034619D02*
X47926666Y-74748904D01*
X47926666Y-74748904D02*
X47879047Y-74891761D01*
X47879047Y-74891761D02*
X47783809Y-74987000D01*
X47783809Y-74987000D02*
X47640952Y-75034619D01*
X47640952Y-75034619D02*
X47545714Y-75034619D01*
X48307619Y-74034619D02*
X48926666Y-74034619D01*
X48926666Y-74034619D02*
X48593333Y-74415571D01*
X48593333Y-74415571D02*
X48736190Y-74415571D01*
X48736190Y-74415571D02*
X48831428Y-74463190D01*
X48831428Y-74463190D02*
X48879047Y-74510809D01*
X48879047Y-74510809D02*
X48926666Y-74606047D01*
X48926666Y-74606047D02*
X48926666Y-74844142D01*
X48926666Y-74844142D02*
X48879047Y-74939380D01*
X48879047Y-74939380D02*
X48831428Y-74987000D01*
X48831428Y-74987000D02*
X48736190Y-75034619D01*
X48736190Y-75034619D02*
X48450476Y-75034619D01*
X48450476Y-75034619D02*
X48355238Y-74987000D01*
X48355238Y-74987000D02*
X48307619Y-74939380D01*
%TO.C,J5*%
X38021619Y-72723333D02*
X38735904Y-72723333D01*
X38735904Y-72723333D02*
X38878761Y-72770952D01*
X38878761Y-72770952D02*
X38974000Y-72866190D01*
X38974000Y-72866190D02*
X39021619Y-73009047D01*
X39021619Y-73009047D02*
X39021619Y-73104285D01*
X38021619Y-71770952D02*
X38021619Y-72247142D01*
X38021619Y-72247142D02*
X38497809Y-72294761D01*
X38497809Y-72294761D02*
X38450190Y-72247142D01*
X38450190Y-72247142D02*
X38402571Y-72151904D01*
X38402571Y-72151904D02*
X38402571Y-71913809D01*
X38402571Y-71913809D02*
X38450190Y-71818571D01*
X38450190Y-71818571D02*
X38497809Y-71770952D01*
X38497809Y-71770952D02*
X38593047Y-71723333D01*
X38593047Y-71723333D02*
X38831142Y-71723333D01*
X38831142Y-71723333D02*
X38926380Y-71770952D01*
X38926380Y-71770952D02*
X38974000Y-71818571D01*
X38974000Y-71818571D02*
X39021619Y-71913809D01*
X39021619Y-71913809D02*
X39021619Y-72151904D01*
X39021619Y-72151904D02*
X38974000Y-72247142D01*
X38974000Y-72247142D02*
X38926380Y-72294761D01*
%TO.C,R8*%
X29297333Y-62580619D02*
X28964000Y-62104428D01*
X28725905Y-62580619D02*
X28725905Y-61580619D01*
X28725905Y-61580619D02*
X29106857Y-61580619D01*
X29106857Y-61580619D02*
X29202095Y-61628238D01*
X29202095Y-61628238D02*
X29249714Y-61675857D01*
X29249714Y-61675857D02*
X29297333Y-61771095D01*
X29297333Y-61771095D02*
X29297333Y-61913952D01*
X29297333Y-61913952D02*
X29249714Y-62009190D01*
X29249714Y-62009190D02*
X29202095Y-62056809D01*
X29202095Y-62056809D02*
X29106857Y-62104428D01*
X29106857Y-62104428D02*
X28725905Y-62104428D01*
X29868762Y-62009190D02*
X29773524Y-61961571D01*
X29773524Y-61961571D02*
X29725905Y-61913952D01*
X29725905Y-61913952D02*
X29678286Y-61818714D01*
X29678286Y-61818714D02*
X29678286Y-61771095D01*
X29678286Y-61771095D02*
X29725905Y-61675857D01*
X29725905Y-61675857D02*
X29773524Y-61628238D01*
X29773524Y-61628238D02*
X29868762Y-61580619D01*
X29868762Y-61580619D02*
X30059238Y-61580619D01*
X30059238Y-61580619D02*
X30154476Y-61628238D01*
X30154476Y-61628238D02*
X30202095Y-61675857D01*
X30202095Y-61675857D02*
X30249714Y-61771095D01*
X30249714Y-61771095D02*
X30249714Y-61818714D01*
X30249714Y-61818714D02*
X30202095Y-61913952D01*
X30202095Y-61913952D02*
X30154476Y-61961571D01*
X30154476Y-61961571D02*
X30059238Y-62009190D01*
X30059238Y-62009190D02*
X29868762Y-62009190D01*
X29868762Y-62009190D02*
X29773524Y-62056809D01*
X29773524Y-62056809D02*
X29725905Y-62104428D01*
X29725905Y-62104428D02*
X29678286Y-62199666D01*
X29678286Y-62199666D02*
X29678286Y-62390142D01*
X29678286Y-62390142D02*
X29725905Y-62485380D01*
X29725905Y-62485380D02*
X29773524Y-62533000D01*
X29773524Y-62533000D02*
X29868762Y-62580619D01*
X29868762Y-62580619D02*
X30059238Y-62580619D01*
X30059238Y-62580619D02*
X30154476Y-62533000D01*
X30154476Y-62533000D02*
X30202095Y-62485380D01*
X30202095Y-62485380D02*
X30249714Y-62390142D01*
X30249714Y-62390142D02*
X30249714Y-62199666D01*
X30249714Y-62199666D02*
X30202095Y-62104428D01*
X30202095Y-62104428D02*
X30154476Y-62056809D01*
X30154476Y-62056809D02*
X30059238Y-62009190D01*
%TO.C,J9*%
X30655619Y-73231333D02*
X31369904Y-73231333D01*
X31369904Y-73231333D02*
X31512761Y-73278952D01*
X31512761Y-73278952D02*
X31608000Y-73374190D01*
X31608000Y-73374190D02*
X31655619Y-73517047D01*
X31655619Y-73517047D02*
X31655619Y-73612285D01*
X31655619Y-72707523D02*
X31655619Y-72517047D01*
X31655619Y-72517047D02*
X31608000Y-72421809D01*
X31608000Y-72421809D02*
X31560380Y-72374190D01*
X31560380Y-72374190D02*
X31417523Y-72278952D01*
X31417523Y-72278952D02*
X31227047Y-72231333D01*
X31227047Y-72231333D02*
X30846095Y-72231333D01*
X30846095Y-72231333D02*
X30750857Y-72278952D01*
X30750857Y-72278952D02*
X30703238Y-72326571D01*
X30703238Y-72326571D02*
X30655619Y-72421809D01*
X30655619Y-72421809D02*
X30655619Y-72612285D01*
X30655619Y-72612285D02*
X30703238Y-72707523D01*
X30703238Y-72707523D02*
X30750857Y-72755142D01*
X30750857Y-72755142D02*
X30846095Y-72802761D01*
X30846095Y-72802761D02*
X31084190Y-72802761D01*
X31084190Y-72802761D02*
X31179428Y-72755142D01*
X31179428Y-72755142D02*
X31227047Y-72707523D01*
X31227047Y-72707523D02*
X31274666Y-72612285D01*
X31274666Y-72612285D02*
X31274666Y-72421809D01*
X31274666Y-72421809D02*
X31227047Y-72326571D01*
X31227047Y-72326571D02*
X31179428Y-72278952D01*
X31179428Y-72278952D02*
X31084190Y-72231333D01*
%TO.C,J7*%
X71040666Y-69082619D02*
X71040666Y-69796904D01*
X71040666Y-69796904D02*
X70993047Y-69939761D01*
X70993047Y-69939761D02*
X70897809Y-70035000D01*
X70897809Y-70035000D02*
X70754952Y-70082619D01*
X70754952Y-70082619D02*
X70659714Y-70082619D01*
X71421619Y-69082619D02*
X72088285Y-69082619D01*
X72088285Y-69082619D02*
X71659714Y-70082619D01*
%TO.C,J1*%
X30654666Y-55386619D02*
X30654666Y-56100904D01*
X30654666Y-56100904D02*
X30607047Y-56243761D01*
X30607047Y-56243761D02*
X30511809Y-56339000D01*
X30511809Y-56339000D02*
X30368952Y-56386619D01*
X30368952Y-56386619D02*
X30273714Y-56386619D01*
X31654666Y-56386619D02*
X31083238Y-56386619D01*
X31368952Y-56386619D02*
X31368952Y-55386619D01*
X31368952Y-55386619D02*
X31273714Y-55529476D01*
X31273714Y-55529476D02*
X31178476Y-55624714D01*
X31178476Y-55624714D02*
X31083238Y-55672333D01*
D12*
%TO.C,C9*%
X46489252Y-43407000D02*
X45966748Y-43407000D01*
X46489252Y-41937000D02*
X45966748Y-41937000D01*
%TO.C,J8*%
X73600000Y-73660000D02*
X73600000Y-78800000D01*
X73600000Y-73660000D02*
X76260000Y-73660000D01*
X73600000Y-78800000D02*
X76260000Y-78800000D01*
X74930000Y-71060000D02*
X76260000Y-71060000D01*
X76260000Y-71060000D02*
X76260000Y-72390000D01*
X76260000Y-73660000D02*
X76260000Y-78800000D01*
%TO.C,J4*%
X57210000Y-53848000D02*
X57210000Y-41088000D01*
X57210000Y-53848000D02*
X54550000Y-53848000D01*
X57210000Y-41088000D02*
X54550000Y-41088000D01*
X55880000Y-56448000D02*
X54550000Y-56448000D01*
X54550000Y-56448000D02*
X54550000Y-55118000D01*
X54550000Y-53848000D02*
X54550000Y-41088000D01*
%TO.C,C6*%
X66267000Y-34536748D02*
X66267000Y-35059252D01*
X64797000Y-34536748D02*
X64797000Y-35059252D01*
%TO.C,J6*%
X66488000Y-73660000D02*
X66488000Y-78800000D01*
X66488000Y-73660000D02*
X69148000Y-73660000D01*
X66488000Y-78800000D02*
X69148000Y-78800000D01*
X67818000Y-71060000D02*
X69148000Y-71060000D01*
X69148000Y-71060000D02*
X69148000Y-72390000D01*
X69148000Y-73660000D02*
X69148000Y-78800000D01*
%TO.C,C7*%
X61949000Y-35298748D02*
X61949000Y-35821252D01*
X60479000Y-35298748D02*
X60479000Y-35821252D01*
%TO.C,J2*%
X41656000Y-40446000D02*
X51876000Y-40446000D01*
X41656000Y-40446000D02*
X41656000Y-37786000D01*
X51876000Y-40446000D02*
X51876000Y-37786000D01*
X39056000Y-39116000D02*
X39056000Y-37786000D01*
X39056000Y-37786000D02*
X40386000Y-37786000D01*
X41656000Y-37786000D02*
X51876000Y-37786000D01*
%TO.C,J3*%
X49590000Y-70532000D02*
X49590000Y-65392000D01*
X49590000Y-70532000D02*
X46930000Y-70532000D01*
X49590000Y-65392000D02*
X46930000Y-65392000D01*
X48260000Y-73132000D02*
X46930000Y-73132000D01*
X46930000Y-73132000D02*
X46930000Y-71802000D01*
X46930000Y-70532000D02*
X46930000Y-65392000D01*
%TO.C,J5*%
X39559000Y-73720000D02*
X39559000Y-72390000D01*
X40889000Y-73720000D02*
X39559000Y-73720000D01*
X42159000Y-73720000D02*
X44759000Y-73720000D01*
X42159000Y-73720000D02*
X42159000Y-71060000D01*
X44759000Y-73720000D02*
X44759000Y-71060000D01*
X42159000Y-71060000D02*
X44759000Y-71060000D01*
%TO.C,R8*%
X32334000Y-60198000D02*
X31384000Y-60198000D01*
X31384000Y-61118000D02*
X31384000Y-59278000D01*
X31384000Y-59278000D02*
X27544000Y-59278000D01*
X27544000Y-61118000D02*
X31384000Y-61118000D01*
X27544000Y-59278000D02*
X27544000Y-61118000D01*
X26594000Y-60198000D02*
X27544000Y-60198000D01*
%TO.C,J9*%
X32193000Y-74228000D02*
X32193000Y-72898000D01*
X33523000Y-74228000D02*
X32193000Y-74228000D01*
X34793000Y-74228000D02*
X37393000Y-74228000D01*
X34793000Y-74228000D02*
X34793000Y-71568000D01*
X37393000Y-74228000D02*
X37393000Y-71568000D01*
X34793000Y-71568000D02*
X37393000Y-71568000D01*
%TO.C,J7*%
X70044000Y-73660000D02*
X70044000Y-78800000D01*
X70044000Y-73660000D02*
X72704000Y-73660000D01*
X70044000Y-78800000D02*
X72704000Y-78800000D01*
X71374000Y-71060000D02*
X72704000Y-71060000D01*
X72704000Y-71060000D02*
X72704000Y-72390000D01*
X72704000Y-73660000D02*
X72704000Y-78800000D01*
%TO.C,J1*%
X32318000Y-54924000D02*
X30988000Y-54924000D01*
X32318000Y-53594000D02*
X32318000Y-54924000D01*
X32318000Y-52324000D02*
X32318000Y-44644000D01*
X32318000Y-52324000D02*
X29658000Y-52324000D01*
X32318000Y-44644000D02*
X29658000Y-44644000D01*
X29658000Y-52324000D02*
X29658000Y-44644000D01*
%TD*%
%LPC*%
D13*
%TO.C,C9*%
X47265500Y-42672000D03*
X45190500Y-42672000D03*
%TD*%
D14*
%TO.C,J8*%
X74930000Y-72390000D03*
D15*
X74930000Y-74930000D03*
X74930000Y-77470000D03*
%TD*%
D14*
%TO.C,J4*%
X55880000Y-55118000D03*
D15*
X55880000Y-52578000D03*
X55880000Y-50038000D03*
X55880000Y-47498000D03*
X55880000Y-44958000D03*
X55880000Y-42418000D03*
%TD*%
D16*
%TO.C,C6*%
X65532000Y-33760500D03*
X65532000Y-35835500D03*
%TD*%
D14*
%TO.C,J6*%
X67818000Y-72390000D03*
D15*
X67818000Y-74930000D03*
X67818000Y-77470000D03*
%TD*%
D16*
%TO.C,C7*%
X61214000Y-34522500D03*
X61214000Y-36597500D03*
%TD*%
D14*
%TO.C,J2*%
X40386000Y-39116000D03*
D15*
X42926000Y-39116000D03*
X45466000Y-39116000D03*
X48006000Y-39116000D03*
X50546000Y-39116000D03*
%TD*%
D14*
%TO.C,J3*%
X48260000Y-71802000D03*
D15*
X48260000Y-69262000D03*
X48260000Y-66722000D03*
%TD*%
D14*
%TO.C,J5*%
X40889000Y-72390000D03*
D15*
X43429000Y-72390000D03*
%TD*%
D17*
%TO.C,R8*%
X33274000Y-60198000D03*
D18*
X25654000Y-60198000D03*
%TD*%
D14*
%TO.C,J9*%
X33523000Y-72898000D03*
D15*
X36063000Y-72898000D03*
%TD*%
D14*
%TO.C,J7*%
X71374000Y-72390000D03*
D15*
X71374000Y-74930000D03*
X71374000Y-77470000D03*
%TD*%
D14*
%TO.C,J1*%
X30988000Y-53594000D03*
D15*
X30988000Y-51054000D03*
X30988000Y-48514000D03*
X30988000Y-45974000D03*
%TD*%
D17*
%TO.C,R7*%
X43434000Y-74930000D03*
D18*
X35814000Y-74930000D03*
%TD*%
M02*
