M48
; DRILL file {KiCad 7.0.1} date Fri Apr 28 23:03:07 2023
; FORMAT={-:-/ absolute / metric / decimal}
; #@! TF.CreationDate,2023-04-28T23:03:07+02:00
; #@! TF.GenerationSoftware,Kicad,Pcbnew,7.0.1
; #@! TF.FileFunction,Plated,1,4,PTH
FMAT,2
METRIC
; #@! TA.AperFunction,Plated,PTH,ViaDrill
T1C0.400
; #@! TA.AperFunction,Plated,PTH,ComponentDrill
T2C0.650
; #@! TA.AperFunction,Plated,PTH,ComponentDrill
T3C1.000
; #@! TA.AperFunction,Plated,PTH,ComponentDrill
T4C1.020
; #@! TA.AperFunction,Plated,PTH,ComponentDrill
T5C1.320
%
G90
G05
T1
X65.786Y-87.376
X66.294Y-102.616
X67.056Y-55.626
X67.818Y-71.12
X68.098Y-57.404
X69.062Y-81.723
X69.062Y-92.137
X69.062Y-97.79
X69.062Y-107.696
X69.316Y-78.326
X70.612Y-59.182
X70.612Y-63.246
X70.866Y-68.42
X70.866Y-86.106
X71.882Y-62.992
X72.162Y-81.723
X72.162Y-92.137
X72.162Y-97.79
X72.162Y-107.696
X72.333Y-102.653
X72.39Y-68.42
X72.39Y-79.85
X73.152Y-53.594
X73.406Y-63.208
X73.66Y-50.8
X73.66Y-57.912
X73.66Y-66.802
X73.66Y-95.758
X73.914Y-72.644
X74.422Y-53.594
X74.422Y-62.992
X74.676Y-90.841
X74.676Y-107.442
X74.93Y-76.962
X74.93Y-82.296
X75.389Y-96.061
X75.692Y-54.102
X75.946Y-87.565
X76.2Y-103.124
X76.962Y-63.246
X77.19Y-92.137
X77.216Y-58.674
X77.216Y-73.152
X77.216Y-82.296
X77.444Y-85.533
X77.47Y-67.056
X77.47Y-95.758
X77.724Y-68.166
X77.952Y-97.79
X77.952Y-107.696
X78.194Y-54.356
X78.232Y-63.246
X78.232Y-66.04
X78.486Y-87.819
X79.502Y-64.516
X79.756Y-68.674
X80.264Y-76.548
X80.29Y-92.137
X80.544Y-85.533
X81.052Y-97.79
X81.052Y-107.696
X81.28Y-62.51
X82.55Y-81.28
X83.566Y-104.622
X84.328Y-73.152
X84.582Y-55.88
X84.582Y-78.74
X85.598Y-98.5
X85.598Y-101.6
X85.852Y-104.14
X85.968Y-68.707
X85.968Y-69.977
X85.968Y-71.247
X85.968Y-72.517
X86.995Y-78.561
X86.995Y-87.7
X87.052Y-82.988
X87.376Y-76.962
X88.265Y-89.224
X88.379Y-78.561
X88.646Y-110.998
X89.535Y-87.446
X89.662Y-107.696
X90.424Y-61.976
X90.424Y-69.088
X90.424Y-102.59
X90.805Y-88.97
X91.186Y-78.994
X91.694Y-96.774
X91.694Y-112.776
X92.202Y-88.138
X92.964Y-80.518
X92.964Y-99.568
X93.218Y-60.96
X93.269Y-109.982
X93.472Y-64.77
X94.029Y-104.14
X94.234Y-72.606
X94.488Y-85.852
X94.869Y-75.057
X94.996Y-82.55
X95.25Y-101.346
X95.25Y-106.628
X95.25Y-109.728
X95.758Y-76.962
X96.012Y-97.282
X96.774Y-69.088
X96.774Y-105.918
X99.822Y-101.346
X100.642Y-108.204
X101.854Y-101.346
X101.912Y-107.95
X103.182Y-108.966
X103.632Y-101.854
X104.452Y-108.204
X104.648Y-100.838
X105.151Y-97.79
X106.865Y-99.67
X107.188Y-106.426
X108.966Y-102.87
X108.966Y-105.41
X109.22Y-101.346
X109.513Y-98.995
X112.619Y-106.901
X113.284Y-99.568
X114.111Y-101.281
X114.554Y-97.282
X114.656Y-106.172
X114.847Y-98.995
X115.062Y-111.252
X115.57Y-94.234
X117.094Y-76.962
X117.947Y-98.995
X118.11Y-102.108
X119.126Y-102.362
X119.38Y-98.298
X121.977Y-103.943
X123.19Y-108.458
X123.735Y-98.946
X123.952Y-92.456
X125.476Y-89.662
X125.73Y-103.886
X125.73Y-105.384
X127.0Y-95.935
X127.254Y-92.71
X127.762Y-100.455
X127.762Y-103.555
X128.016Y-97.282
X128.27Y-108.484
X129.54Y-88.9
X131.882Y-98.449
X132.334Y-100.507
X133.35Y-102.031
X133.692Y-96.126
X133.858Y-85.267
X133.858Y-94.234
X134.366Y-86.36
X134.722Y-59.196
X135.128Y-90.093
X136.906Y-98.298
X136.906Y-99.491
X136.906Y-101.854
X137.154Y-88.829
X137.414Y-84.582
X137.922Y-92.887
X137.954Y-87.744
X138.138Y-83.312
X138.938Y-85.775
X138.938Y-91.871
X139.192Y-101.092
X139.522Y-88.722
X139.7Y-102.793
X140.208Y-84.328
X140.465Y-88.391
X140.641Y-92.887
X141.224Y-96.52
X142.239Y-87.884
X142.24Y-86.791
X142.494Y-84.759
X142.748Y-92.633
X142.748Y-101.092
X143.002Y-91.617
X144.018Y-92.633
X144.018Y-101.346
X144.399Y-81.584
X145.288Y-91.186
X146.558Y-91.186
X147.574Y-102.87
X147.828Y-96.266
X148.59Y-101.092
T2
X59.944Y-73.914
X59.944Y-86.614
X59.944Y-89.916
X59.949Y-77.47
X60.198Y-56.388
X60.198Y-60.198
X60.96Y-99.06
X60.96Y-102.362
X61.214Y-73.914
X61.214Y-86.614
X61.214Y-89.916
X61.219Y-77.47
X61.468Y-56.388
X61.468Y-60.198
X62.23Y-99.06
X62.23Y-102.362
X62.484Y-73.914
X62.484Y-86.614
X62.484Y-89.916
X62.489Y-77.47
X62.738Y-56.388
X62.738Y-60.198
X63.5Y-99.06
X63.5Y-102.362
X84.333Y-110.49
X85.603Y-110.49
X86.873Y-110.49
X93.98Y-113.03
X95.25Y-113.03
X96.52Y-113.03
X109.728Y-110.236
X110.998Y-110.236
X112.268Y-110.236
X118.462Y-108.933
X119.731Y-108.933
X121.001Y-108.933
T3
X86.614Y-45.212
X89.154Y-45.212
X91.694Y-45.212
X94.234Y-45.212
X127.0Y-65.532
X127.0Y-68.072
X127.0Y-70.612
X127.0Y-73.152
X127.0Y-75.692
X131.572Y-106.095
X132.588Y-81.467
X132.588Y-84.007
X132.588Y-86.547
X132.588Y-89.087
X134.112Y-106.095
X136.652Y-106.095
X138.938Y-76.95
X139.192Y-106.095
X141.478Y-76.95
X141.732Y-106.095
X144.018Y-76.95
X144.272Y-106.095
X146.812Y-106.095
X147.066Y-80.959
X147.066Y-83.499
X147.066Y-86.039
X147.066Y-88.579
T4
X101.854Y-45.212
X101.854Y-47.752
X101.854Y-50.292
X101.854Y-52.832
X101.854Y-55.372
X101.854Y-57.912
X101.854Y-60.452
X101.854Y-62.992
X101.854Y-65.532
X101.854Y-68.072
X101.854Y-70.612
X101.854Y-73.152
X101.854Y-75.692
X101.854Y-78.232
X101.854Y-80.772
X101.854Y-83.312
X101.854Y-85.852
X101.854Y-88.392
X101.854Y-90.932
X101.854Y-93.472
X108.204Y-93.242
X110.744Y-93.242
X113.284Y-93.242
X119.634Y-45.212
X119.634Y-47.752
X119.634Y-50.292
X119.634Y-52.832
X119.634Y-55.372
X119.634Y-57.912
X119.634Y-60.452
X119.634Y-62.992
X119.634Y-65.532
X119.634Y-68.072
X119.634Y-70.612
X119.634Y-73.152
X119.634Y-75.692
X119.634Y-78.232
X119.634Y-80.772
X119.634Y-83.312
X119.634Y-85.852
X119.634Y-88.392
X119.634Y-90.932
X119.634Y-93.472
T5
X128.321Y-49.53
X133.321Y-49.53
X139.751Y-49.784
X144.751Y-49.784
T0
M30
