%TF.GenerationSoftware,KiCad,Pcbnew,7.0.1*%
%TF.CreationDate,2023-04-28T17:30:44+02:00*%
%TF.ProjectId,Hexapod_Hardware,48657861-706f-4645-9f48-617264776172,rev?*%
%TF.SameCoordinates,Original*%
%TF.FileFunction,Paste,Bot*%
%TF.FilePolarity,Positive*%
%FSLAX46Y46*%
G04 Gerber Fmt 4.6, Leading zero omitted, Abs format (unit mm)*
G04 Created by KiCad (PCBNEW 7.0.1) date 2023-04-28 17:30:44*
%MOMM*%
%LPD*%
G01*
G04 APERTURE LIST*
G04 Aperture macros list*
%AMRoundRect*
0 Rectangle with rounded corners*
0 $1 Rounding radius*
0 $2 $3 $4 $5 $6 $7 $8 $9 X,Y pos of 4 corners*
0 Add a 4 corners polygon primitive as box body*
4,1,4,$2,$3,$4,$5,$6,$7,$8,$9,$2,$3,0*
0 Add four circle primitives for the rounded corners*
1,1,$1+$1,$2,$3*
1,1,$1+$1,$4,$5*
1,1,$1+$1,$6,$7*
1,1,$1+$1,$8,$9*
0 Add four rect primitives between the rounded corners*
20,1,$1+$1,$2,$3,$4,$5,0*
20,1,$1+$1,$4,$5,$6,$7,0*
20,1,$1+$1,$6,$7,$8,$9,0*
20,1,$1+$1,$8,$9,$2,$3,0*%
G04 Aperture macros list end*
%ADD10RoundRect,0.150000X-0.825000X-0.150000X0.825000X-0.150000X0.825000X0.150000X-0.825000X0.150000X0*%
%ADD11R,2.000000X1.500000*%
%ADD12R,2.000000X3.800000*%
%ADD13RoundRect,0.250000X-0.400000X-0.625000X0.400000X-0.625000X0.400000X0.625000X-0.400000X0.625000X0*%
%ADD14RoundRect,0.150000X-0.725000X-0.150000X0.725000X-0.150000X0.725000X0.150000X-0.725000X0.150000X0*%
%ADD15RoundRect,0.250000X-0.625000X0.400000X-0.625000X-0.400000X0.625000X-0.400000X0.625000X0.400000X0*%
%ADD16RoundRect,0.250000X0.625000X-0.400000X0.625000X0.400000X-0.625000X0.400000X-0.625000X-0.400000X0*%
%ADD17RoundRect,0.250000X0.400000X0.625000X-0.400000X0.625000X-0.400000X-0.625000X0.400000X-0.625000X0*%
%ADD18RoundRect,0.150000X-0.150000X0.825000X-0.150000X-0.825000X0.150000X-0.825000X0.150000X0.825000X0*%
%ADD19RoundRect,0.250000X-0.337500X-0.475000X0.337500X-0.475000X0.337500X0.475000X-0.337500X0.475000X0*%
%ADD20RoundRect,0.150000X0.150000X-0.725000X0.150000X0.725000X-0.150000X0.725000X-0.150000X-0.725000X0*%
%ADD21RoundRect,0.250000X-0.475000X0.337500X-0.475000X-0.337500X0.475000X-0.337500X0.475000X0.337500X0*%
%ADD22RoundRect,0.150000X0.150000X-0.825000X0.150000X0.825000X-0.150000X0.825000X-0.150000X-0.825000X0*%
%ADD23RoundRect,0.250000X0.337500X0.475000X-0.337500X0.475000X-0.337500X-0.475000X0.337500X-0.475000X0*%
G04 APERTURE END LIST*
D10*
%TO.C,U7*%
X111128000Y-106426000D03*
X111128000Y-105156000D03*
X111128000Y-103886000D03*
X111128000Y-102616000D03*
X111128000Y-101346000D03*
X111128000Y-100076000D03*
X111128000Y-98806000D03*
X116078000Y-98806000D03*
X116078000Y-100076000D03*
X116078000Y-101346000D03*
X116078000Y-102616000D03*
X116078000Y-103886000D03*
X116078000Y-105156000D03*
X116078000Y-106426000D03*
%TD*%
D11*
%TO.C,U8*%
X134722000Y-54596000D03*
X134722000Y-56896000D03*
D12*
X128422000Y-56896000D03*
D11*
X134722000Y-59196000D03*
%TD*%
D13*
%TO.C,R55*%
X77952000Y-78326500D03*
X81052000Y-78326500D03*
%TD*%
D14*
%TO.C,IC1*%
X87595000Y-75057000D03*
X87595000Y-73787000D03*
X87595000Y-72517000D03*
X87595000Y-71247000D03*
X87595000Y-69977000D03*
X87595000Y-68707000D03*
X87595000Y-67437000D03*
X87595000Y-66167000D03*
X92745000Y-66167000D03*
X92745000Y-67437000D03*
X92745000Y-68707000D03*
X92745000Y-69977000D03*
X92745000Y-71247000D03*
X92745000Y-72517000D03*
X92745000Y-73787000D03*
X92745000Y-75057000D03*
%TD*%
D15*
%TO.C,R2*%
X67818000Y-71068000D03*
X67818000Y-74168000D03*
%TD*%
D16*
%TO.C,R41*%
X145034000Y-102896000D03*
X145034000Y-99796000D03*
%TD*%
%TO.C,R53*%
X71374000Y-52858000D03*
X71374000Y-49758000D03*
%TD*%
%TO.C,R30*%
X115159500Y-111245500D03*
X115159500Y-108145500D03*
%TD*%
D17*
%TO.C,R51*%
X141250000Y-96520000D03*
X138150000Y-96520000D03*
%TD*%
D13*
%TO.C,R54*%
X76174000Y-52324000D03*
X79274000Y-52324000D03*
%TD*%
D16*
%TO.C,R40*%
X123190000Y-108484000D03*
X123190000Y-105384000D03*
%TD*%
D18*
%TO.C,U4*%
X70866000Y-84582000D03*
X72136000Y-84582000D03*
X73406000Y-84582000D03*
X74676000Y-84582000D03*
X75946000Y-84582000D03*
X77216000Y-84582000D03*
X78486000Y-84582000D03*
X78486000Y-89532000D03*
X77216000Y-89532000D03*
X75946000Y-89532000D03*
X74676000Y-89532000D03*
X73406000Y-89532000D03*
X72136000Y-89532000D03*
X70866000Y-89532000D03*
%TD*%
D19*
%TO.C,C4*%
X136884500Y-59436000D03*
X138959500Y-59436000D03*
%TD*%
D20*
%TO.C,IC3*%
X106992000Y-104531000D03*
X105722000Y-104531000D03*
X104452000Y-104531000D03*
X103182000Y-104531000D03*
X101912000Y-104531000D03*
X100642000Y-104531000D03*
X99372000Y-104531000D03*
X98102000Y-104531000D03*
X98102000Y-99381000D03*
X99372000Y-99381000D03*
X100642000Y-99381000D03*
X101912000Y-99381000D03*
X103182000Y-99381000D03*
X104452000Y-99381000D03*
X105722000Y-99381000D03*
X106992000Y-99381000D03*
%TD*%
D16*
%TO.C,R28*%
X91694000Y-112802000D03*
X91694000Y-109702000D03*
%TD*%
D15*
%TO.C,R50*%
X127762000Y-100454629D03*
X127762000Y-103554629D03*
%TD*%
D16*
%TO.C,R52*%
X147574000Y-102896000D03*
X147574000Y-99796000D03*
%TD*%
D13*
%TO.C,R15*%
X65760000Y-87376000D03*
X68860000Y-87376000D03*
%TD*%
D16*
%TO.C,R39*%
X128270000Y-108484000D03*
X128270000Y-105384000D03*
%TD*%
D15*
%TO.C,R45*%
X129032000Y-95478000D03*
X129032000Y-98578000D03*
%TD*%
D21*
%TO.C,C5*%
X125730000Y-57636500D03*
X125730000Y-59711500D03*
%TD*%
D17*
%TO.C,R11*%
X72416000Y-78326500D03*
X69316000Y-78326500D03*
%TD*%
D15*
%TO.C,R38*%
X120904000Y-98526000D03*
X120904000Y-101626000D03*
%TD*%
D17*
%TO.C,R46*%
X146330000Y-96520000D03*
X143230000Y-96520000D03*
%TD*%
D16*
%TO.C,R43*%
X125730000Y-108484000D03*
X125730000Y-105384000D03*
%TD*%
D10*
%TO.C,U6*%
X87884000Y-107924000D03*
X87884000Y-106654000D03*
X87884000Y-105384000D03*
X87884000Y-104114000D03*
X87884000Y-102844000D03*
X87884000Y-101574000D03*
X87884000Y-100304000D03*
X92834000Y-100304000D03*
X92834000Y-101574000D03*
X92834000Y-102844000D03*
X92834000Y-104114000D03*
X92834000Y-105384000D03*
X92834000Y-106654000D03*
X92834000Y-107924000D03*
%TD*%
D18*
%TO.C,U5*%
X71120000Y-100206000D03*
X72390000Y-100206000D03*
X73660000Y-100206000D03*
X74930000Y-100206000D03*
X76200000Y-100206000D03*
X77470000Y-100206000D03*
X78740000Y-100206000D03*
X78740000Y-105156000D03*
X77470000Y-105156000D03*
X76200000Y-105156000D03*
X74930000Y-105156000D03*
X73660000Y-105156000D03*
X72390000Y-105156000D03*
X71120000Y-105156000D03*
%TD*%
D17*
%TO.C,R3*%
X68098000Y-57404000D03*
X64998000Y-57404000D03*
%TD*%
D16*
%TO.C,R42*%
X142494000Y-102896000D03*
X142494000Y-99796000D03*
%TD*%
%TO.C,R44*%
X133350000Y-102056629D03*
X133350000Y-98956629D03*
%TD*%
D20*
%TO.C,IC2*%
X93345000Y-85633000D03*
X92075000Y-85633000D03*
X90805000Y-85633000D03*
X89535000Y-85633000D03*
X88265000Y-85633000D03*
X86995000Y-85633000D03*
X85725000Y-85633000D03*
X84455000Y-85633000D03*
X84455000Y-80483000D03*
X85725000Y-80483000D03*
X86995000Y-80483000D03*
X88265000Y-80483000D03*
X89535000Y-80483000D03*
X90805000Y-80483000D03*
X92075000Y-80483000D03*
X93345000Y-80483000D03*
%TD*%
D13*
%TO.C,R17*%
X66249500Y-102616000D03*
X69349500Y-102616000D03*
%TD*%
D18*
%TO.C,U3*%
X70612000Y-56199000D03*
X71882000Y-56199000D03*
X73152000Y-56199000D03*
X74422000Y-56199000D03*
X75692000Y-56199000D03*
X76962000Y-56199000D03*
X78232000Y-56199000D03*
X78232000Y-61149000D03*
X76962000Y-61149000D03*
X75692000Y-61149000D03*
X74422000Y-61149000D03*
X73152000Y-61149000D03*
X71882000Y-61149000D03*
X70612000Y-61149000D03*
%TD*%
D22*
%TO.C,U2*%
X78740000Y-75213500D03*
X77470000Y-75213500D03*
X76200000Y-75213500D03*
X74930000Y-75213500D03*
X73660000Y-75213500D03*
X72390000Y-75213500D03*
X71120000Y-75213500D03*
X71120000Y-70263500D03*
X72390000Y-70263500D03*
X73660000Y-70263500D03*
X74930000Y-70263500D03*
X76200000Y-70263500D03*
X77470000Y-70263500D03*
X78740000Y-70263500D03*
%TD*%
D23*
%TO.C,C8*%
X136949000Y-84758629D03*
X134874000Y-84758629D03*
%TD*%
M02*
