%TF.GenerationSoftware,KiCad,Pcbnew,7.0.1*%
%TF.CreationDate,2023-04-28T17:30:44+02:00*%
%TF.ProjectId,Hexapod_Hardware,48657861-706f-4645-9f48-617264776172,rev?*%
%TF.SameCoordinates,Original*%
%TF.FileFunction,Soldermask,Top*%
%TF.FilePolarity,Negative*%
%FSLAX46Y46*%
G04 Gerber Fmt 4.6, Leading zero omitted, Abs format (unit mm)*
G04 Created by KiCad (PCBNEW 7.0.1) date 2023-04-28 17:30:44*
%MOMM*%
%LPD*%
G01*
G04 APERTURE LIST*
G04 Aperture macros list*
%AMRoundRect*
0 Rectangle with rounded corners*
0 $1 Rounding radius*
0 $2 $3 $4 $5 $6 $7 $8 $9 X,Y pos of 4 corners*
0 Add a 4 corners polygon primitive as box body*
4,1,4,$2,$3,$4,$5,$6,$7,$8,$9,$2,$3,0*
0 Add four circle primitives for the rounded corners*
1,1,$1+$1,$2,$3*
1,1,$1+$1,$4,$5*
1,1,$1+$1,$6,$7*
1,1,$1+$1,$8,$9*
0 Add four rect primitives between the rounded corners*
20,1,$1+$1,$2,$3,$4,$5,0*
20,1,$1+$1,$4,$5,$6,$7,0*
20,1,$1+$1,$6,$7,$8,$9,0*
20,1,$1+$1,$8,$9,$2,$3,0*%
G04 Aperture macros list end*
%ADD10R,1.700000X1.700000*%
%ADD11O,1.700000X1.700000*%
%ADD12RoundRect,0.250000X-0.625000X0.400000X-0.625000X-0.400000X0.625000X-0.400000X0.625000X0.400000X0*%
%ADD13RoundRect,0.125000X-0.625000X-0.125000X0.625000X-0.125000X0.625000X0.125000X-0.625000X0.125000X0*%
%ADD14RoundRect,0.125000X-0.125000X-0.625000X0.125000X-0.625000X0.125000X0.625000X-0.125000X0.625000X0*%
%ADD15RoundRect,0.250000X0.400000X0.625000X-0.400000X0.625000X-0.400000X-0.625000X0.400000X-0.625000X0*%
%ADD16RoundRect,0.250000X0.337500X0.475000X-0.337500X0.475000X-0.337500X-0.475000X0.337500X-0.475000X0*%
%ADD17R,1.980000X3.960000*%
%ADD18O,1.980000X3.960000*%
%ADD19RoundRect,0.250000X0.475000X-0.337500X0.475000X0.337500X-0.475000X0.337500X-0.475000X-0.337500X0*%
%ADD20RoundRect,0.150000X0.825000X0.150000X-0.825000X0.150000X-0.825000X-0.150000X0.825000X-0.150000X0*%
%ADD21RoundRect,0.250000X-0.400000X-0.625000X0.400000X-0.625000X0.400000X0.625000X-0.400000X0.625000X0*%
%ADD22R,1.000000X1.000000*%
%ADD23O,1.000000X1.000000*%
%ADD24RoundRect,0.250000X0.625000X-0.400000X0.625000X0.400000X-0.625000X0.400000X-0.625000X-0.400000X0*%
%ADD25RoundRect,0.150000X-0.150000X0.825000X-0.150000X-0.825000X0.150000X-0.825000X0.150000X0.825000X0*%
%ADD26RoundRect,0.150000X0.700000X-0.150000X0.700000X0.150000X-0.700000X0.150000X-0.700000X-0.150000X0*%
%ADD27RoundRect,0.250000X1.150000X-0.250000X1.150000X0.250000X-1.150000X0.250000X-1.150000X-0.250000X0*%
%ADD28RoundRect,0.150000X0.150000X0.700000X-0.150000X0.700000X-0.150000X-0.700000X0.150000X-0.700000X0*%
%ADD29RoundRect,0.250000X0.250000X1.150000X-0.250000X1.150000X-0.250000X-1.150000X0.250000X-1.150000X0*%
%ADD30O,1.800000X1.800000*%
%ADD31O,1.500000X1.500000*%
%ADD32R,3.500000X1.700000*%
%ADD33R,1.700000X3.500000*%
G04 APERTURE END LIST*
D10*
%TO.C,J20*%
X132588000Y-81466629D03*
D11*
X132588000Y-84006629D03*
X132588000Y-86546629D03*
X132588000Y-89086629D03*
%TD*%
D12*
%TO.C,R9*%
X78486000Y-57378000D03*
X78486000Y-60478000D03*
%TD*%
D13*
%TO.C,IC4*%
X135779000Y-82974629D03*
X135779000Y-83774629D03*
X135779000Y-84574629D03*
X135779000Y-85374629D03*
X135779000Y-86174629D03*
X135779000Y-86974629D03*
X135779000Y-87774629D03*
X135779000Y-88574629D03*
D14*
X137154000Y-89949629D03*
X137954000Y-89949629D03*
X138754000Y-89949629D03*
X139554000Y-89949629D03*
X140354000Y-89949629D03*
X141154000Y-89949629D03*
X141954000Y-89949629D03*
X142754000Y-89949629D03*
D13*
X144129000Y-88574629D03*
X144129000Y-87774629D03*
X144129000Y-86974629D03*
X144129000Y-86174629D03*
X144129000Y-85374629D03*
X144129000Y-84574629D03*
X144129000Y-83774629D03*
X144129000Y-82974629D03*
D14*
X142754000Y-81599629D03*
X141954000Y-81599629D03*
X141154000Y-81599629D03*
X140354000Y-81599629D03*
X139554000Y-81599629D03*
X138754000Y-81599629D03*
X137954000Y-81599629D03*
X137154000Y-81599629D03*
%TD*%
D15*
%TO.C,R23*%
X72162000Y-92137000D03*
X69062000Y-92137000D03*
%TD*%
D16*
%TO.C,C2*%
X106759500Y-99889000D03*
X104684500Y-99889000D03*
%TD*%
D17*
%TO.C,J18*%
X133321000Y-49530000D03*
D18*
X128321000Y-49530000D03*
%TD*%
D19*
%TO.C,C1*%
X93218000Y-74697500D03*
X93218000Y-72622500D03*
%TD*%
D12*
%TO.C,R5*%
X70612000Y-57124000D03*
X70612000Y-60224000D03*
%TD*%
%TO.C,R62*%
X95504000Y-101066000D03*
X95504000Y-104166000D03*
%TD*%
D20*
%TO.C,U10*%
X130237000Y-102284629D03*
X130237000Y-101014629D03*
X130237000Y-99744629D03*
X130237000Y-98474629D03*
X130237000Y-97204629D03*
X130237000Y-95934629D03*
X130237000Y-94664629D03*
X125287000Y-94664629D03*
X125287000Y-95934629D03*
X125287000Y-97204629D03*
X125287000Y-98474629D03*
X125287000Y-99744629D03*
X125287000Y-101014629D03*
X125287000Y-102284629D03*
%TD*%
D21*
%TO.C,R18*%
X66249500Y-102616000D03*
X69349500Y-102616000D03*
%TD*%
D22*
%TO.C,J9*%
X63500000Y-99060000D03*
D23*
X62230000Y-99060000D03*
X60960000Y-99060000D03*
%TD*%
D10*
%TO.C,J2*%
X86614000Y-45212000D03*
D11*
X89154000Y-45212000D03*
X91694000Y-45212000D03*
X94234000Y-45212000D03*
%TD*%
D22*
%TO.C,J11*%
X86873000Y-110490000D03*
D23*
X85603000Y-110490000D03*
X84333000Y-110490000D03*
%TD*%
D15*
%TO.C,R12*%
X72188000Y-64262000D03*
X69088000Y-64262000D03*
%TD*%
D21*
%TO.C,R8*%
X72364000Y-72390000D03*
X75464000Y-72390000D03*
%TD*%
D12*
%TO.C,R6*%
X75692000Y-57378000D03*
X75692000Y-60478000D03*
%TD*%
%TO.C,R48*%
X125730000Y-105384000D03*
X125730000Y-108484000D03*
%TD*%
%TO.C,R36*%
X95250000Y-106628000D03*
X95250000Y-109728000D03*
%TD*%
D21*
%TO.C,R16*%
X65760000Y-87376000D03*
X68860000Y-87376000D03*
%TD*%
D12*
%TO.C,R14*%
X81280000Y-59410000D03*
X81280000Y-62510000D03*
%TD*%
D24*
%TO.C,R27*%
X115159500Y-111245500D03*
X115159500Y-108145500D03*
%TD*%
D10*
%TO.C,J23*%
X144018000Y-76949629D03*
D11*
X141478000Y-76949629D03*
X138938000Y-76949629D03*
%TD*%
D22*
%TO.C,J12*%
X93980000Y-113030000D03*
D23*
X95250000Y-113030000D03*
X96520000Y-113030000D03*
%TD*%
D15*
%TO.C,R25*%
X72162000Y-107696000D03*
X69062000Y-107696000D03*
%TD*%
D22*
%TO.C,J14*%
X118461500Y-108933500D03*
D23*
X119731500Y-108933500D03*
X121001500Y-108933500D03*
%TD*%
D24*
%TO.C,R49*%
X133350000Y-95784000D03*
X133350000Y-92684000D03*
%TD*%
D12*
%TO.C,R20*%
X74676000Y-89291000D03*
X74676000Y-92391000D03*
%TD*%
D21*
%TO.C,R59*%
X77190000Y-92137000D03*
X80290000Y-92137000D03*
%TD*%
%TO.C,R63*%
X109519500Y-106901500D03*
X112619500Y-106901500D03*
%TD*%
D12*
%TO.C,R31*%
X115889000Y-101763000D03*
X115889000Y-104863000D03*
%TD*%
D22*
%TO.C,J10*%
X63500000Y-102362000D03*
D23*
X62230000Y-102362000D03*
X60960000Y-102362000D03*
%TD*%
D22*
%TO.C,J4*%
X62738000Y-60198000D03*
D23*
X61468000Y-60198000D03*
X60198000Y-60198000D03*
%TD*%
D15*
%TO.C,R7*%
X77496000Y-79850500D03*
X74396000Y-79850500D03*
%TD*%
D25*
%TO.C,U11*%
X147828000Y-94299000D03*
X146558000Y-94299000D03*
X145288000Y-94299000D03*
X144018000Y-94299000D03*
X142748000Y-94299000D03*
X141478000Y-94299000D03*
X140208000Y-94299000D03*
X140208000Y-99249000D03*
X141478000Y-99249000D03*
X142748000Y-99249000D03*
X144018000Y-99249000D03*
X145288000Y-99249000D03*
X146558000Y-99249000D03*
X147828000Y-99249000D03*
%TD*%
D26*
%TO.C,J15*%
X88056000Y-72487000D03*
X88056000Y-71237000D03*
X88056000Y-69987000D03*
X88056000Y-68737000D03*
D27*
X84706000Y-74337000D03*
X84706000Y-66887000D03*
%TD*%
D21*
%TO.C,R57*%
X77952000Y-107696000D03*
X81052000Y-107696000D03*
%TD*%
D15*
%TO.C,R60*%
X72162000Y-81723000D03*
X69062000Y-81723000D03*
%TD*%
D12*
%TO.C,R1*%
X67818000Y-71068000D03*
X67818000Y-74168000D03*
%TD*%
D15*
%TO.C,R56*%
X74194000Y-70104000D03*
X71094000Y-70104000D03*
%TD*%
D21*
%TO.C,R19*%
X72110000Y-85533000D03*
X75210000Y-85533000D03*
%TD*%
D28*
%TO.C,J17*%
X104491000Y-106254000D03*
X103241000Y-106254000D03*
X101991000Y-106254000D03*
X100741000Y-106254000D03*
D29*
X106341000Y-109604000D03*
X98891000Y-109604000D03*
%TD*%
D22*
%TO.C,J6*%
X62489000Y-77470000D03*
D23*
X61219000Y-77470000D03*
X59949000Y-77470000D03*
%TD*%
D28*
%TO.C,J16*%
X90805000Y-91002000D03*
X89555000Y-91002000D03*
X88305000Y-91002000D03*
X87055000Y-91002000D03*
D29*
X92655000Y-94352000D03*
X85205000Y-94352000D03*
%TD*%
D15*
%TO.C,R64*%
X117947000Y-98995000D03*
X114847000Y-98995000D03*
%TD*%
D21*
%TO.C,R13*%
X77698000Y-70706500D03*
X80798000Y-70706500D03*
%TD*%
D22*
%TO.C,J3*%
X62738000Y-56388000D03*
D23*
X61468000Y-56388000D03*
X60198000Y-56388000D03*
%TD*%
D22*
%TO.C,J5*%
X62484000Y-73914000D03*
D23*
X61214000Y-73914000D03*
X59944000Y-73914000D03*
%TD*%
D10*
%TO.C,J22*%
X131572000Y-106094629D03*
D11*
X134112000Y-106094629D03*
X136652000Y-106094629D03*
X139192000Y-106094629D03*
X141732000Y-106094629D03*
X144272000Y-106094629D03*
X146812000Y-106094629D03*
%TD*%
D21*
%TO.C,R24*%
X77444000Y-85533000D03*
X80544000Y-85533000D03*
%TD*%
D15*
%TO.C,R37*%
X112613000Y-98995000D03*
X109513000Y-98995000D03*
%TD*%
D10*
%TO.C,J21*%
X147066000Y-80958629D03*
D11*
X147066000Y-83498629D03*
X147066000Y-86038629D03*
X147066000Y-88578629D03*
%TD*%
D12*
%TO.C,R33*%
X92456000Y-102564000D03*
X92456000Y-105664000D03*
%TD*%
%TO.C,R61*%
X83566000Y-104622000D03*
X83566000Y-107722000D03*
%TD*%
D16*
%TO.C,C3*%
X92710000Y-80772000D03*
X90635000Y-80772000D03*
%TD*%
D24*
%TO.C,R34*%
X111571000Y-104609000D03*
X111571000Y-101509000D03*
%TD*%
%TO.C,R32*%
X88646000Y-105664000D03*
X88646000Y-102564000D03*
%TD*%
D17*
%TO.C,J19*%
X144751000Y-49784000D03*
D18*
X139751000Y-49784000D03*
%TD*%
D22*
%TO.C,J13*%
X112268000Y-110236000D03*
D23*
X110998000Y-110236000D03*
X109728000Y-110236000D03*
%TD*%
D22*
%TO.C,J8*%
X62484000Y-89916000D03*
D23*
X61214000Y-89916000D03*
X59944000Y-89916000D03*
%TD*%
D24*
%TO.C,R10*%
X73152000Y-60478000D03*
X73152000Y-57378000D03*
%TD*%
D15*
%TO.C,R22*%
X77242000Y-104902000D03*
X74142000Y-104902000D03*
%TD*%
%TO.C,R4*%
X68098000Y-57404000D03*
X64998000Y-57404000D03*
%TD*%
%TO.C,R58*%
X72162000Y-97790000D03*
X69062000Y-97790000D03*
%TD*%
D24*
%TO.C,R35*%
X85598000Y-101600000D03*
X85598000Y-98500000D03*
%TD*%
D21*
%TO.C,R26*%
X77952000Y-97790000D03*
X81052000Y-97790000D03*
%TD*%
D30*
%TO.C,U1*%
X108019000Y-45342000D03*
D31*
X108319000Y-48372000D03*
X113169000Y-48372000D03*
D30*
X113469000Y-45342000D03*
D11*
X101854000Y-45212000D03*
D32*
X100954000Y-45212000D03*
D11*
X101854000Y-47752000D03*
D32*
X100954000Y-47752000D03*
D10*
X101854000Y-50292000D03*
D32*
X100954000Y-50292000D03*
D11*
X101854000Y-52832000D03*
D32*
X100954000Y-52832000D03*
D11*
X101854000Y-55372000D03*
D32*
X100954000Y-55372000D03*
D11*
X101854000Y-57912000D03*
D32*
X100954000Y-57912000D03*
D11*
X101854000Y-60452000D03*
D32*
X100954000Y-60452000D03*
D10*
X101854000Y-62992000D03*
D32*
X100954000Y-62992000D03*
D11*
X101854000Y-65532000D03*
D32*
X100954000Y-65532000D03*
D11*
X101854000Y-68072000D03*
D32*
X100954000Y-68072000D03*
D11*
X101854000Y-70612000D03*
D32*
X100954000Y-70612000D03*
D11*
X101854000Y-73152000D03*
D32*
X100954000Y-73152000D03*
D10*
X101854000Y-75692000D03*
D32*
X100954000Y-75692000D03*
D11*
X101854000Y-78232000D03*
D32*
X100954000Y-78232000D03*
D11*
X101854000Y-80772000D03*
D32*
X100954000Y-80772000D03*
D11*
X101854000Y-83312000D03*
D32*
X100954000Y-83312000D03*
D11*
X101854000Y-85852000D03*
D32*
X100954000Y-85852000D03*
D10*
X101854000Y-88392000D03*
D32*
X100954000Y-88392000D03*
D11*
X101854000Y-90932000D03*
D32*
X100954000Y-90932000D03*
D11*
X101854000Y-93472000D03*
D32*
X100954000Y-93472000D03*
D11*
X119634000Y-93472000D03*
D32*
X120534000Y-93472000D03*
D11*
X119634000Y-90932000D03*
D32*
X120534000Y-90932000D03*
D10*
X119634000Y-88392000D03*
D32*
X120534000Y-88392000D03*
D11*
X119634000Y-85852000D03*
D32*
X120534000Y-85852000D03*
D11*
X119634000Y-83312000D03*
D32*
X120534000Y-83312000D03*
D11*
X119634000Y-80772000D03*
D32*
X120534000Y-80772000D03*
D11*
X119634000Y-78232000D03*
D32*
X120534000Y-78232000D03*
D10*
X119634000Y-75692000D03*
D32*
X120534000Y-75692000D03*
D11*
X119634000Y-73152000D03*
D32*
X120534000Y-73152000D03*
D11*
X119634000Y-70612000D03*
D32*
X120534000Y-70612000D03*
D11*
X119634000Y-68072000D03*
D32*
X120534000Y-68072000D03*
D11*
X119634000Y-65532000D03*
D32*
X120534000Y-65532000D03*
D10*
X119634000Y-62992000D03*
D32*
X120534000Y-62992000D03*
D11*
X119634000Y-60452000D03*
D32*
X120534000Y-60452000D03*
D11*
X119634000Y-57912000D03*
D32*
X120534000Y-57912000D03*
D11*
X119634000Y-55372000D03*
D32*
X120534000Y-55372000D03*
D11*
X119634000Y-52832000D03*
D32*
X120534000Y-52832000D03*
D10*
X119634000Y-50292000D03*
D32*
X120534000Y-50292000D03*
D11*
X119634000Y-47752000D03*
D32*
X120534000Y-47752000D03*
D11*
X119634000Y-45212000D03*
D32*
X120534000Y-45212000D03*
D11*
X108204000Y-93242000D03*
D33*
X108204000Y-94142000D03*
D10*
X110744000Y-93242000D03*
D33*
X110744000Y-94142000D03*
D11*
X113284000Y-93242000D03*
D33*
X113284000Y-94142000D03*
%TD*%
D22*
%TO.C,J7*%
X62484000Y-86614000D03*
D23*
X61214000Y-86614000D03*
X59944000Y-86614000D03*
%TD*%
D21*
%TO.C,R21*%
X71856000Y-100330000D03*
X74956000Y-100330000D03*
%TD*%
D10*
%TO.C,J1*%
X127000000Y-65532000D03*
D11*
X127000000Y-68072000D03*
X127000000Y-70612000D03*
X127000000Y-73152000D03*
X127000000Y-75692000D03*
%TD*%
D21*
%TO.C,R47*%
X141452000Y-103124000D03*
X144552000Y-103124000D03*
%TD*%
D24*
%TO.C,R29*%
X91694000Y-112776000D03*
X91694000Y-109676000D03*
%TD*%
M02*
