%TF.GenerationSoftware,KiCad,Pcbnew,7.0.1*%
%TF.CreationDate,2023-04-28T17:30:44+02:00*%
%TF.ProjectId,Hexapod_Hardware,48657861-706f-4645-9f48-617264776172,rev?*%
%TF.SameCoordinates,Original*%
%TF.FileFunction,Legend,Bot*%
%TF.FilePolarity,Positive*%
%FSLAX46Y46*%
G04 Gerber Fmt 4.6, Leading zero omitted, Abs format (unit mm)*
G04 Created by KiCad (PCBNEW 7.0.1) date 2023-04-28 17:30:44*
%MOMM*%
%LPD*%
G01*
G04 APERTURE LIST*
%ADD10C,0.150000*%
%ADD11C,0.120000*%
G04 APERTURE END LIST*
D10*
%TO.C,U7*%
X114364904Y-107358619D02*
X114364904Y-108168142D01*
X114364904Y-108168142D02*
X114317285Y-108263380D01*
X114317285Y-108263380D02*
X114269666Y-108311000D01*
X114269666Y-108311000D02*
X114174428Y-108358619D01*
X114174428Y-108358619D02*
X113983952Y-108358619D01*
X113983952Y-108358619D02*
X113888714Y-108311000D01*
X113888714Y-108311000D02*
X113841095Y-108263380D01*
X113841095Y-108263380D02*
X113793476Y-108168142D01*
X113793476Y-108168142D02*
X113793476Y-107358619D01*
X113412523Y-107358619D02*
X112745857Y-107358619D01*
X112745857Y-107358619D02*
X113174428Y-108358619D01*
%TO.C,U8*%
X132333904Y-51858619D02*
X132333904Y-52668142D01*
X132333904Y-52668142D02*
X132286285Y-52763380D01*
X132286285Y-52763380D02*
X132238666Y-52811000D01*
X132238666Y-52811000D02*
X132143428Y-52858619D01*
X132143428Y-52858619D02*
X131952952Y-52858619D01*
X131952952Y-52858619D02*
X131857714Y-52811000D01*
X131857714Y-52811000D02*
X131810095Y-52763380D01*
X131810095Y-52763380D02*
X131762476Y-52668142D01*
X131762476Y-52668142D02*
X131762476Y-51858619D01*
X131143428Y-52287190D02*
X131238666Y-52239571D01*
X131238666Y-52239571D02*
X131286285Y-52191952D01*
X131286285Y-52191952D02*
X131333904Y-52096714D01*
X131333904Y-52096714D02*
X131333904Y-52049095D01*
X131333904Y-52049095D02*
X131286285Y-51953857D01*
X131286285Y-51953857D02*
X131238666Y-51906238D01*
X131238666Y-51906238D02*
X131143428Y-51858619D01*
X131143428Y-51858619D02*
X130952952Y-51858619D01*
X130952952Y-51858619D02*
X130857714Y-51906238D01*
X130857714Y-51906238D02*
X130810095Y-51953857D01*
X130810095Y-51953857D02*
X130762476Y-52049095D01*
X130762476Y-52049095D02*
X130762476Y-52096714D01*
X130762476Y-52096714D02*
X130810095Y-52191952D01*
X130810095Y-52191952D02*
X130857714Y-52239571D01*
X130857714Y-52239571D02*
X130952952Y-52287190D01*
X130952952Y-52287190D02*
X131143428Y-52287190D01*
X131143428Y-52287190D02*
X131238666Y-52334809D01*
X131238666Y-52334809D02*
X131286285Y-52382428D01*
X131286285Y-52382428D02*
X131333904Y-52477666D01*
X131333904Y-52477666D02*
X131333904Y-52668142D01*
X131333904Y-52668142D02*
X131286285Y-52763380D01*
X131286285Y-52763380D02*
X131238666Y-52811000D01*
X131238666Y-52811000D02*
X131143428Y-52858619D01*
X131143428Y-52858619D02*
X130952952Y-52858619D01*
X130952952Y-52858619D02*
X130857714Y-52811000D01*
X130857714Y-52811000D02*
X130810095Y-52763380D01*
X130810095Y-52763380D02*
X130762476Y-52668142D01*
X130762476Y-52668142D02*
X130762476Y-52477666D01*
X130762476Y-52477666D02*
X130810095Y-52382428D01*
X130810095Y-52382428D02*
X130857714Y-52334809D01*
X130857714Y-52334809D02*
X130952952Y-52287190D01*
%TO.C,R55*%
X80144857Y-80609119D02*
X80478190Y-80132928D01*
X80716285Y-80609119D02*
X80716285Y-79609119D01*
X80716285Y-79609119D02*
X80335333Y-79609119D01*
X80335333Y-79609119D02*
X80240095Y-79656738D01*
X80240095Y-79656738D02*
X80192476Y-79704357D01*
X80192476Y-79704357D02*
X80144857Y-79799595D01*
X80144857Y-79799595D02*
X80144857Y-79942452D01*
X80144857Y-79942452D02*
X80192476Y-80037690D01*
X80192476Y-80037690D02*
X80240095Y-80085309D01*
X80240095Y-80085309D02*
X80335333Y-80132928D01*
X80335333Y-80132928D02*
X80716285Y-80132928D01*
X79240095Y-79609119D02*
X79716285Y-79609119D01*
X79716285Y-79609119D02*
X79763904Y-80085309D01*
X79763904Y-80085309D02*
X79716285Y-80037690D01*
X79716285Y-80037690D02*
X79621047Y-79990071D01*
X79621047Y-79990071D02*
X79382952Y-79990071D01*
X79382952Y-79990071D02*
X79287714Y-80037690D01*
X79287714Y-80037690D02*
X79240095Y-80085309D01*
X79240095Y-80085309D02*
X79192476Y-80180547D01*
X79192476Y-80180547D02*
X79192476Y-80418642D01*
X79192476Y-80418642D02*
X79240095Y-80513880D01*
X79240095Y-80513880D02*
X79287714Y-80561500D01*
X79287714Y-80561500D02*
X79382952Y-80609119D01*
X79382952Y-80609119D02*
X79621047Y-80609119D01*
X79621047Y-80609119D02*
X79716285Y-80561500D01*
X79716285Y-80561500D02*
X79763904Y-80513880D01*
X78287714Y-79609119D02*
X78763904Y-79609119D01*
X78763904Y-79609119D02*
X78811523Y-80085309D01*
X78811523Y-80085309D02*
X78763904Y-80037690D01*
X78763904Y-80037690D02*
X78668666Y-79990071D01*
X78668666Y-79990071D02*
X78430571Y-79990071D01*
X78430571Y-79990071D02*
X78335333Y-80037690D01*
X78335333Y-80037690D02*
X78287714Y-80085309D01*
X78287714Y-80085309D02*
X78240095Y-80180547D01*
X78240095Y-80180547D02*
X78240095Y-80418642D01*
X78240095Y-80418642D02*
X78287714Y-80513880D01*
X78287714Y-80513880D02*
X78335333Y-80561500D01*
X78335333Y-80561500D02*
X78430571Y-80609119D01*
X78430571Y-80609119D02*
X78668666Y-80609119D01*
X78668666Y-80609119D02*
X78763904Y-80561500D01*
X78763904Y-80561500D02*
X78811523Y-80513880D01*
%TO.C,IC1*%
X91146189Y-76974619D02*
X91146189Y-75974619D01*
X90098571Y-76879380D02*
X90146190Y-76927000D01*
X90146190Y-76927000D02*
X90289047Y-76974619D01*
X90289047Y-76974619D02*
X90384285Y-76974619D01*
X90384285Y-76974619D02*
X90527142Y-76927000D01*
X90527142Y-76927000D02*
X90622380Y-76831761D01*
X90622380Y-76831761D02*
X90669999Y-76736523D01*
X90669999Y-76736523D02*
X90717618Y-76546047D01*
X90717618Y-76546047D02*
X90717618Y-76403190D01*
X90717618Y-76403190D02*
X90669999Y-76212714D01*
X90669999Y-76212714D02*
X90622380Y-76117476D01*
X90622380Y-76117476D02*
X90527142Y-76022238D01*
X90527142Y-76022238D02*
X90384285Y-75974619D01*
X90384285Y-75974619D02*
X90289047Y-75974619D01*
X90289047Y-75974619D02*
X90146190Y-76022238D01*
X90146190Y-76022238D02*
X90098571Y-76069857D01*
X89146190Y-76974619D02*
X89717618Y-76974619D01*
X89431904Y-76974619D02*
X89431904Y-75974619D01*
X89431904Y-75974619D02*
X89527142Y-76117476D01*
X89527142Y-76117476D02*
X89622380Y-76212714D01*
X89622380Y-76212714D02*
X89717618Y-76260333D01*
%TO.C,R2*%
X67370619Y-72451333D02*
X66894428Y-72118000D01*
X67370619Y-71879905D02*
X66370619Y-71879905D01*
X66370619Y-71879905D02*
X66370619Y-72260857D01*
X66370619Y-72260857D02*
X66418238Y-72356095D01*
X66418238Y-72356095D02*
X66465857Y-72403714D01*
X66465857Y-72403714D02*
X66561095Y-72451333D01*
X66561095Y-72451333D02*
X66703952Y-72451333D01*
X66703952Y-72451333D02*
X66799190Y-72403714D01*
X66799190Y-72403714D02*
X66846809Y-72356095D01*
X66846809Y-72356095D02*
X66894428Y-72260857D01*
X66894428Y-72260857D02*
X66894428Y-71879905D01*
X66465857Y-72832286D02*
X66418238Y-72879905D01*
X66418238Y-72879905D02*
X66370619Y-72975143D01*
X66370619Y-72975143D02*
X66370619Y-73213238D01*
X66370619Y-73213238D02*
X66418238Y-73308476D01*
X66418238Y-73308476D02*
X66465857Y-73356095D01*
X66465857Y-73356095D02*
X66561095Y-73403714D01*
X66561095Y-73403714D02*
X66656333Y-73403714D01*
X66656333Y-73403714D02*
X66799190Y-73356095D01*
X66799190Y-73356095D02*
X67370619Y-72784667D01*
X67370619Y-72784667D02*
X67370619Y-73403714D01*
%TO.C,R41*%
X147316619Y-100703142D02*
X146840428Y-100369809D01*
X147316619Y-100131714D02*
X146316619Y-100131714D01*
X146316619Y-100131714D02*
X146316619Y-100512666D01*
X146316619Y-100512666D02*
X146364238Y-100607904D01*
X146364238Y-100607904D02*
X146411857Y-100655523D01*
X146411857Y-100655523D02*
X146507095Y-100703142D01*
X146507095Y-100703142D02*
X146649952Y-100703142D01*
X146649952Y-100703142D02*
X146745190Y-100655523D01*
X146745190Y-100655523D02*
X146792809Y-100607904D01*
X146792809Y-100607904D02*
X146840428Y-100512666D01*
X146840428Y-100512666D02*
X146840428Y-100131714D01*
X146649952Y-101560285D02*
X147316619Y-101560285D01*
X146269000Y-101322190D02*
X146983285Y-101084095D01*
X146983285Y-101084095D02*
X146983285Y-101703142D01*
X147316619Y-102607904D02*
X147316619Y-102036476D01*
X147316619Y-102322190D02*
X146316619Y-102322190D01*
X146316619Y-102322190D02*
X146459476Y-102226952D01*
X146459476Y-102226952D02*
X146554714Y-102131714D01*
X146554714Y-102131714D02*
X146602333Y-102036476D01*
%TO.C,R53*%
X73656619Y-50665142D02*
X73180428Y-50331809D01*
X73656619Y-50093714D02*
X72656619Y-50093714D01*
X72656619Y-50093714D02*
X72656619Y-50474666D01*
X72656619Y-50474666D02*
X72704238Y-50569904D01*
X72704238Y-50569904D02*
X72751857Y-50617523D01*
X72751857Y-50617523D02*
X72847095Y-50665142D01*
X72847095Y-50665142D02*
X72989952Y-50665142D01*
X72989952Y-50665142D02*
X73085190Y-50617523D01*
X73085190Y-50617523D02*
X73132809Y-50569904D01*
X73132809Y-50569904D02*
X73180428Y-50474666D01*
X73180428Y-50474666D02*
X73180428Y-50093714D01*
X72656619Y-51569904D02*
X72656619Y-51093714D01*
X72656619Y-51093714D02*
X73132809Y-51046095D01*
X73132809Y-51046095D02*
X73085190Y-51093714D01*
X73085190Y-51093714D02*
X73037571Y-51188952D01*
X73037571Y-51188952D02*
X73037571Y-51427047D01*
X73037571Y-51427047D02*
X73085190Y-51522285D01*
X73085190Y-51522285D02*
X73132809Y-51569904D01*
X73132809Y-51569904D02*
X73228047Y-51617523D01*
X73228047Y-51617523D02*
X73466142Y-51617523D01*
X73466142Y-51617523D02*
X73561380Y-51569904D01*
X73561380Y-51569904D02*
X73609000Y-51522285D01*
X73609000Y-51522285D02*
X73656619Y-51427047D01*
X73656619Y-51427047D02*
X73656619Y-51188952D01*
X73656619Y-51188952D02*
X73609000Y-51093714D01*
X73609000Y-51093714D02*
X73561380Y-51046095D01*
X72656619Y-51950857D02*
X72656619Y-52569904D01*
X72656619Y-52569904D02*
X73037571Y-52236571D01*
X73037571Y-52236571D02*
X73037571Y-52379428D01*
X73037571Y-52379428D02*
X73085190Y-52474666D01*
X73085190Y-52474666D02*
X73132809Y-52522285D01*
X73132809Y-52522285D02*
X73228047Y-52569904D01*
X73228047Y-52569904D02*
X73466142Y-52569904D01*
X73466142Y-52569904D02*
X73561380Y-52522285D01*
X73561380Y-52522285D02*
X73609000Y-52474666D01*
X73609000Y-52474666D02*
X73656619Y-52379428D01*
X73656619Y-52379428D02*
X73656619Y-52093714D01*
X73656619Y-52093714D02*
X73609000Y-51998476D01*
X73609000Y-51998476D02*
X73561380Y-51950857D01*
%TO.C,R30*%
X117442119Y-109052642D02*
X116965928Y-108719309D01*
X117442119Y-108481214D02*
X116442119Y-108481214D01*
X116442119Y-108481214D02*
X116442119Y-108862166D01*
X116442119Y-108862166D02*
X116489738Y-108957404D01*
X116489738Y-108957404D02*
X116537357Y-109005023D01*
X116537357Y-109005023D02*
X116632595Y-109052642D01*
X116632595Y-109052642D02*
X116775452Y-109052642D01*
X116775452Y-109052642D02*
X116870690Y-109005023D01*
X116870690Y-109005023D02*
X116918309Y-108957404D01*
X116918309Y-108957404D02*
X116965928Y-108862166D01*
X116965928Y-108862166D02*
X116965928Y-108481214D01*
X116442119Y-109385976D02*
X116442119Y-110005023D01*
X116442119Y-110005023D02*
X116823071Y-109671690D01*
X116823071Y-109671690D02*
X116823071Y-109814547D01*
X116823071Y-109814547D02*
X116870690Y-109909785D01*
X116870690Y-109909785D02*
X116918309Y-109957404D01*
X116918309Y-109957404D02*
X117013547Y-110005023D01*
X117013547Y-110005023D02*
X117251642Y-110005023D01*
X117251642Y-110005023D02*
X117346880Y-109957404D01*
X117346880Y-109957404D02*
X117394500Y-109909785D01*
X117394500Y-109909785D02*
X117442119Y-109814547D01*
X117442119Y-109814547D02*
X117442119Y-109528833D01*
X117442119Y-109528833D02*
X117394500Y-109433595D01*
X117394500Y-109433595D02*
X117346880Y-109385976D01*
X116442119Y-110624071D02*
X116442119Y-110719309D01*
X116442119Y-110719309D02*
X116489738Y-110814547D01*
X116489738Y-110814547D02*
X116537357Y-110862166D01*
X116537357Y-110862166D02*
X116632595Y-110909785D01*
X116632595Y-110909785D02*
X116823071Y-110957404D01*
X116823071Y-110957404D02*
X117061166Y-110957404D01*
X117061166Y-110957404D02*
X117251642Y-110909785D01*
X117251642Y-110909785D02*
X117346880Y-110862166D01*
X117346880Y-110862166D02*
X117394500Y-110814547D01*
X117394500Y-110814547D02*
X117442119Y-110719309D01*
X117442119Y-110719309D02*
X117442119Y-110624071D01*
X117442119Y-110624071D02*
X117394500Y-110528833D01*
X117394500Y-110528833D02*
X117346880Y-110481214D01*
X117346880Y-110481214D02*
X117251642Y-110433595D01*
X117251642Y-110433595D02*
X117061166Y-110385976D01*
X117061166Y-110385976D02*
X116823071Y-110385976D01*
X116823071Y-110385976D02*
X116632595Y-110433595D01*
X116632595Y-110433595D02*
X116537357Y-110481214D01*
X116537357Y-110481214D02*
X116489738Y-110528833D01*
X116489738Y-110528833D02*
X116442119Y-110624071D01*
%TO.C,R51*%
X140342857Y-95162619D02*
X140676190Y-94686428D01*
X140914285Y-95162619D02*
X140914285Y-94162619D01*
X140914285Y-94162619D02*
X140533333Y-94162619D01*
X140533333Y-94162619D02*
X140438095Y-94210238D01*
X140438095Y-94210238D02*
X140390476Y-94257857D01*
X140390476Y-94257857D02*
X140342857Y-94353095D01*
X140342857Y-94353095D02*
X140342857Y-94495952D01*
X140342857Y-94495952D02*
X140390476Y-94591190D01*
X140390476Y-94591190D02*
X140438095Y-94638809D01*
X140438095Y-94638809D02*
X140533333Y-94686428D01*
X140533333Y-94686428D02*
X140914285Y-94686428D01*
X139438095Y-94162619D02*
X139914285Y-94162619D01*
X139914285Y-94162619D02*
X139961904Y-94638809D01*
X139961904Y-94638809D02*
X139914285Y-94591190D01*
X139914285Y-94591190D02*
X139819047Y-94543571D01*
X139819047Y-94543571D02*
X139580952Y-94543571D01*
X139580952Y-94543571D02*
X139485714Y-94591190D01*
X139485714Y-94591190D02*
X139438095Y-94638809D01*
X139438095Y-94638809D02*
X139390476Y-94734047D01*
X139390476Y-94734047D02*
X139390476Y-94972142D01*
X139390476Y-94972142D02*
X139438095Y-95067380D01*
X139438095Y-95067380D02*
X139485714Y-95115000D01*
X139485714Y-95115000D02*
X139580952Y-95162619D01*
X139580952Y-95162619D02*
X139819047Y-95162619D01*
X139819047Y-95162619D02*
X139914285Y-95115000D01*
X139914285Y-95115000D02*
X139961904Y-95067380D01*
X138438095Y-95162619D02*
X139009523Y-95162619D01*
X138723809Y-95162619D02*
X138723809Y-94162619D01*
X138723809Y-94162619D02*
X138819047Y-94305476D01*
X138819047Y-94305476D02*
X138914285Y-94400714D01*
X138914285Y-94400714D02*
X139009523Y-94448333D01*
%TO.C,R54*%
X78366857Y-54606619D02*
X78700190Y-54130428D01*
X78938285Y-54606619D02*
X78938285Y-53606619D01*
X78938285Y-53606619D02*
X78557333Y-53606619D01*
X78557333Y-53606619D02*
X78462095Y-53654238D01*
X78462095Y-53654238D02*
X78414476Y-53701857D01*
X78414476Y-53701857D02*
X78366857Y-53797095D01*
X78366857Y-53797095D02*
X78366857Y-53939952D01*
X78366857Y-53939952D02*
X78414476Y-54035190D01*
X78414476Y-54035190D02*
X78462095Y-54082809D01*
X78462095Y-54082809D02*
X78557333Y-54130428D01*
X78557333Y-54130428D02*
X78938285Y-54130428D01*
X77462095Y-53606619D02*
X77938285Y-53606619D01*
X77938285Y-53606619D02*
X77985904Y-54082809D01*
X77985904Y-54082809D02*
X77938285Y-54035190D01*
X77938285Y-54035190D02*
X77843047Y-53987571D01*
X77843047Y-53987571D02*
X77604952Y-53987571D01*
X77604952Y-53987571D02*
X77509714Y-54035190D01*
X77509714Y-54035190D02*
X77462095Y-54082809D01*
X77462095Y-54082809D02*
X77414476Y-54178047D01*
X77414476Y-54178047D02*
X77414476Y-54416142D01*
X77414476Y-54416142D02*
X77462095Y-54511380D01*
X77462095Y-54511380D02*
X77509714Y-54559000D01*
X77509714Y-54559000D02*
X77604952Y-54606619D01*
X77604952Y-54606619D02*
X77843047Y-54606619D01*
X77843047Y-54606619D02*
X77938285Y-54559000D01*
X77938285Y-54559000D02*
X77985904Y-54511380D01*
X76557333Y-53939952D02*
X76557333Y-54606619D01*
X76795428Y-53559000D02*
X77033523Y-54273285D01*
X77033523Y-54273285D02*
X76414476Y-54273285D01*
%TO.C,R40*%
X124922619Y-106291142D02*
X124446428Y-105957809D01*
X124922619Y-105719714D02*
X123922619Y-105719714D01*
X123922619Y-105719714D02*
X123922619Y-106100666D01*
X123922619Y-106100666D02*
X123970238Y-106195904D01*
X123970238Y-106195904D02*
X124017857Y-106243523D01*
X124017857Y-106243523D02*
X124113095Y-106291142D01*
X124113095Y-106291142D02*
X124255952Y-106291142D01*
X124255952Y-106291142D02*
X124351190Y-106243523D01*
X124351190Y-106243523D02*
X124398809Y-106195904D01*
X124398809Y-106195904D02*
X124446428Y-106100666D01*
X124446428Y-106100666D02*
X124446428Y-105719714D01*
X124255952Y-107148285D02*
X124922619Y-107148285D01*
X123875000Y-106910190D02*
X124589285Y-106672095D01*
X124589285Y-106672095D02*
X124589285Y-107291142D01*
X123922619Y-107862571D02*
X123922619Y-107957809D01*
X123922619Y-107957809D02*
X123970238Y-108053047D01*
X123970238Y-108053047D02*
X124017857Y-108100666D01*
X124017857Y-108100666D02*
X124113095Y-108148285D01*
X124113095Y-108148285D02*
X124303571Y-108195904D01*
X124303571Y-108195904D02*
X124541666Y-108195904D01*
X124541666Y-108195904D02*
X124732142Y-108148285D01*
X124732142Y-108148285D02*
X124827380Y-108100666D01*
X124827380Y-108100666D02*
X124875000Y-108053047D01*
X124875000Y-108053047D02*
X124922619Y-107957809D01*
X124922619Y-107957809D02*
X124922619Y-107862571D01*
X124922619Y-107862571D02*
X124875000Y-107767333D01*
X124875000Y-107767333D02*
X124827380Y-107719714D01*
X124827380Y-107719714D02*
X124732142Y-107672095D01*
X124732142Y-107672095D02*
X124541666Y-107624476D01*
X124541666Y-107624476D02*
X124303571Y-107624476D01*
X124303571Y-107624476D02*
X124113095Y-107672095D01*
X124113095Y-107672095D02*
X124017857Y-107719714D01*
X124017857Y-107719714D02*
X123970238Y-107767333D01*
X123970238Y-107767333D02*
X123922619Y-107862571D01*
%TO.C,U4*%
X68858619Y-86295095D02*
X69668142Y-86295095D01*
X69668142Y-86295095D02*
X69763380Y-86342714D01*
X69763380Y-86342714D02*
X69811000Y-86390333D01*
X69811000Y-86390333D02*
X69858619Y-86485571D01*
X69858619Y-86485571D02*
X69858619Y-86676047D01*
X69858619Y-86676047D02*
X69811000Y-86771285D01*
X69811000Y-86771285D02*
X69763380Y-86818904D01*
X69763380Y-86818904D02*
X69668142Y-86866523D01*
X69668142Y-86866523D02*
X68858619Y-86866523D01*
X69191952Y-87771285D02*
X69858619Y-87771285D01*
X68811000Y-87533190D02*
X69525285Y-87295095D01*
X69525285Y-87295095D02*
X69525285Y-87914142D01*
%TO.C,C4*%
X138088666Y-61483380D02*
X138136285Y-61531000D01*
X138136285Y-61531000D02*
X138279142Y-61578619D01*
X138279142Y-61578619D02*
X138374380Y-61578619D01*
X138374380Y-61578619D02*
X138517237Y-61531000D01*
X138517237Y-61531000D02*
X138612475Y-61435761D01*
X138612475Y-61435761D02*
X138660094Y-61340523D01*
X138660094Y-61340523D02*
X138707713Y-61150047D01*
X138707713Y-61150047D02*
X138707713Y-61007190D01*
X138707713Y-61007190D02*
X138660094Y-60816714D01*
X138660094Y-60816714D02*
X138612475Y-60721476D01*
X138612475Y-60721476D02*
X138517237Y-60626238D01*
X138517237Y-60626238D02*
X138374380Y-60578619D01*
X138374380Y-60578619D02*
X138279142Y-60578619D01*
X138279142Y-60578619D02*
X138136285Y-60626238D01*
X138136285Y-60626238D02*
X138088666Y-60673857D01*
X137231523Y-60911952D02*
X137231523Y-61578619D01*
X137469618Y-60531000D02*
X137707713Y-61245285D01*
X137707713Y-61245285D02*
X137088666Y-61245285D01*
%TO.C,IC3*%
X108909619Y-100979810D02*
X107909619Y-100979810D01*
X108814380Y-102027428D02*
X108862000Y-101979809D01*
X108862000Y-101979809D02*
X108909619Y-101836952D01*
X108909619Y-101836952D02*
X108909619Y-101741714D01*
X108909619Y-101741714D02*
X108862000Y-101598857D01*
X108862000Y-101598857D02*
X108766761Y-101503619D01*
X108766761Y-101503619D02*
X108671523Y-101456000D01*
X108671523Y-101456000D02*
X108481047Y-101408381D01*
X108481047Y-101408381D02*
X108338190Y-101408381D01*
X108338190Y-101408381D02*
X108147714Y-101456000D01*
X108147714Y-101456000D02*
X108052476Y-101503619D01*
X108052476Y-101503619D02*
X107957238Y-101598857D01*
X107957238Y-101598857D02*
X107909619Y-101741714D01*
X107909619Y-101741714D02*
X107909619Y-101836952D01*
X107909619Y-101836952D02*
X107957238Y-101979809D01*
X107957238Y-101979809D02*
X108004857Y-102027428D01*
X107909619Y-102360762D02*
X107909619Y-102979809D01*
X107909619Y-102979809D02*
X108290571Y-102646476D01*
X108290571Y-102646476D02*
X108290571Y-102789333D01*
X108290571Y-102789333D02*
X108338190Y-102884571D01*
X108338190Y-102884571D02*
X108385809Y-102932190D01*
X108385809Y-102932190D02*
X108481047Y-102979809D01*
X108481047Y-102979809D02*
X108719142Y-102979809D01*
X108719142Y-102979809D02*
X108814380Y-102932190D01*
X108814380Y-102932190D02*
X108862000Y-102884571D01*
X108862000Y-102884571D02*
X108909619Y-102789333D01*
X108909619Y-102789333D02*
X108909619Y-102503619D01*
X108909619Y-102503619D02*
X108862000Y-102408381D01*
X108862000Y-102408381D02*
X108814380Y-102360762D01*
%TO.C,R28*%
X93976619Y-110609142D02*
X93500428Y-110275809D01*
X93976619Y-110037714D02*
X92976619Y-110037714D01*
X92976619Y-110037714D02*
X92976619Y-110418666D01*
X92976619Y-110418666D02*
X93024238Y-110513904D01*
X93024238Y-110513904D02*
X93071857Y-110561523D01*
X93071857Y-110561523D02*
X93167095Y-110609142D01*
X93167095Y-110609142D02*
X93309952Y-110609142D01*
X93309952Y-110609142D02*
X93405190Y-110561523D01*
X93405190Y-110561523D02*
X93452809Y-110513904D01*
X93452809Y-110513904D02*
X93500428Y-110418666D01*
X93500428Y-110418666D02*
X93500428Y-110037714D01*
X93071857Y-110990095D02*
X93024238Y-111037714D01*
X93024238Y-111037714D02*
X92976619Y-111132952D01*
X92976619Y-111132952D02*
X92976619Y-111371047D01*
X92976619Y-111371047D02*
X93024238Y-111466285D01*
X93024238Y-111466285D02*
X93071857Y-111513904D01*
X93071857Y-111513904D02*
X93167095Y-111561523D01*
X93167095Y-111561523D02*
X93262333Y-111561523D01*
X93262333Y-111561523D02*
X93405190Y-111513904D01*
X93405190Y-111513904D02*
X93976619Y-110942476D01*
X93976619Y-110942476D02*
X93976619Y-111561523D01*
X93405190Y-112132952D02*
X93357571Y-112037714D01*
X93357571Y-112037714D02*
X93309952Y-111990095D01*
X93309952Y-111990095D02*
X93214714Y-111942476D01*
X93214714Y-111942476D02*
X93167095Y-111942476D01*
X93167095Y-111942476D02*
X93071857Y-111990095D01*
X93071857Y-111990095D02*
X93024238Y-112037714D01*
X93024238Y-112037714D02*
X92976619Y-112132952D01*
X92976619Y-112132952D02*
X92976619Y-112323428D01*
X92976619Y-112323428D02*
X93024238Y-112418666D01*
X93024238Y-112418666D02*
X93071857Y-112466285D01*
X93071857Y-112466285D02*
X93167095Y-112513904D01*
X93167095Y-112513904D02*
X93214714Y-112513904D01*
X93214714Y-112513904D02*
X93309952Y-112466285D01*
X93309952Y-112466285D02*
X93357571Y-112418666D01*
X93357571Y-112418666D02*
X93405190Y-112323428D01*
X93405190Y-112323428D02*
X93405190Y-112132952D01*
X93405190Y-112132952D02*
X93452809Y-112037714D01*
X93452809Y-112037714D02*
X93500428Y-111990095D01*
X93500428Y-111990095D02*
X93595666Y-111942476D01*
X93595666Y-111942476D02*
X93786142Y-111942476D01*
X93786142Y-111942476D02*
X93881380Y-111990095D01*
X93881380Y-111990095D02*
X93929000Y-112037714D01*
X93929000Y-112037714D02*
X93976619Y-112132952D01*
X93976619Y-112132952D02*
X93976619Y-112323428D01*
X93976619Y-112323428D02*
X93929000Y-112418666D01*
X93929000Y-112418666D02*
X93881380Y-112466285D01*
X93881380Y-112466285D02*
X93786142Y-112513904D01*
X93786142Y-112513904D02*
X93595666Y-112513904D01*
X93595666Y-112513904D02*
X93500428Y-112466285D01*
X93500428Y-112466285D02*
X93452809Y-112418666D01*
X93452809Y-112418666D02*
X93405190Y-112323428D01*
%TO.C,R50*%
X126404619Y-101361771D02*
X125928428Y-101028438D01*
X126404619Y-100790343D02*
X125404619Y-100790343D01*
X125404619Y-100790343D02*
X125404619Y-101171295D01*
X125404619Y-101171295D02*
X125452238Y-101266533D01*
X125452238Y-101266533D02*
X125499857Y-101314152D01*
X125499857Y-101314152D02*
X125595095Y-101361771D01*
X125595095Y-101361771D02*
X125737952Y-101361771D01*
X125737952Y-101361771D02*
X125833190Y-101314152D01*
X125833190Y-101314152D02*
X125880809Y-101266533D01*
X125880809Y-101266533D02*
X125928428Y-101171295D01*
X125928428Y-101171295D02*
X125928428Y-100790343D01*
X125404619Y-102266533D02*
X125404619Y-101790343D01*
X125404619Y-101790343D02*
X125880809Y-101742724D01*
X125880809Y-101742724D02*
X125833190Y-101790343D01*
X125833190Y-101790343D02*
X125785571Y-101885581D01*
X125785571Y-101885581D02*
X125785571Y-102123676D01*
X125785571Y-102123676D02*
X125833190Y-102218914D01*
X125833190Y-102218914D02*
X125880809Y-102266533D01*
X125880809Y-102266533D02*
X125976047Y-102314152D01*
X125976047Y-102314152D02*
X126214142Y-102314152D01*
X126214142Y-102314152D02*
X126309380Y-102266533D01*
X126309380Y-102266533D02*
X126357000Y-102218914D01*
X126357000Y-102218914D02*
X126404619Y-102123676D01*
X126404619Y-102123676D02*
X126404619Y-101885581D01*
X126404619Y-101885581D02*
X126357000Y-101790343D01*
X126357000Y-101790343D02*
X126309380Y-101742724D01*
X125404619Y-102933200D02*
X125404619Y-103028438D01*
X125404619Y-103028438D02*
X125452238Y-103123676D01*
X125452238Y-103123676D02*
X125499857Y-103171295D01*
X125499857Y-103171295D02*
X125595095Y-103218914D01*
X125595095Y-103218914D02*
X125785571Y-103266533D01*
X125785571Y-103266533D02*
X126023666Y-103266533D01*
X126023666Y-103266533D02*
X126214142Y-103218914D01*
X126214142Y-103218914D02*
X126309380Y-103171295D01*
X126309380Y-103171295D02*
X126357000Y-103123676D01*
X126357000Y-103123676D02*
X126404619Y-103028438D01*
X126404619Y-103028438D02*
X126404619Y-102933200D01*
X126404619Y-102933200D02*
X126357000Y-102837962D01*
X126357000Y-102837962D02*
X126309380Y-102790343D01*
X126309380Y-102790343D02*
X126214142Y-102742724D01*
X126214142Y-102742724D02*
X126023666Y-102695105D01*
X126023666Y-102695105D02*
X125785571Y-102695105D01*
X125785571Y-102695105D02*
X125595095Y-102742724D01*
X125595095Y-102742724D02*
X125499857Y-102790343D01*
X125499857Y-102790343D02*
X125452238Y-102837962D01*
X125452238Y-102837962D02*
X125404619Y-102933200D01*
%TO.C,R52*%
X149856619Y-100703142D02*
X149380428Y-100369809D01*
X149856619Y-100131714D02*
X148856619Y-100131714D01*
X148856619Y-100131714D02*
X148856619Y-100512666D01*
X148856619Y-100512666D02*
X148904238Y-100607904D01*
X148904238Y-100607904D02*
X148951857Y-100655523D01*
X148951857Y-100655523D02*
X149047095Y-100703142D01*
X149047095Y-100703142D02*
X149189952Y-100703142D01*
X149189952Y-100703142D02*
X149285190Y-100655523D01*
X149285190Y-100655523D02*
X149332809Y-100607904D01*
X149332809Y-100607904D02*
X149380428Y-100512666D01*
X149380428Y-100512666D02*
X149380428Y-100131714D01*
X148856619Y-101607904D02*
X148856619Y-101131714D01*
X148856619Y-101131714D02*
X149332809Y-101084095D01*
X149332809Y-101084095D02*
X149285190Y-101131714D01*
X149285190Y-101131714D02*
X149237571Y-101226952D01*
X149237571Y-101226952D02*
X149237571Y-101465047D01*
X149237571Y-101465047D02*
X149285190Y-101560285D01*
X149285190Y-101560285D02*
X149332809Y-101607904D01*
X149332809Y-101607904D02*
X149428047Y-101655523D01*
X149428047Y-101655523D02*
X149666142Y-101655523D01*
X149666142Y-101655523D02*
X149761380Y-101607904D01*
X149761380Y-101607904D02*
X149809000Y-101560285D01*
X149809000Y-101560285D02*
X149856619Y-101465047D01*
X149856619Y-101465047D02*
X149856619Y-101226952D01*
X149856619Y-101226952D02*
X149809000Y-101131714D01*
X149809000Y-101131714D02*
X149761380Y-101084095D01*
X148951857Y-102036476D02*
X148904238Y-102084095D01*
X148904238Y-102084095D02*
X148856619Y-102179333D01*
X148856619Y-102179333D02*
X148856619Y-102417428D01*
X148856619Y-102417428D02*
X148904238Y-102512666D01*
X148904238Y-102512666D02*
X148951857Y-102560285D01*
X148951857Y-102560285D02*
X149047095Y-102607904D01*
X149047095Y-102607904D02*
X149142333Y-102607904D01*
X149142333Y-102607904D02*
X149285190Y-102560285D01*
X149285190Y-102560285D02*
X149856619Y-101988857D01*
X149856619Y-101988857D02*
X149856619Y-102607904D01*
%TO.C,R15*%
X67952857Y-89658619D02*
X68286190Y-89182428D01*
X68524285Y-89658619D02*
X68524285Y-88658619D01*
X68524285Y-88658619D02*
X68143333Y-88658619D01*
X68143333Y-88658619D02*
X68048095Y-88706238D01*
X68048095Y-88706238D02*
X68000476Y-88753857D01*
X68000476Y-88753857D02*
X67952857Y-88849095D01*
X67952857Y-88849095D02*
X67952857Y-88991952D01*
X67952857Y-88991952D02*
X68000476Y-89087190D01*
X68000476Y-89087190D02*
X68048095Y-89134809D01*
X68048095Y-89134809D02*
X68143333Y-89182428D01*
X68143333Y-89182428D02*
X68524285Y-89182428D01*
X67000476Y-89658619D02*
X67571904Y-89658619D01*
X67286190Y-89658619D02*
X67286190Y-88658619D01*
X67286190Y-88658619D02*
X67381428Y-88801476D01*
X67381428Y-88801476D02*
X67476666Y-88896714D01*
X67476666Y-88896714D02*
X67571904Y-88944333D01*
X66095714Y-88658619D02*
X66571904Y-88658619D01*
X66571904Y-88658619D02*
X66619523Y-89134809D01*
X66619523Y-89134809D02*
X66571904Y-89087190D01*
X66571904Y-89087190D02*
X66476666Y-89039571D01*
X66476666Y-89039571D02*
X66238571Y-89039571D01*
X66238571Y-89039571D02*
X66143333Y-89087190D01*
X66143333Y-89087190D02*
X66095714Y-89134809D01*
X66095714Y-89134809D02*
X66048095Y-89230047D01*
X66048095Y-89230047D02*
X66048095Y-89468142D01*
X66048095Y-89468142D02*
X66095714Y-89563380D01*
X66095714Y-89563380D02*
X66143333Y-89611000D01*
X66143333Y-89611000D02*
X66238571Y-89658619D01*
X66238571Y-89658619D02*
X66476666Y-89658619D01*
X66476666Y-89658619D02*
X66571904Y-89611000D01*
X66571904Y-89611000D02*
X66619523Y-89563380D01*
%TO.C,R39*%
X130552619Y-106291142D02*
X130076428Y-105957809D01*
X130552619Y-105719714D02*
X129552619Y-105719714D01*
X129552619Y-105719714D02*
X129552619Y-106100666D01*
X129552619Y-106100666D02*
X129600238Y-106195904D01*
X129600238Y-106195904D02*
X129647857Y-106243523D01*
X129647857Y-106243523D02*
X129743095Y-106291142D01*
X129743095Y-106291142D02*
X129885952Y-106291142D01*
X129885952Y-106291142D02*
X129981190Y-106243523D01*
X129981190Y-106243523D02*
X130028809Y-106195904D01*
X130028809Y-106195904D02*
X130076428Y-106100666D01*
X130076428Y-106100666D02*
X130076428Y-105719714D01*
X129552619Y-106624476D02*
X129552619Y-107243523D01*
X129552619Y-107243523D02*
X129933571Y-106910190D01*
X129933571Y-106910190D02*
X129933571Y-107053047D01*
X129933571Y-107053047D02*
X129981190Y-107148285D01*
X129981190Y-107148285D02*
X130028809Y-107195904D01*
X130028809Y-107195904D02*
X130124047Y-107243523D01*
X130124047Y-107243523D02*
X130362142Y-107243523D01*
X130362142Y-107243523D02*
X130457380Y-107195904D01*
X130457380Y-107195904D02*
X130505000Y-107148285D01*
X130505000Y-107148285D02*
X130552619Y-107053047D01*
X130552619Y-107053047D02*
X130552619Y-106767333D01*
X130552619Y-106767333D02*
X130505000Y-106672095D01*
X130505000Y-106672095D02*
X130457380Y-106624476D01*
X130552619Y-107719714D02*
X130552619Y-107910190D01*
X130552619Y-107910190D02*
X130505000Y-108005428D01*
X130505000Y-108005428D02*
X130457380Y-108053047D01*
X130457380Y-108053047D02*
X130314523Y-108148285D01*
X130314523Y-108148285D02*
X130124047Y-108195904D01*
X130124047Y-108195904D02*
X129743095Y-108195904D01*
X129743095Y-108195904D02*
X129647857Y-108148285D01*
X129647857Y-108148285D02*
X129600238Y-108100666D01*
X129600238Y-108100666D02*
X129552619Y-108005428D01*
X129552619Y-108005428D02*
X129552619Y-107814952D01*
X129552619Y-107814952D02*
X129600238Y-107719714D01*
X129600238Y-107719714D02*
X129647857Y-107672095D01*
X129647857Y-107672095D02*
X129743095Y-107624476D01*
X129743095Y-107624476D02*
X129981190Y-107624476D01*
X129981190Y-107624476D02*
X130076428Y-107672095D01*
X130076428Y-107672095D02*
X130124047Y-107719714D01*
X130124047Y-107719714D02*
X130171666Y-107814952D01*
X130171666Y-107814952D02*
X130171666Y-108005428D01*
X130171666Y-108005428D02*
X130124047Y-108100666D01*
X130124047Y-108100666D02*
X130076428Y-108148285D01*
X130076428Y-108148285D02*
X129981190Y-108195904D01*
%TO.C,R45*%
X127674619Y-96385142D02*
X127198428Y-96051809D01*
X127674619Y-95813714D02*
X126674619Y-95813714D01*
X126674619Y-95813714D02*
X126674619Y-96194666D01*
X126674619Y-96194666D02*
X126722238Y-96289904D01*
X126722238Y-96289904D02*
X126769857Y-96337523D01*
X126769857Y-96337523D02*
X126865095Y-96385142D01*
X126865095Y-96385142D02*
X127007952Y-96385142D01*
X127007952Y-96385142D02*
X127103190Y-96337523D01*
X127103190Y-96337523D02*
X127150809Y-96289904D01*
X127150809Y-96289904D02*
X127198428Y-96194666D01*
X127198428Y-96194666D02*
X127198428Y-95813714D01*
X127007952Y-97242285D02*
X127674619Y-97242285D01*
X126627000Y-97004190D02*
X127341285Y-96766095D01*
X127341285Y-96766095D02*
X127341285Y-97385142D01*
X126674619Y-98242285D02*
X126674619Y-97766095D01*
X126674619Y-97766095D02*
X127150809Y-97718476D01*
X127150809Y-97718476D02*
X127103190Y-97766095D01*
X127103190Y-97766095D02*
X127055571Y-97861333D01*
X127055571Y-97861333D02*
X127055571Y-98099428D01*
X127055571Y-98099428D02*
X127103190Y-98194666D01*
X127103190Y-98194666D02*
X127150809Y-98242285D01*
X127150809Y-98242285D02*
X127246047Y-98289904D01*
X127246047Y-98289904D02*
X127484142Y-98289904D01*
X127484142Y-98289904D02*
X127579380Y-98242285D01*
X127579380Y-98242285D02*
X127627000Y-98194666D01*
X127627000Y-98194666D02*
X127674619Y-98099428D01*
X127674619Y-98099428D02*
X127674619Y-97861333D01*
X127674619Y-97861333D02*
X127627000Y-97766095D01*
X127627000Y-97766095D02*
X127579380Y-97718476D01*
%TO.C,C5*%
X124417380Y-58507333D02*
X124465000Y-58459714D01*
X124465000Y-58459714D02*
X124512619Y-58316857D01*
X124512619Y-58316857D02*
X124512619Y-58221619D01*
X124512619Y-58221619D02*
X124465000Y-58078762D01*
X124465000Y-58078762D02*
X124369761Y-57983524D01*
X124369761Y-57983524D02*
X124274523Y-57935905D01*
X124274523Y-57935905D02*
X124084047Y-57888286D01*
X124084047Y-57888286D02*
X123941190Y-57888286D01*
X123941190Y-57888286D02*
X123750714Y-57935905D01*
X123750714Y-57935905D02*
X123655476Y-57983524D01*
X123655476Y-57983524D02*
X123560238Y-58078762D01*
X123560238Y-58078762D02*
X123512619Y-58221619D01*
X123512619Y-58221619D02*
X123512619Y-58316857D01*
X123512619Y-58316857D02*
X123560238Y-58459714D01*
X123560238Y-58459714D02*
X123607857Y-58507333D01*
X123512619Y-59412095D02*
X123512619Y-58935905D01*
X123512619Y-58935905D02*
X123988809Y-58888286D01*
X123988809Y-58888286D02*
X123941190Y-58935905D01*
X123941190Y-58935905D02*
X123893571Y-59031143D01*
X123893571Y-59031143D02*
X123893571Y-59269238D01*
X123893571Y-59269238D02*
X123941190Y-59364476D01*
X123941190Y-59364476D02*
X123988809Y-59412095D01*
X123988809Y-59412095D02*
X124084047Y-59459714D01*
X124084047Y-59459714D02*
X124322142Y-59459714D01*
X124322142Y-59459714D02*
X124417380Y-59412095D01*
X124417380Y-59412095D02*
X124465000Y-59364476D01*
X124465000Y-59364476D02*
X124512619Y-59269238D01*
X124512619Y-59269238D02*
X124512619Y-59031143D01*
X124512619Y-59031143D02*
X124465000Y-58935905D01*
X124465000Y-58935905D02*
X124417380Y-58888286D01*
%TO.C,R11*%
X71508857Y-76969119D02*
X71842190Y-76492928D01*
X72080285Y-76969119D02*
X72080285Y-75969119D01*
X72080285Y-75969119D02*
X71699333Y-75969119D01*
X71699333Y-75969119D02*
X71604095Y-76016738D01*
X71604095Y-76016738D02*
X71556476Y-76064357D01*
X71556476Y-76064357D02*
X71508857Y-76159595D01*
X71508857Y-76159595D02*
X71508857Y-76302452D01*
X71508857Y-76302452D02*
X71556476Y-76397690D01*
X71556476Y-76397690D02*
X71604095Y-76445309D01*
X71604095Y-76445309D02*
X71699333Y-76492928D01*
X71699333Y-76492928D02*
X72080285Y-76492928D01*
X70556476Y-76969119D02*
X71127904Y-76969119D01*
X70842190Y-76969119D02*
X70842190Y-75969119D01*
X70842190Y-75969119D02*
X70937428Y-76111976D01*
X70937428Y-76111976D02*
X71032666Y-76207214D01*
X71032666Y-76207214D02*
X71127904Y-76254833D01*
X69604095Y-76969119D02*
X70175523Y-76969119D01*
X69889809Y-76969119D02*
X69889809Y-75969119D01*
X69889809Y-75969119D02*
X69985047Y-76111976D01*
X69985047Y-76111976D02*
X70080285Y-76207214D01*
X70080285Y-76207214D02*
X70175523Y-76254833D01*
%TO.C,R38*%
X119546619Y-99433142D02*
X119070428Y-99099809D01*
X119546619Y-98861714D02*
X118546619Y-98861714D01*
X118546619Y-98861714D02*
X118546619Y-99242666D01*
X118546619Y-99242666D02*
X118594238Y-99337904D01*
X118594238Y-99337904D02*
X118641857Y-99385523D01*
X118641857Y-99385523D02*
X118737095Y-99433142D01*
X118737095Y-99433142D02*
X118879952Y-99433142D01*
X118879952Y-99433142D02*
X118975190Y-99385523D01*
X118975190Y-99385523D02*
X119022809Y-99337904D01*
X119022809Y-99337904D02*
X119070428Y-99242666D01*
X119070428Y-99242666D02*
X119070428Y-98861714D01*
X118546619Y-99766476D02*
X118546619Y-100385523D01*
X118546619Y-100385523D02*
X118927571Y-100052190D01*
X118927571Y-100052190D02*
X118927571Y-100195047D01*
X118927571Y-100195047D02*
X118975190Y-100290285D01*
X118975190Y-100290285D02*
X119022809Y-100337904D01*
X119022809Y-100337904D02*
X119118047Y-100385523D01*
X119118047Y-100385523D02*
X119356142Y-100385523D01*
X119356142Y-100385523D02*
X119451380Y-100337904D01*
X119451380Y-100337904D02*
X119499000Y-100290285D01*
X119499000Y-100290285D02*
X119546619Y-100195047D01*
X119546619Y-100195047D02*
X119546619Y-99909333D01*
X119546619Y-99909333D02*
X119499000Y-99814095D01*
X119499000Y-99814095D02*
X119451380Y-99766476D01*
X118975190Y-100956952D02*
X118927571Y-100861714D01*
X118927571Y-100861714D02*
X118879952Y-100814095D01*
X118879952Y-100814095D02*
X118784714Y-100766476D01*
X118784714Y-100766476D02*
X118737095Y-100766476D01*
X118737095Y-100766476D02*
X118641857Y-100814095D01*
X118641857Y-100814095D02*
X118594238Y-100861714D01*
X118594238Y-100861714D02*
X118546619Y-100956952D01*
X118546619Y-100956952D02*
X118546619Y-101147428D01*
X118546619Y-101147428D02*
X118594238Y-101242666D01*
X118594238Y-101242666D02*
X118641857Y-101290285D01*
X118641857Y-101290285D02*
X118737095Y-101337904D01*
X118737095Y-101337904D02*
X118784714Y-101337904D01*
X118784714Y-101337904D02*
X118879952Y-101290285D01*
X118879952Y-101290285D02*
X118927571Y-101242666D01*
X118927571Y-101242666D02*
X118975190Y-101147428D01*
X118975190Y-101147428D02*
X118975190Y-100956952D01*
X118975190Y-100956952D02*
X119022809Y-100861714D01*
X119022809Y-100861714D02*
X119070428Y-100814095D01*
X119070428Y-100814095D02*
X119165666Y-100766476D01*
X119165666Y-100766476D02*
X119356142Y-100766476D01*
X119356142Y-100766476D02*
X119451380Y-100814095D01*
X119451380Y-100814095D02*
X119499000Y-100861714D01*
X119499000Y-100861714D02*
X119546619Y-100956952D01*
X119546619Y-100956952D02*
X119546619Y-101147428D01*
X119546619Y-101147428D02*
X119499000Y-101242666D01*
X119499000Y-101242666D02*
X119451380Y-101290285D01*
X119451380Y-101290285D02*
X119356142Y-101337904D01*
X119356142Y-101337904D02*
X119165666Y-101337904D01*
X119165666Y-101337904D02*
X119070428Y-101290285D01*
X119070428Y-101290285D02*
X119022809Y-101242666D01*
X119022809Y-101242666D02*
X118975190Y-101147428D01*
%TO.C,R46*%
X145422857Y-95162619D02*
X145756190Y-94686428D01*
X145994285Y-95162619D02*
X145994285Y-94162619D01*
X145994285Y-94162619D02*
X145613333Y-94162619D01*
X145613333Y-94162619D02*
X145518095Y-94210238D01*
X145518095Y-94210238D02*
X145470476Y-94257857D01*
X145470476Y-94257857D02*
X145422857Y-94353095D01*
X145422857Y-94353095D02*
X145422857Y-94495952D01*
X145422857Y-94495952D02*
X145470476Y-94591190D01*
X145470476Y-94591190D02*
X145518095Y-94638809D01*
X145518095Y-94638809D02*
X145613333Y-94686428D01*
X145613333Y-94686428D02*
X145994285Y-94686428D01*
X144565714Y-94495952D02*
X144565714Y-95162619D01*
X144803809Y-94115000D02*
X145041904Y-94829285D01*
X145041904Y-94829285D02*
X144422857Y-94829285D01*
X143613333Y-94162619D02*
X143803809Y-94162619D01*
X143803809Y-94162619D02*
X143899047Y-94210238D01*
X143899047Y-94210238D02*
X143946666Y-94257857D01*
X143946666Y-94257857D02*
X144041904Y-94400714D01*
X144041904Y-94400714D02*
X144089523Y-94591190D01*
X144089523Y-94591190D02*
X144089523Y-94972142D01*
X144089523Y-94972142D02*
X144041904Y-95067380D01*
X144041904Y-95067380D02*
X143994285Y-95115000D01*
X143994285Y-95115000D02*
X143899047Y-95162619D01*
X143899047Y-95162619D02*
X143708571Y-95162619D01*
X143708571Y-95162619D02*
X143613333Y-95115000D01*
X143613333Y-95115000D02*
X143565714Y-95067380D01*
X143565714Y-95067380D02*
X143518095Y-94972142D01*
X143518095Y-94972142D02*
X143518095Y-94734047D01*
X143518095Y-94734047D02*
X143565714Y-94638809D01*
X143565714Y-94638809D02*
X143613333Y-94591190D01*
X143613333Y-94591190D02*
X143708571Y-94543571D01*
X143708571Y-94543571D02*
X143899047Y-94543571D01*
X143899047Y-94543571D02*
X143994285Y-94591190D01*
X143994285Y-94591190D02*
X144041904Y-94638809D01*
X144041904Y-94638809D02*
X144089523Y-94734047D01*
%TO.C,R43*%
X128012619Y-106291142D02*
X127536428Y-105957809D01*
X128012619Y-105719714D02*
X127012619Y-105719714D01*
X127012619Y-105719714D02*
X127012619Y-106100666D01*
X127012619Y-106100666D02*
X127060238Y-106195904D01*
X127060238Y-106195904D02*
X127107857Y-106243523D01*
X127107857Y-106243523D02*
X127203095Y-106291142D01*
X127203095Y-106291142D02*
X127345952Y-106291142D01*
X127345952Y-106291142D02*
X127441190Y-106243523D01*
X127441190Y-106243523D02*
X127488809Y-106195904D01*
X127488809Y-106195904D02*
X127536428Y-106100666D01*
X127536428Y-106100666D02*
X127536428Y-105719714D01*
X127345952Y-107148285D02*
X128012619Y-107148285D01*
X126965000Y-106910190D02*
X127679285Y-106672095D01*
X127679285Y-106672095D02*
X127679285Y-107291142D01*
X127012619Y-107576857D02*
X127012619Y-108195904D01*
X127012619Y-108195904D02*
X127393571Y-107862571D01*
X127393571Y-107862571D02*
X127393571Y-108005428D01*
X127393571Y-108005428D02*
X127441190Y-108100666D01*
X127441190Y-108100666D02*
X127488809Y-108148285D01*
X127488809Y-108148285D02*
X127584047Y-108195904D01*
X127584047Y-108195904D02*
X127822142Y-108195904D01*
X127822142Y-108195904D02*
X127917380Y-108148285D01*
X127917380Y-108148285D02*
X127965000Y-108100666D01*
X127965000Y-108100666D02*
X128012619Y-108005428D01*
X128012619Y-108005428D02*
X128012619Y-107719714D01*
X128012619Y-107719714D02*
X127965000Y-107624476D01*
X127965000Y-107624476D02*
X127917380Y-107576857D01*
%TO.C,U6*%
X92136904Y-108856619D02*
X92136904Y-109666142D01*
X92136904Y-109666142D02*
X92089285Y-109761380D01*
X92089285Y-109761380D02*
X92041666Y-109809000D01*
X92041666Y-109809000D02*
X91946428Y-109856619D01*
X91946428Y-109856619D02*
X91755952Y-109856619D01*
X91755952Y-109856619D02*
X91660714Y-109809000D01*
X91660714Y-109809000D02*
X91613095Y-109761380D01*
X91613095Y-109761380D02*
X91565476Y-109666142D01*
X91565476Y-109666142D02*
X91565476Y-108856619D01*
X90660714Y-108856619D02*
X90851190Y-108856619D01*
X90851190Y-108856619D02*
X90946428Y-108904238D01*
X90946428Y-108904238D02*
X90994047Y-108951857D01*
X90994047Y-108951857D02*
X91089285Y-109094714D01*
X91089285Y-109094714D02*
X91136904Y-109285190D01*
X91136904Y-109285190D02*
X91136904Y-109666142D01*
X91136904Y-109666142D02*
X91089285Y-109761380D01*
X91089285Y-109761380D02*
X91041666Y-109809000D01*
X91041666Y-109809000D02*
X90946428Y-109856619D01*
X90946428Y-109856619D02*
X90755952Y-109856619D01*
X90755952Y-109856619D02*
X90660714Y-109809000D01*
X90660714Y-109809000D02*
X90613095Y-109761380D01*
X90613095Y-109761380D02*
X90565476Y-109666142D01*
X90565476Y-109666142D02*
X90565476Y-109428047D01*
X90565476Y-109428047D02*
X90613095Y-109332809D01*
X90613095Y-109332809D02*
X90660714Y-109285190D01*
X90660714Y-109285190D02*
X90755952Y-109237571D01*
X90755952Y-109237571D02*
X90946428Y-109237571D01*
X90946428Y-109237571D02*
X91041666Y-109285190D01*
X91041666Y-109285190D02*
X91089285Y-109332809D01*
X91089285Y-109332809D02*
X91136904Y-109428047D01*
%TO.C,R3*%
X66714666Y-56046619D02*
X67047999Y-55570428D01*
X67286094Y-56046619D02*
X67286094Y-55046619D01*
X67286094Y-55046619D02*
X66905142Y-55046619D01*
X66905142Y-55046619D02*
X66809904Y-55094238D01*
X66809904Y-55094238D02*
X66762285Y-55141857D01*
X66762285Y-55141857D02*
X66714666Y-55237095D01*
X66714666Y-55237095D02*
X66714666Y-55379952D01*
X66714666Y-55379952D02*
X66762285Y-55475190D01*
X66762285Y-55475190D02*
X66809904Y-55522809D01*
X66809904Y-55522809D02*
X66905142Y-55570428D01*
X66905142Y-55570428D02*
X67286094Y-55570428D01*
X66381332Y-55046619D02*
X65762285Y-55046619D01*
X65762285Y-55046619D02*
X66095618Y-55427571D01*
X66095618Y-55427571D02*
X65952761Y-55427571D01*
X65952761Y-55427571D02*
X65857523Y-55475190D01*
X65857523Y-55475190D02*
X65809904Y-55522809D01*
X65809904Y-55522809D02*
X65762285Y-55618047D01*
X65762285Y-55618047D02*
X65762285Y-55856142D01*
X65762285Y-55856142D02*
X65809904Y-55951380D01*
X65809904Y-55951380D02*
X65857523Y-55999000D01*
X65857523Y-55999000D02*
X65952761Y-56046619D01*
X65952761Y-56046619D02*
X66238475Y-56046619D01*
X66238475Y-56046619D02*
X66333713Y-55999000D01*
X66333713Y-55999000D02*
X66381332Y-55951380D01*
%TO.C,R42*%
X144776619Y-100703142D02*
X144300428Y-100369809D01*
X144776619Y-100131714D02*
X143776619Y-100131714D01*
X143776619Y-100131714D02*
X143776619Y-100512666D01*
X143776619Y-100512666D02*
X143824238Y-100607904D01*
X143824238Y-100607904D02*
X143871857Y-100655523D01*
X143871857Y-100655523D02*
X143967095Y-100703142D01*
X143967095Y-100703142D02*
X144109952Y-100703142D01*
X144109952Y-100703142D02*
X144205190Y-100655523D01*
X144205190Y-100655523D02*
X144252809Y-100607904D01*
X144252809Y-100607904D02*
X144300428Y-100512666D01*
X144300428Y-100512666D02*
X144300428Y-100131714D01*
X144109952Y-101560285D02*
X144776619Y-101560285D01*
X143729000Y-101322190D02*
X144443285Y-101084095D01*
X144443285Y-101084095D02*
X144443285Y-101703142D01*
X143871857Y-102036476D02*
X143824238Y-102084095D01*
X143824238Y-102084095D02*
X143776619Y-102179333D01*
X143776619Y-102179333D02*
X143776619Y-102417428D01*
X143776619Y-102417428D02*
X143824238Y-102512666D01*
X143824238Y-102512666D02*
X143871857Y-102560285D01*
X143871857Y-102560285D02*
X143967095Y-102607904D01*
X143967095Y-102607904D02*
X144062333Y-102607904D01*
X144062333Y-102607904D02*
X144205190Y-102560285D01*
X144205190Y-102560285D02*
X144776619Y-101988857D01*
X144776619Y-101988857D02*
X144776619Y-102607904D01*
%TO.C,R44*%
X135632619Y-99863771D02*
X135156428Y-99530438D01*
X135632619Y-99292343D02*
X134632619Y-99292343D01*
X134632619Y-99292343D02*
X134632619Y-99673295D01*
X134632619Y-99673295D02*
X134680238Y-99768533D01*
X134680238Y-99768533D02*
X134727857Y-99816152D01*
X134727857Y-99816152D02*
X134823095Y-99863771D01*
X134823095Y-99863771D02*
X134965952Y-99863771D01*
X134965952Y-99863771D02*
X135061190Y-99816152D01*
X135061190Y-99816152D02*
X135108809Y-99768533D01*
X135108809Y-99768533D02*
X135156428Y-99673295D01*
X135156428Y-99673295D02*
X135156428Y-99292343D01*
X134965952Y-100720914D02*
X135632619Y-100720914D01*
X134585000Y-100482819D02*
X135299285Y-100244724D01*
X135299285Y-100244724D02*
X135299285Y-100863771D01*
X134965952Y-101673295D02*
X135632619Y-101673295D01*
X134585000Y-101435200D02*
X135299285Y-101197105D01*
X135299285Y-101197105D02*
X135299285Y-101816152D01*
%TO.C,IC2*%
X95262619Y-82081810D02*
X94262619Y-82081810D01*
X95167380Y-83129428D02*
X95215000Y-83081809D01*
X95215000Y-83081809D02*
X95262619Y-82938952D01*
X95262619Y-82938952D02*
X95262619Y-82843714D01*
X95262619Y-82843714D02*
X95215000Y-82700857D01*
X95215000Y-82700857D02*
X95119761Y-82605619D01*
X95119761Y-82605619D02*
X95024523Y-82558000D01*
X95024523Y-82558000D02*
X94834047Y-82510381D01*
X94834047Y-82510381D02*
X94691190Y-82510381D01*
X94691190Y-82510381D02*
X94500714Y-82558000D01*
X94500714Y-82558000D02*
X94405476Y-82605619D01*
X94405476Y-82605619D02*
X94310238Y-82700857D01*
X94310238Y-82700857D02*
X94262619Y-82843714D01*
X94262619Y-82843714D02*
X94262619Y-82938952D01*
X94262619Y-82938952D02*
X94310238Y-83081809D01*
X94310238Y-83081809D02*
X94357857Y-83129428D01*
X94357857Y-83510381D02*
X94310238Y-83558000D01*
X94310238Y-83558000D02*
X94262619Y-83653238D01*
X94262619Y-83653238D02*
X94262619Y-83891333D01*
X94262619Y-83891333D02*
X94310238Y-83986571D01*
X94310238Y-83986571D02*
X94357857Y-84034190D01*
X94357857Y-84034190D02*
X94453095Y-84081809D01*
X94453095Y-84081809D02*
X94548333Y-84081809D01*
X94548333Y-84081809D02*
X94691190Y-84034190D01*
X94691190Y-84034190D02*
X95262619Y-83462762D01*
X95262619Y-83462762D02*
X95262619Y-84081809D01*
%TO.C,R17*%
X68442357Y-104898619D02*
X68775690Y-104422428D01*
X69013785Y-104898619D02*
X69013785Y-103898619D01*
X69013785Y-103898619D02*
X68632833Y-103898619D01*
X68632833Y-103898619D02*
X68537595Y-103946238D01*
X68537595Y-103946238D02*
X68489976Y-103993857D01*
X68489976Y-103993857D02*
X68442357Y-104089095D01*
X68442357Y-104089095D02*
X68442357Y-104231952D01*
X68442357Y-104231952D02*
X68489976Y-104327190D01*
X68489976Y-104327190D02*
X68537595Y-104374809D01*
X68537595Y-104374809D02*
X68632833Y-104422428D01*
X68632833Y-104422428D02*
X69013785Y-104422428D01*
X67489976Y-104898619D02*
X68061404Y-104898619D01*
X67775690Y-104898619D02*
X67775690Y-103898619D01*
X67775690Y-103898619D02*
X67870928Y-104041476D01*
X67870928Y-104041476D02*
X67966166Y-104136714D01*
X67966166Y-104136714D02*
X68061404Y-104184333D01*
X67156642Y-103898619D02*
X66489976Y-103898619D01*
X66489976Y-103898619D02*
X66918547Y-104898619D01*
%TO.C,U3*%
X68604619Y-57912095D02*
X69414142Y-57912095D01*
X69414142Y-57912095D02*
X69509380Y-57959714D01*
X69509380Y-57959714D02*
X69557000Y-58007333D01*
X69557000Y-58007333D02*
X69604619Y-58102571D01*
X69604619Y-58102571D02*
X69604619Y-58293047D01*
X69604619Y-58293047D02*
X69557000Y-58388285D01*
X69557000Y-58388285D02*
X69509380Y-58435904D01*
X69509380Y-58435904D02*
X69414142Y-58483523D01*
X69414142Y-58483523D02*
X68604619Y-58483523D01*
X68604619Y-58864476D02*
X68604619Y-59483523D01*
X68604619Y-59483523D02*
X68985571Y-59150190D01*
X68985571Y-59150190D02*
X68985571Y-59293047D01*
X68985571Y-59293047D02*
X69033190Y-59388285D01*
X69033190Y-59388285D02*
X69080809Y-59435904D01*
X69080809Y-59435904D02*
X69176047Y-59483523D01*
X69176047Y-59483523D02*
X69414142Y-59483523D01*
X69414142Y-59483523D02*
X69509380Y-59435904D01*
X69509380Y-59435904D02*
X69557000Y-59388285D01*
X69557000Y-59388285D02*
X69604619Y-59293047D01*
X69604619Y-59293047D02*
X69604619Y-59007333D01*
X69604619Y-59007333D02*
X69557000Y-58912095D01*
X69557000Y-58912095D02*
X69509380Y-58864476D01*
%TO.C,U2*%
X79672619Y-71976595D02*
X80482142Y-71976595D01*
X80482142Y-71976595D02*
X80577380Y-72024214D01*
X80577380Y-72024214D02*
X80625000Y-72071833D01*
X80625000Y-72071833D02*
X80672619Y-72167071D01*
X80672619Y-72167071D02*
X80672619Y-72357547D01*
X80672619Y-72357547D02*
X80625000Y-72452785D01*
X80625000Y-72452785D02*
X80577380Y-72500404D01*
X80577380Y-72500404D02*
X80482142Y-72548023D01*
X80482142Y-72548023D02*
X79672619Y-72548023D01*
X79767857Y-72976595D02*
X79720238Y-73024214D01*
X79720238Y-73024214D02*
X79672619Y-73119452D01*
X79672619Y-73119452D02*
X79672619Y-73357547D01*
X79672619Y-73357547D02*
X79720238Y-73452785D01*
X79720238Y-73452785D02*
X79767857Y-73500404D01*
X79767857Y-73500404D02*
X79863095Y-73548023D01*
X79863095Y-73548023D02*
X79958333Y-73548023D01*
X79958333Y-73548023D02*
X80101190Y-73500404D01*
X80101190Y-73500404D02*
X80672619Y-72928976D01*
X80672619Y-72928976D02*
X80672619Y-73548023D01*
%TO.C,C8*%
X136078166Y-83446009D02*
X136125785Y-83493629D01*
X136125785Y-83493629D02*
X136268642Y-83541248D01*
X136268642Y-83541248D02*
X136363880Y-83541248D01*
X136363880Y-83541248D02*
X136506737Y-83493629D01*
X136506737Y-83493629D02*
X136601975Y-83398390D01*
X136601975Y-83398390D02*
X136649594Y-83303152D01*
X136649594Y-83303152D02*
X136697213Y-83112676D01*
X136697213Y-83112676D02*
X136697213Y-82969819D01*
X136697213Y-82969819D02*
X136649594Y-82779343D01*
X136649594Y-82779343D02*
X136601975Y-82684105D01*
X136601975Y-82684105D02*
X136506737Y-82588867D01*
X136506737Y-82588867D02*
X136363880Y-82541248D01*
X136363880Y-82541248D02*
X136268642Y-82541248D01*
X136268642Y-82541248D02*
X136125785Y-82588867D01*
X136125785Y-82588867D02*
X136078166Y-82636486D01*
X135506737Y-82969819D02*
X135601975Y-82922200D01*
X135601975Y-82922200D02*
X135649594Y-82874581D01*
X135649594Y-82874581D02*
X135697213Y-82779343D01*
X135697213Y-82779343D02*
X135697213Y-82731724D01*
X135697213Y-82731724D02*
X135649594Y-82636486D01*
X135649594Y-82636486D02*
X135601975Y-82588867D01*
X135601975Y-82588867D02*
X135506737Y-82541248D01*
X135506737Y-82541248D02*
X135316261Y-82541248D01*
X135316261Y-82541248D02*
X135221023Y-82588867D01*
X135221023Y-82588867D02*
X135173404Y-82636486D01*
X135173404Y-82636486D02*
X135125785Y-82731724D01*
X135125785Y-82731724D02*
X135125785Y-82779343D01*
X135125785Y-82779343D02*
X135173404Y-82874581D01*
X135173404Y-82874581D02*
X135221023Y-82922200D01*
X135221023Y-82922200D02*
X135316261Y-82969819D01*
X135316261Y-82969819D02*
X135506737Y-82969819D01*
X135506737Y-82969819D02*
X135601975Y-83017438D01*
X135601975Y-83017438D02*
X135649594Y-83065057D01*
X135649594Y-83065057D02*
X135697213Y-83160295D01*
X135697213Y-83160295D02*
X135697213Y-83350771D01*
X135697213Y-83350771D02*
X135649594Y-83446009D01*
X135649594Y-83446009D02*
X135601975Y-83493629D01*
X135601975Y-83493629D02*
X135506737Y-83541248D01*
X135506737Y-83541248D02*
X135316261Y-83541248D01*
X135316261Y-83541248D02*
X135221023Y-83493629D01*
X135221023Y-83493629D02*
X135173404Y-83446009D01*
X135173404Y-83446009D02*
X135125785Y-83350771D01*
X135125785Y-83350771D02*
X135125785Y-83160295D01*
X135125785Y-83160295D02*
X135173404Y-83065057D01*
X135173404Y-83065057D02*
X135221023Y-83017438D01*
X135221023Y-83017438D02*
X135316261Y-82969819D01*
D11*
%TO.C,U7*%
X113603000Y-98181000D02*
X111653000Y-98181000D01*
X113603000Y-98181000D02*
X115553000Y-98181000D01*
X113603000Y-107051000D02*
X110153000Y-107051000D01*
X113603000Y-107051000D02*
X115553000Y-107051000D01*
%TO.C,U8*%
X135672000Y-53486000D02*
X129662000Y-53486000D01*
X133422000Y-60306000D02*
X129662000Y-60306000D01*
X129662000Y-60306000D02*
X129662000Y-59046000D01*
X129662000Y-53486000D02*
X129662000Y-54746000D01*
%TO.C,R55*%
X78774936Y-77416500D02*
X80229064Y-77416500D01*
X78774936Y-79236500D02*
X80229064Y-79236500D01*
%TO.C,IC1*%
X90170000Y-65552000D02*
X88220000Y-65552000D01*
X90170000Y-65552000D02*
X92120000Y-65552000D01*
X90170000Y-75672000D02*
X86720000Y-75672000D01*
X90170000Y-75672000D02*
X92120000Y-75672000D01*
%TO.C,R2*%
X68728000Y-71890936D02*
X68728000Y-73345064D01*
X66908000Y-71890936D02*
X66908000Y-73345064D01*
%TO.C,R41*%
X144124000Y-102073064D02*
X144124000Y-100618936D01*
X145944000Y-102073064D02*
X145944000Y-100618936D01*
%TO.C,R53*%
X70464000Y-52035064D02*
X70464000Y-50580936D01*
X72284000Y-52035064D02*
X72284000Y-50580936D01*
%TO.C,R30*%
X114249500Y-110422564D02*
X114249500Y-108968436D01*
X116069500Y-110422564D02*
X116069500Y-108968436D01*
%TO.C,R51*%
X140427064Y-97430000D02*
X138972936Y-97430000D01*
X140427064Y-95610000D02*
X138972936Y-95610000D01*
%TO.C,R54*%
X76996936Y-51414000D02*
X78451064Y-51414000D01*
X76996936Y-53234000D02*
X78451064Y-53234000D01*
%TO.C,R40*%
X122280000Y-107661064D02*
X122280000Y-106206936D01*
X124100000Y-107661064D02*
X124100000Y-106206936D01*
%TO.C,U4*%
X79111000Y-87057000D02*
X79111000Y-85107000D01*
X79111000Y-87057000D02*
X79111000Y-89007000D01*
X70241000Y-87057000D02*
X70241000Y-83607000D01*
X70241000Y-87057000D02*
X70241000Y-89007000D01*
%TO.C,C4*%
X137660748Y-58701000D02*
X138183252Y-58701000D01*
X137660748Y-60171000D02*
X138183252Y-60171000D01*
%TO.C,IC3*%
X97487000Y-101956000D02*
X97487000Y-103906000D01*
X97487000Y-101956000D02*
X97487000Y-100006000D01*
X107607000Y-101956000D02*
X107607000Y-105406000D01*
X107607000Y-101956000D02*
X107607000Y-100006000D01*
%TO.C,R28*%
X90784000Y-111979064D02*
X90784000Y-110524936D01*
X92604000Y-111979064D02*
X92604000Y-110524936D01*
%TO.C,R50*%
X128672000Y-101277565D02*
X128672000Y-102731693D01*
X126852000Y-101277565D02*
X126852000Y-102731693D01*
%TO.C,R52*%
X146664000Y-102073064D02*
X146664000Y-100618936D01*
X148484000Y-102073064D02*
X148484000Y-100618936D01*
%TO.C,R15*%
X66582936Y-86466000D02*
X68037064Y-86466000D01*
X66582936Y-88286000D02*
X68037064Y-88286000D01*
%TO.C,R39*%
X127360000Y-107661064D02*
X127360000Y-106206936D01*
X129180000Y-107661064D02*
X129180000Y-106206936D01*
%TO.C,R45*%
X129942000Y-96300936D02*
X129942000Y-97755064D01*
X128122000Y-96300936D02*
X128122000Y-97755064D01*
%TO.C,C5*%
X126465000Y-58412748D02*
X126465000Y-58935252D01*
X124995000Y-58412748D02*
X124995000Y-58935252D01*
%TO.C,R11*%
X71593064Y-79236500D02*
X70138936Y-79236500D01*
X71593064Y-77416500D02*
X70138936Y-77416500D01*
%TO.C,R38*%
X121814000Y-99348936D02*
X121814000Y-100803064D01*
X119994000Y-99348936D02*
X119994000Y-100803064D01*
%TO.C,R46*%
X145507064Y-97430000D02*
X144052936Y-97430000D01*
X145507064Y-95610000D02*
X144052936Y-95610000D01*
%TO.C,R43*%
X124820000Y-107661064D02*
X124820000Y-106206936D01*
X126640000Y-107661064D02*
X126640000Y-106206936D01*
%TO.C,U6*%
X90359000Y-99679000D02*
X88409000Y-99679000D01*
X90359000Y-99679000D02*
X92309000Y-99679000D01*
X90359000Y-108549000D02*
X86909000Y-108549000D01*
X90359000Y-108549000D02*
X92309000Y-108549000D01*
%TO.C,U5*%
X79365000Y-102681000D02*
X79365000Y-100731000D01*
X79365000Y-102681000D02*
X79365000Y-104631000D01*
X70495000Y-102681000D02*
X70495000Y-99231000D01*
X70495000Y-102681000D02*
X70495000Y-104631000D01*
%TO.C,R3*%
X67275064Y-58314000D02*
X65820936Y-58314000D01*
X67275064Y-56494000D02*
X65820936Y-56494000D01*
%TO.C,R42*%
X141584000Y-102073064D02*
X141584000Y-100618936D01*
X143404000Y-102073064D02*
X143404000Y-100618936D01*
%TO.C,R44*%
X132440000Y-101233693D02*
X132440000Y-99779565D01*
X134260000Y-101233693D02*
X134260000Y-99779565D01*
%TO.C,IC2*%
X83840000Y-83058000D02*
X83840000Y-85008000D01*
X83840000Y-83058000D02*
X83840000Y-81108000D01*
X93960000Y-83058000D02*
X93960000Y-86508000D01*
X93960000Y-83058000D02*
X93960000Y-81108000D01*
%TO.C,R17*%
X67072436Y-101706000D02*
X68526564Y-101706000D01*
X67072436Y-103526000D02*
X68526564Y-103526000D01*
%TO.C,U3*%
X78857000Y-58674000D02*
X78857000Y-56724000D01*
X78857000Y-58674000D02*
X78857000Y-60624000D01*
X69987000Y-58674000D02*
X69987000Y-55224000D01*
X69987000Y-58674000D02*
X69987000Y-60624000D01*
%TO.C,U2*%
X70495000Y-72738500D02*
X70495000Y-74688500D01*
X70495000Y-72738500D02*
X70495000Y-70788500D01*
X79365000Y-72738500D02*
X79365000Y-76188500D01*
X79365000Y-72738500D02*
X79365000Y-70788500D01*
%TO.C,C8*%
X136172752Y-85493629D02*
X135650248Y-85493629D01*
X136172752Y-84023629D02*
X135650248Y-84023629D01*
%TD*%
M02*
